<svg id="Capa_1" data-name="Capa 1" xmlns="http://www.w3.org/2000/svg" viewBox="0 0 300 140"><title>logo_ac</title><path d="M0,10.46s9.85-2.75,22.75.75,13.6-1.35,13.6-1.35,2.39,1,3.6,7.16c.49,2.5,2.15.44,2-3.11,0,0,7.41,9.65-2.8,17.1,0,0,6,15.45,6.05,18.3s-3.2,3.95-1.65,6.75a90.15,90.15,0,0,0,6.91,10.45c1.75,2,3.52,3.86,2.6,5.5-1.75,3.1-7.51,1.3-5.71,4.6s.25,5-.79,5.36c0,0,1.5,2.25,1.1,3.4s-2.86,2.3-2.21,3.7,3.55,8.55-1.6,10.8a13.32,13.32,0,0,1-9.05.9s-9.95-2.5-9.8,3.75-4.45,9.4-4.8,15.3.6,8.35,2.4,10.75c0,0-17.9-13.9-15.1-33s21.67-4.41,23.69-13.3c.6-2.65-1.09-5.36-.54-6.86s4.1-2.8,3.75-4.4a10.55,10.55,0,0,0-1.6-3.3s2.05-1.4,2.25-2.65S32.59,65.14,32.69,63c0,0,4.16-2.66,3.66-6.21s-7.3-3.62-11.55-15.12a3.92,3.92,0,0,0,2.91-4.52,3.35,3.35,0,0,1-3.05,3.08s.17-3.22-.51-4.65-5-7.27-5-8.47c0,0,4.57,1.12,6,3.78,0,0-1.95-15.6-25.13-20.42"/><path d="M149.55,91v3.44H120.9V91c4.14-.21,6-2.79,4.56-6.77l-5-12.68H93.1L88.43,84.2c-1.48,4.19.11,6.45,4.14,6.77v3.44H74.32V91c3.93-.32,6.05-2.68,7.43-6.77l19.63-53.95c1.59-4.19,1-7.41-3.29-7.73V19.18h17l26.85,65c1.69,4,3.71,6.45,7.64,6.77M118,65.4,106.36,35.09l-11,30.31Z"/><path d="M226.42,89.68v3.55C216,97,205.75,90.93,201.18,86.76c-1-.94-2.58-2.51-4.57-4.39-3.18,5.43-8.94,12-19.38,12-12.82,0-26-7.41-26-20.57,0-10.33,6-17,16.39-19.93-5.56-4.39-10.33-11.07-9.44-19.42,1.1-9.6,9.74-15.24,19.68-15.24,10.43,0,20.27,6.05,21.07,15.34.89,10-5.47,17.65-15.11,20.57,3.48,3.44,9,9,13.91,13.88,3.68-10.44,7.46-16.91,16.1-17.53a11.11,11.11,0,0,1,11.33,7.2c1,2.82,1,7.72-3.48,9.6-3.57,1.57-8.54-.52-9.24-5.84-.39-3.14-1.59-4.18-3.38-4.07-3.18.2-6,7.3-8.24,13.77,3.28,3.35,6,6.06,7.15,7.21,4.47,4.7,11.73,10.33,18.48,10.33M193.63,79.45c-7.65-7.51-18.09-18-22.16-22.13C166.9,60.66,163,66.93,162.63,73c-.9,11.8,7.15,17.75,15.3,17.43,8.64-.31,13.22-6.36,15.7-11M180.81,51.79c4.57-3.45,8.15-8.77,8.35-16.91.3-7.21-4.37-11.8-10.63-11.8-5.77,0-9.94,3.76-10.14,10.13-.3,6.78,6.56,13.25,12.42,18.58"/><path d="M300,71.48l-2.32,15.77c-6.35,5-15,7.62-25.2,7.1-21.57-1-38.3-14.83-38.3-37.58s16.43-37.59,38-37.59c9.07,0,18.95,2.72,25.5,7.1v16.5h-2.82c-3-13-11.09-19.84-22.08-19.73C257.66,23.26,250.3,38,250.3,56.77c0,19.83,9.18,33.09,23.49,33.71,11.9.53,19.25-5.74,23.39-19Z"/><polygon points="78.99 119.52 79.03 119.52 82.64 110.97 83.61 110.97 83.61 120.68 82.81 120.68 82.81 112.52 82.78 112.51 79.29 120.68 78.72 120.68 75.16 112.31 75.12 112.32 75.12 120.68 74.32 120.68 74.32 110.97 75.39 110.97 78.99 119.52"/><polygon points="93.98 115.97 89.63 115.97 89.63 120 94.66 120 94.66 120.68 88.83 120.68 88.83 110.97 94.63 110.97 94.63 111.65 89.63 111.65 89.63 115.29 93.98 115.29 93.98 115.97"/><path d="M99.09,120.68V111h3a3.94,3.94,0,0,1,2.94,1.18,4.17,4.17,0,0,1,1.16,3v1.25a4.13,4.13,0,0,1-1.16,3,4,4,0,0,1-2.94,1.19Zm.8-9V120h2.16a3.08,3.08,0,0,0,2.37-1,3.62,3.62,0,0,0,.93-2.55v-1.27a3.61,3.61,0,0,0-.93-2.53,3.11,3.11,0,0,0-2.37-1Z"/><rect x="111.21" y="110.97" width="0.8" height="9.71"/><path d="M124.12,117.64v0a2.82,2.82,0,0,1-.93,2.28,3.65,3.65,0,0,1-2.52.86,3.25,3.25,0,0,1-2.61-1.17,4.49,4.49,0,0,1-1-3V115a4.52,4.52,0,0,1,1-3,3.25,3.25,0,0,1,2.61-1.17,3.68,3.68,0,0,1,2.53.83,2.82,2.82,0,0,1,.92,2.29v0h-.75a2.39,2.39,0,0,0-.71-1.83,2.86,2.86,0,0,0-2-.65,2.47,2.47,0,0,0-2,1,4,4,0,0,0-.78,2.53v1.59a4,4,0,0,0,.78,2.55,2.47,2.47,0,0,0,2,1,2.86,2.86,0,0,0,2-.64,2.37,2.37,0,0,0,.71-1.86Z"/><rect x="129.12" y="110.97" width="0.8" height="9.71"/><polygon points="142.5 120.68 141.7 120.68 136.18 112.37 136.14 112.37 136.14 120.68 135.34 120.68 135.34 110.97 136.14 110.97 141.66 119.26 141.7 119.25 141.7 110.97 142.5 110.97 142.5 120.68"/><path d="M152.91,118h-4.26l-1,2.71h-.83l3.57-9.71h.75l3.55,9.71h-.83Zm-4-.72h3.75l-1.84-5.14h0Z"/><polygon points="167.92 116.36 170.92 110.97 171.85 110.97 168.31 117.13 168.31 120.68 167.52 120.68 167.52 117.09 164 110.97 164.93 110.97 167.92 116.36"/><path d="M189.27,116.61a4.42,4.42,0,0,1-1,3,3.53,3.53,0,0,1-2.77,1.16,3.46,3.46,0,0,1-2.72-1.16,4.46,4.46,0,0,1-1-3V115a4.47,4.47,0,0,1,1-3,3.43,3.43,0,0,1,2.72-1.16,3.55,3.55,0,0,1,2.77,1.16,4.48,4.48,0,0,1,1,3Zm-.79-1.59a3.83,3.83,0,0,0-.8-2.53,2.72,2.72,0,0,0-2.21-1,2.6,2.6,0,0,0-2.16,1,3.88,3.88,0,0,0-.78,2.53v1.59a3.92,3.92,0,0,0,.78,2.55,2.63,2.63,0,0,0,2.16,1,2.75,2.75,0,0,0,2.22-1,3.93,3.93,0,0,0,.79-2.56Z"/><path d="M194.07,120.68V111h3a3.94,3.94,0,0,1,2.94,1.18,4.18,4.18,0,0,1,1.17,3v1.25a4.14,4.14,0,0,1-1.17,3,4,4,0,0,1-2.94,1.19Zm.8-9V120H197a3.08,3.08,0,0,0,2.37-1,3.63,3.63,0,0,0,.94-2.55v-1.27a3.62,3.62,0,0,0-.94-2.53,3.11,3.11,0,0,0-2.37-1Z"/><path d="M213.11,116.61a4.42,4.42,0,0,1-1,3,3.53,3.53,0,0,1-2.77,1.16,3.46,3.46,0,0,1-2.72-1.16,4.46,4.46,0,0,1-1-3V115a4.47,4.47,0,0,1,1-3,3.43,3.43,0,0,1,2.72-1.16,3.55,3.55,0,0,1,2.77,1.16,4.48,4.48,0,0,1,1,3Zm-.79-1.59a3.83,3.83,0,0,0-.8-2.53,2.72,2.72,0,0,0-2.21-1,2.6,2.6,0,0,0-2.16,1,3.88,3.88,0,0,0-.78,2.53v1.59a3.92,3.92,0,0,0,.78,2.55,2.63,2.63,0,0,0,2.16,1,2.75,2.75,0,0,0,2.22-1,3.93,3.93,0,0,0,.79-2.56Z"/><polygon points="225.06 120.68 224.26 120.68 218.75 112.37 218.71 112.37 218.71 120.68 217.91 120.68 217.91 110.97 218.71 110.97 224.22 119.26 224.26 119.25 224.26 110.97 225.06 110.97 225.06 120.68"/><polygon points="236.68 111.65 233.38 111.65 233.38 120.68 232.58 120.68 232.58 111.65 229.16 111.65 229.16 110.97 236.68 110.97 236.68 111.65"/><path d="M247.91,116.61a4.42,4.42,0,0,1-1,3,3.53,3.53,0,0,1-2.77,1.16,3.46,3.46,0,0,1-2.72-1.16,4.46,4.46,0,0,1-1-3V115a4.47,4.47,0,0,1,1-3,3.43,3.43,0,0,1,2.72-1.16,3.51,3.51,0,0,1,2.76,1.16,4.43,4.43,0,0,1,1,3Zm-.8-1.59a3.83,3.83,0,0,0-.79-2.53,2.72,2.72,0,0,0-2.21-1,2.6,2.6,0,0,0-2.16,1,3.88,3.88,0,0,0-.78,2.53v1.59a3.92,3.92,0,0,0,.78,2.55,2.63,2.63,0,0,0,2.16,1,2.71,2.71,0,0,0,2.21-1,3.88,3.88,0,0,0,.79-2.56Z"/><polygon points="253.51 120 258.52 120 258.52 120.68 252.71 120.68 252.71 110.97 253.51 110.97 253.51 120"/><path d="M269.65,116.61a4.47,4.47,0,0,1-1,3,3.53,3.53,0,0,1-2.77,1.16,3.46,3.46,0,0,1-2.72-1.16,4.46,4.46,0,0,1-1-3V115a4.47,4.47,0,0,1,1-3,3.43,3.43,0,0,1,2.72-1.16,3.51,3.51,0,0,1,2.76,1.16,4.43,4.43,0,0,1,1,3Zm-.8-1.59a3.83,3.83,0,0,0-.79-2.53,2.72,2.72,0,0,0-2.21-1,2.6,2.6,0,0,0-2.16,1,3.88,3.88,0,0,0-.78,2.53v1.59a3.92,3.92,0,0,0,.78,2.55,2.63,2.63,0,0,0,2.16,1,2.71,2.71,0,0,0,2.21-1,3.88,3.88,0,0,0,.79-2.56Z"/><path d="M281.35,119.37a3.07,3.07,0,0,1-1.19,1,4.65,4.65,0,0,1-2.17.46,3.56,3.56,0,0,1-2.74-1.16,4.18,4.18,0,0,1-1.07-3v-1.78a4.18,4.18,0,0,1,1-2.93,3.44,3.44,0,0,1,2.68-1.13,3.61,3.61,0,0,1,2.51.83,2.64,2.64,0,0,1,.9,2.12l0,0h-.73a2.17,2.17,0,0,0-.7-1.66,2.76,2.76,0,0,0-2-.65,2.62,2.62,0,0,0-2.11.94,3.65,3.65,0,0,0-.8,2.43v1.79a3.73,3.73,0,0,0,.83,2.5,2.73,2.73,0,0,0,2.18,1,3.94,3.94,0,0,0,1.66-.3,2,2,0,0,0,.9-.72v-2.48h-2.61V116h3.41Z"/><path d="M288.1,108.25h1l0,0L287.44,110h-.71Zm-.51,12.43h-.8V111h.8Z"/><path d="M298.21,118h-4.27l-1,2.71h-.82l3.57-9.71h.75l3.54,9.71h-.83Zm-4-.72H298l-1.84-5.14h0Z"/></svg>