<?xml version="1.0" encoding="utf-8"?>
<!-- Generator: Adobe Illustrator 22.0.0, SVG Export Plug-In . SVG Version: 6.00 Build 0)  -->
<svg version="1.1" id="Capa_1" xmlns="http://www.w3.org/2000/svg" xmlns:xlink="http://www.w3.org/1999/xlink" x="0px" y="0px"
	 viewBox="0 0 300 300" style="enable-background:new 0 0 300 300;" xml:space="preserve">
<style type="text/css">
	.st0{fill:#FFFFFF;}
</style>
<title>logo_micky</title>
<path class="st0" d="M13.6,204.7c-0.3-0.2-0.5-0.4-0.9-0.6l0,0c0.9-0.9,1.4-2,1.4-3.2v-0.2c0-0.8-0.3-1.6-0.8-2.3
	c-1-1-2.5-1.5-4-1.2l-5.2,0.6l0,0v15.8l0,0l5.3-0.6c0.7,0,1.4-0.2,2-0.5c0.4-0.2,0.9-0.4,1.3-0.7c1.2-0.9,1.9-2.3,1.9-3.8v-0.8
	C14.6,206.2,14.2,205.3,13.6,204.7 M9,199.1c0.5-0.1,0.9-0.1,1.4,0c1.1,0.2,1.6,0.7,1.6,1.5v0.5c0,0.3-0.1,0.5-0.2,0.8
	c-0.5,1-1.5,1.6-2.7,1.7l-3,0.3v-4.4L9,199.1z M12.4,209.1c-0.5,1-1.5,1.6-2.6,1.7l-3.6,0.4V206l0,0l3.2-0.4c0.6-0.1,1.2,0,1.7,0.1
	c0.9,0.1,1.5,0.9,1.4,1.8v0.4C12.6,208.3,12.5,208.7,12.4,209.1"/>
<path class="st0" d="M24,195.4l-1.9,0.2l-0.9,2.4l-5.3,14.1l0,0l2.2-0.3l1.3-3.6l7.4-0.9l1.1,2.6c0.1,0.2,0.2,0.5,0.3,0.7l2.2-0.3
	l0,0L25,197.6C24.4,196.1,24.1,195.4,24,195.4 M20.3,206.2l1.7-4.4c0.8-2,1.1-3.1,1.2-3.1l2.9,6.8L20.3,206.2z"/>
<path class="st0" d="M43,198.4c0-1.2-0.4-2.3-1.2-3.2c-1.1-1.1-2.7-1.6-4.2-1.4l-5.2,0.6l0,0v15.8l0,0l2-0.2l0,0v-5.4l3-0.3
	c0.1,0.2,0.9,1.6,2.4,4.1c0.2,0.4,0.4,0.7,0.6,1l2.4-0.3l0,0l-1.2-1.9c-1.4-2.3-2.1-3.4-2.1-3.4c0.6-0.3,1.2-0.7,1.7-1.2
	C42.3,201.5,43,200,43,198.4 M40.9,198.7c0,0.7-0.2,1.3-0.6,1.8c-0.6,0.9-1.6,1.4-2.7,1.6l-3.2,0.4v-6.2l0,0l2.8-0.3
	c0.8-0.2,1.6,0,2.3,0.4c0.8,0.5,1.4,1.3,1.3,2.3L40.9,198.7z"/>
<path class="st0" d="M61.7,201.7l-1,1.1l-0.1-0.1c-1-1.2-1.8-2.4-2.6-3.5c1.2-0.7,2.3-1.8,3-3c0.2-0.4,0.3-0.9,0.3-1.4
	c0.1-1-0.4-1.9-1.2-2.5c-0.2-0.1-0.4-0.2-0.6-0.3c-0.7-0.3-1.4-0.4-2.1-0.3c-0.9,0.1-1.7,0.5-2.3,1c-0.9,0.7-1.5,1.7-1.5,2.9v0.1
	c0,0.5,0.1,1,0.3,1.4c0.3,0.5,0.7,1.1,1.2,1.8l-0.2,0.2c-0.4,0.3-0.8,0.6-1.2,1c-0.5,0.4-0.9,0.9-1.3,1.5c-0.2,0.3-0.4,0.6-0.6,0.9
	c-0.1,0.3-0.2,0.5-0.3,0.8c-0.1,0.4-0.2,0.9-0.2,1.4v0.1c0,0.5,0.1,1,0.3,1.5c0.4,0.9,1.2,1.6,2.1,1.9c0.6,0.2,1.2,0.2,1.8,0.1
	c1.8-0.3,3.6-1.1,4.9-2.4l0.9,1.1h0.1l1.6-1.4l0,0l-1-1.2c0.2-0.2,0.5-0.6,1.2-1.4L61.7,201.7z M55.7,194.8c0.1-0.2,0.2-0.3,0.3-0.5
	c0.4-0.4,0.9-0.6,1.4-0.7l0,0c0.3,0,0.6,0,0.9,0.1c0.5,0.1,0.9,0.6,0.9,1.2v0.1c0,0.3-0.2,0.6-0.4,0.9c-0.2,0.2-0.4,0.4-0.6,0.6
	c-0.4,0.4-0.9,0.7-1.3,1.1l-0.1-0.2c-0.4-0.5-0.7-0.9-0.9-1.3c-0.2-0.2-0.2-0.5-0.2-0.7C55.5,195.1,55.6,194.9,55.7,194.8
	 M55.4,206.1c-0.3,0.1-0.7,0.1-1,0c-0.8-0.2-1.3-0.9-1.3-1.7c0-0.3,0-0.7,0.1-1c0.2-0.4,0.4-0.7,0.6-1l0.2-0.3
	c0.3-0.4,0.6-0.6,0.8-0.8c0.4-0.4,0.8-0.7,1.2-1c0.9,1.2,1.9,2.5,3,3.9C58.1,205.3,56.8,205.9,55.4,206.1"/>
<polygon class="st0" points="78.8,191.2 78.8,189.1 78.8,189.1 70.4,190.1 70.3,190.1 70.4,205.9 70.4,205.9 72.4,205.7 72.4,205.7 
	72.4,198.8 77.6,198.2 77.6,196.1 72.4,196.7 72.4,191.9 78.8,191.2 "/>
<path class="st0" d="M85.7,188.3l-0.9,2.4l-5.3,14.1l0,0l2.2-0.3l1.3-3.6l7.4-0.9l1.1,2.6c0.1,0.2,0.2,0.5,0.3,0.7l2.2-0.3l0,0
	l-5.5-12.9c-0.6-1.5-0.9-2.2-0.9-2.2L85.7,188.3z M89.6,198.2l-5.7,0.6l1.7-4.4c0.8-2,1.1-3,1.2-3.1L89.6,198.2z"/>
<path class="st0" d="M102.4,199.5c-0.2,0.2-0.3,0.3-0.5,0.4c-0.5,0.4-1.2,0.6-1.8,0.7H100c-0.6,0.1-1.2,0-1.8-0.3
	c-0.2-0.1-0.5-0.3-0.7-0.4c-0.2-0.1-0.3-0.3-0.4-0.4c-0.2-0.2-0.4-0.5-0.5-0.8l-1.9,1.1c0,0.1,0.1,0.2,0.2,0.4
	c0.2,0.3,0.3,0.5,0.5,0.8c0.2,0.2,0.4,0.4,0.6,0.6l0.6,0.4c1,0.6,2.2,0.9,3.4,0.7c0.8-0.1,1.6-0.3,2.3-0.7c0.3-0.1,0.5-0.3,0.8-0.5
	c0.3-0.2,0.6-0.5,0.8-0.8c0.2-0.2,0.4-0.4,0.5-0.7c0.5-0.8,0.8-1.8,0.8-2.7v-0.1c0-0.9-0.3-1.8-0.9-2.5c-0.2-0.2-0.4-0.5-0.7-0.6
	c-0.3-0.2-0.6-0.3-0.9-0.4c-0.3-0.1-0.7-0.2-1.1-0.3c-0.8-0.1-1.4-0.2-2-0.3c-0.6-0.1-1.1-0.2-1.7-0.4c-0.2-0.1-0.3-0.2-0.5-0.3
	c-0.4-0.2-0.6-0.7-0.6-1.1v-0.1c0-0.4,0.1-0.7,0.3-1.1c0.1-0.2,0.2-0.4,0.4-0.6c0.6-0.6,1.4-1,2.3-1.1c0.9-0.1,1.8,0.2,2.4,0.8
	c0.2,0.2,0.3,0.3,0.4,0.5l1.8-1.1c-0.1-0.2-0.2-0.3-0.3-0.4c-0.2-0.2-0.4-0.5-0.6-0.7c-0.2-0.2-0.4-0.3-0.6-0.4
	c-0.2-0.1-0.5-0.3-0.7-0.4c-0.8-0.3-1.6-0.4-2.4-0.3H100c-0.6,0.1-1.1,0.2-1.7,0.4c-0.3,0.1-0.6,0.3-0.9,0.5
	c-0.3,0.2-0.5,0.4-0.8,0.6c-0.3,0.2-0.5,0.5-0.7,0.8c-0.6,0.8-1,1.8-1,2.9c-0.1,1.5,0.9,2.8,2.3,3.2c1.1,0.4,2.2,0.6,3.3,0.7
	c0.4,0,0.8,0.1,1.2,0.2c0.2,0.1,0.3,0.1,0.5,0.2c0.6,0.3,0.9,1,0.9,1.7c0,0.5-0.1,0.9-0.4,1.4C102.7,199.1,102.5,199.3,102.4,199.5"
	/>
<polygon class="st0" points="116.8,186.8 116.8,184.8 116.8,184.7 106.4,185.9 106.4,185.9 106.4,188 106.4,188 110.6,187.6 
	110.6,201.3 110.6,201.3 112.7,201.1 112.7,201.1 112.6,187.3 116.8,186.8 "/>
<polygon class="st0" points="131.5,185.1 131.5,183.1 131.5,183.1 123.1,184 123.1,184 123.1,199.9 123.1,199.9 125.2,199.6 
	125.2,199.6 125.2,192.7 130.3,192.1 130.3,190.1 125.2,190.7 125.2,185.9 131.5,185.1 "/>
<path class="st0" d="M140.1,182.1L140.1,182.1c-1.6,0.2-3.1,0.8-4.4,1.9l-0.7,0.7c-1.6,1.7-2.4,3.9-2.4,6.2l0,0
	c0,1.5,0.4,2.9,1.2,4.1c0.4,0.5,0.8,1,1.3,1.4c1.4,1.1,3.2,1.7,5,1.4c2-0.2,3.8-1.2,5.1-2.6c1.6-1.7,2.4-3.9,2.4-6.2
	c0-2-0.7-3.8-2.1-5.2C144.1,182.4,142.1,181.8,140.1,182.1 M145.6,189.4c0,1.3-0.4,2.5-1.1,3.6c-1,1.5-2.5,2.6-4.3,2.8
	c-1.3,0.2-2.6-0.2-3.6-1c-1.3-1-2-2.6-1.9-4.2c0-1.4,0.4-2.7,1.2-3.8c1-1.4,2.5-2.4,4.2-2.6c1.4-0.2,2.9,0.3,3.9,1.3
	c1,1,1.6,2.4,1.5,3.8L145.6,189.4z"/>
<path class="st0" d="M157.1,180.1L157.1,180.1c-1.6,0.2-3.1,0.8-4.4,1.9l-0.7,0.7c-1.6,1.7-2.4,3.9-2.4,6.2l0,0
	c0,1.5,0.4,2.9,1.2,4.1c0.4,0.5,0.8,1,1.3,1.5c1.4,1.1,3.2,1.7,5,1.4c2-0.2,3.8-1.2,5.1-2.6c1.6-1.7,2.4-3.9,2.4-6.2
	c0-2-0.7-3.8-2.1-5.2C161.1,180.5,159.1,179.8,157.1,180.1 M162.6,187.3v0.1c0,1.3-0.4,2.5-1.1,3.6c-0.9,1.5-2.5,2.6-4.3,2.8
	c-1.3,0.2-2.6-0.2-3.6-1c-1.3-1-2-2.6-1.9-4.2c0-1.4,0.4-2.7,1.2-3.8c1-1.4,2.5-2.4,4.2-2.6c1.4-0.2,2.9,0.3,3.9,1.3
	C162,184.5,162.6,185.8,162.6,187.3"/>
<path class="st0" d="M176.4,179.8c-1.5-1.1-3.3-1.6-5.1-1.3l-4.1,0.5l0,0v15.8l0,0l4.2-0.5c1-0.1,2-0.4,2.9-0.9
	c1-0.5,1.8-1.1,2.6-1.9c1.5-1.6,2.3-3.8,2.3-6v-0.1c0-2.2-1-4.3-2.7-5.6 M175.6,189.6c-1.1,1.4-2.7,2.4-4.5,2.6l-1.9,0.2v-11.6l0,0
	l1.6-0.2c0.7-0.1,1.4-0.1,2.1,0c0.5,0.1,0.9,0.2,1.3,0.5c0.5,0.3,1,0.6,1.3,1c0.9,1,1.5,2.3,1.4,3.6
	C177,187.1,176.5,188.5,175.6,189.6"/>
<path class="st0" d="M61.8,116.6c0.7,0.8,0.3,2.5,0.2,3.5c-1.1,8.5-3.8,17-5.2,25.6c-2,12.9-4.7,27.8,13.2,34.5
	c2.1,0.8,5,0.6,4.5-1.2c-3.6-13.8-2.9-26.4-0.2-40.6c1.1-5.8,2.8-11.5,4-17.2c1-4.9,0.9-10.1-4.1-13.4c-5.4-3.6-13.3-1.9-17.8,2.3
	c-2.8,2.8-5.1,6-6.8,9.6c-2.3,4.6-4.4,9.4-6.2,14.3c-0.5,1.4-1,2.8-1.6,4.3c0-2.7,0-5.5-0.1-8.2c-0.2-6.2,0.5-16.6-8-19.4
	c-9-2.9-15,4.5-17.9,10.3c-4.4,9-7.9,18.4-10.6,28c-1.5,5.2-2.6,10.2-3.7,15.4c-0.9,4.4-1.8,9-1.3,13.4c0.3,2.2,5,2.4,5.9,0.4
	c2.1-4.7,6.5-19.5,7.8-24c1.5-5,6.9-21.4,7.8-23.8c0.7-1.8,2.1-5.7,3.5-5.6c1,0.1,0.3,3.7,0.2,5.5c-0.2,2.3-1.5,19.1-1.5,24.8
	c0,3.8-0.3,7.5,2.5,10.7c2,2.3,5.2,3.3,8.2,2.6c3.5-0.9,5.3-4.1,6.5-6.6c3.2-7.3,5-14,7.5-21C51.2,133,58.9,113.2,61.8,116.6"/>
<path class="st0" d="M275.9,137.4c2.9-1,6-1.6,9.1-1.9c1-0.1,1.7-1,1.6-2c-0.1-0.9-0.9-1.6-1.8-1.6c-3.6,0.3-7.1,1-10.5,2.2
	c-1.9-2.5-4.8-4.2-7.9-4.6c-1.9-0.3-3.6,0.2-5.5,0.2c-3-0.1-0.3-4.9,0.5-6.2c1-1.8,3.8-4.3,4.8-0.9c0.2,1.1,0.3,2.2,0.2,3.4
	c0,1.9,3.1,2.7,4.1,1.1c2.6-4.2,4.2-9.1-0.2-12.9c-2.9-2.6-7.2-2.6-10.7-1.2c-3.8,1.5-7.2,3.3-9.7,6.7c-2.7,3.6-4.3,8.5-3.1,12.9
	c1.1,4.1,4.3,7.3,8.4,8.4c2.1,0.4,4.2,0.3,6.3-0.1l0.4-0.1c-1,0.8-2,1.6-3,2.5c-0.5,0.4-1,0.8-1.4,1.3c-2.8,2.9-3.3,8.6,0.3,10.8
	c3.3,2,8.4-0.4,11.8-2.8c4.2-3,7.2-7.6,6.9-12.9C276.3,138.9,276.1,138.2,275.9,137.4 M266.5,144.1c-1.3,1.5-2.8,2.8-4.2,4.1
	c-1.7,1.5-4.7,2.5-3-0.3c0.2-0.4,0.5-0.7,0.7-1c2.2-2.1,4.6-4,7.1-5.6C267.4,142.3,267.1,143.3,266.5,144.1"/>
<path class="st0" d="M93.5,127c3.6,0.7,7.2-0.8,9.4-3.7c1.9-2.3,2.4-5.6,2.4-8.6c-0.1-5-3.3-10.3-9.3-10.4
	c-8.1-0.2-11.4,6.9-11,13.2C85.4,122.2,88.9,126.1,93.5,127 M97,113.3c0.3-1.4,1.1-2.8,2.6-2.8c1.4-0.1,2.6,0.7,3.1,2
	c1.2,2.8-0.2,10.5-4.1,11.5C95.8,124.6,96.6,114.9,97,113.3"/>
<path class="st0" d="M210.1,158.9c-0.9,0.9-1.8,1.9-2.7,2.7c-6.9,7.1-13.3,15.1-12.8,26.2c0.2,5.1,2.7,9.8,7.4,11s9.2-2.4,12.1-6.2
	s4.4-8.8,5.7-13.6c1.3-5.4,2.3-10.9,2.8-16.4c0.3-3,0.6-6,0.8-9l0.5-6.6c0.1-1.1,0.1-2.2,0.2-3.3c0.2-3.6,0.4-7.1,0.4-10.7
	c0.1-4.3,0.9-9.7-0.7-13.8c-0.8-2-2.6-3.9-4.7-4.1c-0.5,0-1-0.1-1.5-0.1h-0.1c-2.1,0.1-4,1.8-4.8,3.8c-0.1,0.2-0.1,0.4-0.2,0.5
	c-0.1,0.2-0.2,0.5-0.3,0.7c0,0,0,0.1,0,0.1c-0.1,0.5-0.2,1.1-0.3,1.6c-0.5,2.5-1.3,6-1.8,8c-1,4.4-2.3,8.7-3.8,12.9
	c-1.2,3.2-2.9,8.1-6,9.7c-4.6,2.3-2.7-11.1-2.5-13.2c0.5-4.1,1.2-8.1,2.1-12.2c0.7-3.5-2.2-7.4-5.5-7.8c-3.7-0.4-6.5,1.9-7.4,5.7
	c-1.1,4.9-1.8,9.8-2.1,14.7c-0.2,3.9-0.4,8.3,0.4,12.3c-0.7,1-1.4,1.9-2.1,2.8c-2.1,2.4-4,3.9-6.9,3.2c-2.3-0.7-4.5-1.9-6.3-3.5
	c-2.3-1.8-4.4-3.6-6.5-5.6c3.2-2.2,6.2-4.6,9.1-7.2c3.9-3.5,8.8-8.9,6-14.5c-2.9-5.8-10.7-5.2-14.9-1.3c-2.3,2.3-4.3,4.9-5.8,7.8
	c-1.6,2.6-3,5.5-4,8.4c-0.1,0.2-0.1,0.3-0.2,0.5c0.1-1.4,0.1-2.7,0.3-4.2c0.4-5.4,1.2-10.7,2.2-16c0.4-2.6,1-5.1,1.7-7.6
	c0.5-1.8,0.6-3.8,0.1-5.6c-0.5-2.2-2.1-4-4.2-4.7c-3.7-1-7.6,2-8.6,5.4c-2.6,8.9-4.1,18-4.7,27.3c-0.3,4.7-0.3,9.3,0,14
	c-0.1,0.2-0.2,0.3-0.3,0.5c-1,3.3-2.4,6.5-4.1,9.5c-0.8,1.3-1.9,2.3-3.3,2.9c-1.6,0.8-3.5,0.8-5.1,0.1c-3.6-1.7-6.1-4.9-6.9-8.8
	c-0.7-3.7-0.4-7.5,1.1-11c0.6-1.4,3.4-7.9,5.7-5.6c1.4,1.4,0.1,3.2,0.7,4.8c0.3,0.6,0.9,1,1.6,0.9c2.1-0.2,3.2-2.1,3.8-3.9
	c0.8-2.2,0.8-4.6-0.2-6.8c-0.8-1.6-2.2-2.8-3.9-3.5c-3.5-1.3-7.4-1.1-10.7,0.8c-3.5,2-6.4,5.1-8.2,8.8c-2.8,5.6-3.8,12-2.8,18.2
	c-1.4,3.7-3.5,7.8-5.8,9.9c-0.9,0.8-2.2,1.2-3.4,0.9c-1.4-0.4-2.5-1.5-2.8-2.9c-1-2.9-0.5-7-0.1-10c0.4-3.4,0.8-6.7,1.3-10
	s2.3-8.4,0.7-11.6c-1.5-2.8-4.7-3.4-7.5-2.2c-3.7,1.5-5.1,5.1-5.8,8.8c-0.9,4.9-1.3,9.8-1.1,14.8c0,3.2,0.4,6.4,1,9.6
	c0.4,2.6,1.6,5,3.3,6.9c3.2,3.1,8.1,3.9,12.1,1.9c1.9-1,3.6-2.2,5.1-3.8c2-2.1,3.7-4.6,4.9-7.3c4.4,8.4,14.3,10.4,22.7,6.6
	c2.9-1.4,5.3-3.7,6.8-6.5c0.8-1.4,1.6-2.8,2.2-4.2c0.1,0.4,0.1,0.7,0.2,1.1c0.7,2.8,1.6,6.7,4.3,8.3c2.2,1.3,5.1,0.6,6.5-1.6
	c0.4-0.6,0.6-1.2,0.9-1.9c0,0,1.5-5.1,2.4-8.1c2,1.7,4.9,4,6.6,5.4c6,5,14,4.6,18.3,1.4l0,0c2.4-1.4,4.7-4,6.7-6.9
	c2.1,3.9,5.8,6.7,10.1,6.8c6.3,0.2,8.9-6.2,11.4-11.6c0.4-0.9,1.4-4.2,2.7-8.4c-0.2,3-0.3,6.1-0.6,9.1
	C210.5,154.7,210.3,156.8,210.1,158.9 M207.8,179c-0.6,3.4-1.7,7.5-3.4,10c-0.5,0.6-1.3,1-2.1,1.1c-1.4-0.2-2-1.8-2.1-3
	c-0.5-7.9,4.6-15.6,9.3-21.4C208.9,170.1,208.5,174.6,207.8,179 M160,144.1c2-4.3,4.3-8.9,7.5-12.4c0.7-0.8,1.5-1.4,2.5-1.8
	c0.6-0.2,1.2-0.2,1.8-0.1c0.4,0.1,0.7,0.4,0.9,0.8c0.3,0.9-0.4,2.1-0.8,3c-1.2,2.3-3.3,4-5.2,5.6C164.5,141.1,162.3,142.7,160,144.1
	"/>
<path class="st0" d="M231.1,121.8c0,0,13.5,2.6,16.5-14.1c0.5-2.4,0.5-5,0-7.4c-0.2,0.1-0.5,0.2-0.7,0.3c-1.8,0.3-3.5-0.9-3.9-2.7
	c-0.3-1.2,0-2.4,0.9-3.3c-1.1-0.5-2.4-0.6-3.6-0.3c-6.5,1.7-4.2,9.2-4.2,17.6S231.2,121.7,231.1,121.8"/>
<path class="st0" d="M292.8,153.6c1-0.5,1.6-1.6,1.5-2.7c-0.1-0.6-0.4-1.2-0.9-1.7c-0.6-0.6-1.5-0.8-2.4-0.7l-2.7,0.3l0,0l1,8.3l0,0
	l1.1-0.1l0,0l-0.3-2.8l1.6-0.2c0.1,0.1,0.6,0.8,1.5,2.1c0.1,0.2,0.2,0.4,0.4,0.5l1.3-0.1l0,0l-0.8-1
	C293.2,154.2,292.8,153.6,292.8,153.6 M291.6,152.8L290,153l-0.4-3.3l0,0l1.5-0.2c0.4-0.1,0.9,0,1.3,0.2c0.5,0.2,0.8,0.7,0.9,1.2v0
	c0,0.3,0,0.7-0.2,1C292.7,152.5,292.2,152.8,291.6,152.8"/>
<path class="st0" d="M299.9,151.7c-0.5-4.6-4.7-7.9-9.2-7.3c-4.6,0.5-7.9,4.7-7.3,9.2c0.5,4.6,4.7,7.9,9.2,7.3c0,0,0,0,0,0
	C297.2,160.4,300.5,156.2,299.9,151.7 M292.5,159.8c-4,0.5-7.5-2.4-8-6.4c-0.5-4,2.4-7.5,6.4-8c4-0.5,7.5,2.4,8,6.3
	C299.3,155.7,296.4,159.3,292.5,159.8C292.5,159.8,292.5,159.8,292.5,159.8"/>
<path class="st0" d="M251.1,176.8c-14.8,57.4-73.3,92-130.7,77.2c-20.7-5.3-39.4-16.7-53.6-32.7c-1.4-1.6-4.1,0.4-2.7,2
	c40.5,45.8,110.4,50.2,156.3,9.7c16.7-14.7,28.5-34.1,34-55.7C255,175.1,251.7,174.6,251.1,176.8"/>
<path class="st0" d="M53.8,97.1C83,45.5,148.5,27.4,200.1,56.6c10.8,6.1,20.5,14.1,28.6,23.5c1.4,1.6,4.1-0.4,2.7-2
	C193.5,33.8,127.7,26.4,80.9,61.3c-12.3,9.3-22.6,21-30.2,34.4C49.6,97.6,52.7,98.9,53.8,97.1"/>
</svg>
