<?xml version="1.0" encoding="utf-8"?>
<!-- Generator: Adobe Illustrator 22.0.0, SVG Export Plug-In . SVG Version: 6.00 Build 0)  -->
<svg version="1.1" id="Capa_1" xmlns="http://www.w3.org/2000/svg" xmlns:xlink="http://www.w3.org/1999/xlink" x="0px" y="0px"
	 viewBox="0 0 300 300" style="enable-background:new 0 0 300 300;" xml:space="preserve">
<style type="text/css">
	.st0{fill:#FFFFFF;}
</style>
<title>logo_b</title>
<path class="st0" d="M245.1,138.2l-0.7-2.1l-0.4-1c-1.3-3-2.7-6-4.4-8.9c-1.4-2.7-3.1-5.3-5-7.6c-6.1-6.9-13-10.1-20.9-9.6
	c-3,0.1-6,0.8-8.8,2.1c-2.3,1-4.5,2.2-6.7,3.4c-3.3,1.9-6.1,3.7-8.6,5.4c-2.5,1.8-5,3.7-7.3,5.7c-0.7,0.5-1.3,1-1.8,1.5
	c-0.5,0.5-1.1,0.9-1.7,1.3c0-1.1,0.1-2.3,0.5-3.4c5.3-20.2,7.2-39.2,5.8-56.7c-0.6-7.1-2.3-14.1-4.9-20.8
	c-3.1-7.7-7.4-13.5-12.9-17.5c-4.5-3.2-10.1-4.6-15.6-3.9c-2.2,0.3-4.4,1-6.4,2.1c-2.8,1.4-5.3,3.5-7.3,6c-2.4,3.6-4.3,7.4-5.7,11.5
	c-2.1,5.4-12,48.9-22.9,79.8c-7.1-15.5-9.8-19-10.9-20.8c-3.3-4.7-7.2-9-11.6-12.7c-4.2-3.6-9-6.5-14.1-8.5
	c-1.3-0.5-2.6-0.9-3.9-1.3l-3.8-1c-2.4-0.6-4.6-1.7-6.6-3.2c-1.9-1.4-3.4-3.4-4.2-5.6c-0.8-2.3-0.9-4.8-0.3-7.1
	c1.1-4.7,4.8-9.2,9.3-10c2.3-0.4,4.6,0.2,6.5,1.6c1.8,1.4,2.9,3.6,2.7,5.9c0,2.3-1,4.8-2.8,5.9c-0.7,0.4-1.5,0.6-2.3,0.4
	c0.4-0.3,0.7-0.7,0.9-1.1c1-1.9,0.3-4.3-1.6-5.3c-1.8-1-4.1-0.3-5,1.5c0,0.1-0.1,0.1-0.1,0.2c-0.8,1.6-1.8,5.6,4.6,7.2
	c1.6,0.5,3.3,0.4,4.8-0.3c1.4-0.8,2.5-2.1,3.2-3.6c0.6-1.4,1-3,1-4.5c0.1-1.6-0.2-3.2-0.8-4.6c-0.7-1.5-1.7-2.8-3-3.7
	c-2.4-1.9-5.5-2.6-8.5-2.2c-3,0.6-5.6,2.1-7.6,4.4c-2,2.2-3.4,4.9-4.2,7.8c-0.8,3-0.7,6.1,0.2,9c1,2.9,2.8,5.4,5.3,7.3
	c2.3,1.7,4.9,3,7.7,3.8l3.8,1.1c1.2,0.4,2.4,0.8,3.6,1.3c4.8,1.9,9.2,4.7,13,8.1c2.9,2.6,5.5,5.4,7.8,8.5
	c-8.7-3.2-18.5-0.1-23.9,7.5c-7.1,9.6-8.8,28.9,0.2,36.1c5.7,4.6,14.4,3.1,21.8-1c0.7,1.7,1.5,3.7,2.4,5.8c0.9,1.9,1.5,3.3,1.9,4.4
	c0.4,1.1,0.7,1.8,0.8,2.3c0.1,0.3,0.1,0.6,0,0.9c-0.2,0.6-0.5,1.3-0.9,1.9c-0.5,1-1.1,2.1-1.7,3.3c-13.7,28-17.5,53.8-11.5,77.3
	c1.1,3.4,2.5,6.6,4.2,9.7c1.2,2.3,2.6,4.5,4.1,6.6c6.3,8.4,12.9,13.5,19.8,15.3c1.9,0.3,3.8,0.5,5.7,0.4c2,0,3.9-0.2,5.8-0.6
	c1.2-0.4,2.4-0.9,3.6-1.5c2.9-1.8,5.4-4.2,7.3-7c8.6-12.6,9.4-33.9,2.4-63.9c-1.5-6.4-3.2-13-5.2-19.9l0.1,0.1
	c-2.6-9.9-5.4-19-8.3-27.1c-3-8.6-6-16-8.6-22c12.1-32.5,20.3-68.6,20.7-69.9s1.6-5.4,2-6.4c2.6-6.1,5.6-6.3,5.8-6.3
	c2.6-0.5,4.4,0.3,5.2,2.4c0,0.1,0.1,0.1,0.1,0.2c1.6,4.2,2.7,8.6,3.2,13c0.8,6.3,1.3,12.6,1.4,19c0.2,6.8,0,15.6-0.6,26.3
	c-0.4,10-0.5,17.2-0.6,21.8c-0.4,17.9,6.8,34.1,18.3,18.5c1.2-1.6,6.8-9.1,8.6-11.1s5.2-6.6,7.6-8.8s4.5-4.1,6.5-5.6
	c2.5-2,5.2-3.6,8.1-4.9c1.2-0.6,2.5-0.9,3.8-1.1c3.5-0.3,6.1,0.5,8.1,2.4c1.1,1,1.9,2.1,2.6,3.4c0.8,1.5,1.6,3.1,2.2,4.7
	c0.1,0.4,0.3,0.7,0.4,1.1l1.3,3.8c0.1,0.3,0.2,0.7,0.3,1c0.8,3.3,1.4,6.7,1.9,10.1c0.6,4.4,1,8.5,1.3,12.1c0.9,18.5-2.5,37-10,55.4
	c-6.1,14.6-12.4,25.2-18.7,31.9c-2.2,2.4-4.8,4.4-7.8,5.8c-2.3,1.1-4.9,1.5-7.3,1c-1.7-0.5-3.2-1.5-4.5-2.8
	c-2.6-2.5-4.7-5.5-6.1-8.8c-1.7-3.9-3.1-7.9-4.2-12c-0.9-3.6-2.2-12.2-4.8-11.8c-2.9,0.5-2.8,13.1,5.2,31.6c2.6,5.5,6.9,10,12.2,13
	c1.8,0.9,3.7,1.6,5.7,2c6.4,1.6,13.2,1,20.5-1.8l1.4-0.6c2.6-1.2,5-2.5,7.4-4c2.5-1.5,4.8-3.2,7-5.1c8.9-7.9,16-17.5,20.9-28.3
	c2.1-4.9,3.9-10,5.4-15.2c1.8-5.8,3.2-11.4,4.3-16.8C250.7,172.4,250,154.7,245.1,138.2 M113.5,197c2.8,6.6,5.1,12,6.9,16.3
	c7.3,18.4,10,33.1,8.2,44.1c-0.1,1.1-0.4,2.3-0.7,3.4c-0.3,0.8-0.7,1.6-1.3,2.3c-1,1.5-2.3,2.8-3.9,3.7l-0.9,0.5
	c-6.5,3.3-12.8,2.6-18.8-2c-5.5-4.2-10-9.6-13.2-15.7c-1.8-3.5-3.3-7.2-4.4-11c-1-4-1.6-8.1-1.9-12.3c-0.4-4.5-0.4-9.1,0-13.6
	c0.5-5.9,1.5-11.7,2.9-17.4c1.4-5.8,3.1-11.5,5.2-17.1c0.7-1.6,1.5-3.5,2.5-5.6c1-2.1,1.9-4,2.8-5.6c0.4-0.9,0.9-1.8,1.5-2.6
	c0.1,0,0.3,0.4,0.8,1.2c1.1,2.2,3.1,6.3,5.8,12.3C107.9,184.1,110.6,190.4,113.5,197"/>
</svg>
