<?xml version="1.0" encoding="utf-8"?>
<!-- Generator: Adobe Illustrator 22.0.0, SVG Export Plug-In . SVG Version: 6.00 Build 0)  -->
<svg version="1.1" id="Capa_1" xmlns="http://www.w3.org/2000/svg" xmlns:xlink="http://www.w3.org/1999/xlink" x="0px" y="0px"
	 viewBox="0 0 300 140" style="enable-background:new 0 0 300 140;" xml:space="preserve">
<style type="text/css">
	.st0{fill:#FFFFFF;}
</style>
<title>logo_technosun</title>
<polygon class="st0" points="134.1,53.6 155.3,58.4 155.3,68 123.5,60.8 123.5,12.6 155.3,19.9 155.3,29.5 134.1,24.7 "/>
<polygon class="st0" points="176.5,43.9 176.5,92.1 144.7,84.8 144.7,75.2 165.9,80 165.9,51.2 144.7,46.3 144.7,36.7 "/>
<polygon class="st0" points="0,109.7 17.6,109.7 17.6,113.2 10.6,113.2 10.6,127.3 7.1,127.3 7.1,113.2 0,113.2 "/>
<polygon class="st0" points="38.8,116.8 49.4,116.8 49.4,120.3 38.8,120.3 38.8,123.8 52.9,123.8 52.9,127.3 35.3,127.3 35.3,109.7 
	52.9,109.7 52.9,113.2 38.8,113.2 "/>
<polygon class="st0" points="70.6,109.7 88.2,109.7 88.2,113.2 74.1,113.2 74.1,123.8 88.2,123.8 88.2,127.3 70.6,127.3 "/>
<polygon class="st0" points="109.4,109.7 109.4,116.8 120,116.8 120,109.7 123.5,109.7 123.5,127.3 120,127.3 120,120.3 
	109.4,120.3 109.4,127.3 105.9,127.3 105.9,109.7 "/>
<polygon class="st0" points="141.2,127.3 141.2,109.7 144.7,109.7 155.3,122.2 155.3,109.7 158.8,109.7 158.8,127.3 155.3,127.3 
	144.7,115.2 144.7,127.3 "/>
<path class="st0" d="M194.1,127.3h-17.6v-17.6h17.6V127.3z M180,123.8h10.6v-10.6H180V123.8z"/>
<polygon class="st0" points="229.4,113.2 215.3,113.2 215.3,116.8 229.4,116.8 229.4,127.3 211.8,127.3 211.8,123.8 225.9,123.8 
	225.9,120.3 211.8,120.3 211.8,109.7 229.4,109.7 "/>
<polygon class="st0" points="250.6,109.7 250.6,123.8 261.2,123.8 261.2,109.7 264.7,109.7 264.7,127.3 247.1,127.3 247.1,109.7 "/>
<polygon class="st0" points="282.4,127.3 282.4,109.7 285.9,109.7 296.5,122.2 296.5,109.7 300,109.7 300,127.3 296.5,127.3 
	285.9,115.2 285.9,127.3 "/>
</svg>
