<svg id="Capa_1" data-name="Capa 1" xmlns="http://www.w3.org/2000/svg" viewBox="0 0 300 140"><title>logo_maulette</title><path d="M78.53,63.58c0,2.26-.1,7.6-6.93,7.6-2.43,0-5.48-.77-5.48-3.75,0-.41,0-2.46,2.74-2.46.73,0,2.11.17,2.11,1.66,0,.63-.48,2.29-.48,2.67A1.3,1.3,0,0,0,72,70.69c1.49,0,1.49-1.42,1.49-2.29V46.46H70.32V46h11.4v.48H78.53Z"/><path d="M100.16,63.2a8.47,8.47,0,1,1-8.46-7.9,8.19,8.19,0,0,1,8.46,7.9m-4.68,0c0-3.71-.17-7.41-3.78-7.41s-3.78,3.7-3.78,7.41.18,7.46,3.78,7.46S95.48,67,95.48,63.2"/><path d="M111.36,66.29l4.4-10h-2.88v-.48h5v.48h-1.6c-5.13,11.06-7.14,17.37-9,21.32-.93,2-2,3-3.88,3-2,0-3.57-1-3.57-2.8,0-1.32,1-1.91,2.22-1.91.86,0,1.83.48,1.83,1.46s-.45,1.21-.45,1.9a.68.68,0,0,0,.7.76c1.7,0,2.81-2.73,3.46-4.4l1.49-3.71-6.51-15.63h-1.87v-.48h8.83v.48h-2.42Z"/><path d="M134.89,70.1c-.66,1-2,1-3.12,1-2.32,0-3.39-.94-3.67-2.39H128c-.73,1.87-1.87,2.39-4.33,2.39-2.22,0-4.92-.8-4.92-3.47s2.28-3.46,4.57-4.16c3.74-1.14,4.54-1.42,4.54-3.15V58.25c0-1.22-.45-2.46-2.15-2.46-1.07,0-2,.41-2,1.69,0,.25.2,1.6.2,1.91,0,1.42-1.49,1.42-2.11,1.42-.94,0-2-.21-2-1.77,0-2.42,2.91-3.74,5.93-3.74,3.5,0,6.34,1,6.34,4.89v8.59c0,.87.14,1.67,1.14,1.67a1.66,1.66,0,0,0,1.32-.66Zm-7-8h-.07c-.07.28-.31.52-.93.83-1.74.83-3.68,1.39-3.68,4.16,0,1.07.11,3.29,2.26,3.29,1.17,0,2.42-1,2.42-3.71Z"/><path d="M136.84,65.63h.48c1.07,2.6,2.12,5,5.34,5,.8,0,3.08,0,3.08-2.66,0-.87-.27-1.77-2.74-2.67l-2.8-1a4.29,4.29,0,0,1-3.16-4c0-2.71,2.33-5,5.69-5,1.73,0,3.12.87,3.67.87a.59.59,0,0,0,.66-.45h.49v4.22h-.45c-.94-2.25-1.74-4.15-4.61-4.15-1.53,0-3.05.79-3.05,2.39,0,.66.17,1.7,2.53,2.49l2.94,1c2.5.86,3.81,2.29,3.81,4.47,0,3-2.87,5-5.92,5-1.7,0-4-1-4.86-1-.38,0-.48.14-.62.48h-.48Z"/><polygon points="160.89 45.98 169.8 45.98 175.8 63.24 175.87 63.24 181.97 45.98 190.63 45.98 190.63 46.46 187.44 46.46 187.44 70.17 190.63 70.17 190.63 70.66 179.26 70.66 179.26 70.17 182.42 70.17 182.42 46.46 182.35 46.46 173.82 70.66 173.27 70.66 164.7 46.46 164.63 46.46 164.63 70.17 167.82 70.17 167.82 70.66 160.89 70.66 160.89 70.17 164.08 70.17 164.08 46.46 160.89 46.46 160.89 45.98"/><path d="M209.38,70.1c-.65,1-2,1-3.11,1-2.33,0-3.4-.94-3.68-2.39h-.07c-.73,1.87-1.87,2.39-4.33,2.39-2.22,0-4.92-.8-4.92-3.47s2.28-3.46,4.57-4.16c3.75-1.14,4.54-1.42,4.54-3.15V58.25c0-1.22-.45-2.46-2.15-2.46-1.07,0-2,.41-2,1.69,0,.25.21,1.6.21,1.91,0,1.42-1.49,1.42-2.12,1.42-.93,0-2-.21-2-1.77,0-2.42,2.91-3.74,5.93-3.74,3.5,0,6.34,1,6.34,4.89v8.59c0,.87.14,1.67,1.15,1.67a1.66,1.66,0,0,0,1.31-.66Zm-7-8h-.07c-.07.28-.31.52-.93.83-1.74.83-3.68,1.39-3.68,4.16,0,1.07.11,3.29,2.26,3.29,1.18,0,2.42-1,2.42-3.71Z"/><path d="M210.74,55.79h6.55v11c0,1.74.59,3.16,2.36,3.16,2.15,0,3.57-2.19,3.57-4.72V56.27h-2.29v-.48h6.51V70.17h2.29v.49h-6.44V67.85h-.07A5.52,5.52,0,0,1,218.05,71c-3.22,0-5-1.32-5-4.68v-10h-2.32Z"/><polygon points="232.23 45.66 238.78 45.66 238.78 70.17 241.1 70.17 241.1 70.66 232.23 70.66 232.23 70.17 234.55 70.17 234.55 46.15 232.23 46.15 232.23 45.66"/><path d="M247.79,62v1.55c0,3.3.28,7.15,4.4,7.15a5.24,5.24,0,0,0,5.13-4l.49.18a5.94,5.94,0,0,1-6.14,4.33c-4.81,0-8.56-3-8.56-8a8.18,8.18,0,0,1,8.08-7.87c3.19,0,6.83,1.94,6.83,6.66Zm5.55-.49V59.15c0-1,0-3.36-2.25-3.36-3.12,0-3.19,3.32-3.3,5.68Z"/><path d="M262.73,51.31a4.81,4.81,0,0,0,4.23,0v4.48H271v.48H267V67.88c0,1.35.24,2.57,1.84,2.57s2.49-1.63,2.87-3l.52.1c-.58,3.16-2.87,3.64-4.6,3.64-4.86,0-4.86-2.53-4.86-4.19V56.27h-2.32v-.48h2.32Z"/><path d="M275.56,51.31a5.78,5.78,0,0,0,2.11.49,5.88,5.88,0,0,0,2.12-.49v4.48h4v.48h-4V67.88c0,1.35.24,2.57,1.83,2.57s2.5-1.63,2.88-3l.52.1c-.59,3.16-2.88,3.64-4.61,3.64-4.85,0-4.85-2.53-4.85-4.19V56.27h-2.32v-.48h2.32Z"/><path d="M290.78,62v1.55c0,3.3.27,7.15,4.4,7.15a5.27,5.27,0,0,0,5.13-4l.48.18a5.93,5.93,0,0,1-6.13,4.33c-4.82,0-8.56-3-8.56-8a8.18,8.18,0,0,1,8.07-7.87c3.19,0,6.83,1.94,6.83,6.66Zm5.54-.49V59.15c0-1,0-3.36-2.25-3.36-3.12,0-3.19,3.32-3.29,5.68Z"/><polygon points="44.83 92.47 49.37 91.33 49.37 92.33 44.83 93.47 35.77 95.74 35.77 33.47 44.83 31.2 49.37 30.07 49.37 31.07 44.83 32.2 44.83 92.47"/><path d="M29.15,35.13V89.34a20.65,20.65,0,0,1-1.37,7.4c-.15.38-.3.75-.47,1.12l-.24.5c-.14.3-.3.6-.46.89a20.51,20.51,0,0,1-18,10.68H8v-1.11a15.25,15.25,0,0,0,4.55-2.21,15.65,15.65,0,0,0,5.26-6.38,11.9,11.9,0,0,0,.45-1.12,15.7,15.7,0,0,0,.53-1.81q.11-.47.18-1a14.63,14.63,0,0,0,.2-2.5V35.13l5,1.25Z"/><polygon points="12.59 33.47 12.59 95.74 8.04 94.6 3.53 93.47 -1 92.33 -1 91.33 3.53 92.47 3.53 32.2 -1 31.07 -1 30.07 3.53 31.2 8.04 32.33 12.59 33.47"/></svg>