<svg id="Capa_1" data-name="Capa 1" xmlns="http://www.w3.org/2000/svg" viewBox="0 0 300 140"><title>logo_kliffor</title><path d="M42.79,122.25H31.19l9.05-23.19h11.6l-3,7.64h4.54l8.55-7.64H75.07l-8.41,7.73a5.4,5.4,0,0,1,2.57,2,4.32,4.32,0,0,1,.71,3.07,9.12,9.12,0,0,1-.28,1.05L66,122.25H54.43L57,115.7a2.73,2.73,0,0,0,.13-.41l.09-.36a2.87,2.87,0,0,0-.22-1.52,1.73,1.73,0,0,0-1.14-.94H46.61Z"/><path d="M78.89,99.06h11.6l-5.64,14.51a2.85,2.85,0,0,0-.14.41,1.25,1.25,0,0,0,0,.31,2,2,0,0,0,.36,1.55,1.86,1.86,0,0,0,1.55.64h16.59l-2.27,5.77H78.53a6.85,6.85,0,0,1-2.68-.5,5.29,5.29,0,0,1-2-1.39,5,5,0,0,1-1.09-2.09,6.81,6.81,0,0,1-.14-2.61c.06-.34.14-.68.23-1a8.3,8.3,0,0,1,.36-1.06Z"/><polygon points="113.77 99.06 125.36 99.06 116.32 122.25 104.72 122.25 113.77 99.06"/><path d="M120.13,122.25l5.69-14.5a11.74,11.74,0,0,1,2-3.35,16.37,16.37,0,0,1,2.93-2.77,14.31,14.31,0,0,1,3.5-1.89,10.67,10.67,0,0,1,3.64-.68h22.37L158,104.88h-16.6a3.91,3.91,0,0,0-2.32.82,4.7,4.7,0,0,0-1.64,2l-.63,1.68H152.6l-2.27,5.78H134.5l-2.77,7.09Z"/><path d="M154.6,122.25l5.69-14.5a11.74,11.74,0,0,1,2-3.35,16.37,16.37,0,0,1,2.93-2.77,14.31,14.31,0,0,1,3.5-1.89,10.63,10.63,0,0,1,3.64-.68h22.37l-2.27,5.82h-16.6a3.91,3.91,0,0,0-2.32.82,4.7,4.7,0,0,0-1.64,2l-.63,1.68h15.82l-2.27,5.78H169l-2.77,7.09Z"/><path d="M224.22,99.06a6.81,6.81,0,0,1,2.75.52,5.23,5.23,0,0,1,2,1.41,5,5,0,0,1,1,2.14,7.34,7.34,0,0,1,.12,2.66,8,8,0,0,1-.5,1.95l-2.28,5.83a12.55,12.55,0,0,1-2,3.34,17.25,17.25,0,0,1-3,2.77,14.31,14.31,0,0,1-3.5,1.89,10.67,10.67,0,0,1-3.64.68H197.76a6.9,6.9,0,0,1-2.69-.5,5.25,5.25,0,0,1-1.95-1.39,5,5,0,0,1-1.09-2.09,6.62,6.62,0,0,1-.14-2.61c.06-.34.14-.68.23-1a8.3,8.3,0,0,1,.36-1.06l2.28-5.83a12,12,0,0,1,2-3.34,16.77,16.77,0,0,1,2.94-2.77,14.13,14.13,0,0,1,3.5-1.89,10.61,10.61,0,0,1,3.63-.68Zm-20.14,14.51a3.24,3.24,0,0,0-.14.4,1.48,1.48,0,0,0-.05.32,2,2,0,0,0,.37,1.55,1.86,1.86,0,0,0,1.55.64h5.86a3.45,3.45,0,0,0,1.2-.23,4.79,4.79,0,0,0,1.17-.64,6.73,6.73,0,0,0,1-.93,3.82,3.82,0,0,0,.68-1.11l2.27-5.83q.09-.27.18-.63a1.89,1.89,0,0,0-.41-1.59,2,2,0,0,0-1.59-.64h-5.86a4,4,0,0,0-2.35.84,4.5,4.5,0,0,0-1.61,2Z"/><path d="M245.77,115l1-2.41h5.09a3,3,0,0,0,1.3-.31,6.18,6.18,0,0,0,1.23-.8,7,7,0,0,0,1-1,6,6,0,0,0,.66-1.12l.63-1.54a4,4,0,0,0,.14-.41,1.23,1.23,0,0,0,0-.28,1.83,1.83,0,0,0-.41-1.57,2,2,0,0,0-1.59-.61h-8.73l-6.77,17.37h-11.6l9.05-23.19h26.1a6.81,6.81,0,0,1,2.75.52,5.23,5.23,0,0,1,2,1.41,5,5,0,0,1,1,2.14,7.34,7.34,0,0,1,.12,2.66c-.06.33-.13.66-.21,1a8.24,8.24,0,0,1-.29,1l-.78,1.9a8.79,8.79,0,0,1-1.18,2,16.13,16.13,0,0,1-1.79,2,23.34,23.34,0,0,1-4.57,3.27l2.5,5.41h-13.1Z"/><path d="M278.11,77.52c-12.16.47-28.89-1.64-28.89-1.64,18.26-1.59,29.25-6.2,34.71-9.23A192.72,192.72,0,0,0,300,17.75c-42.32,24.5-103,36.67-103,36.67-4.75,25.84-29.69,27.92-29.69,27.92l-.29.08c-4.82-9.58-4.66-23.88-4.66-23.88,3-1.41,6.45.44,6.45.44s-.09-4.67-2.3-6.88S157.81,51,157.81,51c-2.82-2-6.88-2.38-11.3-1.68s-5.21,4.15-5.21,4.15L132.36,82.3c-3.1-.38-24.9-3.89-29.31-27.88,0,0-60.73-12.17-103-36.67a192.72,192.72,0,0,0,16.07,48.9c5.46,3,16.45,7.64,34.71,9.23,0,0-16.73,2.11-28.89,1.64a136.64,136.64,0,0,0,8.85,13.32H269.26a138.49,138.49,0,0,0,8.85-13.32M152.23,53.81c-1.12-.09-3.78-2.15-3.78-2.15a16,16,0,0,1,3.14-.18,5.12,5.12,0,0,1,2.91,1.63,4.09,4.09,0,0,1-2.27.7"/></svg>