<svg id="Capa_1" data-name="Capa 1" xmlns="http://www.w3.org/2000/svg" viewBox="0 0 300 140"><title>logo_rickshop</title><path d="M0,48.85H17.8c11.59,0,16.55,6.39,16.55,14.33,0,6.26-3.1,11-10.1,12.65L34.35,91H24.68L15.57,76.57H8.81V91H0ZM8.81,69.44h8.68c5.64,0,7.44-2.85,7.44-6.26s-1.8-6.33-7.44-6.33H8.81Z"/><rect x="40" y="48.85" width="8.87" height="42.17"/><path d="M54.57,69.88c0-11.66,7.87-21.65,20.52-21.65,9.12,0,14.82,4.78,18.11,10.92l-7.63,4.77c-2.42-4.28-6-7.69-10.48-7.69-7.25,0-11.16,6.64-11.16,13.65s3.91,13.76,11.16,13.76c4.41,0,8.31-3,10.48-7.19l7.63,4.84c-3.29,6.2-9,10.35-18.11,10.35-12.65,0-20.52-10.11-20.52-21.76"/><polygon points="107.46 48.85 107.46 67.46 122.22 48.85 133.75 48.85 117.69 68.76 135.24 91.02 123.21 91.02 111.74 76.2 107.46 81.47 107.46 91.02 98.66 91.02 98.66 48.85 107.46 48.85"/><path d="M148.34,65.23a4.3,4.3,0,1,1-4.3-4.29,4.3,4.3,0,0,1,4.3,4.29"/><polygon points="182.37 48.85 182.37 68.02 205.87 68.02 205.87 48.85 210.71 48.85 210.71 91.02 205.87 91.02 205.87 72.3 182.37 72.3 182.37 91.02 177.47 91.02 177.47 48.85 182.37 48.85"/><path d="M218.77,70.06c0-12.09,8.93-21.64,20.9-21.64S260.44,58,260.44,70.06s-8.93,21.71-20.77,21.71c-12,0-20.9-9.55-20.9-21.71m36.46,0c0-9.61-6.63-17.17-15.56-17.17-9.12,0-15.69,7.56-15.69,17.17s6.57,17.24,15.69,17.24c8.93,0,15.56-7.69,15.56-17.24"/><path d="M268.56,48.85h15.38C295.6,48.85,300,55,300,62.56s-4.4,13.83-16.06,13.83H273.4V91h-4.84Zm4.84,4.47V72h10.23c7.87,0,11.16-3.78,11.16-9.42s-3.22-9.24-11.16-9.24Z"/><path d="M144,59.13h0c.31-3.48,3.79-6.24,10.77-6.24a24.49,24.49,0,0,1,12.65,3.59V52c-2-1.48-6.39-3.53-13-3.53-10.35,0-15.5,4.53-15.5,11a10.7,10.7,0,0,0,.2,2.1A6.13,6.13,0,0,1,144,59.13"/><path d="M150.08,66.06a6.09,6.09,0,0,1-2.48,4.13c7.2,3.21,16.29,4.46,16.29,10.41,0,4-4,6.33-10.67,6.33a36.1,36.1,0,0,1-14.63-3.54v5a39.48,39.48,0,0,0,14.76,3c13.08,0,15.75-6.45,15.75-11.1,0-9.54-11.6-11.15-19-14.3"/></svg>