<svg id="Capa_1" data-name="Capa 1" xmlns="http://www.w3.org/2000/svg" viewBox="0 0 300 300"><title>logo_wscam</title><polygon points="77.43 152.98 69.52 182.85 61.09 152.98 53.11 152.98 44.61 182.85 36.7 152.98 25 152.98 39.12 198.43 49.38 198.43 57.1 171.23 64.81 198.43 75.01 198.43 89.2 152.98 77.43 152.98"/><path d="M108.16,189.8c-5,0-7.39-2.79-8-5.39l-10.33,3.18c2,8.44,10,11.69,18.44,11.69,11.44,0,17.91-6.75,17.91-14.16,0-7.08-3.27-10.58-14.45-13.7-3.52-1-9-1.82-9-5.39,0-2.6,2.16-4.35,5.43-4.35,4,0,5.88,2.21,6.47,4.42L125,163.56c-1.77-7.2-8.44-11.36-16.28-11.36-9.55,0-16.8,5.2-16.8,13.9,0,7.59,4.12,11.81,13.27,14,5.16,1.3,9.67,1.82,9.67,5.2,0,3-2.87,4.48-6.73,4.48"/><path d="M153.07,162.92a11.29,11.29,0,0,1,9.16,4.15l9.34-6.1a22.78,22.78,0,0,0-18.5-8.77c-13.53,0-23.27,10.07-23.27,23.51s9.74,23.57,23.27,23.57a22.66,22.66,0,0,0,18.5-8.83l-9.34-6.11a11.13,11.13,0,0,1-9.16,4.22c-8,0-12-6.42-12-12.85s4.06-12.79,12-12.79"/><path d="M190.34,153l-16.48,45.45h11.77l2.68-8.44h17.33l2.68,8.44H220L203.54,153Zm.59,28.57,6-18.9,6,18.9Z"/><polygon points="249.77 174.99 236.36 152.98 224.6 152.98 224.6 198.43 235.78 198.43 235.78 171.42 247.74 190.97 251.86 190.97 263.76 171.42 263.76 198.43 275 198.43 275 152.98 263.17 152.98 249.77 174.99"/><path d="M156,95.81a6,6,0,0,1-2.44-11.38,11.85,11.85,0,1,0,7.87,7.86A6,6,0,0,1,156,95.81"/><path d="M150,249.7c-13-8.17-31.42-19.59-47.76-35.71H84.14c19.18,22.07,42.67,36.79,58.17,46.5l.67.42,7,4.4,7-4.4.67-.42c15.49-9.71,39-24.43,58.17-46.5h-18.1C181.42,230.11,163,241.53,150,249.7"/><path d="M254.27,124.07c5-33,4.17-51.14,4.12-52.19l-.46-9.35-9-2.67c-.48-.14-12.11-3.59-44.81-12.13-34.73-9.06-50.84-12.37-51.51-12.5L150,34.69l-2.64.54c-.67.13-16.78,3.44-51.51,12.5-32.7,8.54-44.33,12-44.81,12.13l-9,2.67-.46,9.35c0,1.05-.84,19.2,4.12,52.19H25v13.4H61.37c-.86-4.71-1.6-9.17-2.26-13.4-5.17-33.52-4.29-51.53-4.29-51.53s11.52-3.43,44.37-12c9.2-2.4,17.07-4.39,23.7-6l7.21,11.65a35.71,35.71,0,1,0,39.8,0l7.21-11.65c6.63,1.63,14.5,3.62,23.7,6,32.85,8.58,44.37,12,44.37,12s.88,18-4.29,51.53c-.66,4.23-1.4,8.69-2.26,13.4H275v-13.4ZM172.91,94.31a23,23,0,1,1-24.4-21.42c.5,0,1,0,1.49,0s1,0,1.49,0a23.05,23.05,0,0,1,21.42,21.42"/></svg>