<svg id="Capa_1" data-name="Capa 1" xmlns="http://www.w3.org/2000/svg" viewBox="0 0 300 300"><title>logo_micky</title><path d="M13.65,204.68a3.35,3.35,0,0,0-.85-.59v0a4.55,4.55,0,0,0,1.36-3.23v-.23a3.43,3.43,0,0,0-.79-2.29,4.52,4.52,0,0,0-4-1.24l-5.17.59,0,0,0,15.77,0,0,5.28-.6a6.63,6.63,0,0,0,2-.46,5,5,0,0,0,1.25-.69,4.83,4.83,0,0,0,1.86-3.84v-.78a3.38,3.38,0,0,0-1-2.46m-4.56-5.49a4.33,4.33,0,0,1,1.36,0c1.1.22,1.65.73,1.64,1.53v.49a1.77,1.77,0,0,1-.19.76,3.17,3.17,0,0,1-2.65,1.66l-3,.34v-4.45Zm3.33,9.92a3.08,3.08,0,0,1-2.58,1.66l-3.56.41v-5.09l0,0,3.18-.37a4.2,4.2,0,0,1,1.71.11,1.7,1.7,0,0,1,1.44,1.77v.38a2.91,2.91,0,0,1-.21,1.17"/><path d="M24.05,195.39l-1.93.23L21.19,198l-5.34,14.13h0l2.21-.25,1.34-3.57,7.43-.85,1.08,2.56a2.62,2.62,0,0,0,.32.69l2.23-.26h0L25,197.61c-.61-1.48-.92-2.22-.94-2.22m-3.81,10.78,1.68-4.42c.76-2,1.15-3.05,1.17-3.05L26,205.51Z"/><path d="M43,198.44a4.65,4.65,0,0,0-1.23-3.2,5,5,0,0,0-4.22-1.39l-5.15.59,0,0,0,15.78,0,0,2-.23,0,0v-5.37l3-.34c.1.21.92,1.57,2.44,4.08a5.94,5.94,0,0,0,.59,1l2.42-.28,0,0-1.2-1.94c-1.4-2.25-2.1-3.39-2.1-3.43a6,6,0,0,0,1.66-1.19A5.68,5.68,0,0,0,43,198.44m-2.07.3a3.36,3.36,0,0,1-.61,1.84,3.89,3.89,0,0,1-2.65,1.59l-3.22.37,0-6.22,0,0,2.8-.32a3.45,3.45,0,0,1,2.32.36,2.6,2.6,0,0,1,1.35,2.28Z"/><path d="M61.65,201.67l-1,1.09-.1-.11q-1.43-1.87-2.64-3.52a8.53,8.53,0,0,0,3-3,3,3,0,0,0,.29-1.4,2.92,2.92,0,0,0-1.18-2.5,3.91,3.91,0,0,0-.57-.31,4.24,4.24,0,0,0-2.1-.3,4.87,4.87,0,0,0-2.35,1,3.65,3.65,0,0,0-1.51,2.86v.13a3.07,3.07,0,0,0,.35,1.44c.26.46.65,1.06,1.17,1.81l-.22.16A15.79,15.79,0,0,0,53.57,200a11.74,11.74,0,0,0-1.31,1.46,7.33,7.33,0,0,0-.57.93,5.37,5.37,0,0,0-.33.79,4.9,4.9,0,0,0-.18,1.38v.15a3.88,3.88,0,0,0,.31,1.53,3.3,3.3,0,0,0,2.13,1.86,4.38,4.38,0,0,0,1.82.12,9.12,9.12,0,0,0,4.91-2.37l.88,1.12.06,0,1.6-1.38h0l-1-1.23c.15-.16.55-.61,1.2-1.36Zm-6-6.85a1.29,1.29,0,0,1,.32-.46,2.41,2.41,0,0,1,1.39-.68h0a2,2,0,0,1,.91.09,1.07,1.07,0,0,1,.87,1.16V195a1.49,1.49,0,0,1-.44.86c-.21.24-.4.44-.56.59a15.61,15.61,0,0,1-1.35,1.06l-.13-.2c-.36-.5-.65-.94-.88-1.33a1.23,1.23,0,0,1-.23-.74,1.21,1.21,0,0,1,.07-.43m-.18,11.34a2.45,2.45,0,0,1-1,0,1.59,1.59,0,0,1-1.25-1.69,2.81,2.81,0,0,1,.14-1,4.38,4.38,0,0,1,.62-1l.2-.25c.35-.37.6-.64.77-.8.44-.4.84-.74,1.2-1q1.29,1.75,3,3.92a6.86,6.86,0,0,1-3.68,1.84"/><polygon points="78.77 191.19 78.76 189.12 78.76 189.11 70.36 190.07 70.34 190.09 70.38 205.91 70.39 205.92 72.44 205.68 72.44 205.67 72.42 198.8 77.58 198.21 77.58 196.13 72.42 196.72 72.41 191.93 78.76 191.2 78.77 191.19"/><path d="M85.71,188.31l-.92,2.42-5.35,14.14h0l2.21-.26L83,201.06l7.42-.85,1.09,2.56a3.46,3.46,0,0,0,.31.69l2.24-.26h0l-5.5-12.88q-.9-2.22-.93-2.22Zm3.86,9.9-5.73.65,1.68-4.41c.75-2,1.14-3,1.16-3.06Z"/><path d="M102.42,199.51a4.57,4.57,0,0,1-.49.43,4,4,0,0,1-1.8.68h-.08a3.45,3.45,0,0,1-1.82-.28,3.23,3.23,0,0,1-.68-.44,2.73,2.73,0,0,1-.42-.44,3.15,3.15,0,0,1-.48-.75l-1.87,1.09q0,.08.21.42a6.94,6.94,0,0,0,.52.75,7,7,0,0,0,.61.6l.57.43a5.2,5.2,0,0,0,3.4.71,6.37,6.37,0,0,0,2.31-.74,6,6,0,0,0,.75-.47,7.88,7.88,0,0,0,.81-.75,4.68,4.68,0,0,0,.5-.67,5,5,0,0,0,.81-2.72v-.06a3.78,3.78,0,0,0-.86-2.46,4.22,4.22,0,0,0-.69-.64,4.32,4.32,0,0,0-.88-.45,6.13,6.13,0,0,0-1.07-.27c-.75-.08-1.41-.17-2-.26a7.93,7.93,0,0,1-1.65-.43,2.82,2.82,0,0,1-.47-.26,1.21,1.21,0,0,1-.55-1.09v-.08a2.21,2.21,0,0,1,.26-1.06,2.27,2.27,0,0,1,.4-.63,3.58,3.58,0,0,1,2.32-1.12,2.87,2.87,0,0,1,2.43.78,2.13,2.13,0,0,1,.42.52l1.85-1.15a3.7,3.7,0,0,0-.29-.44,4.58,4.58,0,0,0-.61-.67,4.78,4.78,0,0,0-.58-.43,5.72,5.72,0,0,0-.73-.39,5,5,0,0,0-2.4-.32l-.18,0a6.28,6.28,0,0,0-1.66.44,5.94,5.94,0,0,0-.88.46,5.44,5.44,0,0,0-.76.6,4.55,4.55,0,0,0-.68.76,4.72,4.72,0,0,0-1,2.9,3.18,3.18,0,0,0,2.28,3.18,13.56,13.56,0,0,0,3.27.69,4.85,4.85,0,0,1,1.17.19,2.92,2.92,0,0,1,.48.2,1.87,1.87,0,0,1,.93,1.67,2.88,2.88,0,0,1-.36,1.36,3.41,3.41,0,0,1-.43.58"/><polygon points="116.79 186.82 116.78 184.75 116.78 184.74 106.42 185.93 106.39 185.95 106.41 188.01 106.42 188.02 110.56 187.55 110.59 201.29 110.6 201.3 112.66 201.06 112.67 201.05 112.64 187.31 116.78 186.83 116.79 186.82"/><polygon points="131.51 185.13 131.5 183.06 131.5 183.05 123.1 184.02 123.08 184.03 123.13 199.85 123.14 199.86 125.18 199.62 125.19 199.61 125.17 192.74 130.33 192.15 130.33 190.07 125.17 190.66 125.16 185.87 131.5 185.14 131.51 185.13"/><path d="M140.08,182.07h0a7.84,7.84,0,0,0-4.37,1.88l-.72.67a8.8,8.8,0,0,0-2.37,6.2v0a7.39,7.39,0,0,0,1.24,4.15,6.76,6.76,0,0,0,1.29,1.45,6.62,6.62,0,0,0,5,1.44,8.19,8.19,0,0,0,5.11-2.62,8.82,8.82,0,0,0,2.36-6.16,7.3,7.3,0,0,0-2.1-5.22,6.56,6.56,0,0,0-5.45-1.83m5.48,7.38a6.7,6.7,0,0,1-1.1,3.56,6.06,6.06,0,0,1-4.32,2.8,4.8,4.8,0,0,1-3.56-1,5.4,5.4,0,0,1-1.94-4.23,6.72,6.72,0,0,1,1.23-3.84,6.06,6.06,0,0,1,4.22-2.62,4.78,4.78,0,0,1,3.92,1.34,5.33,5.33,0,0,1,1.54,3.83Z"/><path d="M157.09,180.11h0a7.83,7.83,0,0,0-4.36,1.87l-.72.68a8.78,8.78,0,0,0-2.37,6.19v0a7.43,7.43,0,0,0,1.23,4.14,6.92,6.92,0,0,0,1.3,1.46,6.68,6.68,0,0,0,5,1.44,8.22,8.22,0,0,0,5.11-2.62,8.89,8.89,0,0,0,2.37-6.16,7.34,7.34,0,0,0-2.1-5.23,6.63,6.63,0,0,0-5.45-1.83m5.47,7.24v.14a6.73,6.73,0,0,1-1.1,3.57,6,6,0,0,1-4.32,2.79,4.78,4.78,0,0,1-3.56-1,5.37,5.37,0,0,1-1.94-4.23,6.74,6.74,0,0,1,1.22-3.84,6.08,6.08,0,0,1,4.23-2.62,4.76,4.76,0,0,1,3.92,1.34,5.35,5.35,0,0,1,1.54,3.82"/><path d="M176.37,179.84a7.08,7.08,0,0,0-5.13-1.34l-4.07.47,0,0,0,15.77,0,0,4.17-.48a9.76,9.76,0,0,0,2.91-.87,9.42,9.42,0,0,0,2.55-1.93,8.87,8.87,0,0,0,2.26-6v-.12a6.89,6.89,0,0,0-2.73-5.61m-.72,9.86a6.55,6.55,0,0,1-4.53,2.56l-1.89.22,0-11.64,0,0,1.63-.19a6.71,6.71,0,0,1,2.08,0,4.78,4.78,0,0,1,1.33.47,4.63,4.63,0,0,1,1.33,1,5.23,5.23,0,0,1,1.44,3.65,6.46,6.46,0,0,1-1.4,3.95"/><path d="M61.76,116.57c.74.85.3,2.53.17,3.5-1.07,8.55-3.81,17-5.17,25.57-2,12.94-4.65,27.78,13.21,34.52,2.1.79,5,.55,4.49-1.2-3.58-13.75-2.9-26.45-.24-40.55,1.09-5.76,2.8-11.46,4-17.22,1-4.88.89-10.11-4.08-13.4-5.44-3.6-13.27-1.87-17.83,2.3a33.34,33.34,0,0,0-6.78,9.64A135.34,135.34,0,0,0,43.33,134c-.54,1.42-1,2.84-1.57,4.25,0-2.74,0-5.49-.13-8.22-.19-6.15.55-16.57-8-19.37-9-2.93-15,4.5-17.9,10.25a168.07,168.07,0,0,0-10.61,28c-1.54,5.16-2.58,10.24-3.65,15.45-.9,4.38-1.81,9-1.29,13.36.26,2.22,5,2.38,5.89.38,2.14-4.7,6.48-19.48,7.82-24,1.5-5,6.89-21.36,7.83-23.84.68-1.81,2.09-5.73,3.45-5.62.95.08.34,3.67.21,5.49-.16,2.32-1.46,19.1-1.53,24.79,0,3.75-.27,7.52,2.46,10.68a8.34,8.34,0,0,0,8.22,2.58c3.54-.91,5.35-4.09,6.49-6.65,3.23-7.29,5-14,7.51-21,2.69-7.53,10.41-27.37,13.26-24.05"/><path d="M275.86,137.39a38.83,38.83,0,0,1,9.09-1.85,1.8,1.8,0,0,0-.22-3.59,43,43,0,0,0-10.49,2.19,12.08,12.08,0,0,0-7.94-4.61c-1.85-.28-3.62.22-5.46.16-3-.1-.26-4.9.45-6.15,1-1.82,3.78-4.25,4.76-.94a11.13,11.13,0,0,1,.18,3.36c0,1.89,3.09,2.73,4.09,1.13,2.6-4.21,4.16-9.07-.21-12.9-2.93-2.57-7.22-2.56-10.71-1.21-3.79,1.49-7.19,3.35-9.69,6.68-2.69,3.61-4.25,8.5-3.05,12.91a11.62,11.62,0,0,0,8.43,8.36,16.2,16.2,0,0,0,6.32-.1l.37-.06c-1,.78-2,1.6-3,2.48-.5.42-1,.84-1.44,1.3-2.81,2.87-3.34,8.59.25,10.81,3.31,2,8.44-.37,11.8-2.75,4.19-3,7.23-7.58,6.91-12.88a10,10,0,0,0-.43-2.34m-9.39,6.71c-1.31,1.46-2.75,2.82-4.17,4.12-1.66,1.53-4.73,2.52-3-.3a8,8,0,0,1,.73-1,42.19,42.19,0,0,1,7.15-5.55,3.22,3.22,0,0,1-.71,2.71"/><path d="M93.53,127a9.41,9.41,0,0,0,9.36-3.71c1.86-2.3,2.42-5.62,2.37-8.62-.09-5-3.26-10.29-9.3-10.41-8.14-.18-11.39,6.91-11,13.22A10.64,10.64,0,0,0,93.53,127M97,113.28c.34-1.44,1.08-2.8,2.57-2.8a3.14,3.14,0,0,1,3.1,2c1.24,2.75-.15,10.51-4.09,11.46-2.83.68-2-9-1.58-10.7"/><path d="M210.08,158.91c-.92.93-1.82,1.85-2.67,2.74-6.85,7.1-13.27,15.13-12.84,26.24.19,5.05,2.71,9.8,7.44,11s9.23-2.39,12.06-6.18,4.43-8.81,5.68-13.65a112.55,112.55,0,0,0,2.83-16.41c.32-3,.56-6,.79-9l.46-6.6c.07-1.11.15-2.22.21-3.32.2-3.58.35-7.15.45-10.73.12-4.31.92-9.71-.7-13.75-.8-2-2.65-3.9-4.71-4.08-.5,0-1-.06-1.51-.06h-.11c-2.09.06-4,1.83-4.79,3.83a5.62,5.62,0,0,0-.19.53,2.88,2.88,0,0,0-.25.72.59.59,0,0,1,0,.13,14.61,14.61,0,0,0-.32,1.6c-.51,2.48-1.3,6-1.8,8a106.7,106.7,0,0,1-3.81,12.89c-1.24,3.23-2.88,8.14-6,9.68-4.62,2.3-2.7-11.08-2.49-13.24a118.16,118.16,0,0,1,2.1-12.15c.71-3.54-2.17-7.43-5.46-7.83-3.7-.45-6.53,1.88-7.38,5.65A89,89,0,0,0,185,139.67c-.21,3.91-.41,8.31.44,12.34a32.64,32.64,0,0,1-2.15,2.83c-2.11,2.39-4,3.94-6.92,3.18a18.59,18.59,0,0,1-6.31-3.49,75.26,75.26,0,0,1-6.46-5.63,93.74,93.74,0,0,0,9.07-7.18c3.89-3.49,8.8-8.87,6-14.5-2.89-5.8-10.69-5.17-14.91-1.35a32.42,32.42,0,0,0-5.81,7.75,42.28,42.28,0,0,0-4,8.4c-.05.17-.1.34-.16.51.06-1.36.14-2.73.25-4.17a140.75,140.75,0,0,1,2.2-16,67.83,67.83,0,0,1,1.7-7.6,10.21,10.21,0,0,0,.05-5.62,6.27,6.27,0,0,0-4.24-4.66c-3.71-1-7.61,2-8.61,5.44a123.1,123.1,0,0,0-4.67,27.25,130.76,130.76,0,0,0,0,14,1.78,1.78,0,0,0-.27.51,41.77,41.77,0,0,1-4.14,9.49,7.22,7.22,0,0,1-3.28,2.91,6,6,0,0,1-5.13.08,12.49,12.49,0,0,1-6.9-8.79,19.23,19.23,0,0,1,1.06-11c.59-1.44,3.42-7.95,5.71-5.63,1.43,1.44.13,3.19.74,4.83a1.56,1.56,0,0,0,1.59.93c2.05-.19,3.21-2.15,3.79-3.92a8.74,8.74,0,0,0-.21-6.79,7.87,7.87,0,0,0-3.86-3.54,12.63,12.63,0,0,0-10.73.79,20.43,20.43,0,0,0-8.19,8.78A30.55,30.55,0,0,0,107.8,158c-1.45,3.72-3.48,7.76-5.83,9.94a3.86,3.86,0,0,1-3.43.88,4,4,0,0,1-2.8-2.93c-1-2.91-.48-7-.14-10,.39-3.35.79-6.7,1.25-10s2.31-8.44.66-11.59c-1.46-2.8-4.73-3.37-7.46-2.24-3.68,1.53-5.14,5.14-5.83,8.81a67.52,67.52,0,0,0-1.11,14.81,51.6,51.6,0,0,0,1,9.61,13.5,13.5,0,0,0,3.35,6.93,10.7,10.7,0,0,0,12.11,1.88,19.44,19.44,0,0,0,5.09-3.75,26.21,26.21,0,0,0,4.89-7.27c4.38,8.45,14.32,10.35,22.67,6.58a15.68,15.68,0,0,0,6.83-6.49,39.07,39.07,0,0,0,2.21-4.2c.07.36.14.73.23,1.1.67,2.81,1.6,6.67,4.29,8.31a4.87,4.87,0,0,0,6.48-1.58,8.94,8.94,0,0,0,.85-1.86s1.52-5.05,2.35-8.13c2,1.74,4.94,4,6.65,5.41,6,5,14,4.6,18.25,1.39h0c2.37-1.36,4.71-4,6.71-6.91,2.07,3.95,5.83,6.71,10.08,6.83,6.25.16,8.93-6.16,11.35-11.6.39-.87,1.45-4.23,2.7-8.38-.16,3-.34,6.07-.56,9.09-.16,2.11-.33,4.21-.53,6.32m-2.36,20c-.59,3.42-1.69,7.48-3.39,10a3,3,0,0,1-2.11,1.09c-1.35-.24-2-1.8-2.13-3-.53-7.89,4.6-15.57,9.28-21.43-.55,4.44-.89,9-1.65,13.36M160,144.14c2-4.34,4.28-8.85,7.51-12.36A6.45,6.45,0,0,1,170,130a2.86,2.86,0,0,1,1.75-.06,1.26,1.26,0,0,1,.85.83c.26.93-.35,2.1-.78,3-1.16,2.25-3.32,4-5.2,5.58a59.35,59.35,0,0,1-6.61,4.85"/><path d="M231.14,121.75s13.49,2.55,16.52-14.11a19.31,19.31,0,0,0,0-7.4,2.74,2.74,0,0,1-.73.3,3.34,3.34,0,0,1-3.87-2.66,3.56,3.56,0,0,1,.88-3.3,5.12,5.12,0,0,0-3.55-.25c-6.51,1.73-4.24,9.16-4.18,17.63s-5.06,9.79-5.06,9.79"/><path d="M292.78,153.61a2.74,2.74,0,0,0,1.53-2.74,2.73,2.73,0,0,0-.85-1.67,3,3,0,0,0-2.35-.73l-2.73.31v0l.95,8.26h0l1.06-.12v0l-.32-2.81,1.58-.18c.07.11.58.82,1.54,2.13a3.91,3.91,0,0,0,.38.51l1.28-.15h0l-.76-1c-.88-1.18-1.33-1.78-1.33-1.8m-1.11-.79L290,153l-.38-3.25,0,0,1.48-.17a2.1,2.1,0,0,1,1.27.18,1.59,1.59,0,0,1,.86,1.2V151a1.51,1.51,0,0,1-.22,1,1.81,1.81,0,0,1-1.32.83"/><path d="M299.94,151.66a8.34,8.34,0,1,0-7.33,9.24,8.34,8.34,0,0,0,7.33-9.24m-7.46,8.12a7.22,7.22,0,1,1,6.35-8,7.22,7.22,0,0,1-6.35,8"/><path d="M251.14,176.78A107.34,107.34,0,0,1,66.87,221.23c-1.43-1.6-4.12.39-2.68,2a110.71,110.71,0,0,0,190.26-46c.54-2.09-2.78-2.58-3.31-.51"/><path d="M53.78,97.08A107.34,107.34,0,0,1,228.67,80.15c1.4,1.62,4.09-.37,2.68-2A110.66,110.66,0,0,0,80.92,61.32,112.38,112.38,0,0,0,50.71,95.73c-1.07,1.88,2,3.21,3.07,1.35"/></svg>