<svg id="Capa_1" data-name="Capa 1" xmlns="http://www.w3.org/2000/svg" viewBox="0 0 300 160"><title>logo_mountache</title><path d="M37.2,132.6q-1.87-12.42-3.74-24.86-4.34,8.94-8.47,18l-.22,0Q18,118.6,11.1,111.6q2.21,12.29,4.42,24.58c-3.33.6-5,.9-8.3,1.54Q3.6,118.81,0,99.89c3.17-.61,6.34-1.19,9.52-1.76q6.68,7.07,13.21,14.25,3.9-8.89,7.94-17.73,4.77-.74,9.56-1.39l5.31,38.14c-3.34.46-5,.7-8.34,1.2"/><path d="M81,118.54a15.38,15.38,0,0,1-2.94,5.16,16.17,16.17,0,0,1-4.76,3.79,18,18,0,0,1-12.72,1.44,15.87,15.87,0,0,1-5.44-2.61,15.39,15.39,0,0,1-4-4.37,14.7,14.7,0,0,1-2-5.76s0-.06,0-.11a14.25,14.25,0,0,1,.46-6.08,15,15,0,0,1,2.83-5.27,16.36,16.36,0,0,1,4.84-3.91,17.47,17.47,0,0,1,6.49-2,17.71,17.71,0,0,1,6.7.48A15.84,15.84,0,0,1,76,102a14.73,14.73,0,0,1,3.88,4.5,14.29,14.29,0,0,1,1.78,5.83v.11a14.62,14.62,0,0,1-.69,6.06m-7.73-5.26a8.37,8.37,0,0,0-.88-3,7.66,7.66,0,0,0-1.9-2.41,8.09,8.09,0,0,0-2.73-1.51,7.86,7.86,0,0,0-3.3-.3,8.18,8.18,0,0,0-3.24,1A7.19,7.19,0,0,0,59,109a7.42,7.42,0,0,0-1.25,2.72,8.94,8.94,0,0,0-.16,3.15s0,.07,0,.11a8.52,8.52,0,0,0,.93,3,8.06,8.06,0,0,0,1.92,2.38,8.22,8.22,0,0,0,2.69,1.48,7.59,7.59,0,0,0,3.26.3,8.14,8.14,0,0,0,3.18-1,7.25,7.25,0,0,0,2.24-2,7.65,7.65,0,0,0,1.28-2.7,9.14,9.14,0,0,0,.22-3.15s0-.06,0-.11"/><path d="M106.19,125.38l-.25-4.2a18.48,18.48,0,0,1-1.47,1.89,11.32,11.32,0,0,1-1.81,1.64,9.3,9.3,0,0,1-2.25,1.2,10,10,0,0,1-2.85.59,9.65,9.65,0,0,1-7.65-2.35,11.66,11.66,0,0,1-3.3-7.79L85,97.34c3.48-.29,5.22-.43,8.7-.68L94.92,113a6.58,6.58,0,0,0,1.66,4.37,4.85,4.85,0,0,0,3.9,1.24,5.14,5.14,0,0,0,3.78-1.75,6.32,6.32,0,0,0,1.16-4.55q-.49-8.19-1-16.38c3.49-.21,5.23-.3,8.72-.47q.72,14.72,1.43,29.45c-3.36.16-5,.25-8.4.45"/><path d="M139.47,124.12l-.27-16.4a6.43,6.43,0,0,0-1.44-4.45,4.88,4.88,0,0,0-3.89-1.43,5.15,5.15,0,0,0-3.91,1.61,6.19,6.19,0,0,0-1.32,4.51q.24,8.21.49,16.4c-3.36.1-5,.16-8.41.3q-.59-14.73-1.19-29.47c3.49-.14,5.23-.2,8.72-.3.05,1.68.08,2.52.13,4.21A18.09,18.09,0,0,1,130,97.25a11.48,11.48,0,0,1,1.94-1.57,10,10,0,0,1,2.38-1.11,10.42,10.42,0,0,1,3-.45q5-.09,7.76,2.81c1.83,1.93,2.74,4.6,2.76,8l.1,19.09c-3.36,0-5,0-8.4.09"/><path d="M167.51,124.2a13.65,13.65,0,0,1-3.72.4,14.42,14.42,0,0,1-3.5-.45,6.38,6.38,0,0,1-2.7-1.49,7,7,0,0,1-1.76-2.73,12.08,12.08,0,0,1-.62-4.27q0-7,0-14h-3.64V94.53h3.67c0-3,0-4.52,0-7.54,3.52,0,5.29,0,8.81.08,0,3-.07,4.53-.11,7.54,2.89,0,4.34.07,7.23.14-.07,2.86-.1,4.29-.17,7.15-2.87-.07-4.3-.1-7.17-.14q-.09,6.3-.19,12.6c0,1.9.87,2.87,2.7,2.9a8.86,8.86,0,0,0,4.2-1l-.15,6.71a13.63,13.63,0,0,1-3,1.17"/><path d="M192.71,125.09c.07-1.28.1-1.92.17-3.19a12,12,0,0,1-3.85,2.53,12.48,12.48,0,0,1-5.29.79,13.5,13.5,0,0,1-3.93-.73,9.45,9.45,0,0,1-3.18-1.84,8.51,8.51,0,0,1-2.11-2.9,8.94,8.94,0,0,1-.7-3.9s0-.07,0-.11a9.09,9.09,0,0,1,1-4.16,7.93,7.93,0,0,1,2.6-2.83,11.08,11.08,0,0,1,3.9-1.6,19.2,19.2,0,0,1,5-.38,22,22,0,0,1,4,.51,26.17,26.17,0,0,1,3.32,1c0-.19,0-.29,0-.49a4.94,4.94,0,0,0-1.44-4.1,7.39,7.39,0,0,0-4.82-1.6,19.87,19.87,0,0,0-4.43.23,29.39,29.39,0,0,0-4.05,1c-.77-2.58-1.16-3.87-2-6.45a33.91,33.91,0,0,1,5.34-1.52,29.71,29.71,0,0,1,6.68-.38c3.64.13,7.69,1.08,10.24,3.9,2.11,2.33,3,6.49,2.67,9.53l-1.08,17.08c-3.25-.21-4.87-.3-8.12-.47m.79-11.86a13.29,13.29,0,0,0-2.45-.93,14.15,14.15,0,0,0-2.94-.44,7.77,7.77,0,0,0-4.37.86,3.4,3.4,0,0,0-1.68,3v.11a3.09,3.09,0,0,0,1.18,2.69,5.55,5.55,0,0,0,3.3,1.07,7.59,7.59,0,0,0,4.89-1.2,4.58,4.58,0,0,0,2-3.64c0-.59,0-.89.07-1.48"/><path d="M227.89,126.89a15.32,15.32,0,0,1-7.31.83,16,16,0,0,1-6-1.73,15.7,15.7,0,0,1-4.65-3.64,15.43,15.43,0,0,1-2.87-5.06,15,15,0,0,1-.77-6,.45.45,0,0,1,0-.11,14.82,14.82,0,0,1,1.6-5.84,15,15,0,0,1,3.65-4.65,15.17,15.17,0,0,1,5.31-2.89,16.64,16.64,0,0,1,6.6-.66,17.1,17.1,0,0,1,7.09,2,16,16,0,0,1,4.65,4.13c-2.35,2-3.51,3-5.83,4.93a13.77,13.77,0,0,0-2.8-2.64,7.88,7.88,0,0,0-3.81-1.23,6.71,6.71,0,0,0-3,.37,7.12,7.12,0,0,0-2.47,1.53,7.73,7.73,0,0,0-1.73,2.43,8.8,8.8,0,0,0-.79,3,.37.37,0,0,1,0,.11A9.5,9.5,0,0,0,215,115a7.71,7.71,0,0,0,1.33,2.71,7.46,7.46,0,0,0,2.25,1.92,7.66,7.66,0,0,0,3.06.91,8,8,0,0,0,3.78-.51,16.26,16.26,0,0,0,3.37-2c1.79,2.16,2.68,3.25,4.45,5.43a19.92,19.92,0,0,1-5.32,3.36"/><path d="M255.43,131l2.19-16.26a6.42,6.42,0,0,0-.75-4.61,4.92,4.92,0,0,0-3.65-2,5.27,5.27,0,0,0-4.12,1,6.2,6.2,0,0,0-2,4.27l-2,16.29c-3.34-.41-5-.6-8.36-1q2.19-20,4.39-39.92c3.53.39,5.29.59,8.8,1q-.89,7.4-1.79,14.78A18.93,18.93,0,0,1,250,103a11.81,11.81,0,0,1,2.15-1.27,10.29,10.29,0,0,1,2.53-.73,10.17,10.17,0,0,1,3,0c3.31.44,5.74,1.76,7.26,3.94s2,5,1.54,8.34q-1.38,9.44-2.75,18.89c-3.34-.49-5-.73-8.35-1.18"/><path d="M299.38,125.07l-.28,1q-10.34-2-20.71-3.66a7.06,7.06,0,0,0,1.83,4.67,7.76,7.76,0,0,0,4.47,2.24,9.63,9.63,0,0,0,3.87-.05,12.93,12.93,0,0,0,3.84-1.66c1.62,2,2.42,3,4,5.06a15.38,15.38,0,0,1-5.78,3,16.27,16.27,0,0,1-7.2.2,17.32,17.32,0,0,1-5.92-2.11,14.67,14.67,0,0,1-4.39-3.88,14.93,14.93,0,0,1-2.49-5.26,15.72,15.72,0,0,1-.23-6.3s0-.06,0-.1a16.17,16.17,0,0,1,2-5.71,14.78,14.78,0,0,1,3.83-4.36,14.3,14.3,0,0,1,5.26-2.5,15,15,0,0,1,6.31-.17,15.28,15.28,0,0,1,6.35,2.46,13.08,13.08,0,0,1,4,4.33,14.35,14.35,0,0,1,1.75,5.53,20.52,20.52,0,0,1-.26,6.09s0,.06,0,.1c-.07.4-.15.74-.22,1m-8.67-10.46a5.78,5.78,0,0,0-4-2.47,5.88,5.88,0,0,0-4.64,1,8.38,8.38,0,0,0-2.91,4.15q6.42,1,12.81,2.19a8,8,0,0,0-1.22-4.82"/><path d="M53.73,143.61a.91.91,0,0,0-.39-.71,1.64,1.64,0,0,0-1-.1l-.32,0c-.13,0-.21,0-.22-.16s0-.32-.07-.53l0-.05,3.12-.34,3.07-.41.05,0c0,.21,0,.32.06.53s0,.19-.14.2l-.34,0c-.82.1-1.19.48-1.1,1.12.42,3.52.84,7,1.27,10.55.08.67.37,1,.87.92l1.92-.23c1.44-.16,2.3-1.27,2.6-3.33l.9.09a23.33,23.33,0,0,0-.11,3.88c-3.07.35-4.6.53-7.66.91-.6.07-1.48.19-2.66.37l-.09,0c0-.18,0-.27-.06-.44s.09-.29.33-.32l.71-.09a.66.66,0,0,0,.52-.25,1.32,1.32,0,0,0,.05-.71q-.69-5.49-1.36-11"/><path d="M65.84,142.34a3.87,3.87,0,0,0-.29-1.3.57.57,0,0,0-.58-.24l-.72,0a.13.13,0,0,1-.16-.1c-.06-.25-.08-.38-.14-.64.56-.1,1.27-.26,2.12-.47a9.86,9.86,0,0,0,1.65-.52c.24,0,.38,0,.39.18,0,.58.08,1.38.18,2.34q.58,5.6,1.18,11.2a.74.74,0,0,0,.32.61,1.92,1.92,0,0,0,.87.22l.25,0a.19.19,0,0,1,.2.19l0,.51a.08.08,0,0,1,0,0c-1.25.1-2.17.19-2.75.25l-2.66.33,0,0c0-.2,0-.3-.06-.5a.2.2,0,0,1,.17-.23l.25-.07a1.76,1.76,0,0,0,.79-.39.76.76,0,0,0,.19-.68c-.39-3.58-.77-7.16-1.16-10.75"/><path d="M77.7,152.72A4.65,4.65,0,0,1,75,154.21a3.21,3.21,0,0,1-2.15-.35,2.45,2.45,0,0,1,0-3.67,11,11,0,0,1,2.88-1.54l1.58-.62a5.77,5.77,0,0,0-.64-2.58,1.31,1.31,0,0,0-1.26-.55,2.91,2.91,0,0,0-1.12.31c-.3.17-.43.37-.41.61a3,3,0,0,0,.12.53,3.31,3.31,0,0,1,.11.4.78.78,0,0,1-.31.58,1.24,1.24,0,0,1-.78.37c-.7.07-1.1-.21-1.16-.82s.32-1.26,1.17-1.85a5.44,5.44,0,0,1,2.62-1,4.22,4.22,0,0,1,2.8.58,3.72,3.72,0,0,1,1.31,2.94l.3,3.23q0,.5.09.75a3.43,3.43,0,0,0,.15.54.74.74,0,0,0,.3.41.86.86,0,0,0,.52.09.6.6,0,0,0,.47-.25c.11-.15.17-.23.19-.23s.11.05.19.15a.47.47,0,0,1,.14.27c0,.05-.06.17-.21.35a2.6,2.6,0,0,1-.73.55,2.51,2.51,0,0,1-1.05.35,3.1,3.1,0,0,1-1.55-.16,1.54,1.54,0,0,1-.79-.85H77.7m0-.83c-.11-1.21-.17-1.82-.28-3l-1.25.5a3.1,3.1,0,0,0-1.41,1,1.9,1.9,0,0,0-.28,1.3A1.28,1.28,0,0,0,76,153a3.24,3.24,0,0,0,1.66-1.06"/><path d="M86.05,144.48h0a4.88,4.88,0,0,1,3.07-1.65,2.27,2.27,0,0,1,2.45,1.28A5.39,5.39,0,0,1,95,142.38a3.22,3.22,0,0,1,1.42.17,1.62,1.62,0,0,1,.84.77,4.13,4.13,0,0,1,.41,1.09,10,10,0,0,1,.18,1.42c.12,1.81.18,2.72.31,4.54a.69.69,0,0,0,.29.59,3,3,0,0,0,.87.27l.18,0a.21.21,0,0,1,.2.19c0,.21,0,.31,0,.51l0,0c-1.22.05-2.11.1-2.7.14l-2.39.21-.06,0c0-.2,0-.3,0-.51a.18.18,0,0,1,.16-.21c.72-.11,1.06-.47,1-1.06-.15-2-.22-3-.36-5-.09-1.27-.44-1.89-1-1.84a4,4,0,0,0-2.39,1.27c.06.38.11.81.14,1.28l.35,4.57a.78.78,0,0,0,.34.7,2,2,0,0,0,.84.2c.11,0,.18,0,.19.19s0,.3,0,.51a.08.08,0,0,1,0,0q-1.6.08-2.49.15l-2.42.23,0,0c0-.2,0-.3,0-.51s.06-.18.19-.22c.7-.11,1-.46,1-1.06-.16-2-.24-3-.39-5-.1-1.3-.47-1.94-1.08-1.89a4,4,0,0,0-2.27,1.26c.19,2.36.29,3.54.49,5.9a.91.91,0,0,0,.22.56.85.85,0,0,0,.4.25l.53.05a.21.21,0,0,1,.22.19c0,.2,0,.31,0,.51l0,.05c-1.07.06-1.91.11-2.52.16l-2.58.27-.05,0,0-.51a.21.21,0,0,1,.16-.22l.19-.06a2.55,2.55,0,0,0,.82-.37.73.73,0,0,0,.19-.64c-.19-2.18-.28-3.27-.47-5.44a2.88,2.88,0,0,0-.2-1,.45.45,0,0,0-.41-.23h-.93c-.05-.35-.08-.53-.13-.89a37.53,37.53,0,0,0,3.77-.85c.1,0,.16,0,.16.06,0,.56,0,.84.07,1.4"/><path d="M106.34,150.55a4.72,4.72,0,0,1-2.79,1.39,3.13,3.13,0,0,1-2.13-.43,2.46,2.46,0,0,1,.15-3.67,11.22,11.22,0,0,1,2.93-1.43l1.6-.57a5.76,5.76,0,0,0-.54-2.6,1.32,1.32,0,0,0-1.24-.59,2.8,2.8,0,0,0-1.13.27c-.3.16-.44.35-.43.59a2.4,2.4,0,0,0,.1.54,1.56,1.56,0,0,1,.09.4.77.77,0,0,1-.32.57,1.28,1.28,0,0,1-.8.34c-.7,0-1.09-.25-1.13-.87s.37-1.24,1.24-1.8a5.37,5.37,0,0,1,2.65-.93,4.27,4.27,0,0,1,2.78.68,3.75,3.75,0,0,1,1.2,3c.07,1.3.11,1.94.18,3.24a5.63,5.63,0,0,0,.06.75,3.32,3.32,0,0,0,.13.55.71.71,0,0,0,.29.42.88.88,0,0,0,.51.11.6.6,0,0,0,.48-.24c.12-.15.18-.22.2-.22s.1.05.19.16a.65.65,0,0,1,.13.27c0,.06-.08.17-.23.34a2.69,2.69,0,0,1-.75.53,2.49,2.49,0,0,1-1.07.3,3.05,3.05,0,0,1-1.53-.21,1.52,1.52,0,0,1-.76-.88h-.06m0-.84c-.06-1.21-.1-1.82-.17-3l-1.26.46a3,3,0,0,0-1.45.91,1.92,1.92,0,0,0-.32,1.29q.09,1.47,1.5,1.38a3.2,3.2,0,0,0,1.7-1"/><path d="M114.83,142.47c.1,2.25.16,3.38.26,5.63q.07,1.64.66,1.59a2.44,2.44,0,0,0,1.5-.62l.54.49a3.83,3.83,0,0,1-3.1,1.78c-1.27.06-2-.66-2-2.17-.13-2.63-.19-3.95-.32-6.59l-1.16.06q-.42,0-.42-.15c0-.27,0-.4,0-.67,0-.11.29-.19.86-.22a1.08,1.08,0,0,0,1-.75,6.43,6.43,0,0,0,.17-2.21l1.82-.78c.07,1.44.1,2.15.17,3.59l2.15-.1c.33,0,.5.05.51.2s0,.26,0,.44-.27.38-.83.4l-1.81.08"/><path d="M122.66,143.63l.2,5.44a.76.76,0,0,0,.28.64,2,2,0,0,0,.81.28l.23,0a.2.2,0,0,1,.18.21c0,.2,0,.3,0,.51l0,0c-1.22,0-2.12,0-2.7.05L119,151l0,0c0-.21,0-.31,0-.51a.18.18,0,0,1,.15-.21l.27-.06a1.62,1.62,0,0,0,.8-.33.83.83,0,0,0,.22-.67c-.09-2.17-.13-3.26-.21-5.44a3,3,0,0,0-.17-1.06.47.47,0,0,0-.39-.3l-.93-.06c0-.26,0-.38-.07-.64a34,34,0,0,0,3.86-.81q.15,0,.15.06v.47c0,.2,0,.54,0,1s0,.89,0,1.22m-2.4-4.52a1.24,1.24,0,0,1-.43-.93,1.26,1.26,0,0,1,.35-1,1.43,1.43,0,0,1,1.95-.07,1.27,1.27,0,0,1,.42.93,1.23,1.23,0,0,1-.36,1,1.37,1.37,0,0,1-1,.42,1.33,1.33,0,0,1-1-.35"/><path d="M134.16,142.63c-1,2.79-1.52,4.19-2.51,7a3.48,3.48,0,0,1-.49.95.75.75,0,0,1-.6.26,1.11,1.11,0,0,1-.78-.24,2.51,2.51,0,0,1-.58-.88c-1.11-2.59-1.66-3.88-2.78-6.47-.1-.21-.18-.39-.26-.52a2.41,2.41,0,0,0-.31-.44,1.35,1.35,0,0,0-.47-.35,1.88,1.88,0,0,0-.65-.15q-.23,0-.24-.15c0-.22,0-.33,0-.56l.08,0c.93,0,1.69,0,2.29,0l2.79-.12.1,0,0,.53c0,.1-.06.16-.19.19l-.38.05c-.33,0-.52.15-.57.28a1.07,1.07,0,0,0,.14.69c1,2.22,1.44,3.33,2.39,5.55.75-2.27,1.13-3.41,1.89-5.68.1-.28.08-.48-.08-.6a2.41,2.41,0,0,0-.91-.33l-.09,0c-.12,0-.18-.08-.18-.16s0-.32,0-.53l.09-.07c1,0,1.74,0,2.34,0l1.76-.08,0,0c0,.21,0,.31,0,.52s-.08.18-.25.21a1.75,1.75,0,0,0-1.58,1.14"/><path d="M137,145.82a5.44,5.44,0,0,1,1.3-3.85,4.87,4.87,0,0,1,3.75-1.51,5.79,5.79,0,0,1,2.37.43,4,4,0,0,1,1.63,1.21,5.83,5.83,0,0,1,.87,1.63,6,6,0,0,1,.29,1.79,5,5,0,0,1-.31,1.72,5.61,5.61,0,0,1-.91,1.61,4.5,4.5,0,0,1-1.59,1.22,5.32,5.32,0,0,1-2.26.49,4.88,4.88,0,0,1-5.14-4.74m4.84-4.43a1.74,1.74,0,0,0-1.56,1.18,6.15,6.15,0,0,0-.53,2.72,6.59,6.59,0,0,0,.31,1.87,4.76,4.76,0,0,0,.93,1.71,1.93,1.93,0,0,0,1.5.75,1.8,1.8,0,0,0,1.38-.75,4.24,4.24,0,0,0,.58-2.63,7.45,7.45,0,0,0-.73-3.6,2.11,2.11,0,0,0-1.88-1.25"/><path d="M163.41,142.81q-2,4.55-3.88,9.11c-.17.42-.34.79-.49,1.1a10.22,10.22,0,0,1-.58,1,4,4,0,0,1-.68.8,2.79,2.79,0,0,1-.81.51,2.54,2.54,0,0,1-1,.2,2.48,2.48,0,0,1-1.1-.32,1,1,0,0,1-.58-.91,1,1,0,0,1,.12-.49,1.22,1.22,0,0,1,.3-.37,1.65,1.65,0,0,1,.42-.21,1.61,1.61,0,0,1,.49-.06.94.94,0,0,1,.52.17,1.09,1.09,0,0,1,.4.35c.17.26.31.39.43.39s.15-.07.28-.21a4.34,4.34,0,0,0,.51-.78,8.37,8.37,0,0,0,.62-1.36l.41-1.08c-1.23-3.12-1.85-4.67-3.11-7.78a3.62,3.62,0,0,0-.67-1.17,1.35,1.35,0,0,0-1-.31c-.15,0-.23,0-.24-.16s0-.33,0-.55l.07,0c1,0,1.79.06,2.41.06l2.76,0,.08.05v.53a.17.17,0,0,1-.19.18,1.16,1.16,0,0,0-.85.24c-.13.16-.13.41,0,.75.82,2.25,1.22,3.38,2,5.63q1.38-3.21,2.15-5.53c.26-.69,0-1-.88-1.06a.17.17,0,0,1-.19-.16c0-.22,0-.32,0-.54l.09-.06c1,0,1.88.07,2.55.08l1.46,0,0,.05c0,.2,0,.3,0,.51s-.09.2-.26.2a1.86,1.86,0,0,0-1.71,1.33"/><path d="M186,146c0,1-.07,1.54-.11,2.56a.85.85,0,0,0,.24.66,9.37,9.37,0,0,1-2.78,1.45,10.08,10.08,0,0,1-3.49.39,8.34,8.34,0,0,1-5.73-2.25,6.51,6.51,0,0,1-2.12-5.08,7.34,7.34,0,0,1,1.3-4.14,7.6,7.6,0,0,1,3.1-2.63,8.65,8.65,0,0,1,3.94-.76,9.49,9.49,0,0,1,2.33.34,14.62,14.62,0,0,1,1.6.57,3,3,0,0,0,1,.31,25.8,25.8,0,0,0,.34,3.75l-.9.14a7.07,7.07,0,0,0-1.48-3,4,4,0,0,0-3-1.2,4.46,4.46,0,0,0-3.66,1.7,7,7,0,0,0-1.62,4.56A7.34,7.34,0,0,0,176.3,148a4.83,4.83,0,0,0,4,2.06,4.46,4.46,0,0,0,2.92-.77l.15-3.45c0-.63-.51-1-1.59-1h-.32c-.11,0-.17-.07-.17-.2s0-.32,0-.53l0,0c1.47.09,2.49.15,3.08.17l2.94.09,0,0,0,.52a.17.17,0,0,1-.18.19H187a1.08,1.08,0,0,0-.82.18,1.15,1.15,0,0,0-.23.73"/><path d="M198,149.18a1.23,1.23,0,0,0,.25.9,1.65,1.65,0,0,0,1.11.43c0,.29,0,.43,0,.72a9.11,9.11,0,0,0-3.21.67l-.77,0c0-.41.08-.62.13-1a5.78,5.78,0,0,1-2.95.82,3,3,0,0,1-2.4-1,3.52,3.52,0,0,1-.57-2.26l.25-5a1.74,1.74,0,0,0-.09-.79.57.57,0,0,0-.51-.31l-.7-.07-.07-.05c0-.27,0-.41,0-.68l.11,0,2.53.17,1.32,0c-.05.67-.1,1.28-.13,1.83-.1,1.89-.15,2.83-.26,4.72a3.12,3.12,0,0,0,.28,1.78,1,1,0,0,0,.82.56,3.34,3.34,0,0,0,2.32-.72l.35-6.11c0-.7-.15-1.07-.57-1.1l-.7-.08-.09-.05c0-.27,0-.4,0-.67l.09,0c1.27.1,2.11.17,2.51.19l1.37,0c-.07.62-.12,1.23-.15,1.82-.14,2.12-.2,3.18-.33,5.31"/><path d="M200.84,148.66l.9,0a4.31,4.31,0,0,0,.78,2.12,2.6,2.6,0,0,0,1.84.71,1.38,1.38,0,0,0,.94-.3,1.45,1.45,0,0,0,.48-1.06,1.66,1.66,0,0,0-.22-1.07,2.53,2.53,0,0,0-1.14-.75,7.58,7.58,0,0,1-2.12-1.42,2.61,2.61,0,0,1-.92-2.11,2.37,2.37,0,0,1,1.17-1.87,4.22,4.22,0,0,1,2.7-.61,6.5,6.5,0,0,1,2.83.82c0,.75.08,1.51.09,2.29l-.89,0a3.17,3.17,0,0,0-.74-1.65,1.88,1.88,0,0,0-1.29-.56,1.32,1.32,0,0,0-.91.25,1.17,1.17,0,0,0-.44.92,1.66,1.66,0,0,0,1.13,1.71,8.16,8.16,0,0,1,2.47,1.58,2.51,2.51,0,0,1,.79,2.06,2.38,2.38,0,0,1-1.33,2.07,5.09,5.09,0,0,1-2.73.52,13.76,13.76,0,0,1-1.63-.25,11.56,11.56,0,0,0-1.71-.24,22.44,22.44,0,0,0,0-3.22"/><path d="M213.93,144.22l-.45,5.62c-.09,1.08.06,1.64.45,1.66a2.45,2.45,0,0,0,1.57-.42l.47.55a3.85,3.85,0,0,1-3.3,1.38c-1.27-.11-1.86-.91-1.74-2.42.21-2.63.31-3.94.52-6.57l-1.16-.09c-.28,0-.41-.09-.4-.2l.05-.67c0-.11.3-.15.88-.11a1.09,1.09,0,0,0,1.13-.62,6.15,6.15,0,0,0,.46-2.16l1.9-.55c-.12,1.43-.18,2.15-.29,3.58l2.15.18c.33,0,.49.11.47.26s0,.26,0,.44-.31.34-.87.29l-1.81-.15"/><path d="M217.35,148.57a5.38,5.38,0,0,1,1.68-3.7,4.88,4.88,0,0,1,3.89-1.11,5.78,5.78,0,0,1,2.32.67,4.06,4.06,0,0,1,1.49,1.37,5.28,5.28,0,0,1,.7,1.71,5.8,5.8,0,0,1,.11,1.81,5,5,0,0,1-.49,1.69,5.36,5.36,0,0,1-1.07,1.5,4.5,4.5,0,0,1-1.71,1.05,5.39,5.39,0,0,1-2.3.25,4.85,4.85,0,0,1-4.62-5.24m5.26-3.9a1.71,1.71,0,0,0-1.67,1,6.12,6.12,0,0,0-.8,2.65,6.72,6.72,0,0,0,.11,1.88A4.54,4.54,0,0,0,221,152a1.89,1.89,0,0,0,1.41.9,1.77,1.77,0,0,0,1.46-.6,4.23,4.23,0,0,0,.85-2.55,7.61,7.61,0,0,0-.35-3.66,2.12,2.12,0,0,0-1.76-1.43"/><path d="M229,151l.91,0a4.39,4.39,0,0,0,.7,2.16,2.62,2.62,0,0,0,1.81.77,1.28,1.28,0,0,0,.95-.27,1.38,1.38,0,0,0,.52-1,1.68,1.68,0,0,0-.17-1.07,2.61,2.61,0,0,0-1.12-.8,7.52,7.52,0,0,1-2.07-1.49,2.59,2.59,0,0,1-.85-2.14,2.35,2.35,0,0,1,1.24-1.83,4.32,4.32,0,0,1,2.73-.51,6.41,6.41,0,0,1,2.8.93q0,1.11,0,2.28h-.89a3.29,3.29,0,0,0-.67-1.68,1.93,1.93,0,0,0-1.27-.6,1.3,1.3,0,0,0-.93.22,1.14,1.14,0,0,0-.47.89,1.64,1.64,0,0,0,1.07,1.75,8.25,8.25,0,0,1,2.41,1.67,2.51,2.51,0,0,1,.72,2.09,2.39,2.39,0,0,1-1.41,2,5.23,5.23,0,0,1-2.75.42,15.28,15.28,0,0,1-1.62-.32,10.16,10.16,0,0,0-1.7-.29A22.84,22.84,0,0,0,229,151"/><path d="M238,150.63a5.39,5.39,0,0,1,1.78-3.65,4.86,4.86,0,0,1,3.93-1,5.68,5.68,0,0,1,2.29.74,4.06,4.06,0,0,1,1.47,1.4,5.86,5.86,0,0,1,.65,1.73,5.79,5.79,0,0,1,.05,1.81,4.83,4.83,0,0,1-.53,1.68,5.77,5.77,0,0,1-1.1,1.47,4.35,4.35,0,0,1-1.75,1,5.32,5.32,0,0,1-2.31.19,4.87,4.87,0,0,1-4.48-5.36m5.37-3.76a1.73,1.73,0,0,0-1.7,1,6.15,6.15,0,0,0-.87,2.63,6.7,6.7,0,0,0,.06,1.89,4.76,4.76,0,0,0,.7,1.82,1.91,1.91,0,0,0,1.39.94,1.81,1.81,0,0,0,1.48-.56,4.33,4.33,0,0,0,.92-2.54,7.56,7.56,0,0,0-.26-3.66,2.12,2.12,0,0,0-1.72-1.48"/><path d="M150,3.57c-32,0-30.1,18.81-30.1,18.81a3.76,3.76,0,0,0,3.76,3.77h52.68a3.76,3.76,0,0,0,3.76-3.77S182,3.57,150,3.57"/><path d="M175.14,39.68l-50.6,4.45a.94.94,0,0,0-.86,1l.17,1.87a.94.94,0,0,0,1,.86l50.6-4.45a.94.94,0,0,0,.86-1l-.17-1.87a.94.94,0,0,0-1-.86"/><path d="M175.4,54.91l-50.67-3.54a.94.94,0,0,0-.13,1.87l50.67,3.55a.94.94,0,0,0,1-.88.93.93,0,0,0-.87-1"/><path d="M180.1,62.15a1.88,1.88,0,0,0-1.88-1.88H121.78a1.88,1.88,0,0,0-1.88,1.88S118,71.56,150,71.56s30.1-9.41,30.1-9.41"/><path d="M176.26,35a.63.63,0,0,0-.35-.62,10.79,10.79,0,0,0-4.34-1.25c-4.28-.39-4.43,1.28-8.72.88s-4.12-2.06-8.41-2.45-4.43,1.27-8.71.87-4.13-2-8.42-2.45-4.43,1.27-8.71.88a9.81,9.81,0,0,1-3.89-1.11.63.63,0,0,0-.91.5l-.06.62a.63.63,0,0,0,.35.62,10.65,10.65,0,0,0,4.34,1.24c4.28.4,4.43-1.27,8.72-.88s4.12,2.06,8.41,2.46,4.43-1.27,8.71-.88,4.13,2.06,8.42,2.45,4.43-1.27,8.71-.87a9.49,9.49,0,0,1,3.89,1.11.63.63,0,0,0,.91-.5Z"/></svg>