<?xml version="1.0" encoding="utf-8"?>
<!-- Generator: Adobe Illustrator 22.0.0, SVG Export Plug-In . SVG Version: 6.00 Build 0)  -->
<svg version="1.1" id="Capa_1" xmlns="http://www.w3.org/2000/svg" xmlns:xlink="http://www.w3.org/1999/xlink" x="0px" y="0px"
	 viewBox="0 0 300 160" style="enable-background:new 0 0 300 160;" xml:space="preserve">
<style type="text/css">
	.st0{fill:#FFFFFF;}
</style>
<title>logo_mountache</title>
<path class="st0" d="M37.2,132.6c-1.2-8.3-2.5-16.6-3.7-24.9c-2.9,6-5.7,12-8.5,18h-0.2c-4.5-4.8-9.1-9.5-13.7-14.1
	c1.5,8.2,2.9,16.4,4.4,24.6c-3.3,0.6-5,0.9-8.3,1.5C4.8,125.1,2.4,112.5,0,99.9c3.2-0.6,6.3-1.2,9.5-1.8c4.5,4.7,8.9,9.5,13.2,14.3
	c2.6-5.9,5.2-11.8,7.9-17.7c3.2-0.5,6.4-1,9.6-1.4l5.3,38.1C42.2,131.9,40.5,132.1,37.2,132.6"/>
<path class="st0" d="M81,118.5c-0.6,1.9-1.6,3.6-2.9,5.2c-1.3,1.6-2.9,2.8-4.8,3.8c-3.9,2-8.4,2.5-12.7,1.4c-2-0.5-3.8-1.4-5.4-2.6
	c-1.6-1.2-3-2.7-4-4.4c-1.1-1.8-1.7-3.7-2-5.8c0,0,0-0.1,0-0.1c-0.3-2-0.1-4.1,0.5-6.1c0.6-1.9,1.5-3.7,2.8-5.3
	c1.3-1.6,3-2.9,4.8-3.9c2-1.1,4.2-1.8,6.5-2c2.2-0.3,4.5-0.1,6.7,0.5c2,0.5,3.9,1.4,5.5,2.7c1.6,1.2,2.9,2.8,3.9,4.5
	c1,1.8,1.6,3.8,1.8,5.8v0.1C81.9,114.5,81.6,116.6,81,118.5 M73.2,113.2c-0.1-1-0.4-2.1-0.9-3c-0.5-0.9-1.1-1.7-1.9-2.4
	c-0.8-0.7-1.7-1.2-2.7-1.5c-1.1-0.3-2.2-0.4-3.3-0.3c-1.1,0.1-2.2,0.4-3.2,1c-0.9,0.5-1.6,1.2-2.2,2c-0.6,0.8-1,1.7-1.3,2.7
	c-0.2,1-0.3,2.1-0.2,3.2c0,0,0,0.1,0,0.1c0.1,1,0.4,2.1,0.9,3c0.5,0.9,1.1,1.7,1.9,2.4c0.8,0.7,1.7,1.2,2.7,1.5
	c1.1,0.3,2.2,0.4,3.3,0.3c1.1-0.1,2.2-0.5,3.2-1c0.9-0.5,1.6-1.2,2.2-2c0.6-0.8,1-1.7,1.3-2.7C73.3,115.4,73.4,114.3,73.2,113.2
	C73.3,113.3,73.3,113.2,73.2,113.2"/>
<path class="st0" d="M106.2,125.4l-0.3-4.2c-0.4,0.7-0.9,1.3-1.5,1.9c-0.5,0.6-1.1,1.2-1.8,1.6c-0.7,0.5-1.4,0.9-2.3,1.2
	c-0.9,0.3-1.9,0.5-2.8,0.6c-2.8,0.4-5.6-0.5-7.7-2.3c-2-2.1-3.2-4.9-3.3-7.8l-1.6-19c3.5-0.3,5.2-0.4,8.7-0.7l1.2,16.3
	c0,1.6,0.6,3.2,1.7,4.4c1.1,1,2.5,1.4,3.9,1.2c1.5,0,2.8-0.7,3.8-1.8c1-1.3,1.4-2.9,1.2-4.6c-0.3-5.5-0.7-10.9-1-16.4
	c3.5-0.2,5.2-0.3,8.7-0.5c0.5,9.8,1,19.6,1.4,29.5C111.2,125.1,109.6,125.2,106.2,125.4"/>
<path class="st0" d="M139.5,124.1l-0.3-16.4c0.1-1.6-0.4-3.2-1.4-4.4c-1-1-2.4-1.6-3.9-1.4c-1.5,0-2.9,0.5-3.9,1.6
	c-1,1.3-1.5,2.9-1.3,4.5c0.2,5.5,0.3,10.9,0.5,16.4c-3.4,0.1-5,0.2-8.4,0.3c-0.4-9.8-0.8-19.6-1.2-29.5c3.5-0.1,5.2-0.2,8.7-0.3
	c0.1,1.7,0.1,2.5,0.1,4.2c0.5-0.7,1-1.3,1.6-1.9c0.6-0.6,1.2-1.1,1.9-1.6c0.7-0.5,1.5-0.8,2.4-1.1c1-0.3,2-0.4,3-0.4
	c3.3-0.1,5.9,0.9,7.8,2.8c1.8,1.9,2.7,4.6,2.8,8l0.1,19.1C144.6,124,142.9,124,139.5,124.1"/>
<path class="st0" d="M167.5,124.2c-1.2,0.3-2.5,0.4-3.7,0.4c-1.2,0-2.4-0.2-3.5-0.4c-1-0.3-1.9-0.8-2.7-1.5
	c-0.8-0.8-1.4-1.7-1.8-2.7c-0.5-1.4-0.7-2.8-0.6-4.3c0-4.7,0-9.3,0-14h-3.6v-7.1h3.7c0-3,0-4.5,0-7.5c3.5,0,5.3,0,8.8,0.1
	c0,3-0.1,4.5-0.1,7.5c2.9,0,4.3,0.1,7.2,0.1c-0.1,2.9-0.1,4.3-0.2,7.2c-2.9-0.1-4.3-0.1-7.2-0.1c-0.1,4.2-0.1,8.4-0.2,12.6
	c0,1.9,0.9,2.9,2.7,2.9c1.5,0,2.9-0.3,4.2-1l-0.1,6.7c-1,0.5-2,0.9-3,1.2"/>
<path class="st0" d="M192.7,125.1c0.1-1.3,0.1-1.9,0.2-3.2c-1.1,1.1-2.4,1.9-3.9,2.5c-1.7,0.6-3.5,0.9-5.3,0.8
	c-1.3,0-2.7-0.3-3.9-0.7c-1.2-0.4-2.3-1-3.2-1.8c-0.9-0.8-1.6-1.8-2.1-2.9c-0.5-1.2-0.8-2.6-0.7-3.9c0,0,0-0.1,0-0.1
	c0-1.4,0.3-2.9,1-4.2c0.6-1.1,1.5-2.1,2.6-2.8c1.2-0.8,2.5-1.3,3.9-1.6c1.6-0.3,3.3-0.5,5-0.4c1.3,0,2.7,0.2,4,0.5
	c1.1,0.3,2.2,0.6,3.3,1c0-0.2,0-0.3,0-0.5c0.2-1.5-0.4-3-1.4-4.1c-1.4-1.1-3.1-1.7-4.8-1.6c-1.5-0.1-3,0-4.4,0.2
	c-1.4,0.2-2.7,0.6-4.1,1c-0.8-2.6-1.2-3.9-2-6.4c1.7-0.7,3.5-1.2,5.3-1.5c2.2-0.4,4.4-0.5,6.7-0.4c3.6,0.1,7.7,1.1,10.2,3.9
	c2.1,2.3,3,6.5,2.7,9.5l-1.1,17.1C197.5,125.3,195.9,125.2,192.7,125.1 M193.4,113.2c-0.8-0.4-1.6-0.7-2.4-0.9
	c-1-0.2-1.9-0.4-2.9-0.4c-1.5-0.1-3,0.2-4.4,0.9c-1.1,0.6-1.7,1.8-1.7,3v0.1c-0.1,1,0.4,2,1.2,2.7c1,0.7,2.1,1.1,3.3,1.1
	c1.7,0.2,3.4-0.3,4.9-1.2c1.2-0.8,2-2.2,2-3.6C193.4,114.1,193.4,113.8,193.4,113.2"/>
<path class="st0" d="M227.9,126.9c-2.3,0.9-4.8,1.2-7.3,0.8c-2.1-0.2-4.1-0.8-6-1.7c-1.8-0.9-3.3-2.1-4.6-3.6
	c-1.3-1.5-2.2-3.2-2.9-5.1c-0.7-1.9-0.9-4-0.8-6c0,0,0-0.1,0-0.1c0.1-2,0.7-4,1.6-5.8c0.9-1.8,2.1-3.4,3.6-4.7
	c1.6-1.3,3.4-2.3,5.3-2.9c2.1-0.7,4.4-0.9,6.6-0.7c2.5,0.1,4.9,0.8,7.1,2c1.8,1.1,3.4,2.5,4.6,4.1c-2.4,2-3.5,3-5.8,4.9
	c-0.8-1-1.7-1.9-2.8-2.6c-1.1-0.7-2.5-1.2-3.8-1.2c-1-0.1-2,0-3,0.4c-0.9,0.3-1.8,0.9-2.5,1.5c-0.7,0.7-1.3,1.5-1.7,2.4
	c-0.4,0.9-0.7,2-0.8,3c0,0,0,0.1,0,0.1c-0.1,1.1,0,2.2,0.2,3.2c0.3,1,0.7,1.9,1.3,2.7c0.6,0.8,1.4,1.4,2.3,1.9
	c0.9,0.5,2,0.8,3.1,0.9c1.3,0.1,2.6,0,3.8-0.5c1.2-0.5,2.3-1.2,3.4-2c1.8,2.2,2.7,3.3,4.4,5.4C231.7,124.9,229.9,126,227.9,126.9"/>
<path class="st0" d="M255.4,131l2.2-16.3c0.3-1.6,0.1-3.2-0.8-4.6c-0.9-1.2-2.2-1.9-3.6-2c-1.5-0.3-2.9,0.1-4.1,1
	c-1.2,1.1-1.9,2.6-2,4.3l-2,16.3c-3.3-0.4-5-0.6-8.4-1c1.5-13.3,2.9-26.6,4.4-39.9c3.5,0.4,5.3,0.6,8.8,1c-0.6,4.9-1.2,9.9-1.8,14.8
	c0.6-0.6,1.2-1.1,1.9-1.6c0.7-0.5,1.4-0.9,2.1-1.3c0.8-0.4,1.7-0.6,2.5-0.7c1-0.1,2-0.1,3,0c3.3,0.4,5.7,1.8,7.3,3.9s2,5,1.5,8.3
	c-0.9,6.3-1.8,12.6-2.8,18.9C260.4,131.7,258.7,131.4,255.4,131"/>
<path class="st0" d="M299.4,125.1l-0.3,1c-6.9-1.3-13.8-2.6-20.7-3.7c0,1.7,0.7,3.4,1.8,4.7c1.2,1.2,2.8,2,4.5,2.2
	c1.3,0.2,2.6,0.2,3.9-0.1c1.4-0.3,2.7-0.9,3.8-1.7c1.6,2,2.4,3,4,5.1c-1.7,1.4-3.7,2.4-5.8,3c-2.4,0.6-4.8,0.7-7.2,0.2
	c-2.1-0.3-4.1-1.1-5.9-2.1c-1.7-1-3.2-2.3-4.4-3.9c-1.2-1.6-2-3.4-2.5-5.3c-0.5-2.1-0.6-4.2-0.2-6.3c0,0,0-0.1,0-0.1
	c0.3-2,1-3.9,2-5.7c1-1.7,2.3-3.2,3.8-4.4c1.6-1.2,3.4-2,5.3-2.5c2.1-0.5,4.2-0.6,6.3-0.2c2.3,0.3,4.4,1.2,6.4,2.5
	c1.6,1.1,3,2.6,4,4.3c1,1.7,1.5,3.6,1.8,5.5c0.2,2,0.1,4.1-0.3,6.1c0,0,0,0.1,0,0.1C299.6,124.4,299.5,124.7,299.4,125.1
	 M290.7,114.5c-0.9-1.4-2.4-2.3-4-2.5c-1.6-0.3-3.3,0-4.6,1c-1.4,1-2.4,2.5-2.9,4.2c4.3,0.7,8.5,1.4,12.8,2.2
	C292.1,117.7,291.7,116,290.7,114.5"/>
<path class="st0" d="M53.7,143.6c0-0.3-0.2-0.5-0.4-0.7c-0.3-0.1-0.7-0.2-1-0.1H52c-0.1,0-0.2,0-0.2-0.2s0-0.3-0.1-0.5v-0.1l3.1-0.3
	l3.1-0.4h0c0,0.2,0,0.3,0.1,0.5s0,0.2-0.1,0.2h-0.3c-0.8,0.1-1.2,0.5-1.1,1.1c0.4,3.5,0.8,7,1.3,10.6c0.1,0.7,0.4,1,0.9,0.9l1.9-0.2
	c1.4-0.2,2.3-1.3,2.6-3.3l0.9,0.1c-0.1,1.3-0.2,2.6-0.1,3.9c-3.1,0.4-4.6,0.5-7.7,0.9c-0.6,0.1-1.5,0.2-2.7,0.4h-0.1
	c0-0.2,0-0.3-0.1-0.4s0.1-0.3,0.3-0.3l0.7-0.1c0.2,0,0.4-0.1,0.5-0.3c0.1-0.2,0.1-0.5,0-0.7c-0.5-3.7-0.9-7.3-1.4-11"/>
<path class="st0" d="M65.8,142.3c0-0.4-0.1-0.9-0.3-1.3c-0.1-0.2-0.4-0.3-0.6-0.2h-0.7c-0.1,0-0.1,0-0.2-0.1c0,0,0,0,0,0
	c-0.1-0.3-0.1-0.4-0.1-0.6c0.6-0.1,1.3-0.3,2.1-0.5c0.6-0.1,1.1-0.3,1.7-0.5c0.2,0,0.4,0,0.4,0.2c0,0.6,0.1,1.4,0.2,2.3
	c0.4,3.7,0.8,7.5,1.2,11.2c0,0.2,0.1,0.5,0.3,0.6c0.3,0.1,0.6,0.2,0.9,0.2h0.3c0.1,0,0.2,0.1,0.2,0.2c0,0,0,0,0,0v0.5l0,0
	c-1.3,0.1-2.2,0.2-2.8,0.3l-2.7,0.3l0,0c0-0.2,0-0.3-0.1-0.5c0-0.1,0.1-0.2,0.2-0.2c0,0,0,0,0,0l0.3-0.1c0.3-0.1,0.6-0.2,0.8-0.4
	c0.2-0.2,0.2-0.4,0.2-0.7C66.6,149.4,66.3,145.9,65.8,142.3"/>
<path class="st0" d="M77.7,152.7c-0.7,0.8-1.7,1.3-2.7,1.5c-0.7,0.1-1.5,0-2.2-0.4c-1-0.9-1.1-2.4-0.2-3.5c0.1-0.1,0.1-0.1,0.2-0.2
	c0.9-0.7,1.8-1.2,2.9-1.5l1.6-0.6c0-0.9-0.2-1.8-0.6-2.6c-0.3-0.4-0.8-0.6-1.3-0.6c-0.4,0-0.8,0.1-1.1,0.3c-0.3,0.2-0.4,0.4-0.4,0.6
	c0,0.2,0.1,0.4,0.1,0.5c0,0.1,0.1,0.3,0.1,0.4c0,0.2-0.1,0.4-0.3,0.6c-0.2,0.2-0.5,0.3-0.8,0.4c-0.7,0.1-1.1-0.2-1.2-0.8
	s0.3-1.3,1.2-1.9c0.8-0.6,1.7-0.9,2.6-1c1-0.1,2,0.1,2.8,0.6c0.9,0.7,1.3,1.8,1.3,2.9l0.3,3.2c0,0.3,0,0.6,0.1,0.8
	c0,0.2,0.1,0.4,0.2,0.5c0,0.2,0.2,0.3,0.3,0.4c0.2,0.1,0.3,0.1,0.5,0.1c0.2,0,0.4-0.1,0.5-0.3c0.1-0.1,0.2-0.2,0.2-0.2
	s0.1,0.1,0.2,0.1c0.1,0.1,0.1,0.2,0.1,0.3c0,0.1-0.1,0.2-0.2,0.4c-0.2,0.2-0.5,0.4-0.7,0.6c-0.3,0.2-0.7,0.3-1.1,0.4
	c-0.5,0.1-1.1,0-1.6-0.2C78.2,153.4,77.9,153.1,77.7,152.7L77.7,152.7 M77.7,151.9c-0.1-1.2-0.2-1.8-0.3-3l-1.3,0.5
	c-0.6,0.2-1,0.5-1.4,1c-0.2,0.4-0.3,0.8-0.3,1.3c0,0.7,0.6,1.3,1.3,1.3c0.1,0,0.2,0,0.3,0C76.6,152.8,77.2,152.5,77.7,151.9"/>
<path class="st0" d="M86.1,144.5L86.1,144.5c0.8-0.9,1.9-1.5,3.1-1.6c1-0.2,2,0.3,2.4,1.3c0.9-1,2.1-1.6,3.4-1.7
	c0.5-0.1,1,0,1.4,0.2c0.4,0.1,0.7,0.4,0.8,0.8c0.2,0.3,0.3,0.7,0.4,1.1c0.1,0.5,0.2,0.9,0.2,1.4c0.1,1.8,0.2,2.7,0.3,4.5
	c0,0.2,0.1,0.5,0.3,0.6c0.3,0.1,0.6,0.2,0.9,0.3h0.2c0.1,0,0.2,0.1,0.2,0.2c0,0.2,0,0.3,0,0.5l0,0c-1.2,0.1-2.1,0.1-2.7,0.1
	l-2.4,0.2h-0.1c0-0.2,0-0.3,0-0.5c0-0.1,0-0.2,0.1-0.2c0,0,0,0,0,0c0.7-0.1,1.1-0.5,1-1.1c-0.2-2-0.2-3-0.4-5
	c-0.1-1.3-0.4-1.9-1-1.8c-0.9,0.1-1.8,0.6-2.4,1.3c0.1,0.4,0.1,0.8,0.1,1.3l0.3,4.6c0,0.3,0.1,0.5,0.3,0.7c0.3,0.1,0.5,0.2,0.8,0.2
	c0.1,0,0.2,0,0.2,0.2s0,0.3,0,0.5l0,0c-1.1,0.1-1.9,0.1-2.5,0.1l-2.4,0.2l0,0c0-0.2,0-0.3,0-0.5s0.1-0.2,0.2-0.2
	c0.7-0.1,1-0.5,1-1.1c-0.2-2-0.2-3-0.4-5c-0.1-1.3-0.5-1.9-1.1-1.9c-0.9,0.2-1.7,0.6-2.3,1.3c0.2,2.4,0.3,3.5,0.5,5.9
	c0,0.2,0.1,0.4,0.2,0.6c0.1,0.1,0.2,0.2,0.4,0.3l0.5,0.1c0.1,0,0.2,0.1,0.2,0.2c0,0.2,0,0.3,0,0.5v0.1c-1.1,0.1-1.9,0.1-2.5,0.2
	l-2.6,0.3h-0.1v-0.5c0-0.1,0.1-0.2,0.2-0.2l0.2-0.1c0.3-0.1,0.6-0.2,0.8-0.4c0.2-0.2,0.2-0.4,0.2-0.6c-0.2-2.2-0.3-3.3-0.5-5.4
	c0-0.3-0.1-0.7-0.2-1c-0.1-0.1-0.2-0.2-0.4-0.2h-0.9c-0.1-0.4-0.1-0.5-0.1-0.9c1.3-0.2,2.5-0.5,3.8-0.9c0.1,0,0.2,0,0.2,0.1
	c0,0.6,0,0.8,0.1,1.4"/>
<path class="st0" d="M106.3,150.6c-0.7,0.8-1.7,1.3-2.8,1.4c-0.7,0.1-1.5,0-2.1-0.4c-1-0.9-1-2.5-0.1-3.5c0.1-0.1,0.1-0.1,0.2-0.2
	c0.9-0.6,1.9-1.1,2.9-1.4l1.6-0.6c0-0.9-0.2-1.8-0.5-2.6c-0.3-0.4-0.7-0.6-1.2-0.6c-0.4,0-0.8,0.1-1.1,0.3c-0.3,0.2-0.4,0.4-0.4,0.6
	c0,0.2,0,0.4,0.1,0.5c0,0.1,0.1,0.3,0.1,0.4c0,0.2-0.1,0.4-0.3,0.6c-0.2,0.2-0.5,0.3-0.8,0.3c-0.7,0-1.1-0.3-1.1-0.9
	s0.4-1.2,1.2-1.8c0.8-0.5,1.7-0.9,2.7-0.9c1-0.1,2,0.1,2.8,0.7c0.8,0.8,1.3,1.9,1.2,3c0.1,1.3,0.1,1.9,0.2,3.2c0,0.3,0,0.5,0.1,0.8
	c0,0.2,0.1,0.4,0.1,0.6c0,0.2,0.1,0.3,0.3,0.4c0.2,0.1,0.3,0.1,0.5,0.1c0.2,0,0.4-0.1,0.5-0.2c0.1-0.1,0.2-0.2,0.2-0.2
	s0.1,0.1,0.2,0.2c0.1,0.1,0.1,0.2,0.1,0.3c0,0.1-0.1,0.2-0.2,0.3c-0.2,0.2-0.5,0.4-0.8,0.5c-0.3,0.2-0.7,0.3-1.1,0.3
	c-0.5,0.1-1,0-1.5-0.2C106.8,151.3,106.5,150.9,106.3,150.6L106.3,150.6 M106.3,149.7c-0.1-1.2-0.1-1.8-0.2-3l-1.3,0.5
	c-0.6,0.2-1.1,0.5-1.4,0.9c-0.3,0.4-0.4,0.8-0.3,1.3c0.1,1,0.6,1.4,1.5,1.4C105.3,150.6,105.9,150.3,106.3,149.7"/>
<path class="st0" d="M114.8,142.5c0.1,2.3,0.2,3.4,0.3,5.6c0,1.1,0.3,1.6,0.7,1.6c0.6,0,1.1-0.2,1.5-0.6l0.5,0.5
	c-0.7,1.1-1.8,1.7-3.1,1.8c-1.3,0.1-2-0.7-2-2.2c-0.1-2.6-0.2-3.9-0.3-6.6l-1.2,0.1c-0.3,0-0.4-0.1-0.4-0.1c0-0.3,0-0.4,0-0.7
	c0-0.1,0.3-0.2,0.9-0.2c0.5,0,0.9-0.3,1-0.8c0.2-0.7,0.2-1.5,0.2-2.2l1.8-0.8c0.1,1.4,0.1,2.1,0.2,3.6l2.2-0.1
	c0.3,0,0.5,0.1,0.5,0.2s0,0.3,0,0.4s-0.3,0.4-0.8,0.4L114.8,142.5"/>
<path class="st0" d="M122.7,143.6l0.2,5.4c0,0.2,0.1,0.5,0.3,0.6c0.2,0.2,0.5,0.2,0.8,0.3h0.2c0.1,0,0.2,0.1,0.2,0.2
	c0,0.2,0,0.3,0,0.5l0,0c-1.2,0-2.1,0-2.7,0.1L119,151l0,0c0-0.2,0-0.3,0-0.5c0-0.1,0-0.2,0.1-0.2c0,0,0,0,0,0l0.3-0.1
	c0.3,0,0.6-0.1,0.8-0.3c0.2-0.2,0.2-0.4,0.2-0.7c-0.1-2.2-0.1-3.3-0.2-5.4c0-0.4-0.1-0.7-0.2-1.1c-0.1-0.2-0.2-0.3-0.4-0.3l-0.9-0.1
	c0-0.3,0-0.4-0.1-0.6c1.3-0.2,2.6-0.5,3.9-0.8c0.1,0,0.2,0,0.2,0.1v0.5c0,0.2,0,0.5,0,1S122.7,143.3,122.7,143.6 M120.3,139.1
	c-0.3-0.2-0.4-0.6-0.4-0.9c0-0.4,0.1-0.7,0.3-1c0.5-0.5,1.4-0.6,1.9-0.1c0.3,0.2,0.4,0.6,0.4,0.9c0,0.4-0.1,0.7-0.4,1
	c-0.3,0.3-0.6,0.4-1,0.4C120.8,139.5,120.5,139.4,120.3,139.1"/>
<path class="st0" d="M134.2,142.6c-1,2.8-1.5,4.2-2.5,7c-0.1,0.3-0.3,0.7-0.5,0.9c-0.1,0.2-0.4,0.3-0.6,0.3c-0.3,0-0.6-0.1-0.8-0.2
	c-0.3-0.2-0.5-0.5-0.6-0.9c-1.1-2.6-1.7-3.9-2.8-6.5c-0.1-0.2-0.2-0.4-0.3-0.5c-0.1-0.2-0.2-0.3-0.3-0.4c-0.1-0.1-0.3-0.3-0.5-0.4
	c-0.2-0.1-0.4-0.1-0.7-0.1c-0.2,0-0.2-0.1-0.2-0.1c0-0.2,0-0.3,0-0.6h0.1c0.9,0,1.7,0,2.3,0l2.8-0.1h0.1v0.5c0,0.1-0.1,0.2-0.2,0.2
	l-0.4,0.1c-0.3,0-0.5,0.1-0.6,0.3c0,0.2,0,0.5,0.1,0.7c1,2.2,1.4,3.3,2.4,5.6c0.8-2.3,1.1-3.4,1.9-5.7c0.1-0.3,0.1-0.5-0.1-0.6
	c-0.3-0.2-0.6-0.3-0.9-0.3h-0.1c-0.1,0-0.2-0.1-0.2-0.2s0-0.3,0-0.5l0.1-0.1c1,0,1.7,0,2.3,0l1.8-0.1l0,0c0,0.2,0,0.3,0,0.5
	s-0.1,0.2-0.3,0.2C135,141.6,134.4,142,134.2,142.6"/>
<path class="st0" d="M137,145.8c-0.1-1.4,0.4-2.8,1.3-3.9c1-1,2.3-1.6,3.8-1.5c0.8,0,1.6,0.1,2.4,0.4c0.6,0.3,1.2,0.7,1.6,1.2
	c0.4,0.5,0.7,1,0.9,1.6c0.2,0.6,0.3,1.2,0.3,1.8c0,0.6-0.1,1.2-0.3,1.7c-0.2,0.6-0.5,1.1-0.9,1.6c-0.4,0.5-1,0.9-1.6,1.2
	c-0.7,0.3-1.5,0.5-2.3,0.5c-2.7,0.1-5-1.9-5.1-4.6C137,145.9,137,145.9,137,145.8 M141.8,141.4c-0.7,0-1.3,0.5-1.6,1.2
	c-0.4,0.9-0.6,1.8-0.5,2.7c0,0.6,0.1,1.3,0.3,1.9c0.2,0.6,0.5,1.2,0.9,1.7c0.4,0.5,0.9,0.7,1.5,0.8c0.6,0,1.1-0.3,1.4-0.8
	c0.5-0.8,0.7-1.7,0.6-2.6c0.1-1.2-0.2-2.5-0.7-3.6C143.4,141.9,142.7,141.4,141.8,141.4"/>
<path class="st0" d="M163.4,142.8c-1.3,3-2.6,6.1-3.9,9.1c-0.2,0.4-0.3,0.8-0.5,1.1c-0.2,0.3-0.4,0.7-0.6,1
	c-0.2,0.3-0.4,0.6-0.7,0.8c-0.2,0.2-0.5,0.4-0.8,0.5c-0.3,0.1-0.7,0.2-1,0.2c-0.4,0-0.8-0.1-1.1-0.3c-0.4-0.2-0.6-0.5-0.6-0.9
	c0-0.2,0-0.3,0.1-0.5c0.1-0.1,0.2-0.3,0.3-0.4c0.1-0.1,0.3-0.2,0.4-0.2c0.2,0,0.3-0.1,0.5-0.1c0.2,0,0.4,0.1,0.5,0.2
	c0.2,0.1,0.3,0.2,0.4,0.4c0.2,0.3,0.3,0.4,0.4,0.4s0.1-0.1,0.3-0.2c0.2-0.2,0.4-0.5,0.5-0.8c0.2-0.4,0.5-0.9,0.6-1.4l0.4-1.1
	c-1.2-3.1-1.9-4.7-3.1-7.8c-0.1-0.4-0.4-0.8-0.7-1.2c-0.3-0.2-0.6-0.3-1-0.3c-0.1,0-0.2,0-0.2-0.2s0-0.3,0-0.6h0.1
	c1,0,1.8,0.1,2.4,0.1h2.8l0.1,0.1v0.5c0,0.1-0.1,0.2-0.2,0.2c0,0,0,0,0,0c-0.3,0-0.6,0.1-0.9,0.2c-0.1,0.2-0.1,0.4,0,0.8
	c0.8,2.3,1.2,3.4,2,5.6c0.9-2.1,1.6-4,2.1-5.5c0.3-0.7,0-1-0.9-1.1c-0.1,0-0.2-0.1-0.2-0.1c0,0,0,0,0,0c0-0.2,0-0.3,0-0.5l0.1-0.1
	c1,0,1.9,0.1,2.6,0.1h1.5v0.1c0,0.2,0,0.3,0,0.5s-0.1,0.2-0.3,0.2c-0.8,0-1.5,0.6-1.7,1.3"/>
<path class="st0" d="M186,146c0,1-0.1,1.5-0.1,2.6c0,0.2,0.1,0.5,0.2,0.7c-0.8,0.6-1.8,1.1-2.8,1.4c-1.1,0.3-2.3,0.5-3.5,0.4
	c-2.1,0-4.2-0.8-5.7-2.3c-1.4-1.3-2.2-3.2-2.1-5.1c0-1.5,0.5-2.9,1.3-4.1c0.8-1.1,1.8-2.1,3.1-2.6c1.2-0.6,2.6-0.8,3.9-0.8
	c0.8,0,1.6,0.1,2.3,0.3c0.5,0.2,1.1,0.3,1.6,0.6c0.3,0.2,0.7,0.3,1,0.3c0,1.3,0.1,2.5,0.3,3.8l-0.9,0.1c-0.2-1.1-0.8-2.1-1.5-3
	c-0.8-0.8-1.9-1.2-3-1.2c-1.4,0-2.8,0.6-3.7,1.7c-1.1,1.3-1.6,2.9-1.6,4.6c-0.1,1.7,0.4,3.3,1.3,4.6c0.9,1.3,2.4,2.1,4,2.1
	c1,0.1,2.1-0.2,2.9-0.8l0.1-3.4c0-0.6-0.5-1-1.6-1h-0.3c-0.1,0-0.2-0.1-0.2-0.2s0-0.3,0-0.5l0,0c1.5,0.1,2.5,0.1,3.1,0.2l2.9,0.1
	l0,0v0.5c0,0.1-0.1,0.2-0.1,0.2c0,0,0,0,0,0H187c-0.3-0.1-0.6,0-0.8,0.2C186,145.5,185.9,145.7,186,146"/>
<path class="st0" d="M198,149.2c0,0.3,0.1,0.6,0.3,0.9c0.3,0.3,0.7,0.4,1.1,0.4c0,0.3,0,0.4,0,0.7c-1.1,0-2.2,0.3-3.2,0.7h-0.8
	c0-0.4,0.1-0.6,0.1-1c-0.9,0.5-1.9,0.8-2.9,0.8c-0.9,0-1.8-0.3-2.4-1c-0.4-0.7-0.6-1.5-0.6-2.3l0.3-5c0-0.3,0-0.5-0.1-0.8
	c-0.1-0.2-0.3-0.3-0.5-0.3l-0.7-0.1l-0.1-0.1c0-0.3,0-0.4,0-0.7h0.1l2.5,0.2h1.3c-0.1,0.7-0.1,1.3-0.1,1.8c-0.1,1.9-0.1,2.8-0.3,4.7
	c-0.1,0.6,0,1.2,0.3,1.8c0.2,0.3,0.5,0.5,0.8,0.6c0.8,0.1,1.7-0.2,2.3-0.7l0.4-6.1c0-0.7-0.1-1.1-0.6-1.1l-0.7-0.1l-0.1-0.1
	c0-0.3,0-0.4,0-0.7h0.1c1.3,0.1,2.1,0.2,2.5,0.2h1.4c-0.1,0.6-0.1,1.2-0.1,1.8C198.1,146,198.1,147.1,198,149.2"/>
<path class="st0" d="M200.8,148.7h0.9c0.1,0.8,0.3,1.5,0.8,2.1c0.5,0.5,1.2,0.7,1.8,0.7c0.3,0,0.7-0.1,0.9-0.3
	c0.3-0.3,0.5-0.7,0.5-1.1c0-0.4,0-0.7-0.2-1.1c-0.3-0.3-0.7-0.6-1.1-0.8c-0.8-0.4-1.5-0.8-2.1-1.4c-0.6-0.5-1-1.3-0.9-2.1
	c0.1-0.8,0.5-1.5,1.2-1.9c0.8-0.5,1.8-0.7,2.7-0.6c1,0.1,2,0.3,2.8,0.8c0,0.8,0.1,1.5,0.1,2.3h-0.9c-0.1-0.6-0.3-1.2-0.7-1.6
	c-0.3-0.3-0.8-0.5-1.3-0.6c-0.3,0-0.6,0.1-0.9,0.3c-0.3,0.2-0.4,0.6-0.4,0.9c-0.1,0.8,0.4,1.5,1.1,1.7c0.9,0.4,1.7,0.9,2.5,1.6
	c0.6,0.5,0.9,1.3,0.8,2.1c0,0.9-0.5,1.7-1.3,2.1c-0.8,0.4-1.8,0.6-2.7,0.5c-0.5-0.1-1.1-0.1-1.6-0.3c-0.6-0.1-1.1-0.2-1.7-0.2
	C201,150.7,201,149.7,200.8,148.7"/>
<path class="st0" d="M213.9,144.2l-0.4,5.6c-0.1,1.1,0.1,1.6,0.4,1.7c0.6,0,1.1-0.1,1.6-0.4l0.5,0.6c-0.8,1-2,1.5-3.3,1.4
	c-1.3-0.1-1.9-0.9-1.7-2.4c0.2-2.6,0.3-3.9,0.5-6.6l-1.2-0.1c-0.3,0-0.4-0.1-0.4-0.2l0.1-0.7c0-0.1,0.3-0.1,0.9-0.1
	c0.5,0.1,0.9-0.2,1.1-0.6c0.3-0.7,0.4-1.4,0.5-2.2l1.9-0.6c-0.1,1.4-0.2,2.1-0.3,3.6l2.1,0.2c0.3,0,0.5,0.1,0.5,0.3s0,0.3,0,0.4
	s-0.3,0.3-0.9,0.3L213.9,144.2"/>
<path class="st0" d="M217.4,148.6c0.1-1.4,0.7-2.7,1.7-3.7c1.1-0.9,2.5-1.3,3.9-1.1c0.8,0.1,1.6,0.3,2.3,0.7
	c0.6,0.3,1.1,0.8,1.5,1.4c0.3,0.5,0.6,1.1,0.7,1.7c0.1,0.6,0.2,1.2,0.1,1.8c-0.1,0.6-0.2,1.2-0.5,1.7c-0.3,0.6-0.6,1.1-1.1,1.5
	c-0.5,0.5-1.1,0.8-1.7,1.1c-0.7,0.2-1.5,0.3-2.3,0.3c-2.7-0.1-4.7-2.4-4.6-5.1C217.3,148.7,217.3,148.6,217.4,148.6 M222.6,144.7
	c-0.7,0-1.4,0.4-1.7,1c-0.5,0.8-0.7,1.7-0.8,2.6c-0.1,0.6,0,1.3,0.1,1.9c0.1,0.6,0.4,1.3,0.8,1.8c0.3,0.5,0.8,0.8,1.4,0.9
	c0.6,0,1.1-0.2,1.5-0.6c0.6-0.7,0.9-1.6,0.9-2.6c0.2-1.2,0.1-2.5-0.4-3.7C224.1,145.3,223.4,144.8,222.6,144.7"/>
<path class="st0" d="M229,151h0.9c0,0.8,0.3,1.5,0.7,2.2c0.5,0.5,1.1,0.8,1.8,0.8c0.3,0,0.7-0.1,0.9-0.3c0.3-0.2,0.5-0.6,0.5-1
	c0.1-0.4,0-0.7-0.2-1.1c-0.3-0.4-0.7-0.6-1.1-0.8c-0.8-0.4-1.5-0.9-2.1-1.5c-0.6-0.5-0.9-1.3-0.9-2.1c0.1-0.8,0.5-1.5,1.2-1.8
	c0.8-0.5,1.8-0.6,2.7-0.5c1,0.1,2,0.4,2.8,0.9c0,0.7,0,1.5,0,2.3h-0.9c-0.1-0.6-0.3-1.2-0.7-1.7c-0.3-0.4-0.8-0.6-1.3-0.6
	c-0.3,0-0.7,0-0.9,0.2c-0.3,0.2-0.5,0.5-0.5,0.9c-0.1,0.8,0.3,1.5,1.1,1.8c0.9,0.4,1.7,1,2.4,1.7c0.6,0.5,0.8,1.3,0.7,2.1
	c-0.1,0.9-0.6,1.6-1.4,2c-0.9,0.4-1.8,0.5-2.8,0.4c-0.5-0.1-1.1-0.2-1.6-0.3c-0.6-0.1-1.1-0.2-1.7-0.3
	C229,153.1,229.1,152.1,229,151"/>
<path class="st0" d="M238,150.6c0.1-1.4,0.7-2.7,1.8-3.6c1.1-0.9,2.5-1.3,3.9-1c0.8,0.1,1.6,0.3,2.3,0.7c0.6,0.3,1.1,0.8,1.5,1.4
	c0.3,0.5,0.5,1.1,0.6,1.7c0.1,0.6,0.1,1.2,0.1,1.8c-0.1,0.6-0.3,1.2-0.5,1.7c-0.3,0.5-0.7,1-1.1,1.5c-0.5,0.5-1.1,0.8-1.8,1
	c-0.7,0.2-1.5,0.3-2.3,0.2c-2.7-0.2-4.7-2.5-4.5-5.2C238,150.7,238,150.7,238,150.6 M243.4,146.9c-0.7-0.1-1.4,0.3-1.7,1
	c-0.5,0.8-0.8,1.7-0.9,2.6c-0.1,0.6,0,1.3,0.1,1.9c0.1,0.6,0.3,1.3,0.7,1.8c0.3,0.5,0.8,0.9,1.4,0.9c0.6,0.1,1.1-0.2,1.5-0.6
	c0.6-0.7,0.9-1.6,0.9-2.5c0.2-1.2,0.1-2.5-0.3-3.7C244.9,147.6,244.2,147,243.4,146.9"/>
<path class="st0" d="M150,3.6c-32,0-30.1,18.8-30.1,18.8c0,2.1,1.7,3.8,3.7,3.8c0,0,0,0,0,0h52.7c2.1,0,3.8-1.7,3.8-3.8c0,0,0,0,0,0
	C180.1,22.4,182,3.6,150,3.6"/>
<path class="st0" d="M175.1,39.7l-50.6,4.5c-0.5,0-0.9,0.5-0.9,1l0.2,1.9c0,0.5,0.5,0.9,1,0.9l50.6-4.5c0.5,0,0.9-0.5,0.9-1
	l-0.2-1.9C176.1,40,175.7,39.6,175.1,39.7"/>
<path class="st0" d="M175.4,54.9l-50.7-3.5c-0.5,0-0.9,0.4-0.9,0.9c0,0.5,0.3,0.9,0.8,0.9l50.7,3.5c0.5,0,1-0.4,1-0.9c0,0,0,0,0,0
	C176.3,55.4,175.9,55,175.4,54.9C175.4,54.9,175.4,54.9,175.4,54.9"/>
<path class="st0" d="M180.1,62.2c0-1-0.8-1.9-1.9-1.9l0,0h-56.4c-1,0-1.9,0.8-1.9,1.9c0,0-1.9,9.4,30.1,9.4S180.1,62.1,180.1,62.2"
	/>
<path class="st0" d="M176.3,35c0-0.3-0.1-0.5-0.4-0.6c-1.3-0.7-2.8-1.1-4.3-1.3c-4.3-0.4-4.4,1.3-8.7,0.9s-4.1-2.1-8.4-2.5
	s-4.4,1.3-8.7,0.9s-4.1-2-8.4-2.5s-4.4,1.3-8.7,0.9c-1.4-0.1-2.7-0.5-3.9-1.1c-0.3-0.2-0.7,0-0.8,0.3c0,0.1-0.1,0.1-0.1,0.2
	l-0.1,0.6c0,0.3,0.1,0.5,0.3,0.6c1.3,0.7,2.8,1.1,4.3,1.2c4.3,0.4,4.4-1.3,8.7-0.9s4.1,2.1,8.4,2.5s4.4-1.3,8.7-0.9s4.1,2.1,8.4,2.5
	s4.4-1.3,8.7-0.9c1.4,0.1,2.7,0.5,3.9,1.1c0.3,0.2,0.7,0,0.8-0.3c0-0.1,0.1-0.1,0.1-0.2L176.3,35z"/>
</svg>
