<?xml version="1.0" encoding="utf-8"?>
<!-- Generator: Adobe Illustrator 22.0.0, SVG Export Plug-In . SVG Version: 6.00 Build 0)  -->
<svg version="1.1" id="Capa_1" xmlns="http://www.w3.org/2000/svg" xmlns:xlink="http://www.w3.org/1999/xlink" x="0px" y="0px"
	 viewBox="0 0 300 300" style="enable-background:new 0 0 300 300;" xml:space="preserve">
<style type="text/css">
	.st0{fill:#FFFFFF;}
</style>
<title>logo_wscam</title>
<polygon class="st0" points="77.4,153 69.5,182.9 61.1,153 53.1,153 44.6,182.9 36.7,153 25,153 39.1,198.4 49.4,198.4 57.1,171.2 
	64.8,198.4 75,198.4 89.2,153 "/>
<path class="st0" d="M108.2,189.8c-5,0-7.4-2.8-8-5.4l-10.3,3.2c2,8.4,10,11.7,18.4,11.7c11.4,0,17.9-6.8,17.9-14.2
	c0-7.1-3.3-10.6-14.4-13.7c-3.5-1-9-1.8-9-5.4c0-2.6,2.2-4.4,5.4-4.4c4,0,5.9,2.2,6.5,4.4l10.4-2.5c-1.8-7.2-8.4-11.4-16.3-11.4
	c-9.6,0-16.8,5.2-16.8,13.9c0,7.6,4.1,11.8,13.3,14c5.2,1.3,9.7,1.8,9.7,5.2C114.9,188.3,112,189.8,108.2,189.8"/>
<path class="st0" d="M153.1,162.9c3.5-0.1,6.9,1.4,9.2,4.1l9.3-6.1c-4.4-5.7-11.3-8.9-18.5-8.8c-13.5,0-23.3,10.1-23.3,23.5
	s9.7,23.6,23.3,23.6c7.2,0.2,14.1-3.1,18.5-8.8l-9.3-6.1c-2.2,2.8-5.6,4.4-9.2,4.2c-8,0-12-6.4-12-12.9S145.1,162.9,153.1,162.9"/>
<path class="st0" d="M190.3,153l-16.5,45.4h11.8l2.7-8.4h17.3l2.7,8.4H220L203.5,153H190.3z M190.9,181.6l6-18.9l6,18.9H190.9z"/>
<polygon class="st0" points="249.8,175 236.4,153 224.6,153 224.6,198.4 235.8,198.4 235.8,171.4 247.7,191 251.9,191 263.8,171.4 
	263.8,198.4 275,198.4 275,153 263.2,153 "/>
<path class="st0" d="M156,95.8c-3.3-0.1-5.9-2.9-5.8-6.2c0.1-2.2,1.4-4.2,3.3-5.2c-6.3-1.9-12.9,1.6-14.8,7.9
	c-1.9,6.3,1.6,12.9,7.9,14.8c6.3,1.9,12.9-1.6,14.8-7.9c0.7-2.3,0.7-4.7,0-6.9C160.5,94.4,158.3,95.8,156,95.8"/>
<path class="st0" d="M150,249.7c-13-8.2-31.4-19.6-47.8-35.7H84.1c19.2,22.1,42.7,36.8,58.2,46.5l0.7,0.4l7,4.4l7-4.4l0.7-0.4
	c15.5-9.7,39-24.4,58.2-46.5h-18.1C181.4,230.1,163,241.5,150,249.7"/>
<path class="st0" d="M254.3,124.1c5-33,4.2-51.1,4.1-52.2l-0.5-9.3l-9-2.7c-0.5-0.1-12.1-3.6-44.8-12.1
	c-34.7-9.1-50.8-12.4-51.5-12.5l-2.6-0.5l-2.6,0.5c-0.7,0.1-16.8,3.4-51.5,12.5c-32.7,8.5-44.3,12-44.8,12.1l-9,2.7l-0.5,9.3
	c0,1.1-0.8,19.2,4.1,52.2H25v13.4h36.4c-0.9-4.7-1.6-9.2-2.3-13.4c-5.2-33.5-4.3-51.5-4.3-51.5s11.5-3.4,44.4-12
	c9.2-2.4,17.1-4.4,23.7-6l7.2,11.7c-16.4,11-20.7,33.2-9.8,49.6s33.2,20.7,49.6,9.8s20.7-33.2,9.8-49.6c-2.6-3.9-5.9-7.2-9.8-9.8
	l7.2-11.7c6.6,1.6,14.5,3.6,23.7,6c32.8,8.6,44.4,12,44.4,12s0.9,18-4.3,51.5c-0.7,4.2-1.4,8.7-2.3,13.4H275v-13.4L254.3,124.1z
	 M172.9,94.3c0.8,12.7-8.7,23.6-21.4,24.5c-12.7,0.8-23.6-8.7-24.5-21.4s8.7-23.6,21.4-24.5c0,0,0.1,0,0.1,0c0.5,0,1,0,1.5,0
	s1,0,1.5,0C163,73.7,172.1,82.8,172.9,94.3"/>
</svg>
