<?xml version="1.0" encoding="utf-8"?>
<!-- Generator: Adobe Illustrator 22.0.0, SVG Export Plug-In . SVG Version: 6.00 Build 0)  -->
<svg version="1.1" id="Capa_1" xmlns="http://www.w3.org/2000/svg" xmlns:xlink="http://www.w3.org/1999/xlink" x="0px" y="0px"
	 viewBox="0 0 300 140" style="enable-background:new 0 0 300 140;" xml:space="preserve">
<style type="text/css">
	.st0{fill:#FFFFFF;}
</style>
<title>logo_maulette</title>
<path class="st0" d="M78.5,63.6c0,2.3-0.1,7.6-6.9,7.6c-2.4,0-5.5-0.8-5.5-3.8c0-0.4,0-2.5,2.7-2.5c0.7,0,2.1,0.2,2.1,1.7
	c0,0.6-0.5,2.3-0.5,2.7c-0.1,0.7,0.5,1.3,1.2,1.4c0.1,0,0.2,0,0.3,0c1.5,0,1.5-1.4,1.5-2.3V46.5h-3.2V46h11.4v0.5h-3.2V63.6z"/>
<path class="st0" d="M100.2,63.2c0.3,4.7-3.2,8.7-7.9,9c-4.7,0.3-8.7-3.2-9-7.9c-0.3-4.7,3.2-8.7,7.9-9c0.2,0,0.4,0,0.6,0
	C96.2,55.1,100,58.7,100.2,63.2 M95.5,63.2c0-3.7-0.2-7.4-3.8-7.4s-3.8,3.7-3.8,7.4c0,3.7,0.2,7.5,3.8,7.5S95.5,67,95.5,63.2"/>
<path class="st0" d="M111.4,66.3l4.4-10h-2.9v-0.5h5v0.5h-1.6c-5.1,11.1-7.1,17.4-9,21.3c-0.9,2-2,3-3.9,3c-2,0-3.6-1-3.6-2.8
	c0-1.3,1-1.9,2.2-1.9c0.9,0,1.8,0.5,1.8,1.5s-0.4,1.2-0.4,1.9c0,0.4,0.2,0.7,0.6,0.8c0,0,0.1,0,0.1,0c1.7,0,2.8-2.7,3.5-4.4l1.5-3.7
	l-6.5-15.6h-1.9v-0.5h8.8v0.5h-2.4L111.4,66.3z"/>
<path class="st0" d="M134.9,70.1c-0.7,1-2,1-3.1,1c-2.3,0-3.4-0.9-3.7-2.4H128c-0.7,1.9-1.9,2.4-4.3,2.4c-2.2,0-4.9-0.8-4.9-3.5
	s2.3-3.5,4.6-4.2c3.7-1.1,4.5-1.4,4.5-3.2v-2.1c0-1.2-0.4-2.5-2.2-2.5c-1.1,0-2,0.4-2,1.7c0,0.3,0.2,1.6,0.2,1.9
	c0,1.4-1.5,1.4-2.1,1.4c-0.9,0-2-0.2-2-1.8c0-2.4,2.9-3.7,5.9-3.7c3.5,0,6.3,1,6.3,4.9v8.6c0,0.9,0.1,1.7,1.1,1.7
	c0.5,0,1-0.2,1.3-0.7L134.9,70.1z M127.9,62.1L127.9,62.1c-0.1,0.3-0.4,0.5-1,0.8c-1.7,0.8-3.7,1.4-3.7,4.2c0,1.1,0.1,3.3,2.3,3.3
	c1.2,0,2.4-1,2.4-3.7V62.1z"/>
<path class="st0" d="M136.8,65.6h0.5c1.1,2.6,2.1,5,5.3,5c0.8,0,3.1,0,3.1-2.7c0-0.9-0.3-1.8-2.7-2.7l-2.8-1c-1.8-0.5-3.1-2.1-3.2-4
	c0-2.7,2.3-5,5.7-5c1.7,0,3.1,0.9,3.7,0.9c0.3,0,0.6-0.2,0.7-0.5h0.5v4.2h-0.4c-0.9-2.3-1.7-4.2-4.6-4.2c-1.5,0-3.1,0.8-3.1,2.4
	c0,0.7,0.2,1.7,2.5,2.5l2.9,1c2.5,0.9,3.8,2.3,3.8,4.5c0,3-2.9,5-5.9,5c-1.7,0-4-1-4.9-1c-0.4,0-0.5,0.1-0.6,0.5h-0.5V65.6z"/>
<polygon class="st0" points="160.9,46 169.8,46 175.8,63.2 175.9,63.2 182,46 190.6,46 190.6,46.5 187.4,46.5 187.4,70.2 
	190.6,70.2 190.6,70.7 179.3,70.7 179.3,70.2 182.4,70.2 182.4,46.5 182.4,46.5 173.8,70.7 173.3,70.7 164.7,46.5 164.6,46.5 
	164.6,70.2 167.8,70.2 167.8,70.7 160.9,70.7 160.9,70.2 164.1,70.2 164.1,46.5 160.9,46.5 "/>
<path class="st0" d="M209.4,70.1c-0.6,1-2,1-3.1,1c-2.3,0-3.4-0.9-3.7-2.4h-0.1c-0.7,1.9-1.9,2.4-4.3,2.4c-2.2,0-4.9-0.8-4.9-3.5
	s2.3-3.5,4.6-4.2c3.8-1.1,4.5-1.4,4.5-3.2v-2.1c0-1.2-0.4-2.5-2.1-2.5c-1.1,0-2,0.4-2,1.7c0,0.3,0.2,1.6,0.2,1.9
	c0,1.4-1.5,1.4-2.1,1.4c-0.9,0-2-0.2-2-1.8c0-2.4,2.9-3.7,5.9-3.7c3.5,0,6.3,1,6.3,4.9v8.6c0,0.9,0.1,1.7,1.1,1.7
	c0.5,0,1-0.2,1.3-0.7L209.4,70.1z M202.4,62.1L202.4,62.1c-0.1,0.3-0.4,0.5-1,0.8c-1.7,0.8-3.7,1.4-3.7,4.2c0,1.1,0.1,3.3,2.3,3.3
	c1.2,0,2.4-1,2.4-3.7V62.1z"/>
<path class="st0" d="M210.7,55.8h6.6v11c0,1.7,0.6,3.2,2.4,3.2c2.1,0,3.6-2.2,3.6-4.7v-9h-2.3v-0.5h6.5v14.4h2.3v0.5h-6.4v-2.8h-0.1
	c-0.9,2-3,3.2-5.2,3.2c-3.2,0-5-1.3-5-4.7v-10h-2.3L210.7,55.8z"/>
<polygon class="st0" points="232.2,45.7 238.8,45.7 238.8,70.2 241.1,70.2 241.1,70.7 232.2,70.7 232.2,70.2 234.6,70.2 234.6,46.2 
	232.2,46.2 "/>
<path class="st0" d="M247.8,62v1.5c0,3.3,0.3,7.1,4.4,7.1c2.4,0,4.6-1.6,5.1-4l0.5,0.2c-0.8,2.7-3.3,4.5-6.1,4.3c-4.8,0-8.6-3-8.6-8
	c0.2-4.4,3.7-7.8,8.1-7.9c3.2,0,6.8,1.9,6.8,6.7H247.8z M253.3,61.5v-2.4c0-1,0-3.4-2.3-3.4c-3.1,0-3.2,3.3-3.3,5.7L253.3,61.5z"/>
<path class="st0" d="M262.7,51.3c1.3,0.7,2.9,0.7,4.2,0v4.5h4v0.5h-4v11.6c0,1.3,0.2,2.6,1.8,2.6s2.5-1.6,2.9-3l0.5,0.1
	c-0.6,3.2-2.9,3.6-4.6,3.6c-4.9,0-4.9-2.5-4.9-4.2V56.3h-2.3v-0.5h2.3L262.7,51.3z"/>
<path class="st0" d="M275.6,51.3c0.7,0.3,1.4,0.5,2.1,0.5c0.7,0,1.4-0.2,2.1-0.5v4.5h4v0.5h-4v11.6c0,1.3,0.2,2.6,1.8,2.6
	s2.5-1.6,2.9-3l0.5,0.1c-0.6,3.2-2.9,3.6-4.6,3.6c-4.9,0-4.9-2.5-4.9-4.2V56.3h-2.3v-0.5h2.3L275.6,51.3z"/>
<path class="st0" d="M290.8,62v1.5c0,3.3,0.3,7.1,4.4,7.1c2.4,0,4.5-1.6,5.1-4l0.5,0.2c-0.8,2.7-3.3,4.5-6.1,4.3c-4.8,0-8.6-3-8.6-8
	c0.2-4.4,3.7-7.8,8.1-7.9c3.2,0,6.8,1.9,6.8,6.7H290.8z M296.3,61.5v-2.4c0-1,0-3.4-2.3-3.4c-3.1,0-3.2,3.3-3.3,5.7L296.3,61.5z"/>
<polygon class="st0" points="44.8,92.5 49.4,91.3 49.4,92.3 44.8,93.5 35.8,95.7 35.8,33.5 44.8,31.2 49.4,30.1 49.4,31.1 
	44.8,32.2 "/>
<path class="st0" d="M29.1,35.1v54.2c0,2.5-0.5,5-1.4,7.4c-0.1,0.4-0.3,0.8-0.5,1.1l-0.2,0.5c-0.1,0.3-0.3,0.6-0.5,0.9
	c-3.6,6.6-10.5,10.7-18,10.7H8v-1.1c1.6-0.5,3.2-1.2,4.6-2.2c2.3-1.6,4.1-3.8,5.3-6.4c0.2-0.4,0.3-0.7,0.5-1.1
	c0.2-0.6,0.4-1.2,0.5-1.8c0.1-0.3,0.1-0.6,0.2-1c0.1-0.8,0.2-1.7,0.2-2.5V35.1l5,1.3L29.1,35.1z"/>
<polygon class="st0" points="12.6,33.5 12.6,95.7 8,94.6 3.5,93.5 -1,92.3 -1,91.3 3.5,92.5 3.5,32.2 -1,31.1 -1,30.1 3.5,31.2 
	8,32.3 "/>
</svg>
