<?xml version="1.0" encoding="utf-8"?>
<!-- Generator: Adobe Illustrator 22.0.0, SVG Export Plug-In . SVG Version: 6.00 Build 0)  -->
<svg version="1.1" id="Capa_1" xmlns="http://www.w3.org/2000/svg" xmlns:xlink="http://www.w3.org/1999/xlink" x="0px" y="0px"
	 viewBox="0 0 300 140" style="enable-background:new 0 0 300 140;" xml:space="preserve">
<style type="text/css">
	.st0{fill:#FFFFFF;}
</style>
<title>logo_rickshop</title>
<path class="st0" d="M0,48.8h17.8c11.6,0,16.5,6.4,16.5,14.3c0,6.3-3.1,11-10.1,12.7L34.3,91h-9.7l-9.1-14.4H8.8V91H0V48.8z
	 M8.8,69.4h8.7c5.6,0,7.4-2.8,7.4-6.3s-1.8-6.3-7.4-6.3H8.8V69.4z"/>
<rect x="40" y="48.8" class="st0" width="8.9" height="42.2"/>
<path class="st0" d="M54.6,69.9c0-11.7,7.9-21.7,20.5-21.7c9.1,0,14.8,4.8,18.1,10.9l-7.6,4.8c-2.4-4.3-6-7.7-10.5-7.7
	c-7.3,0-11.2,6.6-11.2,13.7s3.9,13.8,11.2,13.8c4.4,0,8.3-3,10.5-7.2l7.6,4.8c-3.3,6.2-9,10.3-18.1,10.3
	C62.4,91.6,54.6,81.5,54.6,69.9"/>
<polygon class="st0" points="107.5,48.8 107.5,67.5 122.2,48.8 133.8,48.8 117.7,68.8 135.2,91 123.2,91 111.7,76.2 107.5,81.5 
	107.5,91 98.7,91 98.7,48.8 "/>
<path class="st0" d="M148.3,65.2c0,2.4-1.9,4.3-4.3,4.3s-4.3-1.9-4.3-4.3s1.9-4.3,4.3-4.3c0,0,0,0,0,0
	C146.4,60.9,148.3,62.9,148.3,65.2"/>
<polygon class="st0" points="182.4,48.8 182.4,68 205.9,68 205.9,48.8 210.7,48.8 210.7,91 205.9,91 205.9,72.3 182.4,72.3 
	182.4,91 177.5,91 177.5,48.8 "/>
<path class="st0" d="M218.8,70.1c0-12.1,8.9-21.6,20.9-21.6s20.8,9.6,20.8,21.6s-8.9,21.7-20.8,21.7
	C227.7,91.8,218.8,82.2,218.8,70.1 M255.2,70.1c0-9.6-6.6-17.2-15.6-17.2c-9.1,0-15.7,7.6-15.7,17.2s6.6,17.2,15.7,17.2
	C248.6,87.3,255.2,79.6,255.2,70.1"/>
<path class="st0" d="M268.6,48.8h15.4c11.7,0,16.1,6.2,16.1,13.7s-4.4,13.8-16.1,13.8h-10.5V91h-4.8V48.8z M273.4,53.3V72h10.2
	c7.9,0,11.2-3.8,11.2-9.4s-3.2-9.2-11.2-9.2L273.4,53.3z"/>
<path class="st0" d="M144,59.1L144,59.1c0.3-3.5,3.8-6.2,10.8-6.2c4.5,0,8.8,1.3,12.6,3.6V52c-2-1.5-6.4-3.5-13-3.5
	c-10.4,0-15.5,4.5-15.5,11c0,0.7,0.1,1.4,0.2,2.1C140.3,60,142.1,59.1,144,59.1"/>
<path class="st0" d="M150.1,66.1c-0.2,1.7-1.1,3.2-2.5,4.1c7.2,3.2,16.3,4.5,16.3,10.4c0,4-4,6.3-10.7,6.3
	c-5.1-0.1-10.1-1.3-14.6-3.5v5c4.7,1.9,9.7,3,14.8,3c13.1,0,15.8-6.4,15.8-11.1C169.1,70.7,157.5,69.1,150.1,66.1"/>
</svg>
