<?xml version="1.0" encoding="utf-8"?>
<!-- Generator: Adobe Illustrator 22.0.0, SVG Export Plug-In . SVG Version: 6.00 Build 0)  -->
<svg version="1.1" id="Capa_1" xmlns="http://www.w3.org/2000/svg" xmlns:xlink="http://www.w3.org/1999/xlink" x="0px" y="0px"
	 viewBox="0 0 300 140" style="enable-background:new 0 0 300 140;" xml:space="preserve">
<style type="text/css">
	.st0{fill:#FFFFFF;}
</style>
<title>logo_ac</title>
<path class="st0" d="M0,10.5c0,0,9.9-2.8,22.8,0.8s13.6-1.4,13.6-1.4s2.4,1,3.6,7.2c0.5,2.5,2.2,0.4,2-3.1c0,0,7.4,9.7-2.8,17.1
	c0,0,6,15.5,6,18.3s-3.2,4-1.7,6.8c2.1,3.6,4.4,7.1,6.9,10.5c1.8,2,3.5,3.9,2.6,5.5c-1.8,3.1-7.5,1.3-5.7,4.6s0.3,5-0.8,5.4
	c0,0,1.5,2.3,1.1,3.4s-2.9,2.3-2.2,3.7s3.5,8.6-1.6,10.8c-2.8,1.4-6,1.7-9,0.9c0,0-10-2.5-9.8,3.8s-4.5,9.4-4.8,15.3
	s0.6,8.4,2.4,10.8c0,0-17.9-13.9-15.1-33s21.7-4.4,23.7-13.3c0.6-2.7-1.1-5.4-0.5-6.9s4.1-2.8,3.7-4.4c-0.3-1.2-0.9-2.3-1.6-3.3
	c0,0,2-1.4,2.3-2.7s-2.5-1.9-2.4-4.1c0,0,4.2-2.7,3.7-6.2S29,53.2,24.8,41.7c2-0.5,3.3-2.5,2.9-4.5c-0.1,1.6-1.4,2.9-3,3.1
	c0,0,0.2-3.2-0.5-4.7s-5-7.3-5-8.5c0,0,4.6,1.1,6,3.8C25.1,30.9,23.2,15.3,0,10.5"/>
<path class="st0" d="M149.6,91v3.4h-28.7V91c4.1-0.2,6-2.8,4.6-6.8l-5-12.7H93.1l-4.7,12.6c-1.5,4.2,0.1,6.4,4.1,6.8v3.4H74.3V91
	c3.9-0.3,6.1-2.7,7.4-6.8l19.6-54c1.6-4.2,1-7.4-3.3-7.7v-3.4h17l26.9,65C143.6,88.2,145.7,90.6,149.6,91 M118,65.4l-11.6-30.3
	l-11,30.3H118z"/>
<path class="st0" d="M226.4,89.7v3.6c-10.4,3.8-20.7-2.3-25.2-6.5c-1-0.9-2.6-2.5-4.6-4.4c-3.2,5.4-8.9,12-19.4,12
	c-12.8,0-26-7.4-26-20.6c0-10.3,6-17,16.4-19.9c-5.6-4.4-10.3-11.1-9.4-19.4c1.1-9.6,9.7-15.2,19.7-15.2c10.4,0,20.3,6.1,21.1,15.3
	c0.9,10-5.5,17.7-15.1,20.6c3.5,3.4,9,9,13.9,13.9c3.7-10.4,7.5-16.9,16.1-17.5c5-0.4,9.6,2.5,11.3,7.2c1,2.8,1,7.7-3.5,9.6
	c-3.6,1.6-8.5-0.5-9.2-5.8c-0.4-3.1-1.6-4.2-3.4-4.1c-3.2,0.2-6,7.3-8.2,13.8c3.3,3.3,6,6.1,7.1,7.2C212.4,84,219.7,89.7,226.4,89.7
	 M193.6,79.4c-7.6-7.5-18.1-18-22.2-22.1c-4.6,3.3-8.5,9.6-8.8,15.7c-0.9,11.8,7.1,17.8,15.3,17.4C186.6,90.1,191.2,84.1,193.6,79.4
	 M180.8,51.8c4.6-3.5,8.1-8.8,8.4-16.9c0.3-7.2-4.4-11.8-10.6-11.8c-5.8,0-9.9,3.8-10.1,10.1C168.1,40,174.9,46.5,180.8,51.8"/>
<path class="st0" d="M300,71.5l-2.3,15.8c-6.4,5-15,7.6-25.2,7.1c-21.6-1-38.3-14.8-38.3-37.6s16.4-37.6,38-37.6
	c9.1,0,19,2.7,25.5,7.1v16.5h-2.8c-3-13-11.1-19.8-22.1-19.7c-15.1,0.2-22.5,15-22.5,33.7c0,19.8,9.2,33.1,23.5,33.7
	c11.9,0.5,19.3-5.7,23.4-19L300,71.5z"/>
<polygon class="st0" points="79,119.5 79,119.5 82.6,111 83.6,111 83.6,120.7 82.8,120.7 82.8,112.5 82.8,112.5 79.3,120.7 
	78.7,120.7 75.2,112.3 75.1,112.3 75.1,120.7 74.3,120.7 74.3,111 75.4,111 "/>
<polygon class="st0" points="94,116 89.6,116 89.6,120 94.7,120 94.7,120.7 88.8,120.7 88.8,111 94.6,111 94.6,111.7 89.6,111.7 
	89.6,115.3 94,115.3 "/>
<path class="st0" d="M99.1,120.7V111h3c1.1,0,2.2,0.4,2.9,1.2c0.8,0.8,1.2,1.9,1.2,3v1.3c0,1.1-0.4,2.2-1.2,3
	c-0.8,0.8-1.8,1.2-2.9,1.2L99.1,120.7z M99.9,111.7v8.3h2.2c0.9,0,1.8-0.3,2.4-1c0.6-0.7,1-1.6,0.9-2.6v-1.3c0-0.9-0.3-1.8-0.9-2.5
	c-0.6-0.7-1.5-1-2.4-1L99.9,111.7z"/>
<rect x="111.2" y="111" class="st0" width="0.8" height="9.7"/>
<path class="st0" d="M124.1,117.6L124.1,117.6c0.1,0.9-0.3,1.7-0.9,2.3c-0.7,0.6-1.6,0.9-2.5,0.9c-1,0-2-0.4-2.6-1.2
	c-0.7-0.8-1-1.9-1-3V115c0-1.1,0.3-2.2,1-3c0.6-0.8,1.6-1.2,2.6-1.2c0.9,0,1.8,0.2,2.5,0.8c0.6,0.6,1,1.4,0.9,2.3l0,0h-0.8
	c0-0.7-0.2-1.3-0.7-1.8c-0.6-0.5-1.3-0.7-2-0.7c-0.8,0-1.5,0.4-2,1c-0.5,0.7-0.8,1.6-0.8,2.5v1.6c0,0.9,0.2,1.8,0.8,2.6
	c0.5,0.6,1.2,1,2,1c0.7,0,1.4-0.2,2-0.6c0.5-0.5,0.8-1.2,0.7-1.9H124.1z"/>
<rect x="129.1" y="111" class="st0" width="0.8" height="9.7"/>
<polygon class="st0" points="142.5,120.7 141.7,120.7 136.2,112.4 136.1,112.4 136.1,120.7 135.3,120.7 135.3,111 136.1,111 
	141.7,119.3 141.7,119.3 141.7,111 142.5,111 "/>
<path class="st0" d="M152.9,118h-4.3l-1,2.7h-0.8l3.6-9.7h0.8l3.6,9.7h-0.8L152.9,118z M148.9,117.3h3.8l-1.8-5.1l0,0L148.9,117.3z"
	/>
<polygon class="st0" points="167.9,116.4 170.9,111 171.9,111 168.3,117.1 168.3,120.7 167.5,120.7 167.5,117.1 164,111 164.9,111 
	"/>
<path class="st0" d="M189.3,116.6c0,1.1-0.3,2.2-1,3c-0.7,0.8-1.7,1.2-2.8,1.2c-1,0-2-0.4-2.7-1.2c-0.7-0.8-1-1.9-1-3V115
	c0-1.1,0.3-2.2,1-3c0.7-0.8,1.7-1.2,2.7-1.2c1,0,2.1,0.4,2.8,1.2c0.7,0.8,1,1.9,1,3V116.6z M188.5,115c0-0.9-0.2-1.8-0.8-2.5
	c-0.5-0.7-1.4-1-2.2-1c-0.8,0-1.6,0.3-2.2,1c-0.5,0.7-0.8,1.6-0.8,2.5v1.6c0,0.9,0.2,1.8,0.8,2.6c0.5,0.7,1.3,1,2.2,1
	c0.9,0,1.7-0.3,2.2-1c0.6-0.7,0.8-1.6,0.8-2.6L188.5,115z"/>
<path class="st0" d="M194.1,120.7V111h3c1.1,0,2.2,0.4,2.9,1.2c0.8,0.8,1.2,1.9,1.2,3v1.3c0,1.1-0.4,2.2-1.2,3
	c-0.8,0.8-1.8,1.2-2.9,1.2L194.1,120.7z M194.9,111.7v8.3h2.1c0.9,0,1.8-0.3,2.4-1c0.6-0.7,1-1.6,0.9-2.6v-1.3
	c0-0.9-0.3-1.8-0.9-2.5c-0.6-0.7-1.5-1-2.4-1L194.9,111.7z"/>
<path class="st0" d="M213.1,116.6c0,1.1-0.3,2.2-1,3c-0.7,0.8-1.7,1.2-2.8,1.2c-1,0-2-0.4-2.7-1.2c-0.7-0.8-1-1.9-1-3V115
	c0-1.1,0.3-2.2,1-3c0.7-0.8,1.7-1.2,2.7-1.2c1,0,2.1,0.4,2.8,1.2c0.7,0.8,1,1.9,1,3V116.6z M212.3,115c0-0.9-0.2-1.8-0.8-2.5
	c-0.5-0.7-1.4-1-2.2-1c-0.8,0-1.6,0.3-2.2,1c-0.5,0.7-0.8,1.6-0.8,2.5v1.6c0,0.9,0.2,1.8,0.8,2.6c0.5,0.7,1.3,1,2.2,1
	c0.9,0,1.7-0.3,2.2-1c0.6-0.7,0.8-1.6,0.8-2.6L212.3,115z"/>
<polygon class="st0" points="225.1,120.7 224.3,120.7 218.8,112.4 218.7,112.4 218.7,120.7 217.9,120.7 217.9,111 218.7,111 
	224.2,119.3 224.3,119.3 224.3,111 225.1,111 "/>
<polygon class="st0" points="236.7,111.7 233.4,111.7 233.4,120.7 232.6,120.7 232.6,111.7 229.2,111.7 229.2,111 236.7,111 "/>
<path class="st0" d="M247.9,116.6c0,1.1-0.3,2.2-1,3c-0.7,0.8-1.7,1.2-2.8,1.2c-1,0-2-0.4-2.7-1.2c-0.7-0.8-1-1.9-1-3V115
	c0-1.1,0.3-2.2,1-3c0.7-0.8,1.7-1.2,2.7-1.2c1,0,2.1,0.4,2.8,1.2c0.7,0.8,1,1.9,1,3L247.9,116.6z M247.1,115c0-0.9-0.2-1.8-0.8-2.5
	c-0.5-0.7-1.4-1-2.2-1c-0.8,0-1.6,0.3-2.2,1c-0.5,0.7-0.8,1.6-0.8,2.5v1.6c0,0.9,0.2,1.8,0.8,2.6c0.5,0.7,1.3,1,2.2,1
	c0.9,0,1.7-0.3,2.2-1c0.6-0.7,0.8-1.6,0.8-2.6V115z"/>
<polygon class="st0" points="253.5,120 258.5,120 258.5,120.7 252.7,120.7 252.7,111 253.5,111 "/>
<path class="st0" d="M269.6,116.6c0,1.1-0.3,2.2-1,3c-0.7,0.8-1.7,1.2-2.8,1.2c-1,0-2-0.4-2.7-1.2c-0.7-0.8-1-1.9-1-3V115
	c0-1.1,0.3-2.2,1-3c0.7-0.8,1.7-1.2,2.7-1.2c1,0,2.1,0.4,2.8,1.2c0.7,0.8,1,1.9,1,3L269.6,116.6z M268.9,115c0-0.9-0.2-1.8-0.8-2.5
	c-0.5-0.7-1.4-1-2.2-1c-0.8,0-1.6,0.3-2.2,1c-0.5,0.7-0.8,1.6-0.8,2.5v1.6c0,0.9,0.2,1.8,0.8,2.6c0.5,0.7,1.3,1,2.2,1
	c0.9,0,1.7-0.3,2.2-1c0.6-0.7,0.8-1.6,0.8-2.6V115z"/>
<path class="st0" d="M281.4,119.4c-0.3,0.4-0.7,0.8-1.2,1c-0.7,0.3-1.4,0.5-2.2,0.5c-1,0-2-0.4-2.7-1.2c-0.7-0.8-1.1-1.9-1.1-3v-1.8
	c-0.1-1.1,0.3-2.1,1-2.9c0.7-0.8,1.7-1.2,2.7-1.1c0.9-0.1,1.8,0.2,2.5,0.8c0.6,0.5,0.9,1.3,0.9,2.1l0,0h-0.7c0-0.6-0.2-1.2-0.7-1.7
	c-0.6-0.5-1.3-0.7-2-0.7c-0.8,0-1.6,0.3-2.1,0.9c-0.6,0.7-0.8,1.6-0.8,2.4v1.8c0,0.9,0.3,1.8,0.8,2.5c0.5,0.7,1.3,1,2.2,1
	c0.6,0,1.1-0.1,1.7-0.3c0.4-0.1,0.7-0.4,0.9-0.7v-2.5h-2.6V116h3.4L281.4,119.4z"/>
<path class="st0" d="M288.1,108.3h1l0,0l-1.7,1.8h-0.7L288.1,108.3z M287.6,120.7h-0.8V111h0.8V120.7z"/>
<path class="st0" d="M298.2,118h-4.3l-1,2.7h-0.8l3.6-9.7h0.8l3.5,9.7h-0.8L298.2,118z M294.2,117.3h3.8l-1.8-5.1l0,0L294.2,117.3z"
	/>
</svg>
