<svg id="Capa_1" data-name="Capa 1" xmlns="http://www.w3.org/2000/svg" viewBox="0 0 350 140"><title>logo_sabonim</title><path d="M170.12,46.41a.05.05,0,0,0,.06-.06V41.27h9.65v5.08a.05.05,0,0,0,.06.06H184a.05.05,0,0,0,.06-.06v-13s0,0-.06-.06h-4.1s0,0-.06.06v5.09h-9.65V33.32s0,0-.06-.06h-4.07a.07.07,0,0,0-.07.06v13s0,.06.07.06Z"/><path d="M342.5,33.26v73.48H7.5V33.26H162.91s.06,0,.06.06v3a.05.05,0,0,1-.06.06h-6.86v10a.05.05,0,0,1-.06.06H151.9a.05.05,0,0,1-.06-.06v-10H10.63v67.22H339.37V36.38H191.26v2h13.8c.06,0,.07,0,.07.06v2.74s0,.06-.07.06h-13.8v2h13.8c.06,0,.07,0,.07,0v3s0,.06-.07.06H187.13s-.08,0-.08-.06v-13a.08.08,0,0,1,.08-.06Z"/><path d="M41.18,61.83H71.33c.1,0,.15,0,.15-.14V54.58q0-.12-.15-.15H38.4a14.08,14.08,0,0,0-5,1.4q-4.72,2.78-4.73,7.05V65a7.27,7.27,0,0,0,1.6,4.46,10.59,10.59,0,0,0,8.36,3.89h20.2a2.75,2.75,0,0,1,1.13.21,2.33,2.33,0,0,1,1.51,2.17c0,.08,0,.35-.12.82a2.52,2.52,0,0,1-2.52,1.62h-30a.14.14,0,0,0-.15.12v7.11c0,.09.05.14.15.14H61.64a11.1,11.1,0,0,0,4.53-1q5.31-2.82,5.31-7.37V75.07a7.56,7.56,0,0,0-2-5,10.4,10.4,0,0,0-7.66-3.43H41.3a2.86,2.86,0,0,1-1.11-.2,2.31,2.31,0,0,1-1.53-2.15c0-1.41.84-2.22,2.52-2.44"/><path d="M167,63.41v-.47a8.24,8.24,0,0,0-1-3.66,10.33,10.33,0,0,0-8.91-4.85H124.41c-.07,0-.12,0-.14.15V85.43c0,.1.07.15.14.15h32.74a10.33,10.33,0,0,0,8.91-4.85,8.3,8.3,0,0,0,1-3.66V76.6c0-2.49-1.2-4.69-3.62-6.59,2.42-1.92,3.62-4.12,3.62-6.6M155,78.13H134.22V73.31h20.2a2.51,2.51,0,0,1,2.52,1.61,7.92,7.92,0,0,1,.12.83c0,1.16-.7,2-2.09,2.38M134.22,61.88H155c1.39.43,2.09,1.22,2.09,2.36a7.63,7.63,0,0,1-.12.85,2.51,2.51,0,0,1-2.52,1.61h-20.2Z"/><path d="M211.29,58.47a10.44,10.44,0,0,0-8.5-4H179.67a12.53,12.53,0,0,0-3.76.78q-5.85,2.76-5.85,7.73V77.16a7.42,7.42,0,0,0,1.44,4.3A10.5,10.5,0,0,0,180,85.58h22.84a11.14,11.14,0,0,0,4.73-1q5.31-2.73,5.31-7.47V63a7.62,7.62,0,0,0-1.54-4.53m-8.44,14.71a4,4,0,0,1-.2,1.39c-.91,2.42-2.5,3.63-4.79,3.63H185.09a5.06,5.06,0,0,1-1.17-.14c-2.61-.83-3.91-2.51-3.91-5V66.91a5.6,5.6,0,0,1,.2-1.47c.91-2.4,2.53-3.6,4.88-3.6h12.19a16.84,16.84,0,0,1,1.88.11,5.19,5.19,0,0,1,3.69,5.32Z"/><path d="M248.78,85.57h9.7a.13.13,0,0,0,.14-.14V62.79A7.85,7.85,0,0,0,257,58.26a10.82,10.82,0,0,0-8-3.83H216c-.08,0-.12,0-.14.15V85.43a.12.12,0,0,0,.14.14h9.66c.1,0,.15,0,.15-.14V61.83h17.76a6.37,6.37,0,0,1,1.54.21q3.54,1.24,3.54,5.37v18a.13.13,0,0,0,.14.14"/><path d="M271.45,85.57a.13.13,0,0,0,.14-.14V54.58c0-.08,0-.13-.14-.15h-9.67c-.08,0-.12,0-.14.15V85.43a.12.12,0,0,0,.14.14Z"/><path d="M311.52,85.57h9.69c.08,0,.12,0,.12-.14V54.58a.14.14,0,0,0-.12-.15h-10S306.78,59.57,298,69.84L284.7,54.43h-9.95q-.12,0-.15.15V85.43c0,.09,0,.14.15.14h9.66c.1,0,.15,0,.15-.14V67.06q13.26,15.41,13.38,15.44h.14l13.29-15.44V85.43c0,.09.05.14.15.14"/><path d="M74.56,85.58H86.14q.31-.45,11.77-19.89,11.43,19.45,11.77,19.89h11.57c-11.76-20-18-30.47-18.39-31.15H93c-.45.68-6.63,11.16-18.4,31.15"/><path d="M328.25,48.68a.66.66,0,0,1,.18.51v.27c0,.13,0,.27,0,.4a.78.78,0,0,0,.05.3h.8v-.08a1.2,1.2,0,0,1-.07-.26c0-.11,0-.23,0-.36v-.27a1.55,1.55,0,0,0-.13-.64.9.9,0,0,0-.41-.43,1,1,0,0,0,.41-.35.87.87,0,0,0,.14-.48,1.11,1.11,0,0,0-.45-.95,2,2,0,0,0-1.23-.34h-1.45v4.16h.78V48.51h.82a.78.78,0,0,1,.56.17m-1.38-.83v-1.2h.67a1.35,1.35,0,0,1,.71.14.59.59,0,0,1,.2.5.46.46,0,0,1-.27.42,1.42,1.42,0,0,1-.65.14Z"/><path d="M330.21,50.75a3.55,3.55,0,0,0,1.07-2.61,3.67,3.67,0,1,0-7.33,0,3.68,3.68,0,0,0,6.26,2.61m-5.63-2.61a3,3,0,0,1,3-3,2.91,2.91,0,0,1,2.14.88,3.09,3.09,0,0,1,0,4.34,3,3,0,0,1-5.18-2.17"/></svg>