<svg id="Capa_1" data-name="Capa 1" xmlns="http://www.w3.org/2000/svg" viewBox="0 0 300 300"><title>logo_b</title><path d="M245.09,138.19l-.71-2.08-.37-1a92.75,92.75,0,0,0-4.36-8.89,42.58,42.58,0,0,0-5-7.6q-9.09-10.36-20.91-9.58a22.32,22.32,0,0,0-8.77,2.07,74.55,74.55,0,0,0-6.7,3.45q-4.91,2.85-8.59,5.41a83.28,83.28,0,0,0-7.29,5.72c-.69.53-1.28,1-1.77,1.46a12.85,12.85,0,0,1-1.68,1.26,10.18,10.18,0,0,1,.49-3.36q7.92-30.37,5.82-56.74a76.19,76.19,0,0,0-4.89-20.77Q175.64,36,167.5,30.07a21.53,21.53,0,0,0-15.56-3.88,17.91,17.91,0,0,0-6.4,2.1,20.67,20.67,0,0,0-7.25,6,49.39,49.39,0,0,0-5.7,11.49c-2.06,5.38-12,48.86-22.9,79.78-7.08-15.46-9.81-19-10.94-20.77A65.43,65.43,0,0,0,87.14,92.08,48.34,48.34,0,0,0,73,83.57c-1.28-.53-2.6-.91-3.92-1.31l-3.83-1a20.08,20.08,0,0,1-6.61-3.15A12.05,12.05,0,0,1,54.4,72.5a12.6,12.6,0,0,1-.25-7.13c1.12-4.73,4.77-9.18,9.28-10.05a8.39,8.39,0,0,1,6.47,1.57,6.92,6.92,0,0,1,2.73,5.9c0,2.33-1,4.84-2.77,5.85a3.14,3.14,0,0,1-2.35.36,3.92,3.92,0,0,0,.87-1.13,4,4,0,0,0-1.58-5.32,3.72,3.72,0,0,0-5.13,1.64c-.83,1.62-1.76,5.63,4.59,7.15A6.69,6.69,0,0,0,71.07,71a7.9,7.9,0,0,0,3.17-3.59,11.27,11.27,0,0,0,1-4.52,11,11,0,0,0-.84-4.61,9.14,9.14,0,0,0-3-3.72,11.18,11.18,0,0,0-8.54-2.15,13.65,13.65,0,0,0-7.62,4.4,18.41,18.41,0,0,0-4.19,7.79,16,16,0,0,0,.22,9,15.39,15.39,0,0,0,5.25,7.28,23.19,23.19,0,0,0,7.65,3.82l3.83,1.06c1.21.39,2.44.76,3.61,1.27a44.62,44.62,0,0,1,13,8.07,56.26,56.26,0,0,1,7.75,8.53,20.67,20.67,0,0,0-23.88,7.49c-7.1,9.63-8.84,28.92.17,36.07,5.72,4.55,14.41,3.08,21.8-1,.73,1.74,1.54,3.67,2.45,5.82q1.32,2.78,1.92,4.37c.41,1.07.67,1.81.79,2.25a1.13,1.13,0,0,1,0,.92,11.61,11.61,0,0,1-.88,1.85c-.51,1-1.08,2.08-1.72,3.34q-20.52,42-11.53,77.31a59.22,59.22,0,0,0,4.2,9.72,47.43,47.43,0,0,0,4.13,6.57q9.47,12.6,19.82,15.28a29.73,29.73,0,0,0,5.74.42,22.66,22.66,0,0,0,5.83-.64,16.85,16.85,0,0,0,3.57-1.53,23,23,0,0,0,7.3-7q12.84-18.95,2.44-63.86-2.28-9.59-5.18-19.92l.05.13c-2.58-9.87-5.45-19-8.31-27.11-3-8.55-6-16-8.6-22,12.09-32.54,20.27-68.6,20.65-69.95s1.59-5.41,2-6.39c2.59-6.11,5.55-6.3,5.84-6.35,2.55-.46,4.37.33,5.22,2.38a.87.87,0,0,1,.07.17A58.39,58.39,0,0,1,149.48,65a171.38,171.38,0,0,1,1.45,19q.27,10.2-.62,26.32c-.45,10-.5,17.24-.61,21.77-.42,17.91,6.76,34.11,18.31,18.47,1.17-1.58,6.84-9.07,8.6-11.12s5.22-6.56,7.59-8.76,4.53-4.07,6.49-5.63a37.88,37.88,0,0,1,8.11-4.93,12.42,12.42,0,0,1,3.76-1.12c3.46-.34,6.15.46,8.07,2.43a11.61,11.61,0,0,1,2.57,3.42,50.94,50.94,0,0,1,2.23,4.68c.14.36.27.73.41,1.09l1.28,3.83c.11.34.21.66.31,1a91.63,91.63,0,0,1,1.88,10.06q.93,6.67,1.29,12.12,1.31,27.75-10,55.43-9.2,21.84-18.74,31.95a24.1,24.1,0,0,1-7.75,5.83,11.41,11.41,0,0,1-7.34,1,11,11,0,0,1-4.46-2.75,27.26,27.26,0,0,1-6.14-8.75,94.25,94.25,0,0,1-4.18-12c-.86-3.65-2.18-12.21-4.76-11.75-2.86.5-2.79,13.09,5.24,31.6a29.75,29.75,0,0,0,12.17,13,23.39,23.39,0,0,0,5.69,2q9.6,2.46,20.53-1.78l1.43-.62a61.33,61.33,0,0,0,7.39-4,52.16,52.16,0,0,0,7-5.06,84.75,84.75,0,0,0,20.88-28.33A128.69,128.69,0,0,0,243,208.25q2.69-8.76,4.31-16.82,5.14-28.47-2.21-53.24M113.5,197q4.26,9.85,6.86,16.28,10.94,27.6,8.2,44.15a16.67,16.67,0,0,1-.73,3.36,9.45,9.45,0,0,1-1.28,2.33,12.12,12.12,0,0,1-3.86,3.73l-.88.49q-9.74,4.91-18.79-2.05a47.7,47.7,0,0,1-13.21-15.69,54.79,54.79,0,0,1-4.37-11,73.53,73.53,0,0,1-1.9-12.29,80.86,80.86,0,0,1,0-13.57,115.66,115.66,0,0,1,2.93-17.41,132.94,132.94,0,0,1,5.23-17.05q1-2.41,2.49-5.55c1-2.09,1.93-4,2.77-5.62a12.59,12.59,0,0,1,1.53-2.64c.08,0,.35.36.81,1.22q1.71,3.23,5.82,12.33t8.37,19"/></svg>