<svg id="Capa_1" data-name="Capa 1" xmlns="http://www.w3.org/2000/svg" viewBox="0 0 300 300"><title>logo_copihues</title><path d="M0,238.63v-2.11H1.68a2.39,2.39,0,0,0,1.46-.44c.38-.3.58-1,.58-2.16v-19.1c0-1.15-.2-1.87-.58-2.16a2.39,2.39,0,0,0-1.46-.44H0V210.1H13.79v2.12H12.11a2.45,2.45,0,0,0-1.44.42c-.4.28-.6,1-.6,2V236.2H17.5a3.06,3.06,0,0,0,1.58-.4,3,3,0,0,0,1.08-1.18,7.15,7.15,0,0,0,.66-1.9l.64-3H23.7l-.28,8.91Z"/><path d="M40.76,239a14.3,14.3,0,0,1-7.56-1.83A11.48,11.48,0,0,1,28.71,232a18.64,18.64,0,0,1-1.5-7.75,18.35,18.35,0,0,1,1.5-7.71,11.3,11.3,0,0,1,4.51-5.1,14.52,14.52,0,0,1,7.58-1.82,14,14,0,0,1,7.33,1.82,11.6,11.6,0,0,1,4.57,5.12,17.86,17.86,0,0,1,1.56,7.73,17.61,17.61,0,0,1-1.58,7.73,11.89,11.89,0,0,1-4.57,5.14A13.87,13.87,0,0,1,40.76,239m0-2.59a5.37,5.37,0,0,0,5.27-3.2,26.82,26.82,0,0,0,0-17.8,5.34,5.34,0,0,0-5.23-3.18,5.46,5.46,0,0,0-5.32,3.18q-1.56,3.18-1.56,8.89a20.7,20.7,0,0,0,1.56,8.91,5.43,5.43,0,0,0,5.28,3.2"/><path d="M67,239a15.06,15.06,0,0,1-5.62-.85A6.19,6.19,0,0,1,58.5,236a4.75,4.75,0,0,1-.84-2.58,3.43,3.43,0,0,1,.64-2.18A3.53,3.53,0,0,1,60,230.08a6.62,6.62,0,0,1,2.19-.36,9.34,9.34,0,0,0,.7,3.82,5,5,0,0,0,4.78,3.1,5.09,5.09,0,0,0,3.65-1.24,4.07,4.07,0,0,0,1.3-3.08,3.76,3.76,0,0,0-.74-2.34,6.87,6.87,0,0,0-2.21-1.79,35.45,35.45,0,0,0-3.72-1.74A20.13,20.13,0,0,1,61.49,224a7.39,7.39,0,0,1-2.33-2.8,8.27,8.27,0,0,1-.7-3.49,7.07,7.07,0,0,1,1.28-4.24,8.41,8.41,0,0,1,3.49-2.8,12.19,12.19,0,0,1,5-1q4.4,0,6.45,1.34a3.9,3.9,0,0,1,2.06,3.3,2.92,2.92,0,0,1-1.22,2.36,5.93,5.93,0,0,1-3.7,1,7.69,7.69,0,0,0-.42-2.4,5.49,5.49,0,0,0-1.33-2.2,3.38,3.38,0,0,0-2.48-.92,4.37,4.37,0,0,0-2.78.94,3.29,3.29,0,0,0-1.18,2.74,4.28,4.28,0,0,0,.52,2.08,5.74,5.74,0,0,0,2,1.89,24.31,24.31,0,0,0,4.12,2,16.39,16.39,0,0,1,5.87,3.6,6.94,6.94,0,0,1,1.76,4.87,7.93,7.93,0,0,1-1.34,4.54,8.92,8.92,0,0,1-3.78,3.1A13.75,13.75,0,0,1,67,239"/><path d="M106.29,239a14.87,14.87,0,0,1-7.71-1.83,11.36,11.36,0,0,1-4.6-5.14,18.35,18.35,0,0,1-1.52-7.73A17.59,17.59,0,0,1,94,216.72a11.76,11.76,0,0,1,4.63-5.16,14.49,14.49,0,0,1,7.6-1.86q4.59,0,6.85,1.34a3.88,3.88,0,0,1,2.26,3.3,3,3,0,0,1-1.28,2.48,6,6,0,0,1-3.72,1,8.55,8.55,0,0,0-.4-2.6,4.53,4.53,0,0,0-1.36-2.12,3.83,3.83,0,0,0-2.63-.84,5.39,5.39,0,0,0-5.3,3.14q-1.5,3.14-1.5,8.93a22.2,22.2,0,0,0,.78,6.39,7.09,7.09,0,0,0,2.56,3.84,8,8,0,0,0,4.74,1.28,8.85,8.85,0,0,0,3.35-.58A8.25,8.25,0,0,0,113,233.8a14.12,14.12,0,0,0,1.66-1.76,1.57,1.57,0,0,1,.5.72,2.81,2.81,0,0,1,.18,1,4.16,4.16,0,0,1-.84,2.34,6.47,6.47,0,0,1-2.8,2.08,13.77,13.77,0,0,1-5.39.85"/><path d="M132.7,239a14.24,14.24,0,0,1-7.55-1.83,11.44,11.44,0,0,1-4.5-5.16,18.64,18.64,0,0,1-1.5-7.75,18.35,18.35,0,0,1,1.5-7.71,11.33,11.33,0,0,1,4.52-5.1,14.46,14.46,0,0,1,7.57-1.82,14,14,0,0,1,7.33,1.82,11.69,11.69,0,0,1,4.58,5.12,18,18,0,0,1,1.55,7.73,17.75,17.75,0,0,1-1.57,7.73,12,12,0,0,1-4.58,5.14A13.87,13.87,0,0,1,132.7,239m0-2.59a5.37,5.37,0,0,0,5.27-3.2,21.07,21.07,0,0,0,1.52-8.91c0-3.81-.5-6.77-1.52-8.89a5.33,5.33,0,0,0-5.23-3.18,5.46,5.46,0,0,0-5.32,3.18,26.33,26.33,0,0,0,0,17.8,5.43,5.43,0,0,0,5.28,3.2"/><path d="M149.52,238.63v-2.11h1.68a2.37,2.37,0,0,0,1.46-.44c.38-.3.58-1,.58-2.16V214.66c0-1.07-.2-1.74-.6-2a2.45,2.45,0,0,0-1.44-.42h-1.68V210.1h12.27q5.55,0,8.23,2.28a7.72,7.72,0,0,1,2.68,6.19,9.16,9.16,0,0,1-1.14,4.48,8.35,8.35,0,0,1-3.74,3.38,15.61,15.61,0,0,1-6.91,1.3h-1.36v6.39c0,1.06.21,1.73.64,2a2.8,2.8,0,0,0,1.48.4h2.44v2.11Zm11-13.22c2,0,3.38-.51,4.21-1.54s1.26-2.74,1.26-5.13a8.23,8.23,0,0,0-1.09-4.74,4.34,4.34,0,0,0-3.78-1.54h-1.56v12.95Z"/><path d="M175,238.63v-2.11h1.68a2.37,2.37,0,0,0,1.46-.44c.39-.3.58-1,.58-2.16v-19.1c0-1.15-.19-1.87-.58-2.16a2.37,2.37,0,0,0-1.46-.44H175V210.1H188.8v2.12h-1.68a2.39,2.39,0,0,0-1.46.44c-.38.29-.58,1-.58,2.16v19.1c0,1.14.2,1.86.58,2.16a2.39,2.39,0,0,0,1.46.44h1.68v2.11Z"/><path d="M191,238.63v-2.11h1.67a2.39,2.39,0,0,0,1.44-.44q.6-.45.6-2.16V214.66c0-1.07-.21-1.74-.62-2a2.45,2.45,0,0,0-1.42-.42H191V210.1h13.78v2.12H203.1a2.39,2.39,0,0,0-1.44.44c-.4.29-.59,1-.59,2.16v7.71h10.42v-7.71q0-1.73-.6-2.16a2.34,2.34,0,0,0-1.43-.44h-1.72V210.1h13.78v2.12h-1.67a2.39,2.39,0,0,0-1.44.44q-.6.43-.6,2.16v19.3c0,1.06.2,1.73.62,2a2.59,2.59,0,0,0,1.42.4h1.67v2.11H207.74v-2.11h1.72a2.34,2.34,0,0,0,1.43-.44q.6-.45.6-2.16V225H201.07v8.95c0,1.14.19,1.86.59,2.16a2.39,2.39,0,0,0,1.44.44h1.72v2.11Z"/><path d="M238.1,239q-5.19,0-8.13-2.09t-2.93-7V214.66c0-1.07-.21-1.74-.62-2a2.49,2.49,0,0,0-1.42-.42h-1.72V210.1h13.79v2.12h-1.68a2.39,2.39,0,0,0-1.44.44q-.6.43-.6,2.16v15.42q0,3.36,1.62,4.66a6.75,6.75,0,0,0,4.33,1.3,6.09,6.09,0,0,0,4.24-1.42,5.75,5.75,0,0,0,1.56-4.46V214.66c0-1.07-.2-1.74-.6-2a2.45,2.45,0,0,0-1.44-.42h-1.68V210.1h10.47v2.12h-1.72a2.39,2.39,0,0,0-1.44.44c-.4.29-.59,1-.59,2.16V230.4a8.44,8.44,0,0,1-2.38,6.32Q243.33,239,238.1,239"/><path d="M253.61,238.63v-2.11h1.68a2.59,2.59,0,0,0,1.44-.4c.4-.27.59-.94.59-2v-19.3c0-1.15-.19-1.87-.58-2.16a2.34,2.34,0,0,0-1.45-.44h-1.68V210.1h22.18l.15,7.36h-2.79l-.2-1.88a4.7,4.7,0,0,0-.74-2.26,2.12,2.12,0,0,0-1.82-.78h-6.71v10h9.47v2.4h-9.47V236.2h8a2,2,0,0,0,1.78-.86,5.5,5.5,0,0,0,.78-2.18l.32-1.88h2.75l-.28,7.35Z"/><path d="M289.13,239a15,15,0,0,1-5.61-.85,6.23,6.23,0,0,1-2.9-2.16,4.75,4.75,0,0,1-.84-2.58,3.49,3.49,0,0,1,.64-2.18,3.63,3.63,0,0,1,1.68-1.18,6.63,6.63,0,0,1,2.2-.36,9.18,9.18,0,0,0,.7,3.82,5.14,5.14,0,0,0,1.93,2.32,5.24,5.24,0,0,0,2.84.78,5.13,5.13,0,0,0,3.66-1.24,4.11,4.11,0,0,0,1.3-3.08A3.82,3.82,0,0,0,294,230a7,7,0,0,0-2.22-1.79,35.45,35.45,0,0,0-3.72-1.74,20,20,0,0,1-4.43-2.42,7.43,7.43,0,0,1-2.34-2.8,8.27,8.27,0,0,1-.7-3.49,7.14,7.14,0,0,1,1.28-4.24,8.44,8.44,0,0,1,3.5-2.8,12.14,12.14,0,0,1,5-1q4.39,0,6.45,1.34a3.9,3.9,0,0,1,2.06,3.3,2.92,2.92,0,0,1-1.22,2.36,5.9,5.9,0,0,1-3.69,1,7.69,7.69,0,0,0-.42-2.4,5.51,5.51,0,0,0-1.34-2.2,3.38,3.38,0,0,0-2.48-.92,4.37,4.37,0,0,0-2.78.94,3.31,3.31,0,0,0-1.17,2.74,4.38,4.38,0,0,0,.51,2.08,5.74,5.74,0,0,0,2,1.89,24.31,24.31,0,0,0,4.12,2,16.39,16.39,0,0,1,5.87,3.6,6.94,6.94,0,0,1,1.76,4.87,7.93,7.93,0,0,1-1.34,4.54,9,9,0,0,1-3.77,3.1,13.83,13.83,0,0,1-5.76,1.11"/><polygon points="96.53 175.38 87.61 190.52 78.53 175.38 75.04 175.38 75.04 198.24 79.09 198.24 79.09 183.29 86.6 195.62 88.5 195.62 96.01 183.09 96.04 198.24 100.06 198.24 100.02 175.38 96.53 175.38"/><path d="M113.28,175.38,103,198.24h4.38l2.26-5.29h11.44l2.27,5.29h4.44l-10.32-22.86Zm-2.22,14.23,4.28-10,4.29,10Z"/><path d="M147.21,176.81a14.24,14.24,0,0,0-6.53-1.43h-10v22.86h10a14.12,14.12,0,0,0,6.53-1.44,10.71,10.71,0,0,0,4.37-4,12.25,12.25,0,0,0,0-12,10.76,10.76,0,0,0-4.37-4m.63,14.11a7,7,0,0,1-2.9,2.74,9.44,9.44,0,0,1-4.46,1h-5.55V179h5.55a9.56,9.56,0,0,1,4.46,1,7,7,0,0,1,2.9,2.73,8.75,8.75,0,0,1,0,8.24"/><polygon points="161.9 188.37 172.94 188.37 172.94 184.88 161.9 184.88 161.9 178.94 174.34 178.94 174.34 175.38 157.66 175.38 157.66 198.24 174.8 198.24 174.8 194.68 161.9 194.68 161.9 188.37"/><path d="M194.15,190.61a7.55,7.55,0,0,0,3.35-2.77,8.62,8.62,0,0,0,0-8.67,7.56,7.56,0,0,0-3.35-2.81,12.52,12.52,0,0,0-5.21-1h-9.41v22.86h4.25v-6.67h5.16c.31,0,.59,0,.88,0l4.67,6.7h4.57l-5.25-7.5.34-.13M193,180.15a4.1,4.1,0,0,1,1.42,3.36,4.15,4.15,0,0,1-1.42,3.36,6.34,6.34,0,0,1-4.23,1.21h-5V179h5a6.45,6.45,0,0,1,4.23,1.18"/><path d="M210.46,175.38l-10.29,22.86h4.38l2.26-5.29h11.44l2.27,5.29H225l-10.32-22.86Zm-2.22,14.23,4.28-10,4.3,10Z"/><path d="M161.74,142.06a20.6,20.6,0,0,1-11.82,10.34,20.61,20.61,0,0,1-11.78-10.27l0,0,0,0,.08,0A28.19,28.19,0,0,0,150,129.68,28.12,28.12,0,0,0,161.56,142l0,0,.12.06h0"/><path d="M143.83,82.17a66.28,66.28,0,0,0,6.72,6.55c3.31,2.86,6.85,5.83,9.53,9.57a54.73,54.73,0,0,1,4.12,7.29c1.9,3.8,3.79,7.43,7,10-.22-3.12-.33-4.67-.56-7.79a31.59,31.59,0,0,1-4.53-7.32,43.63,43.63,0,0,0-3.1-5.64,47.49,47.49,0,0,0-7.79-8.05,52,52,0,0,1-5.63-5.58c-4.74-5.71-4.88-13.75-1.12-20a.35.35,0,0,0,.05-.08,14.75,14.75,0,0,0-6.07,2.11c-3.29,5.37-2.7,14.31,1.37,19"/><path d="M157.19,77.35a49.61,49.61,0,0,0,4.19,4.27,40.77,40.77,0,0,1,6.68,7.28,26.05,26.05,0,0,1,1.41,2.46c-.23-3.21-.34-4.82-.58-8,0-.21,0-.41,0-.61-1-1.11-2-2.16-3.09-3.24s-2-2-3-3.16c-3-3.57-3.94-7.77-2.9-11.47a18.11,18.11,0,0,0-3.79-2.47c-.22.37-.43.74-.62,1.11a12.25,12.25,0,0,0,1.71,13.86"/><path d="M162.85,106.49a50.78,50.78,0,0,0-3.91-7c-2.53-3.55-6-6.43-9.23-9.22a65.45,65.45,0,0,1-6.89-6.72c-3.94-4.58-5.16-13.19-2.63-18.8a25.49,25.49,0,0,0-7.09,10A17.2,17.2,0,0,0,137,84.58a58.73,58.73,0,0,0,7.93,7.65c3.81,3.22,7.89,6.54,11,10.76a51,51,0,0,1,4.93,8.66c2.18,4.75,6.12,11,11.09,13.36-.21-2.88-.31-4.32-.52-7.19-4.2-2.81-6.44-7.13-8.53-11.33"/><path d="M161.08,65.93c-1,4,1.41,7.58,2.61,9,.88,1.06,1.88,2.07,2.86,3,.63.63,1.26,1.26,1.88,1.91a27.19,27.19,0,0,0-7.35-14"/><path d="M179,138.29a17.42,17.42,0,0,1-1.39-1.16,30.49,30.49,0,0,1-5.9-1.46c-7.75-2.82-12.42-9.86-15.87-17a59.2,59.2,0,0,0-5.5-9.7c-3.36-4.5-7.92-8.12-12.15-11.62a77.25,77.25,0,0,1-7.6-6.94q-1.26,17.59-2.53,35.18a17.53,17.53,0,0,1-7.18,12.8,19.87,19.87,0,0,1-4.58,2.53l-3.82,1.46,3.71.93a28.47,28.47,0,0,0,6.44.83h.42a29.67,29.67,0,0,0,14.36-3.7l.11-.06a26.69,26.69,0,0,0,12.09-14.3s0-.08,0-.13c.12-.36.24-.73.35-1.09.11.36.22.73.34,1.09,0,0,0,.09,0,.13,1.75,5.64,7.07,11.49,12,14.22l.12.07A29.19,29.19,0,0,0,177,144.13h.25a28.36,28.36,0,0,0,6.61-.83l3.71-.93-3.82-1.46a19.31,19.31,0,0,1-4.7-2.62"/><path d="M151.53,107.7a62,62,0,0,1,5.74,10c3.25,6.72,7.58,13.47,14.88,16.13a26.57,26.57,0,0,0,3.36,1,17.3,17.3,0,0,1-3.39-7.74c-6.15-2.77-9.86-8.65-12.7-14.54a52.86,52.86,0,0,0-4.7-8.33c-2.95-4-7-7.27-10.69-10.42A58.41,58.41,0,0,1,135.91,86a18.93,18.93,0,0,1-3.86-8.12,28.62,28.62,0,0,0-1,5.45c-.13,1.85-.2,2.77-.33,4.62a67.86,67.86,0,0,0,8.32,7.79c4.3,3.57,8.93,7.26,12.44,12"/><path d="M149.51,62.34c-3,4.77-2.72,13.11,1.06,17.42a68.62,68.62,0,0,0,5.48,5.43,49.27,49.27,0,0,1,8.09,8.4,46.4,46.4,0,0,1,3.3,5.94,39.15,39.15,0,0,0,3,5.33c-.28-3.77-.41-5.65-.68-9.42-.18-.35-.34-.7-.51-1A39.29,39.29,0,0,0,167,90.05a39.32,39.32,0,0,0-6.36-6.9,50,50,0,0,1-4.33-4.4,14.65,14.65,0,0,1-1.88-16.42l.3-.54a13.67,13.67,0,0,0-4.31-.82c-.3.45-.58.93-.86,1.37"/></svg>