<svg id="Capa_1" data-name="Capa 1" xmlns="http://www.w3.org/2000/svg" viewBox="0 0 300 140"><title>logo_technosun</title><polygon points="134.12 53.56 155.29 58.37 155.29 68 123.53 60.77 123.53 12.65 155.29 19.87 155.29 29.49 134.12 24.68 134.12 53.56"/><polygon points="176.47 43.93 176.47 92.06 144.71 84.84 144.71 75.21 165.88 80.03 165.88 51.15 144.71 46.34 144.71 36.71 176.47 43.93"/><polygon points="0 109.71 17.65 109.71 17.65 113.23 10.59 113.23 10.59 127.35 7.06 127.35 7.06 113.23 0 113.23 0 109.71"/><polygon points="38.82 116.76 49.41 116.76 49.41 120.29 38.82 120.29 38.82 123.82 52.94 123.82 52.94 127.35 35.29 127.35 35.29 109.71 52.94 109.71 52.94 113.23 38.82 113.23 38.82 116.76"/><polygon points="70.59 109.71 88.23 109.71 88.23 113.23 74.12 113.23 74.12 123.82 88.23 123.82 88.23 127.35 70.59 127.35 70.59 109.71"/><polygon points="109.41 109.71 109.41 116.77 120 116.77 120 109.71 123.53 109.71 123.53 127.35 120 127.35 120 120.29 109.41 120.29 109.41 127.35 105.88 127.35 105.88 109.71 109.41 109.71"/><polygon points="141.18 127.35 141.18 109.71 144.71 109.71 155.29 122.22 155.29 109.71 158.82 109.71 158.82 127.35 155.29 127.35 144.71 115.22 144.71 127.35 141.18 127.35"/><path d="M194.12,127.35H176.47V109.71h17.65ZM180,123.82h10.59V113.24H180Z"/><polygon points="229.41 113.23 215.29 113.23 215.29 116.76 229.41 116.76 229.41 127.35 211.76 127.35 211.76 123.82 225.88 123.82 225.88 120.29 211.76 120.29 211.76 109.71 229.41 109.71 229.41 113.23"/><polygon points="250.59 109.71 250.59 123.82 261.18 123.82 261.18 109.71 264.71 109.71 264.71 127.35 247.06 127.35 247.06 109.71 250.59 109.71"/><polygon points="282.35 127.35 282.35 109.71 285.88 109.71 296.47 122.22 296.47 109.71 300 109.71 300 127.35 296.47 127.35 285.88 115.22 285.88 127.35 282.35 127.35"/></svg>