<?xml version="1.0" encoding="utf-8"?>
<!-- Generator: Adobe Illustrator 22.0.0, SVG Export Plug-In . SVG Version: 6.00 Build 0)  -->
<svg version="1.1" id="Capa_1" xmlns="http://www.w3.org/2000/svg" xmlns:xlink="http://www.w3.org/1999/xlink" x="0px" y="0px"
	 viewBox="0 0 300 300" style="enable-background:new 0 0 300 300;" xml:space="preserve">
<style type="text/css">
	.st0{fill:#FFFFFF;}
</style>
<title>logo_lonquimay</title>
<path class="st0" d="M258.2,203.8c-0.3,0.1-0.5,0.2-0.8,0.2v3.9c0,2.3-1.3,4.3-3.3,5.3l-101.5,50.7c-1.7,0.8-3.6,0.8-5.3,0
	L45.9,213.2c-2-1-3.3-3.1-3.3-5.3v-16.2h-5.1v28.8c0,4.2,2.4,8,6.1,9.9l101.5,50.8c3.1,1.5,6.8,1.5,9.9,0l101.5-50.8
	c3.8-1.9,6.1-5.7,6.1-9.9v-18C261.2,202.9,259.8,203.4,258.2,203.8 M257.4,220.5c0,2.3-1.3,4.3-3.3,5.3l-101.5,50.7
	c-1.7,0.8-3.6,0.8-5.3,0L45.9,225.8c-2-1-3.3-3.1-3.3-5.3v-3.3c0.3,0.2,0.7,0.4,1,0.6l101.5,50.7c3.1,1.5,6.8,1.5,9.9,0l101.5-50.7
	c0.4-0.2,0.7-0.4,1-0.6L257.4,220.5z"/>
<path class="st0" d="M256.4,69.7L155,19c-3.1-1.5-6.8-1.5-9.9,0L43.6,69.7c-3.8,1.9-6.1,5.7-6.1,9.9v35.5l5.1-2.5l15.8-7.9l5.7-2.8
	l12.6-6.3l12.6,6.3l-12.6,6.3l-0.3,0.2l5.7,2.8l0.3-0.1l18.3-9.2L150,77.2l49.1,24.5l0.2,0.1l-12.9,6.4l0,0l5.5,2.7l0,0l12.9-6.4
	l5.7-2.8l12.6-6.3l0.2,0.1l34.1,17.1l5.1,2.5V79.6C262.5,75.4,260.2,71.5,256.4,69.7 M257.4,106.8L229,92.6l-0.2-0.1l-5.5-2.7
	l-5.7,2.8L205,98.9l-0.2-0.1L150,71.5L95,98.9l-18.3-9.2L71,92.6l-12.6,6.3l-5.7,2.9l-10.1,5V79.6c0-0.4,0-0.7,0.1-1.1
	c0.3-1.8,1.5-3.3,3.1-4.2c0,0,0.1-0.1,0.1-0.1l101.5-50.7c1.7-0.9,3.6-0.9,5.3,0L254,74.2l0.1,0.1l0.1,0.1c1.6,0.8,2.7,2.3,3,4
	c0,0.1,0,0.1,0,0.2c0.1,0.4,0.1,0.7,0.1,1.1L257.4,106.8z"/>
<path class="st0" d="M103.7,218c1.1,1.3,1.1,3.2,0,4.5c-0.6,0.6-1.5,0.9-2.3,0.8h-1.9v2.7h-1.1v-8.8h3
	C102.2,217.2,103,217.5,103.7,218 M102.9,221.7c0.7-0.8,0.7-2.1,0-2.9c-0.4-0.4-1-0.5-1.6-0.5h-1.9v3.9h1.9
	C101.8,222.3,102.4,222.1,102.9,221.7"/>
<path class="st0" d="M119.5,226l-1.7-2.7h-0.5h-1.9v2.7h-1.1v-8.8h3c0.9-0.1,1.7,0.2,2.3,0.8c0.6,0.6,0.9,1.4,0.9,2.2
	c0,0.6-0.1,1.2-0.4,1.7c-0.3,0.5-0.7,0.8-1.3,1l1.8,3H119.5z M118.9,221.7c0.7-0.8,0.7-2.1,0-2.9c-0.4-0.4-1-0.6-1.6-0.5h-1.9v4h1.9
	C117.9,222.3,118.5,222.2,118.9,221.7"/>
<polygon class="st0" points="136.2,224.9 136.2,225.9 130.6,225.9 130.6,217.2 136,217.2 136,218.3 131.7,218.3 131.7,220.9 
	135.6,220.9 135.6,222 131.7,222 131.7,224.9 "/>
<polygon class="st0" points="153.3,225.9 153.3,219.6 150.5,224.9 150,224.9 147.3,219.6 147.3,225.9 146.2,225.9 146.2,217.2 
	147.1,217.2 150.3,223.3 153.5,217.2 154.4,217.2 154.4,225.9 "/>
<rect x="164.9" y="217.2" class="st0" width="1.1" height="8.8"/>
<path class="st0" d="M177.4,225.1c-0.6-0.8-0.9-1.9-0.9-2.9v-5h1.1v5c0,1.9,0.7,2.8,2.2,2.8c0.6,0,1.2-0.2,1.6-0.7
	c0.4-0.6,0.6-1.4,0.6-2.1v-5h1v5c0.1,1-0.2,2.1-0.9,2.9C180.8,226.4,178.7,226.4,177.4,225.1C177.4,225.1,177.4,225.1,177.4,225.1"
	/>
<polygon class="st0" points="200.6,225.9 200.6,219.6 197.9,224.9 197.4,224.9 194.6,219.6 194.6,225.9 193.5,225.9 193.5,217.2 
	194.4,217.2 197.6,223.3 200.8,217.2 201.7,217.2 201.7,225.9 "/>
<polygon class="st0" points="58.6,122.4 58.6,137.2 54.9,137.2 54.9,131.4 50,131.4 50,137.2 46.3,137.2 46.3,122.4 50,122.4 
	50,128 54.9,128 54.9,122.4 "/>
<polygon class="st0" points="89.4,134 89.4,137.2 79,137.2 79,122.4 89.2,122.4 89.2,125.7 82.6,125.7 82.6,128.1 88.4,128.1 
	88.4,131.3 82.6,131.3 82.6,134 "/>
<polygon class="st0" points="109.8,122.4 113.5,122.4 113.5,133.9 119.7,133.9 119.7,137.2 109.8,137.2 "/>
<path class="st0" d="M150.3,134.3h-5.5l-1,2.9h-3.7l5.7-14.8h3.6l5.7,14.8h-3.8L150.3,134.3z M149.2,131.3l-1.7-4.7l-1.7,4.7H149.2z
	"/>
<path class="st0" d="M174,122.4h6.1c1.3,0,2.6,0.3,3.8,0.9c1.1,0.6,2,1.5,2.6,2.6c1.2,2.5,1.2,5.4,0,7.8c-0.6,1.1-1.5,2-2.6,2.6
	c-1.2,0.6-2.5,0.9-3.8,0.9H174V122.4z M180,133.9c1,0,2-0.4,2.7-1.1c1.4-1.8,1.4-4.2,0-6c-0.7-0.7-1.7-1.1-2.7-1.1h-2.3v8.1
	L180,133.9z"/>
<path class="st0" d="M211.2,136.5c-1.1-0.7-2-1.6-2.6-2.8c-1.2-2.5-1.2-5.4,0-7.9c1.9-3.5,6.3-4.8,9.8-2.9c0.1,0,0.1,0.1,0.2,0.1
	c1.1,0.7,2,1.6,2.6,2.8c1.3,2.5,1.3,5.4,0,7.9c-0.6,1.1-1.5,2.1-2.6,2.8C216.3,137.8,213.5,137.8,211.2,136.5 M216.7,133.5
	c0.6-0.4,1-0.9,1.3-1.5c0.6-1.4,0.6-3,0-4.4c-0.3-0.6-0.7-1.1-1.3-1.5c-1.1-0.7-2.5-0.7-3.6,0c-0.5,0.4-1,0.9-1.3,1.5
	c-0.6,1.4-0.6,3,0,4.4c0.3,0.6,0.7,1.1,1.3,1.5C214.3,134.2,215.7,134.2,216.7,133.5"/>
<path class="st0" d="M244.9,137.1c-0.9-0.2-1.7-0.6-2.4-1.2l1.2-3.1c0.6,0.5,1.3,0.8,2,1.1c0.7,0.3,1.5,0.4,2.3,0.4
	c1.4,0,2.1-0.4,2.1-1.2c0-0.4-0.2-0.8-0.6-0.9c-0.6-0.3-1.3-0.5-1.9-0.6c-0.8-0.2-1.7-0.5-2.4-0.8c-0.7-0.3-1.2-0.7-1.7-1.3
	c-0.5-0.7-0.7-1.6-0.7-2.4c0-0.9,0.2-1.7,0.6-2.4c0.5-0.8,1.1-1.4,1.9-1.7c1-0.4,2.1-0.7,3.1-0.6c0.9,0,1.7,0.1,2.5,0.3
	c0.8,0.2,1.5,0.5,2.2,1l-1.1,3.1c-1.1-0.7-2.3-1.1-3.6-1.1c-0.6,0-1.1,0.1-1.6,0.4c-0.3,0.2-0.5,0.6-0.5,1c0,0.4,0.2,0.7,0.6,0.9
	c0.6,0.3,1.2,0.5,1.9,0.6c0.8,0.2,1.7,0.4,2.4,0.8c0.7,0.3,1.2,0.7,1.7,1.3c0.5,0.7,0.8,1.6,0.7,2.4c0,0.8-0.2,1.7-0.6,2.4
	c-0.5,0.7-1.1,1.3-1.9,1.7c-1,0.5-2.1,0.7-3.1,0.6C246.9,137.6,245.9,137.4,244.9,137.1"/>
<path class="st0" d="M29,169.6c-2.9,3.9-12.3,6.1-11.6-1.4v-28.6c0.1-4.1,1.1-5.8,5.1-6V132H0v1.5c4,0.2,5,2,5.1,6v28.6
	C5,172.2,4,174,0,174.2v1.5h33.1l1.5-16l-1.6-0.2C32.3,163.8,31,167.2,29,169.6"/>
<path class="st0" d="M59.9,147.6c-3.2-2.4-7.2-3.2-11.1-2.4c-4,0.6-7.5,2.9-9.6,6.3c-2.2,3.5-3,7.8-2.2,11.9c0.5,4.1,2.7,7.9,6,10.4
	c3.2,2.4,7.2,3.3,11.1,2.4c4-0.6,7.5-2.9,9.6-6.2c2.2-3.6,3-7.9,2.1-12C65,153.4,63,149.9,59.9,147.6 M56.1,170.7
	c-0.2,1.9-1,3-2.4,3.3s-2.5-0.5-3.3-2.2s-1.7-5.2-2.6-10.4s-1.2-8.9-1-10.8s1-2.9,2.4-3.1s2.5,0.5,3.3,2.2s1.7,5.2,2.6,10.4
	S56.3,168.8,56.1,170.7"/>
<path class="st0" d="M88.5,172.8c-0.3,0.8-1,1.3-1.8,1.5v1.4h16v-1.4c-1-0.1-2-0.7-2.6-1.6c-0.6-1.3-0.8-2.6-0.7-4V156
	c0-3.8-0.7-6.6-1.9-8.4c-1.4-1.9-3.7-2.9-6-2.7c-1.7,0-3.4,0.4-5,1.1c-1.7,0.8-3.2,1.9-4.4,3.2l-0.2-3.4H68.6v1.4
	c1,0.1,1.9,0.6,2.5,1.5c0.6,1.1,0.8,2.3,0.8,3.6v17.3c0.1,1.1-0.2,2.3-0.8,3.3c-0.6,0.8-1.5,1.4-2.5,1.6v1.4h16.2v-1.4
	c-0.8-0.2-1.6-0.7-2-1.4c-0.5-1.2-0.7-2.4-0.6-3.7v-16.6c0.6-0.8,1.3-1.4,2.1-1.9c0.6-0.4,1.3-0.6,2.1-0.7c0.8-0.1,1.6,0.3,2,1
	c0.5,1.3,0.7,2.6,0.6,4v13.9C89.1,170.2,88.9,171.5,88.5,172.8"/>
<path class="st0" d="M115.6,176.5c1.3,0,2.6-0.3,3.8-0.8c1.2-0.6,2.3-1.5,3.1-2.5v8.4c1.1-0.1,2.2-0.3,3.3-0.4
	c2.3-0.3,4.6-0.4,7-0.6v-35.9h-1.7l-4.9,3.9c-1.1-1.1-2.4-2.1-3.9-2.7c-1.4-0.6-2.8-0.9-4.3-0.9c-3.7-0.1-7.2,1.6-9.4,4.6
	c-2.4,3.1-3.7,7.1-3.7,12c0,4.4,1,8,3,10.8C109.6,174.9,112.5,176.5,115.6,176.5 M116.9,151.1c0.7-2,1.7-2.9,3-2.9
	c0.9,0,1.7,0.4,2,1.2c0.5,1.1,0.7,2.4,0.6,3.6v17.1c-0.3,0.6-0.7,1.1-1.3,1.5c-0.5,0.4-1.1,0.6-1.7,0.6c-1.3,0-2.2-0.9-2.8-2.8
	c-0.7-3-1-6.1-0.9-9.2C115.7,157.2,116.1,154.1,116.9,151.1"/>
<path class="st0" d="M139.2,148.8c0.6,1.2,0.8,2.6,0.8,4v12.7c0,3.8,0.6,6.6,1.9,8.4s3.3,2.7,6,2.7c1.7,0,3.4-0.3,5-1
	c1.6-0.7,3-1.8,4.2-3.1v3.4h13.6v-1.4c-0.7-0.2-1.3-0.4-1.9-0.9c-0.3-0.2-0.5-0.4-0.7-0.7c-0.6-1-0.8-2.1-0.8-3.3v-23.8h-13v1.4
	c0.9,0.2,1.6,0.7,2.1,1.4c0.5,1.2,0.7,2.4,0.6,3.6v16.7c-0.6,0.8-1.2,1.4-2,1.9c-0.6,0.4-1.3,0.6-2.1,0.6c-0.8,0.1-1.6-0.3-2.1-0.9
	c-0.5-1.3-0.7-2.6-0.6-4v-20.8h-13.7v1.4C137.7,147.3,138.6,147.9,139.2,148.8"/>
<path class="st0" d="M207.5,174.3c-0.8-0.2-1.4-0.8-1.7-1.5c-0.4-1.1-0.6-2.4-0.5-3.6v-16.6c0.5-0.7,1.1-1.4,1.9-1.9
	c0.6-0.4,1.3-0.6,2-0.6c0.7-0.1,1.4,0.3,1.7,1c0.4,1.3,0.6,2.6,0.5,4V169c0.1,1.3-0.1,2.6-0.5,3.9c-0.3,0.7-1,1.3-1.7,1.5v1.4h14.5
	v-1.4c-0.8-0.3-1.4-0.8-1.7-1.6c-0.4-1.1-0.6-2.4-0.5-3.6v-16.7c0.5-0.7,1.1-1.4,1.9-1.9c0.6-0.4,1.2-0.6,1.9-0.6
	c0.8-0.1,1.5,0.3,1.8,1c0.4,1.3,0.6,2.6,0.5,4V169c0.1,1.3-0.1,2.7-0.5,3.9c-0.3,0.7-1,1.3-1.8,1.5v1.4h15.4v-1.4
	c-1-0.2-1.9-0.8-2.4-1.6c-0.6-1.3-0.8-2.6-0.7-4V156c0-3.8-0.6-6.6-1.8-8.4c-1.3-1.8-3.4-2.9-5.6-2.7c-1.7,0-3.3,0.4-4.8,1.1
	c-1.7,0.9-3.3,2.2-4.6,3.7c-0.5-1.4-1.4-2.7-2.6-3.6c-1.2-0.8-2.6-1.3-4.1-1.2c-1.6,0-3.2,0.4-4.6,1.1c-1.6,0.8-3.1,1.9-4.3,3.2
	l-0.2-3.4h-13v1.4c1,0.1,1.9,0.6,2.5,1.5c0.6,1.1,0.8,2.3,0.8,3.6v17.3c0.1,1.1-0.2,2.3-0.8,3.3c-0.6,0.8-1.5,1.4-2.5,1.6v1.4h15.6
	L207.5,174.3z"/>
<path class="st0" d="M247.1,162.6c-2.6,2.1-3.8,4.3-3.8,6.9c-0.1,1.8,0.6,3.6,1.9,5c1.2,1.3,2.9,2,4.7,2c1.5,0,3-0.4,4.3-1.1
	c1.7-0.9,3.4-2.1,4.8-3.5c0.6,1.3,1.6,2.5,2.7,3.3c1.1,0.8,2.4,1.2,3.7,1.1c1.4,0,2.7-0.4,3.8-1.2c1.4-1,2.6-2.2,3.5-3.6l-0.8-1.1
	c-0.4,0.2-0.8,0.4-1.1,0.6c-0.2,0.1-0.5,0.2-0.8,0.2c-0.4,0-0.7-0.2-0.9-0.6c-0.2-0.6-0.3-1.2-0.3-1.8v-14.2c0-3.4-1-5.9-2.9-7.6
	s-4.9-2.4-9-2.4c-3.9,0-7,0.7-9.3,2.2s-3.5,3.4-3.5,5.8c-0.1,1.4,0.5,2.7,1.5,3.7c1.1,1,2.5,1.5,3.9,1.4c2.3,0.1,4.2-1.6,4.3-3.9
	c0-0.1,0-0.3,0-0.4c-0.1-0.8-0.3-1.6-0.7-2.4c-0.3-0.6-0.6-1.2-0.7-1.9c0-0.6,0.3-1.2,0.9-1.6c0.7-0.4,1.5-0.7,2.3-0.6
	c0.9,0,1.7,0.3,2.3,1c0.6,0.8,0.9,1.7,0.8,2.7v6.3C253.5,158.8,249.7,160.6,247.1,162.6 M258.6,169.5c-0.3,0.4-0.7,0.8-1.2,1.1
	c-0.4,0.2-0.9,0.3-1.4,0.3c-0.8,0-1.6-0.4-2.1-1.1c-0.6-0.8-0.8-1.8-0.8-2.8c0-1.6,0.5-3.1,1.4-4.3c1-1.4,2.4-2.5,3.9-3.1
	L258.6,169.5z"/>
<path class="st0" d="M291.3,145.7v1.4c0.8,0.1,1.6,0.5,2.2,1c0.4,0.4,0.7,1,0.6,1.7c0,0.4-0.1,0.8-0.1,1.2c-0.1,0.5-0.2,0.9-0.4,1.4
	l-3.4,9.4l-4.2-10.2c-0.1-0.4-0.3-0.7-0.4-1.1c-0.1-0.3-0.2-0.5-0.2-0.8c0-0.6,0.2-1.2,0.5-1.6c0.5-0.4,1.1-0.7,1.7-0.8v-1.4h-16.5
	v1.4c0.9,0.2,1.7,0.7,2.4,1.4c0.8,1.1,1.5,2.4,2,3.7l7.9,19.5l0.8,1.9l0.9,2.3c0,0-0.3,0.9-0.4,1.2c-0.5,1.2-1.2,2.4-2,3.5
	c-1.1,1.6-2.4,3.1-3.8,4.4c-2.9,2.7-6.1,4.8-9.7,6.5c-2.1,1-4.3,1.8-6.6,2.5c-0.9,0.3-1.8,0.5-2.7,0.8c-4.4,1.1-8.9,1.8-13.4,2.1
	c-2.7,0.2-5.3,0.3-8,0.3c-5.2,0-10.4-0.3-15.6-0.9c-7.9-0.9-15.7-2.2-23.5-4c-15.9-3.9-32-6.5-48.3-7.6c-3.7-0.2-7.4-0.4-11.2-0.4
	c-2.3,0-4.6,0-6.9,0.1h-0.3c-2.2,0.1-4.4,0.3-6.6,0.5c-1.2,0.1-2.5,0.3-3.7,0.5c-0.4,0-0.8,0.1-1.2,0.2c-2.7,0.4-5.4,1-8,1.8
	c-2.3,0.7-4.5,1.6-6.7,2.7c-2.7,1.4-5.1,3.4-6.8,5.9l-0.3,0.5c-0.2,0.3-0.4,0.6-0.5,0.9c-1.6,3.2-0.4,7.1,2.7,8.8
	c3,1.6,6.7,0.5,8.2-2.5c0.1-0.1,0.1-0.2,0.2-0.4c0.6-0.9,1.4-1.6,2.3-2.1c1.4-0.9,2.9-1.6,4.4-2.1c1.9-0.7,3.9-1.3,5.9-1.7
	c1.6-0.4,3.2-0.7,4.8-1c1.6-0.3,3.4-0.5,5.2-0.8c6-0.7,12-1,18.1-1c15.9,0.2,31.7,1.7,47.4,4.6c8,1.4,16.1,2.4,24.3,3
	c3.4,0.2,6.9,0.3,10.3,0.3c4.7,0,9.5-0.3,14.2-0.9c4.4-0.5,8.7-1.4,13-2.6c1.7-0.5,3.5-1.1,5.2-1.7c1.9-0.7,3.8-1.6,5.6-2.5
	c3.8-2,7.2-4.5,10.3-7.5c0.1-0.2,0.3-0.3,0.4-0.5c2.5-2.6,4.5-5.7,5.8-9.1l1.5-4.4l0.7-1.9l6.8-19.4c0.4-1.1,0.9-2.2,1.6-3.2
	c0.5-0.7,1.3-1.4,2.1-1.8v-1.4L291.3,145.7z"/>
<path class="st0" d="M190,174.3c-1-0.2-1.9-0.8-2.5-1.6c-0.6-1-0.9-2.1-0.8-3.3v-23.7h-13.9v1.4c1,0.1,1.9,0.6,2.5,1.5
	c0.6,1.1,0.8,2.3,0.8,3.6v17.3c0.1,1.1-0.2,2.3-0.8,3.3c-0.6,0.8-1.5,1.4-2.5,1.6v1.4H190V174.3z"/>
<polygon class="st0" points="150,236.2 152.7,241.7 158.8,242.6 154.4,246.9 155.5,253 150,250.1 144.5,253 145.6,246.9 
	141.2,242.6 147.3,241.7 "/>
</svg>
