<?xml version="1.0" encoding="utf-8"?>
<!-- Generator: Adobe Illustrator 22.0.0, SVG Export Plug-In . SVG Version: 6.00 Build 0)  -->
<svg version="1.1" id="Capa_1" xmlns="http://www.w3.org/2000/svg" xmlns:xlink="http://www.w3.org/1999/xlink" x="0px" y="0px"
	 viewBox="0 0 300 300" style="enable-background:new 0 0 300 300;" xml:space="preserve">
<style type="text/css">
	.st0{fill:#FFFFFF;}
</style>
<title>logo_copihues</title>
<path class="st0" d="M0,238.6v-2.1h1.7c0.5,0,1-0.1,1.5-0.4c0.4-0.3,0.6-1,0.6-2.2v-19.1c0-1.1-0.2-1.9-0.6-2.2
	c-0.4-0.3-0.9-0.5-1.5-0.4H0v-2.1h13.8v2.1h-1.7c-0.5,0-1,0.1-1.4,0.4c-0.4,0.3-0.6,1-0.6,2v21.6h7.4c0.6,0,1.1-0.1,1.6-0.4
	c0.5-0.3,0.8-0.7,1.1-1.2c0.3-0.6,0.5-1.2,0.7-1.9l0.6-3h2.2l-0.3,8.9L0,238.6z"/>
<path class="st0" d="M40.8,239c-2.6,0.1-5.3-0.5-7.6-1.8c-2-1.2-3.6-3-4.5-5.2c-1-2.4-1.6-5.1-1.5-7.8c-0.1-2.6,0.4-5.3,1.5-7.7
	c0.9-2.1,2.5-3.9,4.5-5.1c2.3-1.3,4.9-1.9,7.6-1.8c2.6-0.1,5.1,0.6,7.3,1.8c2,1.2,3.6,3,4.6,5.1c1.1,2.4,1.6,5.1,1.6,7.7
	c0.1,2.7-0.5,5.3-1.6,7.7c-1,2.1-2.6,3.9-4.6,5.1C45.9,238.4,43.3,239.1,40.8,239 M40.8,236.4c2.3,0.1,4.4-1.1,5.3-3.2
	c2-5.8,2-12,0-17.8c-0.9-2.1-3-3.3-5.2-3.2c-2.3-0.1-4.4,1.1-5.3,3.2c-1,2.1-1.6,5.1-1.6,8.9c-0.1,3,0.4,6.1,1.6,8.9
	C36.4,235.3,38.5,236.5,40.8,236.4"/>
<path class="st0" d="M67,239c-1.9,0.1-3.8-0.2-5.6-0.9c-1.2-0.4-2.2-1.2-2.9-2.1c-0.5-0.8-0.8-1.7-0.8-2.6c0-0.8,0.2-1.5,0.6-2.2
	c0.4-0.5,1-1,1.7-1.2c0.7-0.2,1.4-0.4,2.2-0.4c0,1.3,0.2,2.6,0.7,3.8c0.8,1.9,2.7,3.2,4.8,3.1c1.3,0.1,2.6-0.4,3.7-1.2
	c0.9-0.8,1.3-1.9,1.3-3.1c0-0.8-0.2-1.7-0.7-2.3c-0.6-0.7-1.4-1.4-2.2-1.8c-1.2-0.7-2.4-1.2-3.7-1.7c-1.6-0.6-3.1-1.4-4.5-2.5
	c-1-0.7-1.8-1.7-2.3-2.8c-0.5-1.1-0.7-2.3-0.7-3.5c0-1.5,0.4-3,1.3-4.2c0.9-1.2,2.1-2.2,3.5-2.8c1.6-0.7,3.3-1,5-1
	c2.9,0,5.1,0.4,6.4,1.3c1.2,0.7,2,1.9,2.1,3.3c0,0.9-0.5,1.8-1.2,2.4c-1.1,0.7-2.4,1.1-3.7,1c0-0.8-0.2-1.6-0.4-2.4
	c-0.3-0.8-0.7-1.6-1.3-2.2c-0.7-0.6-1.6-1-2.5-0.9c-1,0-2,0.3-2.8,0.9c-0.8,0.7-1.2,1.7-1.2,2.7c0,0.7,0.2,1.4,0.5,2.1
	c0.5,0.8,1.2,1.4,2,1.9c1.3,0.8,2.7,1.5,4.1,2c2.2,0.8,4.2,2,5.9,3.6c1.2,1.3,1.8,3.1,1.8,4.9c0,1.6-0.4,3.2-1.3,4.5
	c-0.9,1.4-2.3,2.4-3.8,3.1C71,238.7,69,239.1,67,239"/>
<path class="st0" d="M106.3,239c-2.7,0.1-5.4-0.5-7.7-1.8c-2-1.2-3.6-3-4.6-5.1c-1.1-2.4-1.6-5.1-1.5-7.7c-0.1-2.6,0.5-5.2,1.5-7.6
	c1-2.1,2.6-3.9,4.6-5.2c2.3-1.3,4.9-1.9,7.6-1.9c3.1,0,5.3,0.4,6.8,1.3c1.3,0.6,2.2,1.9,2.3,3.3c0,1-0.5,1.9-1.3,2.5
	c-1.1,0.7-2.4,1.1-3.7,1c0-0.9-0.1-1.8-0.4-2.6c-0.2-0.8-0.7-1.6-1.4-2.1c-0.7-0.6-1.7-0.9-2.6-0.8c-2.2-0.2-4.4,1.1-5.3,3.1
	c-1,2.1-1.5,5.1-1.5,8.9c-0.1,2.2,0.2,4.3,0.8,6.4c0.4,1.5,1.3,2.9,2.6,3.8c1.4,0.9,3.1,1.4,4.7,1.3c1.1,0,2.3-0.2,3.3-0.6
	c0.9-0.3,1.7-0.8,2.4-1.5c0.6-0.5,1.2-1.1,1.7-1.8c0.2,0.2,0.4,0.4,0.5,0.7c0.1,0.3,0.2,0.7,0.2,1c0,0.8-0.3,1.7-0.8,2.3
	c-0.7,0.9-1.7,1.7-2.8,2.1C110,238.8,108.1,239.1,106.3,239"/>
<path class="st0" d="M132.7,239c-2.6,0.1-5.3-0.5-7.6-1.8c-2-1.2-3.6-3-4.5-5.2c-1-2.4-1.6-5.1-1.5-7.8c-0.1-2.6,0.4-5.3,1.5-7.7
	c0.9-2.1,2.5-3.9,4.5-5.1c2.3-1.3,4.9-1.9,7.6-1.8c2.6-0.1,5.1,0.6,7.3,1.8c2,1.2,3.6,3,4.6,5.1c1.1,2.4,1.6,5.1,1.6,7.7
	c0.1,2.7-0.5,5.3-1.6,7.7c-1,2.1-2.6,3.9-4.6,5.1C137.8,238.5,135.3,239.1,132.7,239 M132.7,236.4c2.3,0.1,4.4-1.1,5.3-3.2
	c1.1-2.8,1.7-5.9,1.5-8.9c0-3.8-0.5-6.8-1.5-8.9c-0.9-2.1-3-3.3-5.2-3.2c-2.3-0.1-4.4,1.1-5.3,3.2c-2.1,5.8-2.1,12,0,17.8
	C128.3,235.3,130.4,236.5,132.7,236.4"/>
<path class="st0" d="M149.5,238.6v-2.1h1.7c0.5,0,1-0.1,1.5-0.4c0.4-0.3,0.6-1,0.6-2.2v-19.3c0-1.1-0.2-1.7-0.6-2
	c-0.4-0.3-0.9-0.4-1.4-0.4h-1.7v-2.1h12.3c3.7,0,6.4,0.8,8.2,2.3c1.8,1.5,2.8,3.8,2.7,6.2c0,1.6-0.4,3.1-1.1,4.5
	c-0.9,1.5-2.2,2.7-3.7,3.4c-2.2,1-4.5,1.4-6.9,1.3h-1.4v6.4c0,1.1,0.2,1.7,0.6,2c0.4,0.3,1,0.4,1.5,0.4h2.4v2.1H149.5z M160.5,225.4
	c2,0,3.4-0.5,4.2-1.5s1.3-2.7,1.3-5.1c0.1-1.7-0.3-3.3-1.1-4.7c-0.9-1.1-2.3-1.7-3.8-1.5h-1.6v12.9H160.5z"/>
<path class="st0" d="M175,238.6v-2.1h1.7c0.5,0,1-0.1,1.5-0.4c0.4-0.3,0.6-1,0.6-2.2v-19.1c0-1.1-0.2-1.9-0.6-2.2
	c-0.4-0.3-0.9-0.5-1.5-0.4H175v-2.1h13.8v2.1h-1.7c-0.5,0-1,0.1-1.5,0.4c-0.4,0.3-0.6,1-0.6,2.2v19.1c0,1.1,0.2,1.9,0.6,2.2
	c0.4,0.3,0.9,0.5,1.5,0.4h1.7v2.1L175,238.6z"/>
<path class="st0" d="M191,238.6v-2.1h1.7c0.5,0,1-0.1,1.4-0.4c0.4-0.3,0.6-1,0.6-2.2v-19.3c0-1.1-0.2-1.7-0.6-2
	c-0.4-0.3-0.9-0.4-1.4-0.4H191v-2.1h13.8v2.1h-1.7c-0.5,0-1,0.1-1.4,0.4c-0.4,0.3-0.6,1-0.6,2.2v7.7h10.4v-7.7
	c0-1.2-0.2-1.9-0.6-2.2c-0.4-0.3-0.9-0.5-1.4-0.4h-1.7v-2.1h13.8v2.1h-1.7c-0.5,0-1,0.1-1.4,0.4c-0.4,0.3-0.6,1-0.6,2.2v19.3
	c0,1.1,0.2,1.7,0.6,2c0.4,0.3,0.9,0.4,1.4,0.4h1.7v2.1h-13.8v-2.1h1.7c0.5,0,1-0.1,1.4-0.4c0.4-0.3,0.6-1,0.6-2.2V225h-10.4v8.9
	c0,1.1,0.2,1.9,0.6,2.2c0.4,0.3,0.9,0.5,1.4,0.4h1.7v2.1L191,238.6z"/>
<path class="st0" d="M238.1,239c-3.5,0-6.2-0.7-8.1-2.1c-2-1.4-2.9-3.7-2.9-7v-15.3c0-1.1-0.2-1.7-0.6-2c-0.4-0.3-0.9-0.4-1.4-0.4
	h-1.7v-2.1h13.8v2.1h-1.7c-0.5,0-1,0.1-1.4,0.4c-0.4,0.3-0.6,1-0.6,2.2v15.4c0,2.2,0.5,3.8,1.6,4.7c1.3,0.9,2.8,1.4,4.3,1.3
	c1.5,0.1,3.1-0.4,4.2-1.4c1.1-1.2,1.7-2.8,1.6-4.5v-15.7c0-1.1-0.2-1.7-0.6-2c-0.4-0.3-0.9-0.4-1.4-0.4h-1.7v-2.1h10.5v2.1h-1.7
	c-0.5,0-1,0.1-1.4,0.4c-0.4,0.3-0.6,1-0.6,2.2v15.6c0.1,2.3-0.7,4.6-2.4,6.3C244.1,238.2,241.6,239,238.1,239"/>
<path class="st0" d="M253.6,238.6v-2.1h1.7c0.5,0,1-0.1,1.4-0.4c0.4-0.3,0.6-0.9,0.6-2v-19.3c0-1.1-0.2-1.9-0.6-2.2
	c-0.4-0.3-0.9-0.5-1.4-0.4h-1.7v-2.1h22.2l0.1,7.4h-2.8l-0.2-1.9c0-0.8-0.3-1.6-0.7-2.3c-0.4-0.5-1.1-0.8-1.8-0.8h-6.7v10h9.5v2.4
	h-9.5v11.3h8c0.7,0,1.4-0.3,1.8-0.9c0.4-0.7,0.7-1.4,0.8-2.2l0.3-1.9h2.8l-0.3,7.4H253.6z"/>
<path class="st0" d="M289.1,239c-1.9,0.1-3.8-0.2-5.6-0.9c-1.2-0.4-2.2-1.2-2.9-2.2c-0.5-0.8-0.8-1.7-0.8-2.6c0-0.8,0.2-1.5,0.6-2.2
	c0.4-0.5,1-1,1.7-1.2c0.7-0.2,1.5-0.4,2.2-0.4c0,1.3,0.2,2.6,0.7,3.8c0.4,0.9,1.1,1.8,1.9,2.3c0.9,0.5,1.8,0.8,2.8,0.8
	c1.3,0.1,2.6-0.4,3.7-1.2c0.9-0.8,1.3-1.9,1.3-3.1c0-0.8-0.2-1.6-0.7-2.3c-0.6-0.7-1.4-1.4-2.2-1.8c-1.2-0.7-2.4-1.2-3.7-1.7
	c-1.6-0.6-3.1-1.4-4.4-2.4c-1-0.7-1.8-1.7-2.3-2.8c-0.5-1.1-0.7-2.3-0.7-3.5c0-1.5,0.4-3,1.3-4.2c0.9-1.2,2.1-2.2,3.5-2.8
	c1.6-0.7,3.3-1,5-1c2.9,0,5.1,0.4,6.5,1.3c1.2,0.7,2,1.9,2.1,3.3c0,0.9-0.5,1.8-1.2,2.4c-1.1,0.7-2.4,1.1-3.7,1
	c0-0.8-0.2-1.6-0.4-2.4c-0.3-0.8-0.7-1.6-1.3-2.2c-0.7-0.6-1.6-1-2.5-0.9c-1,0-2,0.3-2.8,0.9c-0.8,0.7-1.2,1.7-1.2,2.7
	c0,0.7,0.2,1.4,0.5,2.1c0.5,0.8,1.2,1.4,2,1.9c1.3,0.8,2.7,1.5,4.1,2c2.2,0.8,4.2,2,5.9,3.6c1.2,1.3,1.8,3.1,1.8,4.9
	c0,1.6-0.4,3.2-1.3,4.5c-0.9,1.4-2.3,2.4-3.8,3.1C293.1,238.7,291.1,239.1,289.1,239"/>
<polygon class="st0" points="96.5,175.4 87.6,190.5 78.5,175.4 75,175.4 75,198.2 79.1,198.2 79.1,183.3 86.6,195.6 88.5,195.6 
	96,183.1 96,198.2 100.1,198.2 100,175.4 "/>
<path class="st0" d="M113.3,175.4L103,198.2h4.4l2.3-5.3h11.4l2.3,5.3h4.4l-10.3-22.9H113.3z M111.1,189.6l4.3-10l4.3,10H111.1z"/>
<path class="st0" d="M147.2,176.8c-2-1-4.3-1.5-6.5-1.4h-10v22.9h10c2.3,0,4.5-0.4,6.5-1.4c1.8-0.9,3.3-2.3,4.4-4
	c2.1-3.7,2.1-8.3,0-12C150.5,179.1,149,177.7,147.2,176.8 M147.8,190.9c-0.7,1.2-1.7,2.1-2.9,2.7c-1.4,0.7-2.9,1-4.5,1h-5.6V179h5.6
	c1.5,0,3.1,0.3,4.5,1c1.2,0.6,2.2,1.6,2.9,2.7C149.2,185.3,149.2,188.4,147.8,190.9"/>
<polygon class="st0" points="161.9,188.4 172.9,188.4 172.9,184.9 161.9,184.9 161.9,178.9 174.3,178.9 174.3,175.4 157.7,175.4 
	157.7,198.2 174.8,198.2 174.8,194.7 161.9,194.7 "/>
<path class="st0" d="M194.1,190.6c1.4-0.6,2.5-1.5,3.4-2.8c1.6-2.7,1.6-6,0-8.7c-0.8-1.2-2-2.2-3.4-2.8c-1.6-0.7-3.4-1-5.2-1h-9.4
	v22.9h4.3v-6.7h5.2c0.3,0,0.6,0,0.9,0l4.7,6.7h4.6l-5.3-7.5L194.1,190.6 M193,180.1c1,0.8,1.5,2.1,1.4,3.4c0.1,1.3-0.5,2.5-1.4,3.4
	c-1.2,0.9-2.7,1.3-4.2,1.2h-5V179h5C190.3,178.9,191.8,179.3,193,180.1"/>
<path class="st0" d="M210.5,175.4l-10.3,22.9h4.4l2.3-5.3h11.4l2.3,5.3h4.5l-10.3-22.9H210.5z M208.2,189.6l4.3-10l4.3,10H208.2z"/>
<path class="st0" d="M161.7,142.1c-2.4,4.9-6.7,8.6-11.8,10.3c-5.1-1.7-9.4-5.4-11.8-10.3l0,0l0,0h0.1c5.1-2.8,9.2-7.2,11.8-12.4
	c2.5,5.2,6.5,9.5,11.6,12.3l0,0L161.7,142.1L161.7,142.1"/>
<path class="st0" d="M143.8,82.2c2.1,2.3,4.3,4.5,6.7,6.6c3.3,2.9,6.9,5.8,9.5,9.6c1.6,2.3,2.9,4.8,4.1,7.3c1.9,3.8,3.8,7.4,7,10
	c-0.2-3.1-0.3-4.7-0.6-7.8c-1.8-2.2-3.4-4.7-4.5-7.3c-0.9-2-1.9-3.8-3.1-5.6c-2.3-3-4.9-5.7-7.8-8.1c-2-1.7-3.9-3.6-5.6-5.6
	c-4.7-5.7-4.9-13.8-1.1-20c0,0,0-0.1,0.1-0.1c-2.2,0.2-4.2,1-6.1,2.1C139.2,68.6,139.8,77.5,143.8,82.2"/>
<path class="st0" d="M157.2,77.3c1.3,1.5,2.7,2.9,4.2,4.3c2.5,2.1,4.8,4.6,6.7,7.3c0.5,0.8,1,1.6,1.4,2.5c-0.2-3.2-0.3-4.8-0.6-8
	c0-0.2,0-0.4,0-0.6c-1-1.1-2-2.2-3.1-3.2s-2-2-3-3.2c-3-3.6-3.9-7.8-2.9-11.5c-1.2-1-2.4-1.8-3.8-2.5c-0.2,0.4-0.4,0.7-0.6,1.1
	C153.1,68,153.8,73.6,157.2,77.3"/>
<path class="st0" d="M162.9,106.5c-1.1-2.4-2.4-4.8-3.9-7c-2.5-3.6-6-6.4-9.2-9.2c-2.5-2.1-4.8-4.3-6.9-6.7
	c-3.9-4.6-5.2-13.2-2.6-18.8c-3.1,2.7-5.6,6.1-7.1,10c0.2,3.6,1.6,7,3.9,9.8c2.4,2.8,5.1,5.4,7.9,7.7c3.8,3.2,7.9,6.5,11,10.8
	c1.9,2.7,3.6,5.6,4.9,8.7c2.2,4.8,6.1,11,11.1,13.4c-0.2-2.9-0.3-4.3-0.5-7.2C167.2,115,165,110.7,162.9,106.5"/>
<path class="st0" d="M161.1,65.9c-1,4,1.4,7.6,2.6,9c0.9,1.1,1.9,2.1,2.9,3c0.6,0.6,1.3,1.3,1.9,1.9
	C167.4,74.5,164.9,69.7,161.1,65.9"/>
<path class="st0" d="M179,138.3c-0.5-0.4-0.9-0.7-1.4-1.2c-2-0.3-4-0.8-5.9-1.5c-7.8-2.8-12.4-9.9-15.9-17c-1.5-3.4-3.4-6.6-5.5-9.7
	c-3.4-4.5-7.9-8.1-12.1-11.6c-2.7-2.1-5.2-4.5-7.6-6.9c-0.8,11.7-1.7,23.5-2.5,35.2c-0.4,5.1-3,9.8-7.2,12.8c-1.4,1-2.9,1.9-4.6,2.5
	l-3.8,1.5l3.7,0.9c2.1,0.5,4.3,0.8,6.4,0.8h0.4c5,0,10-1.3,14.4-3.7l0.1-0.1c5.6-3.2,9.9-8.2,12.1-14.3c0,0,0-0.1,0-0.1
	c0.1-0.4,0.2-0.7,0.4-1.1c0.1,0.4,0.2,0.7,0.3,1.1c0,0,0,0.1,0,0.1c1.8,5.6,7.1,11.5,12,14.2l0.1,0.1c4.4,2.5,9.5,3.8,14.6,3.8h0.3
	c2.2,0,4.4-0.3,6.6-0.8l3.7-0.9l-3.8-1.5C182.1,140.3,180.5,139.4,179,138.3"/>
<path class="st0" d="M151.5,107.7c2.2,3.1,4.1,6.5,5.7,10c3.3,6.7,7.6,13.5,14.9,16.1c1.1,0.4,2.2,0.7,3.4,1
	c-1.8-2.3-2.9-4.9-3.4-7.7c-6.1-2.8-9.9-8.7-12.7-14.5c-1.3-2.9-2.9-5.7-4.7-8.3c-2.9-4-7-7.3-10.7-10.4c-3-2.3-5.7-4.9-8.1-7.8
	c-1.9-2.4-3.2-5.1-3.9-8.1c-0.5,1.8-0.8,3.6-1,5.4c-0.1,1.8-0.2,2.8-0.3,4.6c2.5,2.8,5.3,5.4,8.3,7.8
	C143.3,99.3,148,103,151.5,107.7"/>
<path class="st0" d="M149.5,62.3c-3,4.8-2.7,13.1,1.1,17.4c1.7,1.9,3.6,3.7,5.5,5.4c3,2.5,5.7,5.3,8.1,8.4c1.2,1.9,2.3,3.9,3.3,5.9
	c0.9,1.9,1.9,3.6,3,5.3c-0.3-3.8-0.4-5.7-0.7-9.4c-0.2-0.3-0.3-0.7-0.5-1c-0.7-1.5-1.4-3-2.3-4.4c-1.8-2.5-4-4.9-6.4-6.9
	c-1.5-1.4-3-2.8-4.3-4.4c-3.9-4.6-4.7-11.1-1.9-16.4l0.3-0.5c-1.4-0.5-2.8-0.8-4.3-0.8C150.1,61.4,149.8,61.9,149.5,62.3"/>
</svg>
