<?xml version="1.0" encoding="utf-8"?>
<!-- Generator: Adobe Illustrator 22.0.0, SVG Export Plug-In . SVG Version: 6.00 Build 0)  -->
<svg version="1.1" id="Capa_1" xmlns="http://www.w3.org/2000/svg" xmlns:xlink="http://www.w3.org/1999/xlink" x="0px" y="0px"
	 viewBox="0 0 300 300" style="enable-background:new 0 0 300 300;" xml:space="preserve">
<style type="text/css">
	.st0{fill:#FFFFFF;}
</style>
<title>logo_ag</title>
<path class="st0" d="M98.4,105.1c0,0-14.4,23.5,6,53.5c8.7,12.9,19.5,19.5,32.1,24.1c2.6-7.3,11.9-7.1,11.9-7.1
	c1.8-2.5,0.7-5.4,0.1-7.2c-6.9-1.4-13.5-3.6-19.9-6.6c-5.3-3.5-2.3-5.8-2.3-5.8c1.4-2.1-0.2-2.5-0.5-3.2c-0.7-1.1-0.4-2.6,0.7-3.3
	c0,0,0,0,0.1,0c-2.5-3-0.1-3.8-0.1-3.8c2.9-1.1,1.8-2.4,1.8-2.4c-0.8-0.9-1.3-1.9-1.4-3.1c-0.1-0.6,0.3-1.3,0.9-1.5l2.3-1.1
	c3.2-3,3.6-8,3.6-8c-1.8-1.8,0.9-10.7,0.9-10.7c-1.9,0.1-3.9,2.3-3.9,2.3c4.1-11.3,9.1-11.1,9.1-11.1c-2.3-0.4-4.4-1.5-6.1-3.2
	c2.9,0.5,5.9,0.5,8.8,0c-2.2-0.9-3.7-3-3.9-5.4c2.5,4,10.7,2.5,10.7,2.5c31.8-5.8,38,17.1,38,17.1c1.1,2.7,2.8,5.2,4.8,7.2
	c3.9,3.9,10.3,6.9,19.6,1.9c4.6-2.5,5.5-9.2,0.8-15.8l-2.8-9.2c0,0-9.7-30.1-18.3-38.8c0,0-3-15,0-22c0,0-5.4,3-7,6
	c0,0,0.7-9,2.3-10.7c0,0-16.4,10-17.4,15.7c0,0-33.1-9.7-60.1,16.4c0,0,10.4-2.7,14-1.3c0,0-33.1,18.7-39.1,40.7
	C84.3,111.1,95,104.1,98.4,105.1"/>
<path class="st0" d="M28.2,236.7c-0.2-0.1-0.4-0.2-0.5-0.4c-0.1-0.1-0.2-0.3-0.3-0.4c-0.1-0.4-0.3-0.7-0.3-1.1
	c-0.1-0.5-0.3-1.3-0.6-2.4s-0.6-2.5-0.9-4.3c-0.7-3.3-1.4-7-2.2-10.9s-1.5-7.9-2.1-12c-0.7-4-1.3-8-1.9-11.9s-1.1-7.5-1.4-10.7H12
	c-0.3,2.3-0.8,5-1.3,8.4s-1.1,6.8-1.7,10.4s-1.3,7.3-1.9,11s-1.3,7.1-1.8,10.2s-1.1,5.8-1.5,8s-0.8,3.6-1,4.3c-0.3,1.2-1,1.8-2,1.8
	H0v2.9h8.7v-2.9H7.8c-0.5,0-1.1,0-1.6-0.2c-0.4-0.1-0.6-0.5-0.5-0.9v-0.6c0-0.2,0-0.4,0.1-0.6l1-6.2h12c0.3,1.7,0.5,3.2,0.6,4.5
	s0.2,2.2,0.2,2.8c0,0.7-0.8,1.1-2.2,1.1h-0.7v2.9h13v-2.9h-0.6C28.8,236.8,28.5,236.8,28.2,236.7 M7.2,225.6
	c0.1-0.5,0.3-1.7,0.6-3.4c0.3-1.7,0.7-3.8,1.1-6.1s0.9-4.8,1.4-7.4s1-5.1,1.4-7.4s0.8-4.2,1.1-5.9s0.5-2.6,0.6-3.1l5,33.2L7.2,225.6
	z"/>
<path class="st0" d="M42.1,228h-0.8c-0.4,0.1-0.8-0.1-1.2-0.4c-0.3-0.4-0.4-0.8-0.5-1.3c-0.1-0.3-0.1-0.6-0.1-0.9
	c0-0.4-0.1-1.3-0.1-2.6s0-3.1-0.1-5.6s0-5.7,0-9.9c0-3,0-5.5,0-7.5s0-3.6,0.1-4.9s0.1-2.5,0.1-3.4s0.1-1.9,0.1-2.8h-8v2.4h0.6
	c0.7,0,1.1,0.1,1.3,0.3c0.3,0.4,0.4,0.9,0.5,1.4c0.1,0.5,0.2,0.9,0.2,1.4c0,0.5,0.1,1.2,0.1,2.2s0,2.3,0,4v6.6c0,3.9,0,7.1,0,9.5
	s-0.1,4.3-0.1,5.6c0,1-0.1,2-0.2,3c-0.1,0.6-0.2,1.1-0.4,1.6c-0.1,0.3-0.2,0.6-0.5,0.9c-0.2,0.1-0.4,0.2-0.7,0.2h-0.9v2.5h10.4V228z
	"/>
<path class="st0" d="M54.5,228H54c-0.6,0.1-1.2-0.3-1.5-0.9c-0.1-0.2-0.1-0.4-0.1-0.5c0-0.2,0-0.7,0-1.3s0-1.6,0-2.9v-5.4
	c0-1.5,0-2.7,0-3.7s0.1-1.8,0.2-2.5c0.1-0.5,0.2-1.1,0.4-1.6c0.1-0.4,0.3-0.7,0.6-1c0.3-0.4,0.7-0.7,1.1-0.9
	c0.5-0.3,1.1-0.4,1.6-0.4c0.5,0,1,0.1,1.4,0.2c0.4,0.2,0.7,0.5,0.9,0.8c0.2,0.2,0.3,0.5,0.5,0.8c0.2,0.4,0.3,0.8,0.3,1.3
	c0.1,0.6,0.1,1.4,0.1,2.4s0,2.4,0,4.2c0,2.4,0,4.4,0,5.8s-0.1,2.5-0.1,3.2c0,0.5-0.1,0.9-0.3,1.4c0,0.2-0.1,0.4-0.2,0.5
	c-0.2,0.3-0.6,0.4-1.3,0.4H57v2.5h9.4V228h-0.6c-0.8,0-1.3-0.2-1.4-0.6c-0.1-0.2-0.1-0.4-0.1-0.6c-0.1-0.6-0.1-1.2-0.1-1.8
	c0-0.9-0.1-2.3-0.1-4s0-4.2,0-7.2c0-1.2,0-2.4,0.1-3.6c0.1-0.7,0.3-1.4,0.7-1.9c0.3-0.4,0.6-0.7,1.1-0.9c1.5-0.7,3.2-0.4,4.3,0.8
	c0.2,0.3,0.4,0.6,0.6,0.9c0.2,0.4,0.3,0.8,0.4,1.3c0.1,0.8,0.2,1.6,0.2,2.4c0,1,0,2.4,0,4.1c0,2.5,0,4.4,0,5.8s-0.1,2.4-0.1,3.2
	c0,0.5-0.1,1-0.2,1.5c0,0.2-0.1,0.4-0.3,0.5c-0.2,0.3-0.6,0.4-1.3,0.4h-0.4v2.5h10V228h-0.6c-0.8,0-1.3-0.2-1.4-0.6
	c-0.1-0.2-0.1-0.4-0.1-0.6c-0.1-0.7-0.1-1.3-0.1-2c0-1-0.1-2.5-0.1-4.5s0-4.7,0-8.2c0-0.9-0.1-1.8-0.4-2.7c-0.3-1-0.8-1.9-1.4-2.7
	c-0.7-0.8-1.6-1.5-2.5-1.9c-1.2-0.5-2.5-0.8-3.8-0.8c-1.4-0.1-2.8,0.2-4,0.8c-1,0.6-1.8,1.4-2.5,2.4c-0.5-0.9-1.2-1.7-2-2.3
	c-1-0.7-2.3-1-3.5-0.9c-0.8,0-1.5,0.1-2.2,0.2c-0.6,0.1-1.1,0.3-1.7,0.6c-0.5,0.3-0.9,0.6-1.3,1c-0.4,0.4-0.7,0.8-1.1,1.3
	c-0.3-0.4-0.5-0.8-0.7-1.1c-0.2-0.3-0.5-0.6-0.8-0.8c-0.4-0.2-0.8-0.4-1.2-0.5c-0.6-0.1-1.2-0.1-1.8-0.1h-1.5v2.4H45
	c0.3,0,0.7,0.1,1,0.2c0.2,0.2,0.5,0.4,0.7,0.6c0.1,0.1,0.2,0.3,0.2,0.5c0.1,0.4,0.1,0.7,0.1,1.1c0,0.5,0,1.2,0,2.1v3.6
	c0,2.7,0,4.8,0,6.2s0,2.6-0.1,3.4c0,0.5,0,1.1-0.1,1.6c0,0.3-0.1,0.5-0.2,0.8c-0.2,0.7-0.8,1.1-1.5,1.1h-0.8v2.5h10.1V228z"/>
<path class="st0" d="M88.4,231c1.3,0,2.6-0.3,3.8-0.9c1-0.6,1.9-1.4,2.6-2.4c0.4,0.9,1,1.6,1.7,2.3c0.7,0.7,1.6,1,2.5,1
	c1.2,0.1,2.3-0.4,3.1-1.2c0.7-0.8,1-1.9,1-2.9v-2H101v1.8c0,1-0.3,1.5-0.9,1.5c-0.2,0-0.4-0.1-0.6-0.2c-0.2-0.3-0.4-0.6-0.4-1
	c-0.1-0.3-0.1-0.6-0.1-0.8c0-0.3,0-0.7-0.1-1.3s-0.1-1.3-0.1-2.3v-3.7c0-1.9,0-3.6-0.1-5c0-1.2-0.1-2.3-0.3-3.5
	c-0.1-0.8-0.3-1.6-0.6-2.4c-0.2-0.6-0.6-1.2-1-1.8c-0.7-0.8-1.6-1.4-2.6-1.7c-1.2-0.3-2.3-0.5-3.6-0.5c-1.1,0-2.2,0.2-3.2,0.5
	c-1,0.3-1.9,0.8-2.7,1.5c-1.6,1.3-2.6,3.4-2.5,5.5c-0.1,1.1,0.3,2.2,1,3c0.7,0.7,1.6,1,2.5,1c0.9,0,1.8-0.4,2.4-1.1
	c0.7-0.7,1-1.7,1-2.6c0.2-1.6-0.8-3.2-2.4-3.7c0.1-0.5,0.5-1,1-1.2c0.7-0.4,1.4-0.5,2.2-0.5c0.6,0,1.3,0.1,1.9,0.3
	c0.5,0.2,0.9,0.6,1.1,1c0.4,0.6,0.6,1.3,0.7,2.1c0.1,1.2,0.2,2.4,0.2,3.7c-0.4,0.4-0.9,0.8-1.4,1.1c-0.5,0.3-1.1,0.6-1.6,1
	c-1.1,0.7-2.3,1.3-3.6,1.9c-1.1,0.5-2.2,1-3.2,1.7c-1.1,0.6-2,1.4-2.7,2.4c-0.5,1-0.8,2.2-0.8,3.3c-0.1,1.8,0.6,3.5,1.9,4.6
	C83.9,230.4,85.8,231,88.4,231 M86.8,221.4c0.6-0.8,1.4-1.5,2.2-2.1c0.8-0.6,1.7-1.2,2.7-1.8c0.9-0.6,1.7-1.3,2.3-2.3
	c0,0.7,0,1.4,0,2.2c0,0.8,0,1.7,0,2.5s0,1.7,0,2.5v2.2c-0.1,0.4-0.3,0.8-0.5,1.1c-0.2,0.4-0.5,0.7-0.8,1.1c-0.3,0.3-0.8,0.6-1.2,0.8
	c-0.5,0.2-1.1,0.3-1.7,0.3c-1,0-2-0.3-2.8-1c-0.7-0.7-1.1-1.6-1-2.6C85.9,223.3,86.2,222.3,86.8,221.4"/>
<path class="st0" d="M113,228.6c-1.4,0-2.8-0.5-3.9-1.4c-1.2-1-1.9-2.4-2.1-3.9l-1.6,0.4c0,1.1,0.3,2.2,0.8,3.1
	c0.4,0.9,1,1.6,1.8,2.3c0.7,0.6,1.5,1.1,2.4,1.4c0.9,0.3,1.9,0.5,2.8,0.5c1.2,0,2.3-0.2,3.5-0.6c1.1-0.4,2-0.9,2.8-1.7
	c0.8-0.8,1.5-1.7,1.9-2.8c0.5-1.2,0.7-2.5,0.7-3.9c0-0.9-0.1-1.8-0.3-2.7c-0.3-0.8-0.7-1.6-1.3-2.3c-0.8-1.1-1.9-1.9-3.1-2.4
	l-2.3-1.1c-0.6-0.3-1.2-0.6-1.7-1c-0.6-0.4-1.1-0.9-1.5-1.5c-0.3-0.6-0.5-1.2-0.5-1.8c-0.1-0.8,0.2-1.6,0.7-2.3
	c0.6-0.6,1.4-0.9,2.3-0.8c0.7,0,1.4,0.1,2,0.5c0.6,0.4,1,0.8,1.4,1.4c0.3,0.4,0.5,0.9,0.7,1.4c0.1,0.5,0.2,1,0.2,1.5v0.5h2.2v-7.6
	h-2.2v2.6c-0.4-0.9-1.2-1.6-2.1-2c-0.9-0.4-1.8-0.5-2.7-0.6c-1.9-0.1-3.8,0.6-5.3,1.9c-1.4,1.3-2.1,3.2-2,5.1c0,1.9,0.8,3.8,2.2,5.1
	c0.5,0.5,1.1,0.9,1.7,1.3c0.7,0.4,1.4,0.8,2.1,1.2s1.4,0.8,2,1.2c0.5,0.3,1,0.7,1.5,1.1c0.5,0.4,0.8,0.9,1.1,1.5
	c0.2,0.6,0.3,1.3,0.3,2c0.1,1.2-0.4,2.4-1.2,3.2C115.2,228.3,114.1,228.7,113,228.6"/>
<path class="st0" d="M154,212.9c0.6,0,1.1,0.1,1.6,0.4c0.5,0.4,0.8,1,0.9,1.6c0.3,1,0.4,2.1,0.4,3.2c0.1,1.4,0.1,3.1,0.1,5.2
	c0,1.8-0.1,3.6-0.5,5.4c-0.3,1.5-0.7,3-1.3,4.4c-0.5,1.1-1.2,2.1-2.1,3c-0.7,0.7-1.7,1.1-2.7,1.1c-1.2,0-2.4-0.4-3.4-1.1
	c-1-0.8-1.8-1.8-2.3-2.9c-0.2-0.5-0.4-1.1-0.6-1.6c-0.2-1-0.3-2-0.4-3.1c-0.1-1.4-0.2-3.4-0.2-5.9s-0.1-5.8-0.1-9.9
	c0-4.9,0-8.8,0.1-11.7c0.1-2.9,0.2-5.2,0.3-6.9c0.1-1.2,0.3-2.5,0.6-3.7c0.2-0.7,0.5-1.3,0.9-1.9c0.7-1,1.6-1.9,2.6-2.5
	c1.2-0.6,2.5-0.9,3.8-0.9c2.4,0,4,0.6,5.1,1.8c-0.7,0.3-1.4,0.8-1.8,1.5c-0.4,0.8-0.6,1.8-0.6,2.7c0,1,0.3,2.1,0.9,2.9
	c0.6,0.9,1.7,1.4,2.8,1.3c1.1,0.1,2.1-0.4,2.8-1.2c0.7-1,1.1-2.2,1-3.4c0-1.1-0.2-2.2-0.7-3.2c-0.5-1-1.1-1.9-2-2.6
	c-1-0.8-2.2-1.4-3.4-1.8c-1.5-0.5-3.1-0.7-4.7-0.6c-2,0-4,0.4-5.8,1.2c-1.6,0.8-3.1,2-4.2,3.5c-0.7,0.9-1.2,1.9-1.6,3
	c-0.6,1.5-0.9,3-1.2,4.6c-0.3,1.9-0.5,4.3-0.7,7.1s-0.2,6.4-0.2,10.7c0,3.6,0.1,6.7,0.2,9.2s0.3,4.5,0.6,6.1
	c0.2,1.3,0.5,2.6,0.9,3.9c0.3,0.9,0.7,1.8,1.2,2.6c0.9,1.6,2.2,3,3.8,4c1.6,1,3.5,1.5,5.4,1.4c1.9,0.1,3.8-0.4,5.3-1.5
	c1.3-0.9,2.3-2.2,2.6-3.7c0.3,0.7,0.6,1.4,1,2.1c0.3,0.6,0.7,1.1,1.2,1.5c0.5,0.4,1.1,0.7,1.7,0.9c0.8,0.2,1.6,0.3,2.5,0.3
	c0.4,0,0.7,0,1.1-0.1c0.3,0,0.5-0.1,0.8-0.2v-2.7c-0.1,0.1-0.3,0.1-0.4,0.1H165c-0.5,0-1-0.2-1.3-0.6c-0.4-0.5-0.6-1.1-0.8-1.7
	c-0.2-0.8-0.3-1.7-0.4-2.5c-0.1-1-0.1-2-0.1-3c0-3.8,0.1-6.7,0.2-8.9c0.1-1.6,0.2-3.2,0.5-4.8c0.1-0.7,0.2-1.3,0.5-1.9
	c0.2-0.2,0.3-0.4,0.3-0.4h1.8v-2.7H154V212.9z"/>
<path class="st0" d="M184.9,215.1c0.5-0.3,0.9-0.6,1.3-1c0.3-0.3,0.5-0.7,0.6-1.2c0.1-0.5,0.2-0.9,0.2-1.4c0-2.6-0.7-4.5-2.1-5.7
	c-1.7-1.3-3.7-2-5.9-1.9c-1.2,0-2.4,0.3-3.4,0.8c-1.1,0.6-2,1.3-2.8,2.3c-1,1.2-1.8,2.6-2.2,4.1c-1,3.8-1,7.8-0.3,11.7
	c0.3,1.3,0.8,2.6,1.5,3.7c0.8,1.3,1.8,2.4,3.1,3.3c1.2,0.8,2.7,1.2,4.1,1.2c4.1,0,6.8-2.2,8.2-6.7l-1.5-0.3
	c-0.9,2.9-3.7,4.8-6.7,4.6c-1,0-1.9-0.5-2.4-1.2c-0.2-0.3-0.4-0.5-0.5-0.8c-0.2-0.4-0.3-0.9-0.4-1.3c-0.1-0.7-0.2-1.5-0.2-2.2
	c-0.1-0.9-0.1-2.1-0.1-3.6l7.4-3.3C183.4,215.9,184.2,215.5,184.9,215.1 M181.6,213.9l-6.3,2.6c0-1.7,0-3.1,0-4.1s0.1-1.9,0.2-2.5
	c0.1-0.5,0.2-0.9,0.3-1.4c0.1-0.3,0.2-0.5,0.4-0.8c0.3-0.4,0.8-0.7,1.2-1c0.4-0.3,1-0.4,1.5-0.4c1.6,0,2.7,0.4,3.2,1.2
	c0.6,1.1,0.9,2.4,0.8,3.6c0,0.6-0.1,1.3-0.3,1.9C182.4,213.5,182.1,213.8,181.6,213.9"/>
<path class="st0" d="M209.6,204.7c-1,0.6-1.8,1.4-2.5,2.4c-0.5-0.9-1.2-1.7-2-2.3c-1-0.7-2.3-1-3.5-0.9c-0.8,0-1.5,0.1-2.3,0.2
	c-0.6,0.1-1.1,0.3-1.6,0.6c-0.5,0.3-0.9,0.6-1.2,1c-0.4,0.4-0.7,0.9-1.1,1.3c-0.3-0.4-0.5-0.8-0.7-1.1c-0.2-0.3-0.5-0.6-0.8-0.8
	c-0.4-0.2-0.8-0.4-1.2-0.5c-0.6-0.1-1.2-0.1-1.8-0.1h-1.5v2.4h0.5c0.3,0,0.7,0.1,1,0.2c0.2,0.2,0.5,0.4,0.7,0.6
	c0.1,0.1,0.2,0.3,0.2,0.5c0.1,0.4,0.1,0.7,0.1,1.1c0,0.5,0.1,1.2,0.1,2.1v3.5c0,2.7,0,4.8,0,6.2s0,2.6-0.1,3.4c0,0.5,0,1.1-0.1,1.6
	c0,0.3-0.1,0.5-0.2,0.8c-0.2,0.7-0.8,1.1-1.5,1.1h-0.8v2.5h10V228H199c-0.6,0.1-1.2-0.3-1.5-0.9c-0.1-0.2-0.1-0.4-0.1-0.5
	c0-0.2,0-0.7-0.1-1.3s0-1.6,0-2.9v-5.4c0-1.5,0-2.7,0.1-3.7s0.1-1.8,0.2-2.5c0.1-0.5,0.2-1.1,0.4-1.6c0.1-0.4,0.3-0.7,0.6-1
	c0.3-0.4,0.7-0.7,1.1-0.9c0.5-0.3,1.1-0.4,1.6-0.4c0.5,0,1,0.1,1.4,0.2c0.4,0.2,0.7,0.5,0.9,0.8c0.2,0.2,0.3,0.5,0.5,0.8
	c0.2,0.4,0.3,0.8,0.3,1.3c0.1,0.6,0.1,1.4,0.1,2.4s0,2.4,0,4.2c0,2.4,0,4.4-0.1,5.8c0,1.4-0.1,2.5-0.1,3.2c0,0.5-0.1,0.9-0.2,1.4
	c0,0.2-0.1,0.4-0.2,0.5c-0.2,0.3-0.6,0.4-1.3,0.4H202v2.5h9.4V228h-0.6c-0.8,0-1.3-0.2-1.4-0.6c-0.1-0.2-0.1-0.4-0.1-0.6
	c0-0.3-0.1-0.9-0.1-1.8s-0.1-2.3-0.1-4s-0.1-4.2-0.1-7.2c0-1.2,0-2.4,0.1-3.6c0.1-0.7,0.3-1.4,0.7-1.9c0.3-0.4,0.6-0.7,1.1-0.9
	c0.5-0.3,1.1-0.4,1.7-0.4c1-0.1,2,0.4,2.7,1.1c0.2,0.3,0.4,0.6,0.6,0.9c0.2,0.4,0.3,0.8,0.4,1.3c0.1,0.8,0.2,1.6,0.2,2.4
	c0,1,0.1,2.4,0.1,4.1c0,2.5,0,4.4-0.1,5.8s-0.1,2.4-0.1,3.2c0,0.5-0.1,1-0.2,1.5c0,0.2-0.1,0.4-0.3,0.5c-0.2,0.3-0.6,0.4-1.3,0.4
	h-0.4v2.5h10V228h-0.6c-0.8,0-1.3-0.2-1.4-0.6c-0.1-0.2-0.1-0.4-0.1-0.6c-0.1-0.7-0.1-1.3-0.1-2c0-1-0.1-2.5-0.1-4.5s0-4.7,0-8.2
	c0-0.9-0.1-1.8-0.4-2.7c-0.6-2-2-3.7-3.9-4.6c-1.2-0.5-2.5-0.8-3.8-0.8C212.2,203.9,210.8,204.2,209.6,204.7"/>
<path class="st0" d="M228.2,226.5c0.8,1.3,1.8,2.4,3.1,3.3c1.2,0.8,2.7,1.2,4.2,1.2c4.1,0,6.8-2.2,8.2-6.7l-1.5-0.3
	c-0.4,1.3-1.2,2.4-2.3,3.2c-1.3,1-2.8,1.5-4.5,1.4c-1,0-1.9-0.5-2.4-1.3c-0.2-0.2-0.4-0.5-0.5-0.8c-0.2-0.4-0.3-0.9-0.4-1.3
	c-0.1-0.7-0.2-1.5-0.2-2.2c-0.1-0.9-0.1-2.1-0.1-3.6l7.4-3.2c0.7-0.3,1.5-0.7,2.2-1.1c0.5-0.3,0.9-0.6,1.3-1
	c0.3-0.3,0.5-0.7,0.6-1.2c0.1-0.5,0.2-0.9,0.2-1.4c0-2.6-0.7-4.5-2.1-5.7c-1.7-1.3-3.7-2-5.9-1.9c-1.2,0-2.4,0.3-3.4,0.8
	c-1.1,0.6-2,1.3-2.8,2.3c-1,1.2-1.8,2.6-2.2,4.1c-1,3.8-1,7.8-0.3,11.7C227,224.1,227.5,225.4,228.2,226.5 M231.9,212.5
	c0-1,0.1-1.9,0.2-2.5c0.1-0.5,0.2-0.9,0.3-1.4c0.1-0.3,0.2-0.5,0.4-0.8c0.3-0.4,0.8-0.7,1.2-1c0.4-0.3,1-0.4,1.5-0.4
	c1.6,0,2.7,0.4,3.2,1.2c0.6,1.1,0.9,2.4,0.8,3.6c0,0.6-0.1,1.3-0.3,1.9c-0.2,0.4-0.6,0.7-1.1,0.9l-6.3,2.6
	C231.8,215,231.8,213.6,231.9,212.5"/>
<path class="st0" d="M256.5,228h-0.8c-0.4,0.1-0.8-0.1-1.2-0.4c-0.3-0.4-0.4-0.8-0.5-1.3c-0.1-0.3-0.1-0.6-0.1-0.9
	c0-0.4-0.1-1.3-0.1-2.6s0-3.1-0.1-5.6s0-5.7,0-9.9c0-3,0-5.5,0-7.5s0-3.6,0.1-4.9s0.1-2.5,0.1-3.4s0.1-1.9,0.1-2.8h-8v2.4h0.6
	c0.7,0,1.1,0.1,1.3,0.3c0.3,0.4,0.4,0.9,0.5,1.4c0.1,0.5,0.2,0.9,0.2,1.4c0,0.5,0.1,1.2,0.1,2.2s0.1,2.3,0.1,4v6.6
	c0,3.9,0,7.1-0.1,9.5s-0.1,4.3-0.1,5.6c0,1-0.1,2-0.2,3c-0.1,0.6-0.2,1.1-0.4,1.6c-0.1,0.3-0.2,0.6-0.5,0.9
	c-0.2,0.1-0.4,0.2-0.6,0.2h-0.9v2.5h10.4L256.5,228z"/>
<path class="st0" d="M266.4,231c1.3,0,2.6-0.3,3.8-0.9c1-0.6,1.9-1.4,2.6-2.4c0.4,0.9,1,1.6,1.7,2.3c0.7,0.6,1.6,1,2.5,1
	c1.2,0.1,2.3-0.4,3.1-1.2c0.7-0.8,1.1-1.9,1.1-2.9v-2H279v1.8c0,1-0.3,1.5-0.9,1.5c-0.2,0-0.4-0.1-0.6-0.2c-0.3-0.3-0.4-0.6-0.4-1
	c-0.1-0.3-0.1-0.6-0.1-0.8c0-0.3,0-0.7-0.1-1.3s-0.1-1.3-0.1-2.3v-3.7c0-1.9,0-3.6-0.1-5c0-1.2-0.1-2.3-0.3-3.5
	c-0.1-0.8-0.3-1.6-0.6-2.4c-0.2-0.6-0.6-1.2-1-1.7c-0.7-0.8-1.6-1.4-2.6-1.7c-1.1-0.3-2.3-0.5-3.5-0.5c-1.1,0-2.2,0.2-3.2,0.5
	c-1,0.3-1.9,0.8-2.7,1.5c-1.6,1.3-2.6,3.4-2.5,5.5c-0.1,1.1,0.3,2.2,1,3c0.7,0.7,1.6,1,2.5,1c0.9,0,1.8-0.4,2.4-1.1
	c0.7-0.7,1-1.7,1-2.6c0.2-1.6-0.8-3.2-2.4-3.7c0.1-0.5,0.5-1,1-1.2c0.7-0.4,1.4-0.5,2.2-0.5c0.6,0,1.3,0.1,1.9,0.3
	c0.5,0.2,0.9,0.6,1.1,1c0.4,0.6,0.6,1.3,0.7,2.1c0.1,1.2,0.2,2.4,0.2,3.7c-0.4,0.4-0.9,0.8-1.4,1.1c-0.5,0.3-1.1,0.6-1.6,1
	c-1.1,0.7-2.3,1.3-3.5,1.9c-1.1,0.5-2.2,1-3.2,1.7c-1.1,0.6-2,1.4-2.6,2.4c-0.5,1-0.8,2.2-0.8,3.3c-0.1,1.8,0.6,3.5,1.9,4.6
	C261.9,230.4,263.9,231,266.4,231 M264.8,221.3c0.6-0.8,1.4-1.5,2.2-2.1c0.8-0.6,1.7-1.2,2.6-1.8c0.9-0.6,1.7-1.3,2.3-2.3
	c0,0.7,0,1.4,0,2.2c0,0.8,0,1.7,0,2.5s0,1.7,0,2.5v2.2c-0.1,0.4-0.3,0.8-0.5,1.1c-0.2,0.4-0.5,0.7-0.8,1.1c-0.3,0.3-0.7,0.6-1.2,0.8
	c-1.5,0.6-3.2,0.3-4.5-0.7c-0.7-0.7-1.1-1.6-1.1-2.6C263.9,223.3,264.2,222.3,264.8,221.3"/>
<path class="st0" d="M290.9,228.6c-1.4,0-2.8-0.5-3.9-1.4c-1.2-1-1.9-2.4-2.1-3.9l-1.6,0.4c0,1.1,0.3,2.2,0.8,3.1
	c0.4,0.9,1,1.6,1.8,2.3c0.7,0.6,1.5,1.1,2.4,1.4c0.9,0.3,1.9,0.5,2.8,0.5c1.2,0,2.3-0.2,3.5-0.6c1.1-0.4,2-0.9,2.9-1.7
	c0.8-0.8,1.5-1.7,1.9-2.7c0.5-1.2,0.7-2.5,0.7-3.9c0-0.9-0.1-1.8-0.4-2.7c-0.3-0.8-0.7-1.6-1.3-2.3c-0.8-1.1-1.9-1.9-3.1-2.4
	l-2.2-1.2c-0.6-0.3-1.2-0.6-1.7-1c-0.6-0.4-1.1-0.9-1.5-1.5c-0.3-0.6-0.5-1.2-0.5-1.8c-0.1-0.8,0.2-1.6,0.7-2.3
	c0.6-0.6,1.4-0.9,2.3-0.8c0.7,0,1.4,0.1,2,0.5c0.6,0.4,1,0.8,1.4,1.4c0.3,0.4,0.5,0.9,0.6,1.4c0.1,0.5,0.2,1,0.2,1.5v0.5h2.2v-7.6
	h-2.2v2.6c-0.4-0.9-1.2-1.6-2.1-2c-0.9-0.4-1.8-0.5-2.7-0.6c-1.9-0.1-3.8,0.6-5.3,1.9c-1.4,1.3-2.2,3.2-2.1,5.1
	c0,0.9,0.2,1.8,0.5,2.7c0.4,0.9,0.9,1.7,1.6,2.4c0.5,0.5,1.1,0.9,1.6,1.3c0.7,0.4,1.4,0.8,2.1,1.2s1.4,0.8,2,1.2
	c0.5,0.3,1,0.7,1.5,1.1c0.5,0.4,0.8,0.9,1.1,1.5c0.2,0.6,0.3,1.3,0.3,2c0.1,1.2-0.4,2.4-1.2,3.2C293.1,228.3,292,228.7,290.9,228.6"
	/>
<polygon class="st0" points="42.1,255.1 46,255.1 46,254.1 42.1,254.1 42.1,251 46.6,251 46.6,250 40.9,250 40.9,259.4 46.7,259.4 
	46.7,258.4 42.1,258.4 "/>
<path class="st0" d="M57.8,257c0.1-0.5,0.2-0.9,0.2-1.4v-1.7c0.1-1.1-0.3-2.1-1-2.9c-0.7-0.8-1.7-1.2-2.8-1.1c-1,0-2,0.4-2.7,1.1
	c-0.7,0.8-1,1.8-1,2.9v1.7c0,1,0.3,2.1,1,2.9c0.7,0.8,1.7,1.2,2.7,1.1c0.4,0,0.8,0,1.1-0.1c0.4-0.1,0.7-0.2,1-0.4l1.4,1.4l0.9-0.8
	l-1.4-1.4C57.5,257.8,57.7,257.4,57.8,257 M56.8,255.6c0,0.8-0.2,1.5-0.7,2.1c-0.5,0.6-1.2,0.9-1.9,0.8c-0.7,0-1.4-0.3-1.8-0.8
	c-0.5-0.6-0.7-1.4-0.7-2.1v-1.7c0-0.8,0.2-1.5,0.7-2.1c0.4-0.5,1.1-0.9,1.8-0.8c0.7,0,1.4,0.3,1.9,0.8c0.5,0.6,0.7,1.4,0.7,2.1
	V255.6z"/>
<path class="st0" d="M68.4,256.3c0,0.6-0.2,1.2-0.7,1.7c-0.5,0.4-1.1,0.6-1.7,0.6c-0.6,0-1.2-0.2-1.6-0.6c-0.4-0.5-0.6-1.1-0.6-1.7
	V250h-1.3v6.3c0,0.9,0.3,1.8,1,2.4c0.7,0.6,1.6,0.9,2.5,0.9c0.9,0,1.9-0.3,2.6-0.9c0.7-0.6,1.1-1.5,1-2.4V250h-1.3V256.3z"/>
<rect x="74.5" y="250" class="st0" width="1.3" height="9.4"/>
<polygon class="st0" points="79.7,251 82.8,251 82.8,259.4 84.1,259.4 84.1,251 87.2,251 87.2,250 79.7,250 "/>
<path class="st0" d="M93.2,250l-3.4,9.4h1.3L92,257h3.6l0.8,2.4h1.3l-3.4-9.4H93.2z M92.3,255.9l1.4-4.1l0,0l1.4,4.1H92.3z"/>
<path class="st0" d="M103.2,251.7c0.4-0.6,1-0.9,1.7-0.9c0.6,0,1.2,0.2,1.6,0.6c0.4,0.4,0.6,1,0.6,1.6h1.2l0,0
	c0.1-0.9-0.3-1.7-0.9-2.3c-0.7-0.6-1.6-0.9-2.5-0.9c-1,0-2,0.4-2.6,1.1c-0.7,0.8-1,1.8-1,2.9v1.7c0,1.1,0.3,2.1,1,2.9
	c0.7,0.7,1.6,1.2,2.6,1.1c0.9,0,1.8-0.3,2.5-0.9c0.6-0.6,1-1.4,0.9-2.2l0,0h-1.2c0,0.6-0.2,1.2-0.6,1.6c-0.4,0.4-1,0.6-1.6,0.6
	c-0.7,0-1.3-0.3-1.7-0.9c-0.4-0.6-0.7-1.4-0.6-2.1V254C102.5,253.2,102.8,252.4,103.2,251.7"/>
<rect x="112.8" y="250" class="st0" width="1.3" height="9.4"/>
<path class="st0" d="M122.4,249.9c-1,0-2,0.4-2.7,1.1c-0.7,0.8-1,1.8-1,2.9v1.7c0,1,0.3,2.1,1,2.9c0.7,0.8,1.7,1.2,2.7,1.1
	c1.1,0,2.1-0.4,2.8-1.1c0.7-0.8,1.1-1.8,1.1-2.9v-1.7c0-1.1-0.3-2.1-1.1-2.9C124.5,250.2,123.5,249.8,122.4,249.9 M125,255.6
	c0,0.8-0.2,1.5-0.7,2.1c-0.5,0.6-1.2,0.9-1.9,0.8c-0.7,0-1.3-0.3-1.8-0.8c-0.5-0.6-0.7-1.4-0.7-2.1v-1.7c0-0.8,0.2-1.5,0.7-2.1
	c0.4-0.5,1.1-0.9,1.8-0.8c0.7,0,1.4,0.3,1.9,0.8c0.5,0.6,0.7,1.4,0.7,2.1L125,255.6z"/>
<polygon class="st0" points="121.9,249 122.9,249 124.6,247.3 124.6,247.2 123.1,247.2 "/>
<polygon class="st0" points="136.6,257.2 136.6,257.2 132.1,250 130.8,250 130.8,259.4 132.1,259.4 132.1,252.3 132.1,252.2 
	136.6,259.4 137.9,259.4 137.9,250 136.6,250 "/>
<polygon class="st0" points="147.9,251 150.9,251 150.9,259.4 152.2,259.4 152.2,251 155.3,251 155.3,250 147.9,250 "/>
<polygon class="st0" points="160.6,255.1 164.4,255.1 164.4,254.1 160.6,254.1 160.6,251 165,251 165,250 159.3,250 159.3,259.4 
	165.1,259.4 165.1,258.4 160.6,258.4 "/>
<path class="st0" d="M175.6,257.9V257c0-0.5-0.1-1-0.3-1.4c-0.3-0.4-0.7-0.7-1.1-0.8c0.4-0.2,0.8-0.5,1.1-0.9
	c0.3-0.4,0.4-0.8,0.4-1.3c0.1-0.8-0.2-1.5-0.8-2c-0.7-0.5-1.5-0.7-2.4-0.7h-3.2v9.4h1.3v-4.1h2.2c0.4,0,0.9,0.1,1.2,0.5
	c0.3,0.3,0.5,0.8,0.4,1.2v0.9c0,0.3,0,0.6,0.1,0.9c0,0.2,0.1,0.5,0.3,0.6h1.3v-0.1c-0.2-0.2-0.3-0.4-0.3-0.6
	C175.7,258.4,175.6,258.1,175.6,257.9 M173.9,253.9c-0.5,0.3-1,0.5-1.6,0.4h-1.8V251h1.9c0.5,0,1,0.1,1.4,0.4
	c0.3,0.3,0.5,0.8,0.5,1.2C174.4,253.1,174.3,253.6,173.9,253.9"/>
<path class="st0" d="M182.9,250l-3.4,9.4h1.3l0.9-2.4h3.6l0.8,2.4h1.3L184,250H182.9z M182.1,255.9l1.4-4.1l0,0l1.4,4.1H182.1z"/>
<path class="st0" d="M195,250h-3.6v9.4h1.3v-3.8h2.3c0.9,0.1,1.7-0.2,2.4-0.8c1.1-1.1,1.1-3,0-4.1C196.7,250.2,195.9,249.9,195,250
	 M196.4,254.1c-0.4,0.4-0.9,0.6-1.4,0.5h-2.3V251h2.3c0.5,0,1.1,0.1,1.4,0.5c0.3,0.4,0.5,0.8,0.5,1.3
	C196.9,253.3,196.8,253.8,196.4,254.1"/>
<polygon class="st0" points="207.5,247.4 206,247.4 204.8,249.1 205.8,249.1 207.5,247.4 "/>
<polygon class="st0" points="203.8,255.1 207.6,255.1 207.6,254.1 203.8,254.1 203.8,251 208.2,251 208.2,250 202.5,250 
	202.5,259.4 208.3,259.4 208.3,258.4 203.8,258.4 "/>
<path class="st0" d="M218.1,256.3c0,0.6-0.2,1.2-0.6,1.7c-0.5,0.4-1.1,0.6-1.7,0.6c-0.6,0-1.2-0.2-1.6-0.6c-0.4-0.5-0.7-1.1-0.6-1.7
	V250h-1.3v6.3c0,0.9,0.3,1.8,1,2.4c0.7,0.6,1.6,0.9,2.5,0.9c0.9,0,1.9-0.3,2.6-0.9c0.7-0.6,1-1.5,1-2.4V250h-1.3L218.1,256.3z"/>
<polygon class="st0" points="223.2,251 226.3,251 226.3,259.4 227.6,259.4 227.6,251 230.7,251 230.7,250 223.2,250 "/>
<rect x="234.8" y="250" class="st0" width="1.3" height="9.4"/>
<path class="st0" d="M242.7,251.7c0.4-0.6,1-0.9,1.7-0.9c0.6,0,1.2,0.2,1.6,0.6c0.4,0.4,0.6,1,0.6,1.6h1.2l0,0
	c0-0.9-0.3-1.7-0.9-2.3c-0.7-0.6-1.6-0.9-2.6-0.9c-1,0-2,0.4-2.6,1.1c-0.7,0.8-1,1.8-1,2.9v1.7c0,1.1,0.3,2.1,1,2.9
	c0.7,0.7,1.6,1.2,2.6,1.1c0.9,0,1.8-0.3,2.5-0.9c0.6-0.6,1-1.4,0.9-2.2l0,0h-1.2c0,0.6-0.2,1.1-0.6,1.5c-0.5,0.4-1,0.6-1.6,0.6
	c-0.7,0-1.3-0.3-1.7-0.9c-0.4-0.6-0.7-1.4-0.6-2.1v-1.7C242,253.1,242.2,252.4,242.7,251.7"/>
<path class="st0" d="M254.7,250l-3.4,9.4h1.3l0.8-2.4h3.5l0.8,2.4h1.3l-3.3-9.4H254.7z M253.8,255.9l1.4-4.1l0,0l1.4,4.1H253.8z"/>
<rect x="33.9" y="237.2" class="st0" width="101.7" height="2.4"/>
<rect x="170.8" y="237.2" class="st0" width="129.1" height="2.4"/>
</svg>
