<svg id="Capa_1" data-name="Capa 1" xmlns="http://www.w3.org/2000/svg" viewBox="0 0 300 300"><title>logo_ag</title><path d="M98.38,105.08s-14.38,23.47,6,53.54c8.7,12.86,19.55,19.51,32.12,24.06,2.63-7.26,11.93-7.12,11.93-7.12,1.83-2.48.71-5.4.11-7.16a83.77,83.77,0,0,1-19.86-6.62c-5.28-3.46-2.29-5.83-2.29-5.83,1.38-2.13-.18-2.48-.54-3.23a2.42,2.42,0,0,1,.81-3.38c-2.46-3-.06-3.78-.06-3.78,2.85-1.14,1.77-2.43,1.77-2.43a6,6,0,0,1-1.45-3.08,1.34,1.34,0,0,1,.91-1.46l2.26-1.08c3.18-3,3.65-8,3.65-8-1.81-1.81.87-10.71.87-10.71-1.86.13-3.89,2.3-3.89,2.3,4.15-11.33,9.11-11.07,9.11-11.07a11.82,11.82,0,0,1-6.05-3.18,24.18,24.18,0,0,0,8.76,0,6.21,6.21,0,0,1-3.85-5.4c2.51,4,10.73,2.53,10.73,2.53,31.83-5.76,38,17.06,38,17.06a23.3,23.3,0,0,0,4.84,7.24c3.89,3.88,10.28,6.93,19.64,1.88,4.63-2.5,5.52-9.16.82-15.85l-2.83-9.19S200.22,75,191.54,66.33c0,0-3-15,0-22,0,0-5.35,3-7,6,0,0,.68-9,2.34-10.68,0,0-16.35,10-17.35,15.69,0,0-33.07-9.68-60.12,16.35,0,0,10.37-2.67,14-1.31,0,0-33.06,18.7-39.07,40.73,0,0,10.68-7,14-6"/><path d="M28.23,236.7a1.18,1.18,0,0,1-.52-.4,1.31,1.31,0,0,1-.25-.4,8.77,8.77,0,0,1-.34-1.09c-.15-.53-.33-1.32-.56-2.35S26,230,25.67,228.2q-1.05-5-2.17-10.92t-2.13-12q-1-6.06-1.89-11.9t-1.42-10.73H12c-.33,2.26-.77,5-1.3,8.35S9.59,197.8,9,201.45s-1.26,7.33-1.92,11-1.28,7.12-1.85,10.23-1.09,5.77-1.52,8-.75,3.64-1,4.3c-.29,1.19-1,1.79-2,1.79H0v2.85H8.66v-2.85H7.85a5.13,5.13,0,0,1-1.57-.18.83.83,0,0,1-.53-.87v-.56a3.88,3.88,0,0,1,.06-.61l1-6.19h12c.29,1.69.51,3.19.65,4.49s.22,2.23.22,2.81c0,.74-.75,1.11-2.23,1.11H16.7v2.85H29.75v-2.85h-.62a3.25,3.25,0,0,1-.9-.09m-21-11.1c.08-.54.27-1.67.58-3.4s.68-3.77,1.12-6.1.89-4.8,1.39-7.42,1-5.07,1.39-7.36.8-4.24,1.11-5.87.51-2.65.59-3.06l5,33.21Z"/><path d="M42.1,228h-.81a1.48,1.48,0,0,1-1.16-.35,2.72,2.72,0,0,1-.46-1.27,6.94,6.94,0,0,1-.11-.92c0-.44-.07-1.29-.08-2.57s0-3.13-.06-5.55,0-5.72,0-9.91c0-3,0-5.52,0-7.47s0-3.59.08-4.92.07-2.47.11-3.41.06-1.88.06-2.81h-8v2.38h.64c.69,0,1.12.1,1.3.32a3.52,3.52,0,0,1,.49,1.41,8.33,8.33,0,0,1,.22,1.41c0,.5.07,1.24.11,2.21s0,2.3,0,4v6.63c0,3.94,0,7.09,0,9.47s-.09,4.26-.14,5.63a27.06,27.06,0,0,1-.24,3,14.62,14.62,0,0,1-.38,1.65,1.77,1.77,0,0,1-.49.89,1.08,1.08,0,0,1-.65.19h-.86v2.49H42.1Z"/><path d="M54.55,228H54a1.38,1.38,0,0,1-1.46-.87,1.33,1.33,0,0,1-.14-.54c0-.21,0-.66,0-1.32s0-1.65,0-2.95v-5.42c0-1.47,0-2.71.05-3.7s.1-1.82.19-2.47a6.94,6.94,0,0,1,.38-1.57,4.51,4.51,0,0,1,.57-1,3.88,3.88,0,0,1,1.08-.92,3.15,3.15,0,0,1,1.63-.38,3.23,3.23,0,0,1,1.4.24,2.56,2.56,0,0,1,.92.84,4.43,4.43,0,0,1,.46.78,4,4,0,0,1,.27,1.28c.06.57.09,1.38.11,2.41s0,2.42,0,4.19c0,2.45,0,4.38-.05,5.79s-.09,2.48-.14,3.22A7.9,7.9,0,0,1,59,227a1.74,1.74,0,0,1-.22.52c-.18.29-.61.43-1.29.43h-.44v2.49h9.37V228h-.6q-1.19,0-1.41-.6a5.34,5.34,0,0,1-.13-.62,15.9,15.9,0,0,1-.14-1.84c0-.92-.07-2.25-.11-4s0-4.16,0-7.23a32.2,32.2,0,0,1,.14-3.62,4.06,4.06,0,0,1,.67-1.95,3.1,3.1,0,0,1,1.06-.92,3.78,3.78,0,0,1,4.35.75,9,9,0,0,1,.63.92,4.14,4.14,0,0,1,.38,1.3,22.23,22.23,0,0,1,.19,2.36c0,1,0,2.35,0,4.08,0,2.46,0,4.38,0,5.77s-.09,2.45-.14,3.19a7.9,7.9,0,0,1-.19,1.46,1.2,1.2,0,0,1-.27.52c-.18.29-.61.43-1.3.43h-.38v2.49h10V228h-.6q-1.18,0-1.41-.6a5.51,5.51,0,0,1-.13-.64,19.17,19.17,0,0,1-.14-2c0-1-.06-2.54-.08-4.52s0-4.73,0-8.23a10,10,0,0,0-.4-2.73A7.23,7.23,0,0,0,75,206.57a7.53,7.53,0,0,0-2.52-1.95,8.69,8.69,0,0,0-3.82-.76,7.87,7.87,0,0,0-4,.84,7.69,7.69,0,0,0-2.47,2.36,6.89,6.89,0,0,0-2-2.27,5.79,5.79,0,0,0-3.49-.93,10.41,10.41,0,0,0-2.24.22,6.16,6.16,0,0,0-1.65.62,5.47,5.47,0,0,0-1.25,1A12.75,12.75,0,0,0,50.49,207c-.25-.43-.5-.81-.73-1.13a3.22,3.22,0,0,0-.84-.81,3.37,3.37,0,0,0-1.19-.47,10.87,10.87,0,0,0-1.79-.13H44.48v2.44H45a1.74,1.74,0,0,1,1,.24,4.47,4.47,0,0,1,.68.57,1,1,0,0,1,.24.51,7.74,7.74,0,0,1,.14,1.11c0,.51.05,1.21.05,2.11V215c0,2.67,0,4.75,0,6.22s0,2.6-.06,3.36a10.8,10.8,0,0,1-.11,1.57,4.43,4.43,0,0,1-.19.76A1.44,1.44,0,0,1,45.29,228h-.81v2.49H54.55Z"/><path d="M88.43,231a7.25,7.25,0,0,0,3.76-.92,8.69,8.69,0,0,0,2.63-2.43,7.9,7.9,0,0,0,1.7,2.27,3.57,3.57,0,0,0,2.52,1,3.86,3.86,0,0,0,3.11-1.22,4.34,4.34,0,0,0,1-2.94v-2H101v1.79c0,1-.31,1.46-.92,1.46a.91.91,0,0,1-.6-.22,1.75,1.75,0,0,1-.43-1,3.52,3.52,0,0,1-.13-.84c0-.31,0-.74-.08-1.3s-.06-1.31-.06-2.25v-3.73c0-1.95,0-3.61-.08-5a30.16,30.16,0,0,0-.3-3.49,10.26,10.26,0,0,0-.62-2.41A6.33,6.33,0,0,0,96.76,206a5.56,5.56,0,0,0-2.62-1.68,12.33,12.33,0,0,0-3.55-.49,10.24,10.24,0,0,0-3.22.52,8.15,8.15,0,0,0-2.7,1.49,6.93,6.93,0,0,0-2.52,5.46,4.16,4.16,0,0,0,1,3,3.35,3.35,0,0,0,2.54,1,3.1,3.1,0,0,0,2.43-1.11,3.84,3.84,0,0,0,1-2.62,3.54,3.54,0,0,0-2.38-3.69,1.9,1.9,0,0,1,1-1.24,4.38,4.38,0,0,1,2.21-.49,5.17,5.17,0,0,1,1.9.27,2.63,2.63,0,0,1,1.14,1,4.55,4.55,0,0,1,.7,2.08,31.7,31.7,0,0,1,.16,3.66,6.09,6.09,0,0,1-1.41,1.13c-.54.33-1.06.65-1.56,1a28.07,28.07,0,0,1-3.55,1.87,21.49,21.49,0,0,0-3.22,1.7,7.43,7.43,0,0,0-2.65,2.41,6.41,6.41,0,0,0-.76,3.33,5.84,5.84,0,0,0,1.92,4.65Q84.53,231,88.43,231m-1.62-9.63A12,12,0,0,1,89,219.29c.83-.61,1.71-1.22,2.65-1.81A7.94,7.94,0,0,0,94,215.23q0,1,0,2.22c0,.83,0,1.67,0,2.52s0,1.68,0,2.51v2.22a5.31,5.31,0,0,1-.49,1.11,5.42,5.42,0,0,1-.81,1.06,4.3,4.3,0,0,1-1.19.81,3.94,3.94,0,0,1-1.68.32,4,4,0,0,1-2.79-1A3.35,3.35,0,0,1,86,224.38a4.74,4.74,0,0,1,.82-3"/><path d="M113,228.6a6.1,6.1,0,0,1-3.93-1.43,5.86,5.86,0,0,1-2.08-3.93l-1.62.43a7.7,7.7,0,0,0,.81,3.14,7.81,7.81,0,0,0,1.76,2.3,6.77,6.77,0,0,0,2.4,1.41,8.64,8.64,0,0,0,2.82.46,10.34,10.34,0,0,0,3.46-.57,8.08,8.08,0,0,0,2.84-1.67,7.71,7.71,0,0,0,1.93-2.77,10,10,0,0,0,.7-3.87,9.34,9.34,0,0,0-.35-2.67,6.85,6.85,0,0,0-1.27-2.3,8.17,8.17,0,0,0-3.14-2.44L115,213.55a19.12,19.12,0,0,1-1.73-1,5.42,5.42,0,0,1-1.51-1.46,3.3,3.3,0,0,1-.49-1.84A3.21,3.21,0,0,1,112,207a3,3,0,0,1,2.27-.81,3.84,3.84,0,0,1,2,.49,4.43,4.43,0,0,1,1.38,1.41,4.84,4.84,0,0,1,.65,1.43,6.3,6.3,0,0,1,.16,1.49v.49h2.17v-7.64h-2.17v2.55a4.28,4.28,0,0,0-2.11-2,7,7,0,0,0-2.71-.55,7.48,7.48,0,0,0-5.25,1.9,6.58,6.58,0,0,0-2,5.09,7,7,0,0,0,2.16,5.14,9.63,9.63,0,0,0,1.65,1.27c.67.42,1.36.82,2.06,1.22s1.37.79,2,1.19a9.38,9.38,0,0,1,1.49,1.13,5.18,5.18,0,0,1,1.11,1.52,5.11,5.11,0,0,1,.3,2,4.2,4.2,0,0,1-1.19,3.22,4.29,4.29,0,0,1-3,1.11"/><path d="M154,212.94a2.82,2.82,0,0,1,1.64.42,2.88,2.88,0,0,1,.95,1.59,14.44,14.44,0,0,1,.42,3.19c.06,1.36.1,3.1.1,5.21a30.66,30.66,0,0,1-.46,5.39,19.72,19.72,0,0,1-1.31,4.44,9.19,9.19,0,0,1-2.07,3,3.94,3.94,0,0,1-2.74,1.12,5.39,5.39,0,0,1-3.38-1.09,7.7,7.7,0,0,1-2.28-2.92,9.25,9.25,0,0,1-.55-1.62,19.11,19.11,0,0,1-.4-3.07q-.15-2.13-.21-5.85t-.06-9.92q0-7.31.12-11.69t.34-6.91a18.19,18.19,0,0,1,.57-3.66,7.69,7.69,0,0,1,.86-1.86,7.48,7.48,0,0,1,2.61-2.46,7.65,7.65,0,0,1,3.78-.88c2.35,0,4,.58,5.05,1.76a3.51,3.51,0,0,0-1.79,1.46,5.37,5.37,0,0,0-.58,2.74,5.16,5.16,0,0,0,.85,2.93,3.12,3.12,0,0,0,2.8,1.27,3.26,3.26,0,0,0,2.77-1.24,5.6,5.6,0,0,0,1-3.44,7.81,7.81,0,0,0-.67-3.2,7.29,7.29,0,0,0-2-2.62,10,10,0,0,0-3.41-1.76,15.71,15.71,0,0,0-4.72-.64,12.66,12.66,0,0,0-5.76,1.24,12,12,0,0,0-4.17,3.51,14.42,14.42,0,0,0-1.61,3,22,22,0,0,0-1.16,4.6c-.3,1.9-.54,4.29-.7,7.15s-.24,6.42-.24,10.69c0,3.65.06,6.71.18,9.16s.31,4.5.55,6.12a23,23,0,0,0,.88,3.93,15.88,15.88,0,0,0,1.19,2.65,11.6,11.6,0,0,0,3.81,4,9.93,9.93,0,0,0,5.38,1.42,8.93,8.93,0,0,0,5.33-1.49,6.33,6.33,0,0,0,2.65-3.74,15.93,15.93,0,0,0,1,2.1,5.66,5.66,0,0,0,1.24,1.49,4.48,4.48,0,0,0,1.74.88,9.15,9.15,0,0,0,2.46.28,9,9,0,0,0,1.1-.06,2.86,2.86,0,0,0,.79-.19v-2.74a.9.9,0,0,1-.39.07H165a1.55,1.55,0,0,1-1.28-.64,4.85,4.85,0,0,1-.76-1.74,14.37,14.37,0,0,1-.36-2.53c-.06-1-.09-2-.09-3q0-5.67.21-8.86a45.72,45.72,0,0,1,.49-4.75,6.71,6.71,0,0,1,.51-1.92c.17-.24.27-.36.31-.36h1.76v-2.68H154Z"/><path d="M184.91,215.12a5.24,5.24,0,0,0,1.33-1,2.81,2.81,0,0,0,.65-1.16,6.06,6.06,0,0,0,.16-1.43c0-2.56-.71-4.48-2.14-5.74a8.56,8.56,0,0,0-5.87-1.9,7.38,7.38,0,0,0-3.44.84,10,10,0,0,0-2.84,2.25,11.33,11.33,0,0,0-2.19,4.11,26.69,26.69,0,0,0-.27,11.69,12.44,12.44,0,0,0,1.49,3.74,10,10,0,0,0,3.08,3.27A7.34,7.34,0,0,0,179,231q6.11,0,8.17-6.71l-1.46-.33A6.76,6.76,0,0,1,179,228.6a3.22,3.22,0,0,1-2.44-1.24,4.14,4.14,0,0,1-.51-.82,5.3,5.3,0,0,1-.41-1.32,16.68,16.68,0,0,1-.24-2.22c-.06-.92-.08-2.1-.08-3.55l7.36-3.25a20.39,20.39,0,0,0,2.19-1.08m-3.22-1.19-6.33,2.6c0-1.7,0-3.07,0-4.11s.1-1.89.19-2.52a7,7,0,0,1,.3-1.38,2.68,2.68,0,0,1,.43-.76,4.83,4.83,0,0,1,1.22-1,2.85,2.85,0,0,1,1.49-.41c1.58,0,2.66.41,3.22,1.22a6.46,6.46,0,0,1,.84,3.65,4.14,4.14,0,0,1-.33,1.87,1.87,1.87,0,0,1-1.08.89"/><path d="M209.64,204.7a7.76,7.76,0,0,0-2.46,2.36,6.89,6.89,0,0,0-2-2.27,5.81,5.81,0,0,0-3.49-.93,10.51,10.51,0,0,0-2.25.22,6.16,6.16,0,0,0-1.65.62,5.42,5.42,0,0,0-1.24,1,12.75,12.75,0,0,0-1.08,1.32c-.26-.43-.5-.81-.73-1.13a3.22,3.22,0,0,0-.84-.81,3.18,3.18,0,0,0-1.19-.46,9.76,9.76,0,0,0-1.79-.14h-1.46v2.44H190a1.76,1.76,0,0,1,1,.24,4.47,4.47,0,0,1,.68.57,1,1,0,0,1,.24.51,7.74,7.74,0,0,1,.14,1.11c0,.51.05,1.21.05,2.11V215c0,2.67,0,4.75,0,6.22s0,2.6-.05,3.36a10.8,10.8,0,0,1-.11,1.57,5.61,5.61,0,0,1-.19.76,1.44,1.44,0,0,1-1.46,1.08h-.81v2.49H199.5V228H199a1.4,1.4,0,0,1-1.47-.87,1.53,1.53,0,0,1-.13-.54c0-.21,0-.66-.06-1.32s0-1.65,0-2.95v-5.42c0-1.48,0-2.71.05-3.7s.1-1.82.19-2.47a6.58,6.58,0,0,1,.38-1.56,4.38,4.38,0,0,1,.57-1,3.88,3.88,0,0,1,1.08-.92,3.08,3.08,0,0,1,1.62-.38,3.25,3.25,0,0,1,1.41.24,2.56,2.56,0,0,1,.92.84,5.14,5.14,0,0,1,.46.78,4,4,0,0,1,.27,1.28c.06.57.09,1.38.11,2.41s0,2.42,0,4.19q0,3.67-.06,5.79c0,1.41-.08,2.48-.13,3.22A8.93,8.93,0,0,1,204,227a2.05,2.05,0,0,1-.22.52c-.18.29-.61.43-1.3.43H202v2.49h9.36V228h-.59q-1.2,0-1.41-.6a4.73,4.73,0,0,1-.14-.62c0-.3-.09-.92-.13-1.84s-.07-2.25-.11-4-.05-4.16-.05-7.23a35.84,35.84,0,0,1,.13-3.63,4.06,4.06,0,0,1,.68-1.94,3.06,3.06,0,0,1,1.05-.92,3.31,3.31,0,0,1,1.66-.38,3.28,3.28,0,0,1,2.7,1.13,8.76,8.76,0,0,1,.62.92,3.89,3.89,0,0,1,.38,1.3,19.84,19.84,0,0,1,.19,2.36q.06,1.49.06,4.08c0,2.46,0,4.38-.06,5.77s-.08,2.45-.13,3.19a8.93,8.93,0,0,1-.19,1.46,1.32,1.32,0,0,1-.27.52c-.18.29-.62.43-1.3.43h-.38v2.49h10V228h-.59q-1.2,0-1.41-.6a4.89,4.89,0,0,1-.14-.64,20.16,20.16,0,0,1-.13-2c0-1-.06-2.54-.08-4.52s0-4.73,0-8.23a10,10,0,0,0-.4-2.73,7.31,7.31,0,0,0-3.9-4.58,8.69,8.69,0,0,0-3.82-.76,7.93,7.93,0,0,0-4,.84"/><path d="M228.23,226.49a10.11,10.11,0,0,0,3.09,3.27,7.34,7.34,0,0,0,4.17,1.22q6.12,0,8.17-6.71L242.2,224a6.8,6.8,0,0,1-2.25,3.22,6.71,6.71,0,0,1-4.46,1.43,3.15,3.15,0,0,1-2.44-1.25,3.77,3.77,0,0,1-.51-.81,5.3,5.3,0,0,1-.41-1.32,16.68,16.68,0,0,1-.24-2.22c-.06-.92-.08-2.1-.08-3.55l7.36-3.24a22.24,22.24,0,0,0,2.19-1.09,5.24,5.24,0,0,0,1.33-1,2.81,2.81,0,0,0,.65-1.16,6.06,6.06,0,0,0,.16-1.43q0-3.85-2.14-5.74a8.56,8.56,0,0,0-5.87-1.9,7.26,7.26,0,0,0-3.44.84,10,10,0,0,0-2.84,2.25,11.33,11.33,0,0,0-2.19,4.11,26.69,26.69,0,0,0-.27,11.69,12.7,12.7,0,0,0,1.48,3.74m3.63-14.07c0-1,.1-1.89.19-2.52a7,7,0,0,1,.3-1.38,2.68,2.68,0,0,1,.43-.76,4.83,4.83,0,0,1,1.22-1,2.85,2.85,0,0,1,1.49-.41c1.58,0,2.66.41,3.22,1.22a6.46,6.46,0,0,1,.84,3.65,4.14,4.14,0,0,1-.33,1.87,1.87,1.87,0,0,1-1.08.89l-6.33,2.6c0-1.7,0-3.07.05-4.11"/><path d="M256.54,228h-.81a1.48,1.48,0,0,1-1.16-.35,2.72,2.72,0,0,1-.46-1.27,6.94,6.94,0,0,1-.11-.92c0-.44-.07-1.29-.08-2.57s0-3.13-.06-5.55,0-5.72,0-9.91c0-3,0-5.52,0-7.47s0-3.59.08-4.92.08-2.47.11-3.41.06-1.88.06-2.81h-8v2.38h.64c.69,0,1.12.1,1.3.32a3.52,3.52,0,0,1,.49,1.41,8.33,8.33,0,0,1,.22,1.41c0,.5.07,1.24.1,2.21s.06,2.3.06,4v6.63c0,3.94,0,7.09-.06,9.47s-.07,4.26-.13,5.63a24.79,24.79,0,0,1-.24,3,14.62,14.62,0,0,1-.38,1.65,1.77,1.77,0,0,1-.49.89,1.08,1.08,0,0,1-.65.19h-.86v2.49h10.44Z"/><path d="M266.39,231a7.25,7.25,0,0,0,3.76-.92,8.69,8.69,0,0,0,2.63-2.43,7.9,7.9,0,0,0,1.7,2.27,3.6,3.6,0,0,0,2.52,1,3.86,3.86,0,0,0,3.11-1.22,4.3,4.3,0,0,0,1.06-2.94v-2H279v1.79c0,1-.3,1.46-.92,1.46a.9.9,0,0,1-.59-.22,1.74,1.74,0,0,1-.44-1,4.11,4.11,0,0,1-.13-.84c0-.31-.05-.74-.08-1.3s-.06-1.31-.06-2.25v-3.73c0-1.95,0-3.61-.08-5a30.16,30.16,0,0,0-.3-3.49,10.26,10.26,0,0,0-.62-2.41,6.56,6.56,0,0,0-1-1.73,5.59,5.59,0,0,0-2.63-1.68,12.21,12.21,0,0,0-3.54-.49,10.15,10.15,0,0,0-3.22.52,8.2,8.2,0,0,0-2.71,1.49,6.93,6.93,0,0,0-2.52,5.46,4.16,4.16,0,0,0,1,3,3.37,3.37,0,0,0,2.54,1,3.12,3.12,0,0,0,2.44-1.11,3.83,3.83,0,0,0,1-2.62,3.53,3.53,0,0,0-2.38-3.69,1.9,1.9,0,0,1,1-1.24,4.4,4.4,0,0,1,2.22-.49,5.11,5.11,0,0,1,1.89.27,2.63,2.63,0,0,1,1.14,1,4.55,4.55,0,0,1,.7,2.08,31.7,31.7,0,0,1,.16,3.66,6,6,0,0,1-1.4,1.13c-.54.33-1.07.65-1.57,1a28.07,28.07,0,0,1-3.55,1.87,21.49,21.49,0,0,0-3.22,1.7,7.43,7.43,0,0,0-2.65,2.41,6.41,6.41,0,0,0-.76,3.33,5.84,5.84,0,0,0,1.92,4.65q1.92,1.68,5.82,1.68m-1.62-9.63a12,12,0,0,1,2.16-2.06c.83-.61,1.72-1.22,2.65-1.81a7.94,7.94,0,0,0,2.33-2.25q0,1,0,2.22c0,.83,0,1.67.05,2.52s0,1.68,0,2.51v2.22a5.31,5.31,0,0,1-.49,1.11,4.74,4.74,0,0,1-.81,1.06,4.16,4.16,0,0,1-1.19.81,4.44,4.44,0,0,1-4.46-.68,3.35,3.35,0,0,1-1.11-2.62,4.8,4.8,0,0,1,.81-3"/><path d="M290.91,228.6a6.1,6.1,0,0,1-3.93-1.43,5.86,5.86,0,0,1-2.08-3.93l-1.62.43a7.7,7.7,0,0,0,.81,3.14,7.81,7.81,0,0,0,1.76,2.3,6.72,6.72,0,0,0,2.41,1.41,8.58,8.58,0,0,0,2.81.46,10.34,10.34,0,0,0,3.46-.57,8.22,8.22,0,0,0,2.85-1.67A7.81,7.81,0,0,0,299.3,226a9.8,9.8,0,0,0,.7-3.87,9.34,9.34,0,0,0-.35-2.67,6.85,6.85,0,0,0-1.27-2.3,8.17,8.17,0,0,0-3.14-2.44L293,213.55c-.64-.32-1.22-.65-1.73-1a5.42,5.42,0,0,1-1.51-1.46,3.3,3.3,0,0,1-.49-1.84A3.21,3.21,0,0,1,290,207a3,3,0,0,1,2.27-.81,3.84,3.84,0,0,1,2,.49,4.43,4.43,0,0,1,1.38,1.41,4.59,4.59,0,0,1,.65,1.43,6.3,6.3,0,0,1,.16,1.49v.49h2.17v-7.64h-2.17v2.55a4.28,4.28,0,0,0-2.11-2,7,7,0,0,0-2.7-.55,7.46,7.46,0,0,0-5.25,1.9,6.55,6.55,0,0,0-2.06,5.09,7.28,7.28,0,0,0,.51,2.7,7.42,7.42,0,0,0,1.65,2.44,9.63,9.63,0,0,0,1.65,1.27c.67.42,1.36.82,2.06,1.22s1.37.79,2,1.19a9.38,9.38,0,0,1,1.49,1.13,5.18,5.18,0,0,1,1.11,1.52,5.11,5.11,0,0,1,.3,2,4.2,4.2,0,0,1-1.19,3.22,4.29,4.29,0,0,1-3,1.11"/><polygon points="42.14 255.06 46.01 255.06 46.01 254.06 42.14 254.06 42.14 251.01 46.6 251.01 46.6 250 40.86 250 40.86 259.43 46.67 259.43 46.67 258.44 42.14 258.44 42.14 255.06"/><path d="M57.82,257a4.63,4.63,0,0,0,.22-1.41v-1.68A4,4,0,0,0,57,251a3.63,3.63,0,0,0-2.78-1.14A3.45,3.45,0,0,0,51.5,251a4.15,4.15,0,0,0-1,2.87v1.68a4.12,4.12,0,0,0,1,2.87,3.45,3.45,0,0,0,2.68,1.14,4.17,4.17,0,0,0,1.13-.15,3.46,3.46,0,0,0,1-.44l1.44,1.38.88-.83-1.41-1.37a4.08,4.08,0,0,0,.62-1.19m-1.06-1.41a3.17,3.17,0,0,1-.7,2.14,2.33,2.33,0,0,1-1.88.83,2.19,2.19,0,0,1-1.78-.83,3.33,3.33,0,0,1-.66-2.14v-1.69a3.29,3.29,0,0,1,.66-2.12,2.16,2.16,0,0,1,1.78-.83,2.31,2.31,0,0,1,1.88.83,3.15,3.15,0,0,1,.7,2.12Z"/><path d="M68.41,256.27a2.22,2.22,0,0,1-.65,1.69,2.37,2.37,0,0,1-1.69.61,2.19,2.19,0,0,1-1.6-.61,2.28,2.28,0,0,1-.61-1.69V250H62.58v6.27a3.08,3.08,0,0,0,1,2.42,3.59,3.59,0,0,0,2.51.88,3.84,3.84,0,0,0,2.6-.87,3,3,0,0,0,1-2.43V250H68.41Z"/><rect x="74.49" y="250" width="1.28" height="9.43"/><polygon points="79.71 251.01 82.78 251.01 82.78 259.43 84.06 259.43 84.06 251.01 87.17 251.01 87.17 250 79.71 250 79.71 251.01"/><path d="M93.23,250l-3.4,9.44h1.3L92,257h3.55l.83,2.43h1.3L94.32,250Zm-.89,5.94,1.41-4.05h0l1.38,4.05Z"/><path d="M103.19,251.73a2,2,0,0,1,1.71-.86,2.22,2.22,0,0,1,1.64.58,2.1,2.1,0,0,1,.58,1.57h1.23v0a2.81,2.81,0,0,0-.92-2.26,3.65,3.65,0,0,0-2.54-.85,3.34,3.34,0,0,0-2.61,1.13,4.2,4.2,0,0,0-1,2.88v1.68a4.2,4.2,0,0,0,1,2.88,3.34,3.34,0,0,0,2.61,1.13,3.58,3.58,0,0,0,2.53-.89,2.83,2.83,0,0,0,.93-2.22v0h-1.23a2.11,2.11,0,0,1-.58,1.58,2.26,2.26,0,0,1-1.64.57,2,2,0,0,1-1.71-.86,3.53,3.53,0,0,1-.63-2.15v-1.69a3.54,3.54,0,0,1,.63-2.14"/><rect x="112.8" y="250" width="1.28" height="9.43"/><path d="M122.42,249.87a3.45,3.45,0,0,0-2.68,1.14,4.14,4.14,0,0,0-1,2.87v1.68a4.11,4.11,0,0,0,1,2.87,3.45,3.45,0,0,0,2.68,1.14,3.67,3.67,0,0,0,2.79-1.14,4,4,0,0,0,1.07-2.87v-1.68a4,4,0,0,0-1.07-2.87,3.67,3.67,0,0,0-2.79-1.14m2.58,5.69a3.22,3.22,0,0,1-.69,2.14,2.36,2.36,0,0,1-1.89.83,2.15,2.15,0,0,1-1.77-.83,3.28,3.28,0,0,1-.67-2.14v-1.69a3.24,3.24,0,0,1,.67-2.12,2.13,2.13,0,0,1,1.77-.83,2.3,2.3,0,0,1,1.88.83,3.15,3.15,0,0,1,.7,2.12Z"/><polygon points="121.91 248.96 122.87 248.96 124.61 247.27 124.6 247.23 123.11 247.23 121.91 248.96"/><polygon points="136.63 257.19 136.59 257.2 132.05 250 130.77 250 130.77 259.44 132.05 259.44 132.05 252.25 132.09 252.23 136.63 259.44 137.9 259.44 137.9 250 136.63 250 136.63 257.19"/><polygon points="147.85 251.01 150.92 251.01 150.92 259.43 152.2 259.43 152.2 251.01 155.31 251.01 155.31 250 147.85 250 147.85 251.01"/><polygon points="160.58 255.06 164.45 255.06 164.45 254.06 160.58 254.06 160.58 251.01 165.04 251.01 165.04 250 159.3 250 159.3 259.43 165.11 259.43 165.11 258.44 160.58 258.44 160.58 255.06"/><path d="M175.65,257.92V257a2.64,2.64,0,0,0-.34-1.4,1.92,1.92,0,0,0-1.11-.82,2.6,2.6,0,0,0,1.1-.85,2.17,2.17,0,0,0,.38-1.27,2.43,2.43,0,0,0-.82-2,3.55,3.55,0,0,0-2.36-.69h-3.23v9.42h1.28v-4.08h2.18a1.59,1.59,0,0,1,1.2.46,1.71,1.71,0,0,1,.45,1.23v.87a5.14,5.14,0,0,0,.07.88,1,1,0,0,0,.32.64h1.32v-.15a1.18,1.18,0,0,1-.34-.57,2.75,2.75,0,0,1-.1-.79m-1.72-4a2.35,2.35,0,0,1-1.56.41h-1.82V251h1.95a2,2,0,0,1,1.44.43,1.64,1.64,0,0,1,.46,1.24,1.58,1.58,0,0,1-.47,1.25"/><path d="M182.94,250l-3.4,9.44h1.3l.85-2.43h3.55l.82,2.43h1.31L184,250Zm-.88,5.94,1.4-4.05h0l1.37,4.05Z"/><path d="M195,250h-3.6v9.43h1.27v-3.78H195a3.36,3.36,0,0,0,2.35-.77,2.92,2.92,0,0,0,0-4.1A3.32,3.32,0,0,0,195,250m1.43,4.14a1.85,1.85,0,0,1-1.43.51h-2.33V251H195a1.83,1.83,0,0,1,1.43.52,1.87,1.87,0,0,1,.48,1.31,1.83,1.83,0,0,1-.48,1.3"/><polygon points="207.5 247.37 206.01 247.37 204.82 249.09 205.78 249.09 207.52 247.41 207.5 247.37"/><polygon points="203.77 255.06 207.64 255.06 207.64 254.06 203.77 254.06 203.77 251.01 208.23 251.01 208.23 250 202.49 250 202.49 259.43 208.3 259.43 208.3 258.44 203.77 258.44 203.77 255.06"/><path d="M218.14,256.27a2.19,2.19,0,0,1-.65,1.69,2.33,2.33,0,0,1-1.68.61,2.16,2.16,0,0,1-1.6-.61,2.28,2.28,0,0,1-.62-1.69V250h-1.27v6.27a3.08,3.08,0,0,0,1,2.42,3.6,3.6,0,0,0,2.52.88,3.84,3.84,0,0,0,2.6-.87,3.07,3.07,0,0,0,1-2.43V250h-1.28Z"/><polygon points="223.23 251.01 226.3 251.01 226.3 259.43 227.58 259.43 227.58 251.01 230.69 251.01 230.69 250 223.23 250 223.23 251.01"/><rect x="234.81" y="250" width="1.28" height="9.43"/><path d="M242.66,251.73a2,2,0,0,1,1.7-.86,2.23,2.23,0,0,1,1.65.58,2.1,2.1,0,0,1,.58,1.57h1.22l0,0a2.85,2.85,0,0,0-.92-2.26,3.66,3.66,0,0,0-2.55-.85,3.36,3.36,0,0,0-2.61,1.13,4.19,4.19,0,0,0-1,2.88v1.68a4.19,4.19,0,0,0,1,2.88,3.36,3.36,0,0,0,2.61,1.13,3.58,3.58,0,0,0,2.53-.89,2.87,2.87,0,0,0,.94-2.22l0,0h-1.22A2.11,2.11,0,0,1,246,258a2.27,2.27,0,0,1-1.65.57,2,2,0,0,1-1.7-.86,3.47,3.47,0,0,1-.64-2.15v-1.69a3.48,3.48,0,0,1,.64-2.14"/><path d="M254.72,250l-3.4,9.44h1.3l.84-2.43H257l.83,2.43h1.3L255.81,250Zm-.89,5.94,1.4-4.05h0l1.38,4.05Z"/><rect x="33.9" y="237.21" width="101.7" height="2.43"/><rect x="170.81" y="237.21" width="129.15" height="2.43"/></svg>