<?xml version="1.0" encoding="utf-8"?>
<!-- Generator: Adobe Illustrator 22.0.0, SVG Export Plug-In . SVG Version: 6.00 Build 0)  -->
<svg version="1.1" id="Capa_1" xmlns="http://www.w3.org/2000/svg" xmlns:xlink="http://www.w3.org/1999/xlink" x="0px" y="0px"
	 viewBox="0 0 350 140" style="enable-background:new 0 0 350 140;" xml:space="preserve">
<style type="text/css">
	.st0{fill:#FFFFFF;}
</style>
<title>logo_sabonim</title>
<path class="st0" d="M170.1,46.4C170.1,46.4,170.2,46.4,170.1,46.4C170.2,46.4,170.2,46.4,170.1,46.4l0.1-5.1h9.6v5.1
	c0,0,0,0.1,0,0.1c0,0,0,0,0,0h4.1c0,0,0.1,0,0.1,0c0,0,0,0,0,0v-13c0,0,0,0-0.1-0.1h-4.1c0,0,0,0-0.1,0.1v5.1h-9.6v-5.1
	c0,0,0,0-0.1-0.1h-4.1c0,0-0.1,0-0.1,0.1v13c0,0,0,0.1,0.1,0.1L170.1,46.4z"/>
<path class="st0" d="M342.5,33.3v73.5H7.5V33.3h155.4c0,0,0.1,0,0.1,0.1v3c0,0,0,0.1,0,0.1c0,0,0,0,0,0h-6.9v10c0,0,0,0.1,0,0.1
	c0,0,0,0,0,0h-4.1c0,0-0.1,0-0.1,0c0,0,0,0,0,0v-10H10.6v67.2h328.7V36.4H191.3v2h13.8c0.1,0,0.1,0,0.1,0.1v2.7c0,0,0,0.1-0.1,0.1
	h-13.8v2h13.8c0.1,0,0.1,0,0.1,0v3c0,0,0,0.1-0.1,0.1h-17.9c0,0-0.1,0-0.1-0.1v-13c0,0,0-0.1,0.1-0.1L342.5,33.3z"/>
<path class="st0" d="M41.2,61.8h30.2c0.1,0,0.2,0,0.2-0.1v-7.1c0-0.1-0.1-0.1-0.2-0.2H38.4c-1.7,0.2-3.4,0.6-5,1.4
	c-3.1,1.9-4.7,4.2-4.7,7V65c0,1.6,0.6,3.2,1.6,4.5c2,2.5,5.1,3.9,8.4,3.9h20.2c0.4,0,0.8,0.1,1.1,0.2c0.9,0.3,1.5,1.2,1.5,2.2
	c0,0.1,0,0.3-0.1,0.8c-0.4,1-1.4,1.7-2.5,1.6h-30c-0.1,0-0.1,0-0.1,0.1v7.1c0,0.1,0,0.1,0.1,0.1h32.8c1.6,0,3.1-0.4,4.5-1
	c3.5-1.9,5.3-4.3,5.3-7.4v-2.1c0-1.9-0.7-3.6-2-5c-2-2.2-4.7-3.4-7.7-3.4H41.3c-0.4,0-0.8-0.1-1.1-0.2c-0.9-0.3-1.5-1.2-1.5-2.2
	C38.7,62.9,39.5,62.1,41.2,61.8"/>
<path class="st0" d="M167,63.4v-0.5c0-1.3-0.4-2.5-1-3.7c-1.9-3.1-5.3-4.9-8.9-4.8h-32.7c-0.1,0-0.1,0-0.1,0.2v30.8
	c0,0.1,0.1,0.2,0.1,0.2h32.7c3.6,0.1,7-1.8,8.9-4.8c0.6-1.1,1-2.4,1-3.7v-0.5c0-2.5-1.2-4.7-3.6-6.6C165.9,68.1,167.1,65.9,167,63.4
	 M155,78.1h-20.8v-4.8h20.2c1.1-0.1,2.1,0.6,2.5,1.6c0.1,0.3,0.1,0.6,0.1,0.8C157.1,76.9,156.4,77.8,155,78.1 M134.2,61.9H155
	c1.4,0.4,2.1,1.2,2.1,2.4c0,0.3-0.1,0.6-0.1,0.8c-0.4,1-1.4,1.7-2.5,1.6h-20.2L134.2,61.9z"/>
<path class="st0" d="M211.3,58.5c-2-2.6-5.2-4.1-8.5-4h-23.1c-1.3,0.1-2.6,0.3-3.8,0.8c-3.9,1.8-5.9,4.4-5.9,7.7v14.2
	c0,1.5,0.5,3.1,1.4,4.3c2,2.6,5.2,4.2,8.5,4.1h22.8c1.6,0,3.2-0.3,4.7-1c3.5-1.8,5.3-4.3,5.3-7.5V63
	C212.9,61.4,212.3,59.8,211.3,58.5 M202.9,73.2c0,0.5-0.1,0.9-0.2,1.4c-0.9,2.4-2.5,3.6-4.8,3.6h-12.8c-0.4,0-0.8,0-1.2-0.1
	c-2.6-0.8-3.9-2.5-3.9-5v-6.1c0-0.5,0.1-1,0.2-1.5c0.9-2.4,2.5-3.6,4.9-3.6h12.2c0.6,0,1.3,0,1.9,0.1c2.3,0.7,3.9,2.9,3.7,5.3
	L202.9,73.2z"/>
<path class="st0" d="M248.8,85.6h9.7c0.1,0,0.1,0,0.1-0.1c0,0,0,0,0,0V62.8c-0.1-1.6-0.6-3.2-1.6-4.5c-2-2.4-4.9-3.8-8-3.8h-33
	c-0.1,0-0.1,0-0.1,0.2v30.8c0,0.1,0,0.1,0.1,0.1c0,0,0,0,0,0h9.7c0.1,0,0.1,0,0.1-0.1V61.8h17.8c0.5,0,1,0.1,1.5,0.2
	c2.4,0.8,3.5,2.6,3.5,5.4v18C248.6,85.5,248.7,85.5,248.8,85.6C248.8,85.6,248.8,85.6,248.8,85.6"/>
<path class="st0" d="M271.5,85.6c0.1,0,0.1,0,0.1-0.1c0,0,0,0,0,0V54.6c0-0.1,0-0.1-0.1-0.2h-9.7c-0.1,0-0.1,0-0.1,0.2v30.8
	c0,0.1,0,0.1,0.1,0.1c0,0,0,0,0,0H271.5z"/>
<path class="st0" d="M311.5,85.6h9.7c0.1,0,0.1,0,0.1-0.1V54.6c0-0.1,0-0.1-0.1-0.2h-10c0,0-4.4,5.1-13.2,15.4l-13.3-15.4h-10
	c-0.1,0-0.1,0-0.1,0.2v30.8c0,0.1,0,0.1,0.1,0.1h9.7c0.1,0,0.1,0,0.1-0.1V67.1c8.8,10.3,13.3,15.4,13.4,15.4h0.1l13.3-15.4v18.4
	C311.4,85.5,311.4,85.6,311.5,85.6"/>
<path class="st0" d="M74.6,85.6h11.6c0.2-0.3,4.1-6.9,11.8-19.9c7.6,13,11.5,19.6,11.8,19.9h11.6c-11.8-20-18-30.5-18.4-31.2H93
	C92.6,55.1,86.4,65.6,74.6,85.6"/>
<path class="st0" d="M328.3,48.7c0.1,0.1,0.2,0.3,0.2,0.5v0.3c0,0.1,0,0.3,0,0.4c0,0.1,0,0.2,0,0.3h0.8v-0.1c0-0.1-0.1-0.2-0.1-0.3
	c0-0.1,0-0.2,0-0.4v-0.3c0-0.2,0-0.4-0.1-0.6c-0.1-0.2-0.2-0.3-0.4-0.4c0.2-0.1,0.3-0.2,0.4-0.3c0.1-0.1,0.1-0.3,0.1-0.5
	c0-0.4-0.2-0.7-0.5-1c-0.4-0.2-0.8-0.4-1.2-0.3h-1.5v4.2h0.8v-1.7h0.8C327.9,48.5,328.1,48.6,328.3,48.7 M326.9,47.8v-1.2h0.7
	c0.2,0,0.5,0,0.7,0.1c0.1,0.1,0.2,0.3,0.2,0.5c0,0.2-0.1,0.3-0.3,0.4c-0.2,0.1-0.4,0.1-0.6,0.1L326.9,47.8z"/>
<path class="st0" d="M330.2,50.8c0.7-0.7,1.1-1.6,1.1-2.6c0.1-2-1.4-3.8-3.5-3.9c-2-0.1-3.8,1.4-3.9,3.5c0,0.1,0,0.3,0,0.4
	c0,2,1.7,3.7,3.7,3.7C328.6,51.8,329.5,51.4,330.2,50.8 M324.6,48.1c0-1.7,1.3-3,3-3c0.8,0,1.6,0.3,2.1,0.9c1.2,1.2,1.2,3.1,0,4.3
	c-1.1,1.2-3,1.3-4.2,0.1C324.9,49.9,324.5,49.1,324.6,48.1"/>
</svg>
