<svg id="Capa_1" data-name="Capa 1" xmlns="http://www.w3.org/2000/svg" viewBox="0 0 300 300"><title>logo_lonquimay</title><path d="M258.24,203.76a7.84,7.84,0,0,1-.83.23v3.88a5.86,5.86,0,0,1-3.28,5.32L152.67,263.93a5.93,5.93,0,0,1-5.32,0L45.89,213.19a5.88,5.88,0,0,1-3.3-5.32V191.68H37.5v28.76a11,11,0,0,0,6.11,9.87l101.46,50.75a11.27,11.27,0,0,0,9.88,0l101.46-50.75a10.94,10.94,0,0,0,6.09-9.87v-18c-1.3.47-2.71.92-4.26,1.36m-.83,16.68a5.84,5.84,0,0,1-3.28,5.31L152.67,276.49a5.93,5.93,0,0,1-5.32,0L45.89,225.75a5.86,5.86,0,0,1-3.3-5.31v-3.28c.33.2.65.41,1,.59l101.46,50.74a11.27,11.27,0,0,0,9.88,0l101.46-50.74c.35-.18.67-.39,1-.59Z"/><path d="M256.41,69.68,155,19a11.21,11.21,0,0,0-9.88,0L43.61,69.68a11,11,0,0,0-6.11,9.88v35.53l5.09-2.54,15.78-7.9,5.7-2.85L76.7,95.49l12.62,6.31L76.7,108.11l-.29.15,5.7,2.84.28-.13,18.34-9.17L150,77.16l49.05,24.52.23.12-12.86,6.44,0,0,5.46,2.73,0,0,12.88-6.44,5.7-2.85,12.62-6.32.22.13,34.11,17.06,5.09,2.54V79.56a11,11,0,0,0-6.09-9.88m1,37.17L229,92.63l-.23-.11-5.48-2.73-5.7,2.84L205,98.94l-.22-.11L150,71.46,95,98.94,76.7,89.79,71,92.63,58.37,98.94l-5.7,2.86-10.08,5V79.56a6.17,6.17,0,0,1,.1-1.07,5.76,5.76,0,0,1,3.08-4.16.42.42,0,0,1,.12-.08L147.35,23.51a5.83,5.83,0,0,1,5.31,0L254,74.18l.1.07.13.06a5.83,5.83,0,0,1,3,4,.6.6,0,0,1,0,.21,6.17,6.17,0,0,1,.1,1.07Z"/><path d="M103.65,218a3.36,3.36,0,0,1,0,4.49,3.25,3.25,0,0,1-2.35.82H99.4V226H98.3v-8.79h3a3.25,3.25,0,0,1,2.35.82m-.79,3.71a2.23,2.23,0,0,0,0-2.93,2.28,2.28,0,0,0-1.6-.51H99.4v3.95h1.86a2.28,2.28,0,0,0,1.6-.51"/><path d="M119.5,226l-1.65-2.7-.49,0h-1.9V226h-1.1v-8.79h3a3.23,3.23,0,0,1,2.35.82,2.91,2.91,0,0,1,.86,2.24,3.22,3.22,0,0,1-.44,1.74,2.52,2.52,0,0,1-1.25,1L120.7,226Zm-.58-4.26a2.23,2.23,0,0,0,0-2.93,2.25,2.25,0,0,0-1.59-.51h-1.87v4h1.87a2.21,2.21,0,0,0,1.59-.52"/><polygon points="136.18 224.86 136.18 225.95 130.59 225.95 130.59 217.16 136.02 217.16 136.02 218.25 131.69 218.25 131.69 220.95 135.55 220.95 135.55 222.02 131.69 222.02 131.69 224.86 136.18 224.86"/><polygon points="153.33 225.95 153.32 219.55 150.54 224.88 150.03 224.88 147.25 219.59 147.25 225.95 146.2 225.95 146.2 217.16 147.1 217.16 150.31 223.34 153.47 217.16 154.38 217.16 154.38 225.95 153.33 225.95"/><rect x="164.93" y="217.16" width="1.1" height="8.79"/><path d="M177.37,225.05a4.35,4.35,0,0,1-.85-2.89v-5h1.09v5c0,1.88.73,2.82,2.17,2.82a2,2,0,0,0,1.62-.69,3.41,3.41,0,0,0,.56-2.13v-5H183v5a4.32,4.32,0,0,1-.85,2.89,3.38,3.38,0,0,1-4.8,0"/><polygon points="200.65 225.95 200.64 219.55 197.86 224.88 197.35 224.88 194.57 219.59 194.57 225.95 193.52 225.95 193.52 217.16 194.42 217.16 197.63 223.34 200.79 217.16 201.69 217.16 201.7 225.95 200.65 225.95"/><polygon points="58.6 122.41 58.6 137.21 54.94 137.21 54.94 131.44 49.95 131.44 49.95 137.21 46.28 137.21 46.28 122.41 49.95 122.41 49.95 127.97 54.94 127.97 54.94 122.41 58.6 122.41"/><polygon points="89.41 133.98 89.41 137.21 79.02 137.21 79.02 122.41 89.17 122.41 89.17 125.65 82.64 125.65 82.64 128.14 88.4 128.14 88.4 131.27 82.64 131.27 82.64 133.98 89.41 133.98"/><polygon points="109.83 122.41 113.49 122.41 113.49 133.89 119.67 133.89 119.67 137.21 109.83 137.21 109.83 122.41"/><path d="M150.32,134.34h-5.48l-1,2.87h-3.73l5.71-14.8h3.61l5.73,14.8h-3.81Zm-1.08-3.09-1.66-4.74-1.67,4.74Z"/><path d="M174,122.41h6.12a7.7,7.7,0,0,1,3.77.91,6.42,6.42,0,0,1,2.56,2.58,8.94,8.94,0,0,1,0,7.82,6.3,6.3,0,0,1-2.56,2.58,7.6,7.6,0,0,1-3.77.91H174Zm6,11.46a3.47,3.47,0,0,0,2.67-1.08,4.9,4.9,0,0,0,0-6,3.47,3.47,0,0,0-2.67-1.08h-2.31v8.12Z"/><path d="M211.22,136.51a7,7,0,0,1-2.57-2.75,8.85,8.85,0,0,1,0-7.9,7.19,7.19,0,0,1,9.95-2.75,6.89,6.89,0,0,1,2.57,2.75,8.77,8.77,0,0,1,0,7.9,6.89,6.89,0,0,1-2.57,2.75,7.31,7.31,0,0,1-7.38,0m5.47-3A3.64,3.64,0,0,0,218,132a5.54,5.54,0,0,0,0-4.42,3.64,3.64,0,0,0-1.26-1.49,3.24,3.24,0,0,0-3.55,0,3.64,3.64,0,0,0-1.26,1.49,5.54,5.54,0,0,0,0,4.42,3.64,3.64,0,0,0,1.26,1.49,3.24,3.24,0,0,0,3.55,0"/><path d="M244.93,137.06a6.9,6.9,0,0,1-2.4-1.18l1.2-3.09a7.3,7.3,0,0,0,2,1.06,6.68,6.68,0,0,0,2.25.4c1.41,0,2.11-.4,2.11-1.2a1,1,0,0,0-.6-.94,10,10,0,0,0-1.93-.65,17.54,17.54,0,0,1-2.45-.77,4.26,4.26,0,0,1-1.68-1.32,3.9,3.9,0,0,1-.7-2.45,4.59,4.59,0,0,1,.65-2.44,4.42,4.42,0,0,1,1.93-1.73,7.13,7.13,0,0,1,3.15-.63,9.8,9.8,0,0,1,2.52.33,6.85,6.85,0,0,1,2.18,1l-1.13,3.1a6.83,6.83,0,0,0-3.59-1.14,2.78,2.78,0,0,0-1.59.37,1.16,1.16,0,0,0-.5,1,.94.94,0,0,0,.6.88,9.72,9.72,0,0,0,1.9.62,15.59,15.59,0,0,1,2.45.77,4.15,4.15,0,0,1,1.68,1.31,3.79,3.79,0,0,1,.72,2.44,4.61,4.61,0,0,1-.65,2.41,4.55,4.55,0,0,1-1.94,1.72,7,7,0,0,1-3.15.65,10.43,10.43,0,0,1-3-.45"/><path d="M29,169.55c-2.94,3.95-12.3,6.06-11.56-1.38V139.56c.06-4.07,1.06-5.77,5.1-6V132H0v1.53c4,.23,5,2,5.1,6v28.61C5,172.2,4,174,0,174.21v1.53H33.07l1.51-16L33,159.54Q32,166,29,169.55"/><path d="M59.89,147.58a13.56,13.56,0,0,0-11.1-2.37,14,14,0,0,0-9.63,6.26A16.23,16.23,0,0,0,37,163.4,15.71,15.71,0,0,0,43,173.81a13.44,13.44,0,0,0,11.07,2.43A14,14,0,0,0,63.69,170a16.29,16.29,0,0,0,2.1-12q-1.17-6.9-5.9-10.45m-3.8,23.19c-.24,1.93-1,3-2.41,3.29s-2.45-.47-3.29-2.17-1.71-5.17-2.6-10.44-1.24-8.94-1-10.78,1-2.89,2.39-3.15,2.48.48,3.34,2.2,1.72,5.18,2.6,10.36,1.2,8.75,1,10.69"/><path d="M88.48,172.79a2.82,2.82,0,0,1-1.82,1.54v1.41h16v-1.41a3.64,3.64,0,0,1-2.55-1.63,8.27,8.27,0,0,1-.74-4V156q0-5.69-1.95-8.41a6.81,6.81,0,0,0-6-2.74,11.81,11.81,0,0,0-5,1.1,14.72,14.72,0,0,0-4.44,3.2l-.17-3.43H68.6v1.41a3.53,3.53,0,0,1,2.53,1.48,6.63,6.63,0,0,1,.76,3.57v17.28a5.86,5.86,0,0,1-.76,3.29,4.15,4.15,0,0,1-2.53,1.58v1.41H84.77v-1.41a2.86,2.86,0,0,1-2-1.43,8.57,8.57,0,0,1-.57-3.68V152.6a8.7,8.7,0,0,1,2.13-1.95A3.92,3.92,0,0,1,86.4,150a2.16,2.16,0,0,1,2,1A9.56,9.56,0,0,1,89,155v13.91a10.08,10.08,0,0,1-.53,3.87"/><path d="M115.61,176.48a8.21,8.21,0,0,0,3.76-.84,9.66,9.66,0,0,0,3.11-2.54v8.45c1.08-.15,2.19-.29,3.32-.4,2.28-.26,4.61-.43,7-.55V144.67H131.1l-4.87,3.88a12.49,12.49,0,0,0-3.87-2.7,10.66,10.66,0,0,0-4.3-.87,11.51,11.51,0,0,0-9.45,4.56c-2.44,3.07-3.66,7.06-3.66,12,0,4.41,1,8,3,10.78a9.05,9.05,0,0,0,7.68,4.16m1.23-25.38c.66-2,1.68-2.94,3-2.94a2.08,2.08,0,0,1,2,1.23,8.19,8.19,0,0,1,.64,3.63v17.12a3.94,3.94,0,0,1-1.25,1.52,3,3,0,0,1-1.71.56c-1.29,0-2.22-.93-2.81-2.8a34.14,34.14,0,0,1-.87-9.19,30.49,30.49,0,0,1,1-9.13"/><path d="M139.18,148.76a8.16,8.16,0,0,1,.76,4v12.67c0,3.79.64,6.58,1.92,8.35s3.28,2.68,6,2.68a12.07,12.07,0,0,0,5-1,13.24,13.24,0,0,0,4.19-3.06v3.35h13.63v-1.42a4.77,4.77,0,0,1-1.87-.87,3.18,3.18,0,0,1-.66-.71,5.91,5.91,0,0,1-.77-3.28V145.72h-13v1.42a3.1,3.1,0,0,1,2.06,1.39,8.15,8.15,0,0,1,.57,3.65v16.68a8.24,8.24,0,0,1-2,1.94,3.77,3.77,0,0,1-2.06.64,2.28,2.28,0,0,1-2.12-.94,9.14,9.14,0,0,1-.58-4V145.72H136.59v1.42a3.49,3.49,0,0,1,2.59,1.62"/><path d="M207.51,174.33a2.84,2.84,0,0,1-1.74-1.54,9.38,9.38,0,0,1-.5-3.57V152.6a7.34,7.34,0,0,1,1.89-1.89,3.61,3.61,0,0,1,2-.63,1.76,1.76,0,0,1,1.74,1,10.29,10.29,0,0,1,.49,4v13.91a10.76,10.76,0,0,1-.5,3.9,2.6,2.6,0,0,1-1.73,1.51v1.41h14.48v-1.41a2.83,2.83,0,0,1-1.68-1.55,9.33,9.33,0,0,1-.49-3.56V152.6a7.75,7.75,0,0,1,1.85-1.89,3.34,3.34,0,0,1,1.9-.63,1.89,1.89,0,0,1,1.83,1,9.86,9.86,0,0,1,.52,4v13.91a10.9,10.9,0,0,1-.49,3.92,2.66,2.66,0,0,1-1.75,1.49v1.41h15.44v-1.41a3.45,3.45,0,0,1-2.45-1.64,8.44,8.44,0,0,1-.73-4V156c0-3.79-.61-6.58-1.82-8.39a6.31,6.31,0,0,0-5.63-2.7,10.57,10.57,0,0,0-4.83,1.14,16.84,16.84,0,0,0-4.61,3.67,7.41,7.41,0,0,0-2.58-3.58,6.85,6.85,0,0,0-4.09-1.23,10.49,10.49,0,0,0-4.58,1.07,14.7,14.7,0,0,0-4.27,3.17l-.17-3.43H192v1.41a3.5,3.5,0,0,1,2.53,1.48,6.63,6.63,0,0,1,.76,3.57v17.28a5.86,5.86,0,0,1-.76,3.29,4.11,4.11,0,0,1-2.53,1.58v1.41h15.55Z"/><path d="M247.15,162.65c-2.55,2.06-3.83,4.34-3.83,6.87a7,7,0,0,0,1.88,5,6.24,6.24,0,0,0,4.73,2,9.62,9.62,0,0,0,4.29-1.05A21.76,21.76,0,0,0,259,172a8.68,8.68,0,0,0,2.74,3.31,6.31,6.31,0,0,0,3.68,1.14,6.93,6.93,0,0,0,3.82-1.2,13.46,13.46,0,0,0,3.51-3.55l-.83-1.05c-.44.24-.82.43-1.13.56a2.13,2.13,0,0,1-.76.19.94.94,0,0,1-.88-.58,4,4,0,0,1-.3-1.76V154.89c0-3.41-1-5.92-2.9-7.55s-4.93-2.43-9-2.43c-3.87,0-7,.74-9.33,2.22s-3.52,3.41-3.52,5.77a4.86,4.86,0,0,0,1.46,3.71,5.39,5.39,0,0,0,3.89,1.4,4.08,4.08,0,0,0,4.27-4.3,5.65,5.65,0,0,0-.68-2.35,6,6,0,0,1-.67-1.88,1.92,1.92,0,0,1,.87-1.6,3.79,3.79,0,0,1,2.25-.63,2.92,2.92,0,0,1,2.31,1,4,4,0,0,1,.84,2.72v6.28q-7.65,2.34-11.46,5.42m11.46,6.81a3.87,3.87,0,0,1-1.17,1.08,2.75,2.75,0,0,1-1.35.33,2.45,2.45,0,0,1-2.06-1.1,4.71,4.71,0,0,1-.8-2.84,7.36,7.36,0,0,1,1.44-4.34,9.28,9.28,0,0,1,3.94-3.11Z"/><path d="M291.27,145.71v1.42a4.85,4.85,0,0,1,2.24,1,2.2,2.2,0,0,1,.63,1.67A6,6,0,0,1,294,151a8.29,8.29,0,0,1-.39,1.35l-3.35,9.36-4.16-10.17a10.35,10.35,0,0,1-.37-1.12,2.22,2.22,0,0,1-.17-.83,2.33,2.33,0,0,1,.54-1.64,2.87,2.87,0,0,1,1.69-.77v-1.42H271.29v1.42a4.19,4.19,0,0,1,2.35,1.43,14,14,0,0,1,2,3.68l7.85,19.46.77,1.93.94,2.29s-.29.9-.42,1.19a18.55,18.55,0,0,1-1.95,3.47A26.79,26.79,0,0,1,279,185a37.35,37.35,0,0,1-9.69,6.48,50.52,50.52,0,0,1-6.59,2.52c-.89.27-1.81.52-2.74.77a78.67,78.67,0,0,1-13.41,2.12c-2.68.23-5.34.31-8,.31a146.41,146.41,0,0,1-15.63-.91,211,211,0,0,1-23.47-4,289.18,289.18,0,0,0-48.32-7.65c-3.72-.22-7.44-.35-11.18-.35-2.29,0-4.56,0-6.87.15l-.29,0q-3.27.18-6.61.52c-1.22.14-2.47.29-3.68.48a11.55,11.55,0,0,0-1.2.18,67.93,67.93,0,0,0-8,1.81,40.35,40.35,0,0,0-6.67,2.74,19.51,19.51,0,0,0-6.84,5.89l-.33.48a6.3,6.3,0,0,0-.5.87,6.72,6.72,0,0,0,2.7,8.82,6.09,6.09,0,0,0,8.42-2.85,7.08,7.08,0,0,1,2.35-2.12,26,26,0,0,1,4.45-2.15,53.59,53.59,0,0,1,5.92-1.74c1.56-.4,3.16-.73,4.79-1s3.43-.54,5.17-.75a160.57,160.57,0,0,1,18.05-1,279.6,279.6,0,0,1,47.36,4.56,222,222,0,0,0,24.26,3c3.45.19,6.88.31,10.33.31a112.56,112.56,0,0,0,14.21-.85,84.1,84.1,0,0,0,13-2.58c1.74-.5,3.49-1.06,5.2-1.72a52.47,52.47,0,0,0,5.63-2.54,41.5,41.5,0,0,0,10.25-7.53c.15-.16.29-.31.44-.49a26.33,26.33,0,0,0,5.82-9.11l1.52-4.35.68-1.91,6.8-19.37a11.58,11.58,0,0,1,1.6-3.17,5.89,5.89,0,0,1,2.08-1.78v-1.42Z"/><path d="M190,174.32a4.06,4.06,0,0,1-2.52-1.58,5.71,5.71,0,0,1-.78-3.28V145.72H172.84v1.41a3.53,3.53,0,0,1,2.53,1.47,6.69,6.69,0,0,1,.76,3.58v17.28a5.8,5.8,0,0,1-.76,3.28,4,4,0,0,1-2.53,1.58v1.42H190Z"/><polygon points="150 236.21 152.73 241.73 158.83 242.62 154.41 246.92 155.46 253 150 250.13 144.54 253 145.59 246.92 141.18 242.62 147.27 241.73 150 236.21"/></svg>