<?xml version="1.0" encoding="utf-8"?>
<!-- Generator: Adobe Illustrator 22.0.0, SVG Export Plug-In . SVG Version: 6.00 Build 0)  -->
<svg version="1.1" id="Capa_1" xmlns="http://www.w3.org/2000/svg" xmlns:xlink="http://www.w3.org/1999/xlink" x="0px" y="0px"
	 viewBox="0 0 300 300" style="enable-background:new 0 0 300 300;" xml:space="preserve">
<style type="text/css">
	.st0{fill:#FFFFFF;}
</style>
<title>logo_surbets</title>
<polygon class="st0" points="189.3,142.3 193.7,138 189.3,133.6 184.9,138 "/>
<polygon class="st0" points="206.8,124.8 202.4,120.5 198.1,124.8 202.4,129.2 "/>
<polygon class="st0" points="189.3,107.4 184.9,111.7 189.3,116.1 193.7,111.7 "/>
<polygon class="st0" points="176.2,120.5 171.8,124.8 176.2,129.2 180.6,124.8 "/>
<path class="st0" d="M160.4,124.8l28.9,28.9l28.9-28.9L189.3,96L160.4,124.8z M199.7,138l-10.4,10.4L178.9,138l10.4-10.5L199.7,138z
	 M178.9,111.7l10.4-10.4l10.4,10.4l-10.4,10.4L178.9,111.7z M165.8,124.8l10.4-10.4l10.4,10.4l-10.4,10.5L165.8,124.8z M192,124.8
	l10.4-10.4l10.4,10.4l-10.4,10.5L192,124.8z"/>
<path class="st0" d="M21.8,148.9l2.7,2.7l6.1-6.1l6.1,6.1l2.7-2.7l-6.1-6.1l28-28L44.7,98.1l-14,14l-14-14L0,114.8l28,28L21.8,148.9
	z M35,135.8l-4.3,4.3l-4.3-4.3l4.3-4.3L35,135.8z M23.7,119.1l-4.3-4.3l2.6-2.6l-2.7-2.6l-5.3,5.3l9.7,9.7l7-7l7,7l9.7-9.7l-5.4-5.3
	l-2.7,2.6l2.7,2.6l-4.3,4.3l-4.3-4.3l11.3-11.3L56,114.8l-18.3,18.3l-7-7l-7,7L5.4,114.8l11.3-11.3L28,114.8L23.7,119.1z"/>
<path class="st0" d="M79.1,131.2l16.7,16.7l14-14l14,14l16.7-16.7l-30.7-30.7L79.1,131.2z M116.7,126.9l4.3,4.3l-2.6,2.6l2.7,2.7
	l5.3-5.3l-9.7-9.7l-7,7l-7-7l-9.7,9.7l5.3,5.3l2.7-2.7l-2.6-2.6l4.3-4.3l4.3,4.3l-11.3,11.3l-11.3-11.3l25.3-25.3l25.3,25.3
	l-11.3,11.3l-11.3-11.3L116.7,126.9z"/>
<polygon class="st0" points="278.1,151.1 280.8,148.4 269.3,137 257.9,148.4 260.6,151.1 269.3,142.3 "/>
<path class="st0" d="M280.8,109.9l-11.4-11.5l-11.4,11.5l11.4,11.4L280.8,109.9z M263.3,109.9l6.1-6.1l6,6.1l-6,6L263.3,109.9z"/>
<polygon class="st0" points="255.3,140.4 244.1,129.1 255.3,117.8 259.7,122.2 255.3,126.4 252.7,123.8 250,126.5 255.3,131.8 
	265,122.2 255.3,112.4 238.7,129.1 255.3,145.8 283.3,117.8 294.6,129.1 283.3,140.4 279,136.1 283.3,131.8 286,134.4 288.6,131.8 
	283.3,126.4 273.6,136.1 283.3,145.8 300,129.1 283.3,112.4 "/>
<path class="st0" d="M5.8,202.4c-2.2-1-4.2-2.4-5.8-4.3l4-4c1.2,1.3,2.6,2.3,4.1,3c1.5,0.7,3.1,1,4.8,1c1.4,0.1,2.9-0.3,4.1-1
	c1-0.6,1.5-1.7,1.5-2.9c0-0.8-0.2-1.5-0.7-2.1c-0.6-0.6-1.4-1.1-2.2-1.5c-1.3-0.5-2.7-1-4.1-1.4c-1.6-0.4-3.2-1-4.7-1.8
	c-1.4-0.7-2.6-1.7-3.5-2.9c-1-1.4-1.5-3.1-1.4-4.8c-0.1-3.4,1.9-6.5,5-7.9c1.9-0.9,3.9-1.3,6-1.2c2.1,0,4.2,0.3,6.2,1.1
	c1.9,0.7,3.7,1.8,5.2,3.2l-3.5,4.3c-1-0.9-2.2-1.6-3.5-2.1c-1.3-0.5-2.7-0.8-4.1-0.8c-0.9,0-1.8,0.1-2.6,0.4
	c-0.7,0.3-1.3,0.7-1.8,1.3c-0.4,0.6-0.7,1.3-0.6,2c0,0.7,0.2,1.3,0.7,1.8c0.5,0.5,1.2,0.9,1.9,1.2c0.8,0.3,1.9,0.7,3.4,1.1l0.5,0.2
	c1.9,0.6,3.8,1.3,5.5,2.2c1.4,0.7,2.6,1.7,3.5,3c0.9,1.3,1.3,2.9,1.3,4.5c0,1.9-0.5,3.7-1.5,5.2c-1,1.5-2.5,2.7-4.2,3.4
	c-1.9,0.8-4,1.2-6.1,1.2C10.5,203.9,8.1,203.4,5.8,202.4"/>
<path class="st0" d="M52.2,202.3c-2-1.1-3.6-2.8-4.7-4.9c-1.1-2.2-1.6-4.6-1.6-7.1v-19h6.2v18.3c0,1.6,0.3,3.1,0.8,4.5
	c0.5,1.3,1.4,2.3,2.5,3.1c2.5,1.5,5.5,1.5,8,0c1.1-0.8,2-1.8,2.5-3.1c0.6-1.4,0.9-3,0.9-4.5v-18.3H73v19c0,2.5-0.5,4.9-1.6,7.1
	c-1,2.1-2.7,3.8-4.7,4.9c-2.2,1.2-4.8,1.8-7.3,1.8C56.9,204.1,54.3,203.5,52.2,202.3"/>
<path class="st0" d="M121.6,203.4h-7l-5-10.9c-0.7,0-1.2,0.1-1.5,0.1h-5.4v10.8h-6.3v-32.2h13.3c2,0,4,0.4,5.8,1.3
	c1.6,0.8,3,2.2,3.9,3.8c0.9,1.7,1.4,3.6,1.4,5.6c0.1,1.9-0.4,3.8-1.4,5.5c-0.9,1.5-2.3,2.8-3.9,3.6L121.6,203.4z M102.6,187.1h6.5
	c1,0,1.9-0.2,2.8-0.7c0.8-0.4,1.4-1.1,1.9-1.9c0.5-0.8,0.7-1.7,0.7-2.7c0-0.9-0.2-1.9-0.7-2.7c-0.5-0.8-1.1-1.4-1.9-1.8
	c-0.8-0.4-1.8-0.6-2.7-0.6h-6.6L102.6,187.1z"/>
<path class="st0" d="M143.1,203.4v-32.2h13c1.8,0,3.6,0.3,5.3,1.1c1.4,0.6,2.6,1.7,3.5,3c0.8,1.4,1.3,2.9,1.2,4.5
	c0,0.9-0.2,1.8-0.5,2.7c-0.3,0.8-0.8,1.6-1.4,2.3c-0.6,0.6-1.2,1.1-2,1.4c1.1,0.3,2,0.9,2.8,1.6c0.9,0.8,1.5,1.8,2,2.8
	c0.5,1.1,0.7,2.3,0.7,3.5c0.1,1.8-0.4,3.5-1.4,5c-0.9,1.4-2.2,2.5-3.7,3.2c-1.6,0.7-3.4,1.1-5.2,1.1L143.1,203.4z M155.6,184.3
	c0.8,0,1.5-0.2,2.2-0.5c0.6-0.3,1.2-0.8,1.5-1.4c0.4-0.6,0.6-1.3,0.6-2c0-0.7-0.2-1.4-0.5-2c-0.3-0.6-0.9-1.1-1.5-1.4
	c-0.7-0.3-1.4-0.5-2.2-0.5h-6.5v7.8L155.6,184.3z M156.9,198.2c0.8,0,1.6-0.2,2.3-0.6c0.7-0.4,1.2-0.9,1.6-1.6
	c0.4-0.7,0.6-1.5,0.6-2.4c0-0.8-0.2-1.6-0.6-2.2c-0.4-0.7-1-1.3-1.7-1.6c-0.8-0.4-1.7-0.6-2.5-0.6h-7.3v9.1H156.9z"/>
<polygon class="st0" points="212.8,203.4 189.5,203.4 189.5,171.2 212.5,171.2 212.5,176.9 195.7,176.9 195.7,184.4 209.1,184.4 
	209.1,189.7 195.7,189.7 195.7,197.7 212.8,197.7 "/>
<polygon class="st0" points="248.1,203.4 241.9,203.4 241.9,177 232.5,177 232.5,171.2 257.6,171.2 257.6,177 248.1,177 "/>
<path class="st0" d="M281.1,202.4c-2.2-1-4.2-2.4-5.9-4.3l4-4c1.2,1.3,2.6,2.3,4.1,3c1.5,0.7,3.1,1,4.8,1c1.4,0.1,2.9-0.3,4.1-1
	c1-0.6,1.5-1.7,1.5-2.9c0-0.8-0.2-1.5-0.7-2.1c-0.6-0.6-1.4-1.1-2.2-1.5c-1.3-0.5-2.7-1-4.1-1.4c-1.6-0.4-3.2-1-4.7-1.8
	c-1.4-0.7-2.6-1.7-3.5-2.9c-1-1.4-1.5-3.1-1.4-4.8c-0.1-3.4,1.9-6.5,5-7.9c1.9-0.9,3.9-1.3,6-1.2c2.1,0,4.3,0.4,6.2,1.1
	c1.9,0.7,3.6,1.8,5.1,3.2l-3.5,4.3c-1-0.9-2.2-1.6-3.5-2.1c-1.3-0.5-2.7-0.8-4.1-0.8c-0.9,0-1.8,0.1-2.6,0.4
	c-0.7,0.3-1.3,0.7-1.8,1.3c-0.4,0.5-0.7,1.2-0.6,1.9c0,0.7,0.2,1.3,0.7,1.8c0.5,0.5,1.2,0.9,1.9,1.2c0.8,0.3,1.9,0.7,3.4,1.1
	l0.5,0.2c1.9,0.6,3.8,1.3,5.5,2.3c1.4,0.7,2.6,1.7,3.5,3c0.9,1.3,1.3,2.8,1.3,4.4c0,1.9-0.5,3.7-1.5,5.2c-1,1.5-2.5,2.7-4.2,3.4
	c-1.9,0.8-4,1.2-6.1,1.2C285.8,203.9,283.3,203.4,281.1,202.4"/>
</svg>
