<svg id="Capa_1" data-name="Capa 1" xmlns="http://www.w3.org/2000/svg" viewBox="0 0 300 300"><title>logo_surbets</title><polygon points="189.3 142.33 193.68 137.99 189.3 133.6 184.95 137.99 189.3 142.33"/><polygon points="206.79 124.84 202.41 120.49 198.06 124.84 202.41 129.22 206.79 124.84"/><polygon points="189.3 107.38 184.95 111.73 189.3 116.11 193.68 111.73 189.3 107.38"/><polygon points="176.19 120.49 171.8 124.84 176.19 129.22 180.57 124.84 176.19 120.49"/><path d="M160.38,124.84l28.92,28.91,28.91-28.91L189.3,96ZM199.72,138,189.3,148.41,178.88,138l10.42-10.46Zm-20.84-26.26,10.42-10.42,10.42,10.42L189.3,122.18Zm-13.11,13.11,10.41-10.42,10.42,10.42-10.42,10.45Zm26.22,0,10.42-10.42,10.42,10.42-10.42,10.45Z"/><path d="M21.84,148.91l2.69,2.69,6.14-6.14,6.1,6.14,2.69-2.69-6.1-6.14,28-28L44.66,98.11l-14,14-14-14L0,114.79l28,28ZM35,135.79l-4.32,4.29-4.32-4.29,4.32-4.32ZM23.66,119.11l-4.29-4.32L22,112.16l-2.7-2.64L14,114.79l9.66,9.71,7-7,7,7,9.71-9.71L42,109.52l-2.7,2.64L42,114.79l-4.32,4.32-4.29-4.32,11.3-11.29L56,114.79,37.65,133.1l-7-7-7,7L5.39,114.79,16.68,103.5,28,114.79Z"/><path d="M79.06,131.18l16.68,16.68,14-14,14,14,16.68-16.68-30.67-30.67Zm37.68-4.28,4.28,4.28-2.63,2.63,2.7,2.69,5.32-5.32-9.67-9.67-7,7-7-7-9.7,9.67,5.32,5.32,2.69-2.69-2.63-2.63,4.32-4.28,4.28,4.28L95.74,142.47l-11.3-11.29,25.29-25.28L135,131.18l-11.29,11.29-11.3-11.29Z"/><polygon points="278.06 151.07 280.75 148.38 269.33 136.96 257.91 148.38 260.6 151.07 269.33 142.3 278.06 151.07"/><path d="M280.75,109.92,269.33,98.46l-11.42,11.46,11.42,11.42Zm-17.49,0,6.07-6.07,6,6.07-6,6Z"/><polygon points="255.34 140.42 244.05 129.13 255.34 117.83 259.66 122.15 255.34 126.44 252.71 123.85 250.02 126.54 255.34 131.82 265.01 122.16 255.34 112.45 238.66 129.13 255.34 145.81 283.32 117.83 294.61 129.13 283.32 140.43 279 136.14 283.32 131.82 285.95 134.45 288.64 131.76 283.32 126.43 273.65 136.14 283.32 145.81 300 129.13 283.32 112.45 255.34 140.42"/><path d="M5.85,202.42A16.44,16.44,0,0,1,0,198.13l4-4a12.76,12.76,0,0,0,4.14,3,11.76,11.76,0,0,0,4.79,1,7.06,7.06,0,0,0,4.09-1,3.4,3.4,0,0,0,1.5-2.91,3,3,0,0,0-.73-2.06,6,6,0,0,0-2.19-1.46,35.3,35.3,0,0,0-4.12-1.36,26.54,26.54,0,0,1-4.73-1.77,9.78,9.78,0,0,1-3.51-2.93,7.73,7.73,0,0,1-1.44-4.81,8.47,8.47,0,0,1,5-7.87,13.59,13.59,0,0,1,6-1.22A16.73,16.73,0,0,1,19,171.83,15.94,15.94,0,0,1,24.16,175l-3.55,4.26a11.6,11.6,0,0,0-3.46-2.11,10.67,10.67,0,0,0-4.1-.84,7.2,7.2,0,0,0-2.62.45,4.12,4.12,0,0,0-1.81,1.27A3,3,0,0,0,8,180a2.45,2.45,0,0,0,.71,1.79A5.66,5.66,0,0,0,10.56,183c.78.31,1.91.69,3.41,1.15l.5.16A33.37,33.37,0,0,1,20,186.53a10.22,10.22,0,0,1,3.48,3,7.57,7.57,0,0,1,1.29,4.5,9.15,9.15,0,0,1-1.5,5.23,9.66,9.66,0,0,1-4.17,3.44A14.66,14.66,0,0,1,13,203.9a17.65,17.65,0,0,1-7.18-1.48"/><path d="M52.16,202.26a11.63,11.63,0,0,1-4.65-4.9,15.44,15.44,0,0,1-1.59-7.11v-19h6.21v18.3a11.52,11.52,0,0,0,.84,4.54,6.8,6.8,0,0,0,2.51,3.08,7.77,7.77,0,0,0,8,0A6.81,6.81,0,0,0,66,194.06a11.35,11.35,0,0,0,.86-4.54v-18.3H73v19a15.32,15.32,0,0,1-1.61,7.11,11.67,11.67,0,0,1-4.67,4.9,14.26,14.26,0,0,1-7.3,1.78,14.23,14.23,0,0,1-7.3-1.78"/><path d="M121.59,203.4h-7l-5-10.86c-.67,0-1.18.05-1.53.05h-5.38V203.4H96.42V171.22H109.7a12,12,0,0,1,5.79,1.34,9.56,9.56,0,0,1,3.89,3.75,11.08,11.08,0,0,1,1.39,5.58,10.24,10.24,0,0,1-1.4,5.46,9.79,9.79,0,0,1-3.87,3.59Zm-19-16.29h6.52a5.7,5.7,0,0,0,2.77-.66,4.71,4.71,0,0,0,1.88-1.85,5.29,5.29,0,0,0,.67-2.69,5.16,5.16,0,0,0-.69-2.7,4.62,4.62,0,0,0-1.89-1.75,6,6,0,0,0-2.71-.61h-6.55Z"/><path d="M143.1,203.4V171.22h13a12.49,12.49,0,0,1,5.29,1.05,8,8,0,0,1,3.49,3,8.32,8.32,0,0,1,1.23,4.54,7.24,7.24,0,0,1-.53,2.69,7.5,7.5,0,0,1-1.43,2.3,5.6,5.6,0,0,1-2,1.44,7.07,7.07,0,0,1,2.82,1.63,8.36,8.36,0,0,1,2,2.82,8.57,8.57,0,0,1,.72,3.48,8.93,8.93,0,0,1-1.36,5,8.6,8.6,0,0,1-3.7,3.17,12.18,12.18,0,0,1-5.17,1.08Zm12.5-19.1a4.62,4.62,0,0,0,2.2-.53,4,4,0,0,0,1.54-1.43,3.68,3.68,0,0,0,.57-2,3.88,3.88,0,0,0-.52-2,3.63,3.63,0,0,0-1.47-1.38,4.52,4.52,0,0,0-2.18-.5h-6.48v7.81Zm1.33,13.87a4.61,4.61,0,0,0,2.31-.58,4,4,0,0,0,1.6-1.64,4.79,4.79,0,0,0,.58-2.38,4.36,4.36,0,0,0-.61-2.24,4.45,4.45,0,0,0-1.71-1.65,5.11,5.11,0,0,0-2.54-.62h-7.3v9.11Z"/><polygon points="212.81 203.4 189.5 203.4 189.5 171.22 212.47 171.22 212.47 176.9 195.7 176.9 195.7 184.37 209.1 184.37 209.1 189.72 195.7 189.72 195.7 197.72 212.81 197.72 212.81 203.4"/><polygon points="248.1 203.4 241.9 203.4 241.9 177.01 232.46 177.01 232.46 171.22 257.56 171.22 257.56 177.01 248.1 177.01 248.1 203.4"/><path d="M281.07,202.42a16.44,16.44,0,0,1-5.85-4.29l4-4a12.9,12.9,0,0,0,4.15,3,11.76,11.76,0,0,0,4.79,1,7,7,0,0,0,4.08-1,3.38,3.38,0,0,0,1.5-2.91,3,3,0,0,0-.72-2.06,6,6,0,0,0-2.2-1.46,34.41,34.41,0,0,0-4.11-1.36,26.54,26.54,0,0,1-4.73-1.77,9.78,9.78,0,0,1-3.51-2.93,7.73,7.73,0,0,1-1.44-4.81,8.43,8.43,0,0,1,5-7.87,13.59,13.59,0,0,1,6-1.22,16.73,16.73,0,0,1,6.24,1.14,16,16,0,0,1,5.12,3.21l-3.55,4.26a11.73,11.73,0,0,0-3.46-2.11,10.67,10.67,0,0,0-4.1-.84,7.2,7.2,0,0,0-2.62.45,4.12,4.12,0,0,0-1.81,1.27,3,3,0,0,0-.65,1.92,2.45,2.45,0,0,0,.71,1.79,5.66,5.66,0,0,0,1.88,1.18c.78.31,1.91.69,3.41,1.15l.5.16a32.87,32.87,0,0,1,5.53,2.26,10.17,10.17,0,0,1,3.49,3A7.57,7.57,0,0,1,300,194a9.15,9.15,0,0,1-1.5,5.23,9.66,9.66,0,0,1-4.17,3.44,14.66,14.66,0,0,1-6.08,1.2,17.65,17.65,0,0,1-7.18-1.48"/></svg>