<?xml version="1.0" encoding="utf-8"?>
<!-- Generator: Adobe Illustrator 22.0.0, SVG Export Plug-In . SVG Version: 6.00 Build 0)  -->
<svg version="1.1" id="Capa_1" xmlns="http://www.w3.org/2000/svg" xmlns:xlink="http://www.w3.org/1999/xlink" x="0px" y="0px"
	 viewBox="0 0 300 140" style="enable-background:new 0 0 300 140;" xml:space="preserve">
<style type="text/css">
	.st0{fill:#FFFFFF;}
</style>
<title>logo_kliffor</title>
<path class="st0" d="M42.8,122.3H31.2l9.1-23.2h11.6l-3,7.6h4.5l8.5-7.6h13.1l-8.4,7.7c1,0.4,1.9,1.1,2.6,2c0.6,0.9,0.9,2,0.7,3.1
	c-0.1,0.4-0.2,0.7-0.3,1.1l-3.7,9.3H54.4l2.6-6.6c0.1-0.1,0.1-0.3,0.1-0.4l0.1-0.4c0.1-0.5,0-1-0.2-1.5c-0.2-0.5-0.6-0.8-1.1-0.9
	h-9.3L42.8,122.3z"/>
<path class="st0" d="M78.9,99.1h11.6l-5.6,14.5c-0.1,0.1-0.1,0.3-0.1,0.4c0,0.1,0,0.2,0,0.3c-0.1,0.5,0,1.1,0.4,1.6
	c0.4,0.4,1,0.7,1.6,0.6h16.6l-2.3,5.8H78.5c-0.9,0-1.8-0.2-2.7-0.5c-0.8-0.3-1.5-0.8-2-1.4c-0.5-0.6-0.9-1.3-1.1-2.1
	c-0.2-0.9-0.3-1.7-0.1-2.6c0.1-0.3,0.1-0.7,0.2-1c0.1-0.4,0.2-0.7,0.4-1.1L78.9,99.1z"/>
<polygon class="st0" points="113.8,99.1 125.4,99.1 116.3,122.3 104.7,122.3 "/>
<path class="st0" d="M120.1,122.3l5.7-14.5c0.5-1.2,1.2-2.4,2-3.3c0.9-1,1.8-2,2.9-2.8c1.1-0.8,2.3-1.4,3.5-1.9
	c1.2-0.4,2.4-0.7,3.6-0.7h22.4l-2.3,5.8h-16.6c-0.8,0-1.7,0.3-2.3,0.8c-0.7,0.5-1.3,1.2-1.6,2l-0.6,1.7h15.8l-2.3,5.8h-15.8
	l-2.8,7.1H120.1z"/>
<path class="st0" d="M154.6,122.3l5.7-14.5c0.5-1.2,1.2-2.4,2-3.3c0.9-1,1.8-2,2.9-2.8c1.1-0.8,2.3-1.4,3.5-1.9
	c1.2-0.4,2.4-0.7,3.6-0.7h22.4l-2.3,5.8h-16.6c-0.8,0-1.7,0.3-2.3,0.8c-0.7,0.5-1.3,1.2-1.6,2l-0.6,1.7h15.8l-2.3,5.8H169l-2.8,7.1
	H154.6z"/>
<path class="st0" d="M224.2,99.1c0.9,0,1.9,0.2,2.8,0.5c0.8,0.3,1.5,0.8,2,1.4c0.5,0.6,0.8,1.4,1,2.1c0.2,0.9,0.2,1.8,0.1,2.7
	c-0.1,0.7-0.3,1.3-0.5,1.9l-2.3,5.8c-0.5,1.2-1.2,2.3-2,3.3c-0.9,1-1.9,2-3,2.8c-1.1,0.8-2.3,1.4-3.5,1.9c-1.2,0.4-2.4,0.7-3.6,0.7
	h-17.4c-0.9,0-1.8-0.2-2.7-0.5c-0.7-0.3-1.4-0.8-1.9-1.4c-0.5-0.6-0.9-1.3-1.1-2.1c-0.2-0.9-0.3-1.7-0.1-2.6c0.1-0.3,0.1-0.7,0.2-1
	c0.1-0.4,0.2-0.7,0.4-1.1l2.3-5.8c0.5-1.2,1.2-2.3,2-3.3c0.9-1,1.9-2,2.9-2.8c1.1-0.8,2.3-1.4,3.5-1.9c1.2-0.4,2.4-0.7,3.6-0.7
	L224.2,99.1z M204.1,113.6c-0.1,0.1-0.1,0.3-0.1,0.4c0,0.1,0,0.2-0.1,0.3c-0.1,0.5,0,1.1,0.4,1.6c0.4,0.4,1,0.7,1.6,0.6h5.9
	c0.4,0,0.8-0.1,1.2-0.2c0.4-0.2,0.8-0.4,1.2-0.6c0.4-0.3,0.7-0.6,1-0.9c0.3-0.3,0.5-0.7,0.7-1.1l2.3-5.8c0.1-0.2,0.1-0.4,0.2-0.6
	c0.1-0.6,0-1.2-0.4-1.6c-0.4-0.4-1-0.7-1.6-0.6h-5.9c-0.9,0-1.7,0.3-2.4,0.8c-0.7,0.5-1.3,1.2-1.6,2L204.1,113.6z"/>
<path class="st0" d="M245.8,115l1-2.4h5.1c0.5,0,0.9-0.1,1.3-0.3c0.4-0.2,0.9-0.5,1.2-0.8c0.4-0.3,0.7-0.6,1-1
	c0.3-0.3,0.5-0.7,0.7-1.1l0.6-1.5c0.1-0.1,0.1-0.3,0.1-0.4c0-0.1,0-0.2,0-0.3c0.1-0.6,0-1.1-0.4-1.6c-0.4-0.4-1-0.7-1.6-0.6h-8.7
	l-6.8,17.4h-11.6l9.1-23.2h26.1c0.9,0,1.9,0.2,2.8,0.5c0.8,0.3,1.5,0.8,2,1.4c0.5,0.6,0.8,1.4,1,2.1c0.2,0.9,0.2,1.8,0.1,2.7
	c-0.1,0.3-0.1,0.7-0.2,1c-0.1,0.3-0.2,0.7-0.3,1l-0.8,1.9c-0.3,0.7-0.7,1.4-1.2,2c-0.5,0.7-1.1,1.4-1.8,2c-1.4,1.3-2.9,2.4-4.6,3.3
	l2.5,5.4h-13.1L245.8,115z"/>
<path class="st0" d="M278.1,77.5c-12.2,0.5-28.9-1.6-28.9-1.6c18.3-1.6,29.2-6.2,34.7-9.2c7.5-15.5,12.9-32,16.1-48.9
	c-42.3,24.5-103,36.7-103,36.7c-4.8,25.8-29.7,27.9-29.7,27.9l-0.3,0.1c-4.8-9.6-4.7-23.9-4.7-23.9c3-1.4,6.4,0.4,6.4,0.4
	s-0.1-4.7-2.3-6.9s-8.7-1.1-8.7-1.1c-2.8-2-6.9-2.4-11.3-1.7s-5.2,4.2-5.2,4.2l-8.9,28.8c-3.1-0.4-24.9-3.9-29.3-27.9
	c0,0-60.7-12.2-103-36.7c3.1,16.9,8.6,33.4,16.1,48.9c5.5,3,16.5,7.6,34.7,9.2c0,0-16.7,2.1-28.9,1.6c2.7,4.6,5.6,9.1,8.9,13.3
	h238.5C272.5,86.6,275.4,82.1,278.1,77.5 M152.2,53.8c-1.1-0.1-3.8-2.2-3.8-2.2c1-0.2,2.1-0.2,3.1-0.2c1.1,0.2,2.1,0.8,2.9,1.6
	C153.8,53.6,153,53.8,152.2,53.8"/>
</svg>
